<svg width="26" height="26" viewBox="0 0 26 26" fill="none" xmlns="http://www.w3.org/2000/svg">
<mask id="mask0_2326_37938" style="mask-type:alpha" maskUnits="userSpaceOnUse" x="0" y="0" width="26" height="26">
<circle cx="13" cy="13" r="13" fill="white"/>
</mask>
<g mask="url(#mask0_2326_37938)">
<mask id="mask1_2326_37938" style="mask-type:alpha" maskUnits="userSpaceOnUse" x="0" y="0" width="26" height="26">
<circle cx="13" cy="13" r="13" fill="white"/>
</mask>
<g mask="url(#mask1_2326_37938)">
</g>
<g clip-path="url(#clip0_2326_37938)">
<path d="M52 0H0V26H52V0Z" fill="#00008B"/>
<mask id="mask2_2326_37938" style="mask-type:luminance" maskUnits="userSpaceOnUse" x="0" y="0" width="26" height="13">
<path d="M0 0H26V13H0V0Z" fill="white"/>
</mask>
<g mask="url(#mask2_2326_37938)">
<path d="M0 0L26 13L0 0ZM26 0L0 13L26 0Z" fill="black"/>
<path d="M0 0L26 13M26 0L0 13" stroke="white" stroke-width="2.6"/>
</g>
<mask id="mask3_2326_37938" style="mask-type:luminance" maskUnits="userSpaceOnUse" x="0" y="0" width="26" height="13">
<path d="M0 0V6.5H26V13L0 0ZM26 0H13V13H0L26 0Z" fill="white"/>
</mask>
<g mask="url(#mask3_2326_37938)">
<path d="M0 0L26 13L0 0ZM26 0L0 13L26 0Z" fill="black"/>
<path d="M0 0L26 13M26 0L0 13" stroke="#FF0000" stroke-width="1.73333"/>
</g>
<path d="M13 0V13V0ZM0 6.5H26H0Z" fill="black"/>
<path d="M13 0V13M0 6.5H26" stroke="white" stroke-width="4.33333"/>
<path d="M13 0V13V0ZM0 6.5H26H0Z" fill="black"/>
<path d="M13 0V13M0 6.5H26" stroke="#FF0000" stroke-width="2.6"/>
<path d="M13.0007 15.6001L13.7528 17.9384L16.0498 17.0685L14.6906 19.1144L16.8029 20.3679L14.3559 20.5808L14.6929 23.0139L13.0007 21.2334L11.3086 23.0139L11.6455 20.5808L9.19849 20.3679L11.3108 19.1144L9.95156 17.0685L12.2486 17.9384L13.0007 15.6001Z" fill="white"/>
</g>
<mask id="mask4_2326_37938" style="mask-type:alpha" maskUnits="userSpaceOnUse" x="0" y="0" width="27" height="26">
<circle cx="13.0002" cy="13" r="13" fill="white"/>
</mask>
<g mask="url(#mask4_2326_37938)">
</g>
<g clip-path="url(#clip1_2326_37938)">
<path d="M-7.79932 0H33.8007V26H-7.79932V0Z" fill="#006AA7"/>
<path d="M-7.79932 10.4H5.20068V0H10.4007V10.4H33.8007V15.6H10.4007V26H5.20068V15.6H-7.79932V10.4Z" fill="#FECC00"/>
</g>
<path d="M32.5 0H-6.5V26H32.5V0Z" fill="#ED2939"/>
<path d="M17.5 0H-8.5V26H17.5V0Z" fill="white"/>
<path d="M8.5 0H-4.5V26H8.5V0Z" fill="#002395"/>
<circle cx="13" cy="13" r="13" fill="white" stroke="white" stroke-width="2.6"/>
<path d="M2.68726 5.08496C1.6661 6.41355 0.896102 7.94486 0.447754 9.6084H7.2107L2.68726 5.08496Z" fill="#0052B4"/>
<path d="M25.5522 9.60835C25.1038 7.94486 24.3338 6.41355 23.3126 5.08496L18.7893 9.60835H25.5522Z" fill="#0052B4"/>
<path d="M0.447754 16.3916C0.896152 18.0551 1.66615 19.5864 2.68726 20.9149L7.21055 16.3916H0.447754Z" fill="#0052B4"/>
<path d="M20.9145 2.68829C19.5859 1.66712 18.0547 0.897129 16.3911 0.44873V7.21163L20.9145 2.68829Z" fill="#0052B4"/>
<path d="M5.08545 23.3124C6.41404 24.3335 7.94535 25.1035 9.60884 25.5519V18.7891L5.08545 23.3124Z" fill="#0052B4"/>
<path d="M9.60879 0.44873C7.9453 0.897129 6.41399 1.66712 5.08545 2.68823L9.60879 7.21157V0.44873Z" fill="#0052B4"/>
<path d="M16.3911 25.5519C18.0546 25.1035 19.5859 24.3335 20.9145 23.3124L16.3911 18.7891V25.5519Z" fill="#0052B4"/>
<path d="M18.7893 16.3916L23.3126 20.915C24.3338 19.5865 25.1038 18.0551 25.5522 16.3916H18.7893Z" fill="#0052B4"/>
<path d="M25.89 11.3044H14.6957H14.6957V0.110043C14.1406 0.0377812 13.5747 0 13 0C12.4252 0 11.8594 0.0377812 11.3044 0.110043V11.3043V11.3043H0.110043C0.0377813 11.8594 0 12.4253 0 13C0 13.5748 0.0377813 14.1406 0.110043 14.6956H11.3043H11.3043V25.89C11.8594 25.9622 12.4252 26 13 26C13.5747 26 14.1406 25.9623 14.6956 25.89V14.6957V14.6957H25.89C25.9622 14.1406 26 13.5748 26 13C26 12.4253 25.9622 11.8594 25.89 11.3044Z" fill="#D80027"/>
<path d="M16.3914 16.3912L22.1924 22.1922C22.4592 21.9255 22.7137 21.6467 22.9566 21.3576L17.9901 16.3911H16.3914V16.3912Z" fill="#D80027"/>
<path d="M9.60872 16.3911H9.60861L3.80762 22.1921C4.07432 22.4589 4.35316 22.7134 4.64221 22.9563L9.60872 17.9897V16.3911Z" fill="#D80027"/>
<path d="M9.60866 9.60882V9.60871L3.80761 3.80762C3.54081 4.07432 3.28629 4.35316 3.04346 4.64221L8.01002 9.60877H9.60866V9.60882Z" fill="#D80027"/>
<path d="M16.3914 9.60871L22.1925 3.80756C21.9258 3.54076 21.6469 3.28624 21.3579 3.04346L16.3914 8.01002V9.60871H16.3914Z" fill="#D80027"/>
<path d="M-4.5 0H34.5V26H-4.5V0Z" fill="white"/>
<path d="M15 0H34.5V26H15V0Z" fill="#CF142B"/>
<path d="M3.4118 5.50488H5.33773V7.33432C5.41082 7.32914 5.48627 7.34115 5.55822 7.36944C5.63017 7.39773 5.69668 7.44153 5.75258 7.49743C5.80849 7.55334 5.85229 7.61985 5.88058 7.6918C5.90887 7.76375 5.92088 7.8392 5.91569 7.91229H7.74513V9.83822H5.91569C5.92088 9.91131 5.90887 9.98676 5.88058 10.0587C5.85229 10.1307 5.80849 10.1972 5.75258 10.2531C5.69668 10.309 5.63017 10.3528 5.55822 10.3811C5.48627 10.4094 5.41082 10.4214 5.33773 10.4162V12.2456H3.4118V10.4162C3.33871 10.4214 3.26326 10.4094 3.19131 10.3811C3.11936 10.3528 3.05285 10.309 2.99695 10.2531C2.94104 10.1972 2.89724 10.1307 2.86895 10.0587C2.84066 9.98676 2.82865 9.91131 2.83384 9.83822H1.00439V7.91229H2.83384C2.82865 7.8392 2.84066 7.76375 2.86895 7.6918C2.89724 7.61985 2.94104 7.55334 2.99695 7.49743C3.05285 7.44153 3.11936 7.39773 3.19131 7.36944C3.26326 7.34115 3.33871 7.32914 3.4118 7.33432V5.50488Z" stroke="#CF142B" stroke-width="0.240741"/>
<path d="M5.32655 7.33512C5.40117 7.32799 5.47868 7.33896 5.55274 7.36714C5.6268 7.39533 5.69532 7.43993 5.75269 7.49729C5.81006 7.55466 5.85465 7.62318 5.88284 7.69724C5.91102 7.7713 5.92199 7.84881 5.91486 7.92343V9.82679C5.92199 9.90142 5.91102 9.97893 5.88284 10.053C5.85465 10.127 5.81006 10.1956 5.75269 10.2529C5.69532 10.3103 5.6268 10.3549 5.55274 10.3831C5.47868 10.4113 5.40117 10.4222 5.32655 10.4151H3.42319C3.34856 10.4222 3.27105 10.4113 3.19699 10.3831C3.12293 10.3549 3.05442 10.3103 2.99705 10.2529C2.93968 10.1956 2.89508 10.127 2.8669 10.053C2.83871 9.97893 2.82774 9.90142 2.83488 9.82679V7.92343C2.82774 7.84881 2.83871 7.7713 2.8669 7.69724C2.89508 7.62318 2.93968 7.55466 2.99705 7.49729C3.05442 7.43993 3.12293 7.39533 3.19699 7.36714C3.27105 7.33896 3.34856 7.32799 3.42319 7.33512H5.32655Z" fill="white"/>
<path d="M3.42303 5.51611H5.32639V12.2343H3.42303V5.51611ZM1.01562 7.92352H7.7338V9.82688H1.01562V7.92352Z" fill="white" stroke="black" stroke-width="0.0225694"/>
<path d="M3.53216 5.625H5.21735V12.125H3.53216V5.625ZM1.12476 8.03241H7.62476V9.71759H1.12476V8.03241Z" fill="white" stroke="black" stroke-width="0.0451389"/>
<path d="M4.37475 10.3799C5.20573 10.3799 5.87938 9.70622 5.87938 8.87524C5.87938 8.04425 5.20573 7.37061 4.37475 7.37061C3.54376 7.37061 2.87012 8.04425 2.87012 8.87524C2.87012 9.70622 3.54376 10.3799 4.37475 10.3799Z" fill="white" stroke="black" stroke-width="0.0451389"/>
<path d="M4.3749 9.98857C4.98983 9.98857 5.48833 9.49007 5.48833 8.87514C5.48833 8.26022 4.98983 7.76172 4.3749 7.76172C3.75997 7.76172 3.26147 8.26022 3.26147 8.87514C3.26147 9.49007 3.75997 9.98857 4.3749 9.98857Z" fill="white" stroke="black" stroke-width="0.0451389"/>
<path d="M5.8248 7.66914C5.77261 7.70911 5.67339 7.81114 5.61321 7.8859L5.55726 7.85111C5.6339 7.78481 5.74016 7.68654 5.79894 7.61648L5.8248 7.66914ZM5.77731 7.58216C5.6828 7.6099 5.50224 7.66303 5.42513 7.71193L5.4082 7.68748C5.44065 7.64093 5.47732 7.44956 5.47591 7.39502L5.53469 7.40819C5.51541 7.4552 5.4966 7.55583 5.49143 7.62118C5.55208 7.61037 5.69596 7.56335 5.73687 7.53373L5.77731 7.58216Z" fill="white" stroke="black" stroke-width="0.0225694" stroke-linejoin="round"/>
<path d="M5.89858 7.79739H5.82401C5.83067 7.75801 5.81997 7.70869 5.79364 7.65742C5.76731 7.60615 5.72689 7.55593 5.67893 7.5149C5.63096 7.47387 5.57827 7.44443 5.52938 7.43136C5.4805 7.41829 5.43829 7.42234 5.40958 7.44287C5.38088 7.4634 5.36738 7.4992 5.37125 7.54446C5.37512 7.58973 5.39615 7.64181 5.43093 7.69227C5.46571 7.74273 5.51219 7.78861 5.56286 7.82248C5.61352 7.85635 5.6654 7.87622 5.71008 7.87888L5.76279 7.81601L5.82772 7.88094L5.75507 7.95354C5.68732 7.94347 5.62065 7.91913 5.55957 7.88218C5.49848 7.84522 5.4444 7.7965 5.40098 7.73931C5.35757 7.68213 5.32582 7.6178 5.30789 7.55069C5.28996 7.48357 5.28627 7.41523 5.29706 7.35028C5.36113 7.33964 5.42851 7.34308 5.49476 7.3604C5.56102 7.37771 5.62465 7.4085 5.68147 7.45073C5.73829 7.49297 5.78701 7.54569 5.82443 7.60544C5.86185 7.66519 5.88712 7.73061 5.89858 7.79739Z" fill="white" stroke="black" stroke-width="0.0225694" stroke-linejoin="round"/>
<path d="M5.58061 10.3253C5.54064 10.2731 5.43861 10.1739 5.36385 10.1137L5.39865 10.0577C5.46494 10.1344 5.56321 10.2407 5.63327 10.2994L5.58061 10.3253ZM5.6676 10.2778C5.63986 10.1833 5.58672 10.0027 5.53782 9.92562L5.56227 9.90869C5.60882 9.94113 5.80019 9.97781 5.85474 9.9764L5.84157 10.0352C5.79455 10.0159 5.69393 9.99709 5.62857 9.99192C5.63939 10.0526 5.68641 10.1965 5.71603 10.2374L5.6676 10.2778Z" fill="white" stroke="black" stroke-width="0.0225694" stroke-linejoin="round"/>
<path d="M5.45237 10.3991V10.3245C5.49174 10.3312 5.54106 10.3205 5.59233 10.2941C5.64361 10.2678 5.69383 10.2274 5.73486 10.1794C5.77589 10.1315 5.80532 10.0788 5.81839 10.0299C5.83147 9.98099 5.82741 9.93877 5.80688 9.91007C5.78636 9.88137 5.75056 9.86786 5.70529 9.87174C5.66003 9.87561 5.60794 9.89664 5.55748 9.93142C5.50702 9.9662 5.46114 10.0127 5.42727 10.0633C5.3934 10.114 5.37353 10.1659 5.37088 10.2106L5.43375 10.2633L5.36881 10.3282L5.29621 10.2556C5.30629 10.1878 5.33062 10.1211 5.36758 10.0601C5.40454 9.99897 5.45326 9.94489 5.51044 9.90147C5.56763 9.85805 5.63195 9.82631 5.69907 9.80838C5.76618 9.79045 5.83452 9.78676 5.89948 9.79754C5.91012 9.86162 5.90667 9.929 5.88936 9.99525C5.87204 10.0615 5.84126 10.1251 5.79902 10.182C5.75679 10.2388 5.70406 10.2875 5.64431 10.3249C5.58457 10.3623 5.51915 10.3876 5.45237 10.3991Z" fill="white" stroke="black" stroke-width="0.0225694" stroke-linejoin="round"/>
<path d="M2.92471 10.0809C2.97691 10.0409 3.07612 9.93886 3.1363 9.8641L3.19226 9.89889C3.11561 9.96519 3.00935 10.0635 2.95058 10.1335L2.92471 10.0809ZM2.9722 10.1678C3.06671 10.1401 3.24727 10.087 3.32438 10.0381L3.34131 10.0625C3.30887 10.1091 3.27219 10.3004 3.2736 10.355L3.21483 10.3418C3.2341 10.2948 3.25291 10.1942 3.25808 10.1288C3.19743 10.1396 3.05355 10.1867 3.01264 10.2163L2.9722 10.1678Z" fill="white" stroke="black" stroke-width="0.0225694" stroke-linejoin="round"/>
<path d="M2.85093 9.95261H2.92551C2.91884 9.99199 2.92954 10.0413 2.95587 10.0926C2.9822 10.1439 3.02262 10.1941 3.07059 10.2351C3.11855 10.2761 3.17124 10.3056 3.22013 10.3186C3.26901 10.3317 3.31123 10.3277 3.33993 10.3071C3.36863 10.2866 3.38214 10.2508 3.37826 10.2055C3.37439 10.1603 3.35336 10.1082 3.31858 10.0577C3.2838 10.0073 3.23732 9.96139 3.18665 9.92752C3.13599 9.89365 3.08411 9.87378 3.03943 9.87112L2.98673 9.93399L2.92179 9.86906L2.99444 9.79646C3.06219 9.80653 3.12886 9.83087 3.18994 9.86782C3.25103 9.90478 3.30511 9.9535 3.34853 10.0107C3.39195 10.0679 3.42369 10.1322 3.44162 10.1993C3.45955 10.2664 3.46324 10.3348 3.45246 10.3997C3.38838 10.4104 3.321 10.4069 3.25475 10.3896C3.18849 10.3723 3.12486 10.3415 3.06804 10.2993C3.01122 10.257 2.9625 10.2043 2.92508 10.1446C2.88766 10.0848 2.86239 10.0194 2.85093 9.95261Z" fill="white" stroke="black" stroke-width="0.0225694" stroke-linejoin="round"/>
<path d="M3.16866 7.42471C3.20862 7.47691 3.31066 7.57612 3.38542 7.6363L3.35062 7.69226C3.28432 7.61561 3.18605 7.50935 3.11599 7.45058L3.16866 7.42471ZM3.08167 7.4722C3.10941 7.56671 3.16254 7.74727 3.21144 7.82438L3.18699 7.84131C3.14044 7.80887 2.94907 7.77219 2.89453 7.7736L2.9077 7.71483C2.95472 7.7341 3.05534 7.75291 3.1207 7.75808C3.10988 7.69743 3.06286 7.55355 3.03324 7.51264L3.08167 7.4722Z" fill="white" stroke="black" stroke-width="0.0225694" stroke-linejoin="round"/>
<path d="M3.29715 7.35093V7.42551C3.25777 7.41884 3.20845 7.42954 3.15718 7.45587C3.1059 7.4822 3.05569 7.52262 3.01466 7.57059C2.97363 7.61855 2.94419 7.67124 2.93112 7.72013C2.91804 7.76901 2.9221 7.81123 2.94263 7.83993C2.96316 7.86863 2.99895 7.88214 3.04422 7.87826C3.08949 7.87439 3.14157 7.85336 3.19203 7.81858C3.24249 7.7838 3.28837 7.73732 3.32224 7.68665C3.35611 7.63599 3.37598 7.58411 3.37863 7.53943L3.31577 7.48673L3.3807 7.42179L3.4533 7.49444C3.44323 7.56219 3.41889 7.62886 3.38193 7.68994C3.34497 7.75103 3.29626 7.80511 3.23907 7.84853C3.18188 7.89195 3.11756 7.92369 3.05044 7.94162C2.98333 7.95955 2.91499 7.96324 2.85004 7.95246C2.83939 7.88838 2.84284 7.821 2.86015 7.75475C2.87747 7.68849 2.90825 7.62486 2.95049 7.56804C2.99272 7.51122 3.04545 7.4625 3.1052 7.42508C3.16495 7.38766 3.23036 7.36239 3.29715 7.35093Z" fill="white" stroke="black" stroke-width="0.0225694" stroke-linejoin="round"/>
<path d="M3.18028 9.71656C3.14642 9.65732 3.10175 9.58162 3.0773 9.56187C3.09235 9.55152 3.11257 9.53648 3.12291 9.53365C3.12244 9.57127 3.17933 9.64932 3.17933 9.64932L3.26303 9.59431C3.23952 9.55811 3.21883 9.53036 3.2019 9.51955C3.22259 9.5045 3.24469 9.49181 3.2508 9.4904C3.25127 9.50873 3.26209 9.5393 3.29406 9.57691C3.29406 9.57691 3.37212 9.53554 3.39751 9.50356L3.43042 9.55716C3.39374 9.56422 3.22918 9.66672 3.18028 9.71656ZM3.06414 9.00327C2.97621 9.01926 2.93154 9.09402 2.94659 9.17819C2.96163 9.26329 3.03781 9.3216 3.1215 9.30749C3.2052 9.29291 3.25269 9.2158 3.2367 9.12646C3.22071 9.03713 3.15206 8.98729 3.06414 9.00327ZM3.07683 9.05405C3.14736 9.04136 3.20661 9.07568 3.21648 9.13023C3.22635 9.18477 3.18263 9.23884 3.11163 9.25154C3.04063 9.26423 2.9842 9.21909 2.97621 9.17348C2.96775 9.12693 3.00583 9.06675 3.07683 9.05405ZM3.24892 8.53684C3.21977 8.58292 3.15535 8.62523 3.09846 8.66426C3.09047 8.62382 3.06038 8.59796 3.02558 8.59561C2.98843 8.59373 2.95035 8.62335 2.94377 8.6431C2.93436 8.67037 2.92261 8.78745 2.92261 8.78745C2.99596 8.78181 3.1563 8.79451 3.21131 8.81472L3.21789 8.75266C3.18169 8.76206 3.09987 8.74514 3.09987 8.74514L3.10175 8.71786L3.18639 8.6511C3.1972 8.64263 3.26068 8.58339 3.26256 8.54107C3.26303 8.5279 3.25175 8.5312 3.24892 8.53684ZM3.07918 8.74419C3.0458 8.74514 2.97621 8.74137 2.95693 8.73291C2.96445 8.66567 2.98514 8.64169 3.02088 8.64498C3.05379 8.64827 3.08859 8.66708 3.07918 8.74419ZM3.39986 7.91101C3.33591 7.91618 3.25598 7.97636 3.25786 8.02809C3.25833 8.05536 3.26773 8.09297 3.30394 8.12024C3.33967 8.14752 3.37682 8.15551 3.40644 8.14987C3.43512 8.14469 3.48261 8.10473 3.48214 8.08263C3.48214 8.061 3.43136 8.00081 3.39939 8.00081L3.45252 7.94392C3.46615 7.97683 3.5207 8.02479 3.54092 8.03091C3.51788 8.08592 3.48919 8.14328 3.42901 8.17102C3.36882 8.19924 3.30629 8.19783 3.24939 8.14422C3.19579 8.09344 3.21648 7.99564 3.25033 7.95756C3.28748 7.91571 3.3566 7.89784 3.35801 7.8654L3.39986 7.91101ZM3.69984 7.59456L3.71113 7.80803C3.71113 7.80803 3.71536 7.88373 3.69796 7.93075L3.76426 7.8842C3.7384 7.86352 3.74357 7.80004 3.74357 7.80004L3.85078 7.74268C3.85078 7.74268 3.90156 7.77512 3.89638 7.81462L3.9876 7.77747C3.93447 7.75725 3.86864 7.7107 3.86864 7.7107L3.69984 7.59456ZM3.73417 7.66086L3.83197 7.72575L3.73652 7.777L3.73417 7.66086ZM4.21283 7.43799C4.2006 7.49018 4.21377 7.59315 4.23305 7.67873C4.29934 7.67262 4.35012 7.66603 4.37269 7.63782L4.37881 7.70835C4.31345 7.70835 4.24151 7.71587 4.17568 7.72622C4.17662 7.62983 4.16675 7.50335 4.13948 7.4488L4.21283 7.43799ZM4.71077 7.46949C4.6802 7.51369 4.65481 7.61431 4.64165 7.70083C4.70559 7.71964 4.75543 7.73186 4.78694 7.71352L4.76672 7.7817C4.70606 7.75819 4.636 7.73844 4.57112 7.72387C4.60685 7.635 4.644 7.51322 4.63883 7.45303L4.71077 7.46949ZM5.21435 7.69754L5.02815 7.80333C5.02815 7.80333 4.96232 7.84142 4.91248 7.84706L4.98348 7.88468C4.99053 7.8527 5.04978 7.82872 5.04978 7.82872L5.14946 7.89878C5.14946 7.89878 5.14288 7.95944 5.10526 7.97213L5.17908 8.03702C5.17391 7.9806 5.18566 7.90019 5.18566 7.90019L5.21435 7.69754ZM5.17015 7.75772L5.15557 7.8748L5.0667 7.81226L5.17015 7.75772ZM5.31309 8.19595L5.28394 8.14093C5.3319 8.13717 5.47625 8.05254 5.54254 8.00928L5.55289 8.02809L5.49082 8.31161C5.54631 8.28951 5.63423 8.24344 5.65821 8.21804L5.69113 8.28058C5.62953 8.27165 5.51527 8.32807 5.42876 8.38073L5.42029 8.36569L5.47342 8.08968C5.47342 8.08968 5.33001 8.15457 5.31309 8.19595ZM5.75037 8.60596C5.74473 8.56411 5.74379 8.53543 5.72357 8.52602L5.72122 8.50863L5.77247 8.50016C5.79363 8.55518 5.81761 8.70846 5.81432 8.74796L5.76166 8.75642L5.7593 8.74184C5.7767 8.7221 5.7593 8.64969 5.7593 8.64969C5.68125 8.65768 5.54536 8.67978 5.52609 8.70658L5.51386 8.63417C5.5416 8.64357 5.67843 8.629 5.75037 8.60596ZM5.49787 9.2285C5.52703 9.18242 5.59238 9.14057 5.64928 9.10201C5.65727 9.14245 5.68689 9.16878 5.72216 9.17066C5.7593 9.17301 5.79739 9.14433 5.80397 9.12411C5.81385 9.09684 5.82607 8.98023 5.82607 8.98023C5.75272 8.98494 5.59285 8.9713 5.53784 8.95061L5.53079 9.01268C5.56699 9.00374 5.64881 9.02067 5.64881 9.02067L5.64693 9.04794L5.56182 9.11424C5.55054 9.1227 5.48659 9.18148 5.48424 9.2238C5.48377 9.23696 5.49505 9.2332 5.49787 9.2285ZM5.6695 9.02208C5.70288 9.02161 5.77247 9.02584 5.79175 9.03431C5.78375 9.10154 5.7626 9.12552 5.72686 9.12176C5.69395 9.118 5.65962 9.09919 5.6695 9.02208ZM5.40337 9.41517L5.35964 9.4904C5.39349 9.48522 5.44051 9.51203 5.4786 9.53695C5.49129 9.5708 5.54113 9.65732 5.53737 9.74195L5.5938 9.64509C5.56887 9.63381 5.53972 9.62158 5.52091 9.53083C5.59521 9.50309 5.65069 9.49416 5.6742 9.50732L5.72404 9.42269C5.66621 9.45748 5.53032 9.49322 5.50775 9.48569C5.48424 9.47206 5.41747 9.45137 5.40337 9.41517Z" fill="black"/>
<path d="M5.06854 10.0438C5.101 10.0438 5.12731 10.0175 5.12731 9.98504C5.12731 9.95258 5.101 9.92627 5.06854 9.92627C5.03608 9.92627 5.00977 9.95258 5.00977 9.98504C5.00977 10.0175 5.03608 10.0438 5.06854 10.0438Z" fill="black"/>
<path d="M3.68158 10.0438C3.71404 10.0438 3.74035 10.0175 3.74035 9.98504C3.74035 9.95258 3.71404 9.92627 3.68158 9.92627C3.64912 9.92627 3.6228 9.95258 3.6228 9.98504C3.6228 10.0175 3.64912 10.0438 3.68158 10.0438Z" fill="black"/>
<path d="M4.46674 10.31C4.46063 10.3142 4.44417 10.3057 4.44041 10.2926C4.44041 10.2968 4.43947 10.31 4.43147 10.3175C4.4122 10.3358 4.39151 10.3269 4.37505 10.3269C4.35859 10.3269 4.33791 10.3358 4.31863 10.3175C4.31063 10.31 4.30969 10.2968 4.30969 10.2926C4.30593 10.3057 4.28947 10.3142 4.28336 10.31C4.27772 10.3057 4.28054 10.2874 4.29183 10.2799C4.28806 10.2808 4.2749 10.2841 4.26549 10.2789C4.24199 10.2662 4.24434 10.2437 4.23916 10.2282C4.23399 10.2126 4.21895 10.1957 4.2307 10.1717C4.2354 10.1619 4.24763 10.1567 4.25139 10.1553C4.23775 10.1557 4.22506 10.1426 4.22694 10.136C4.22929 10.1289 4.24763 10.1261 4.25844 10.1346C4.25562 10.1313 4.24904 10.12 4.25092 10.1092C4.25562 10.0829 4.27772 10.0782 4.29089 10.0683C4.30452 10.0584 4.31581 10.0391 4.34214 10.0429C4.35295 10.0443 4.36142 10.0542 4.36424 10.0575C4.35953 10.0448 4.368 10.0283 4.37505 10.0283C4.3821 10.0283 4.39057 10.0448 4.38587 10.0575C4.38869 10.0542 4.39715 10.0443 4.40796 10.0429C4.4343 10.0391 4.44558 10.0584 4.45922 10.0683C4.47238 10.0782 4.49448 10.0829 4.49918 10.1092C4.50106 10.12 4.49448 10.1313 4.49166 10.1346C4.50247 10.1261 4.52081 10.1289 4.52316 10.136C4.52504 10.1426 4.51235 10.1557 4.49871 10.1553C4.50247 10.1567 4.5147 10.1619 4.5194 10.1717C4.53116 10.1957 4.51611 10.2126 4.51094 10.2282C4.50577 10.2437 4.50812 10.2662 4.48461 10.2789C4.4752 10.2841 4.46204 10.2808 4.45828 10.2799C4.46956 10.2874 4.47238 10.3057 4.46674 10.31ZM4.33132 10.2441C4.33885 10.2498 4.31863 10.2667 4.32662 10.2879C4.33555 10.3128 4.36047 10.3053 4.37505 10.3053C4.38963 10.3053 4.41455 10.3128 4.42348 10.2879C4.43147 10.2667 4.41126 10.2498 4.41878 10.2441C4.4263 10.2385 4.43665 10.2629 4.45875 10.2625C4.48555 10.2611 4.48602 10.2357 4.49025 10.2216C4.49495 10.2075 4.51 10.1863 4.48884 10.1698C4.47144 10.1557 4.4484 10.1698 4.44558 10.1609C4.44276 10.152 4.46909 10.1501 4.47567 10.1285C4.48273 10.1026 4.45828 10.0946 4.44652 10.0857C4.4343 10.0772 4.41878 10.0565 4.39668 10.0711C4.37834 10.0838 4.38445 10.1097 4.37505 10.1097C4.36565 10.1097 4.37176 10.0838 4.35342 10.0711C4.33132 10.0565 4.31581 10.0772 4.30358 10.0857C4.29183 10.0946 4.26738 10.1026 4.27443 10.1285C4.28101 10.1501 4.30734 10.152 4.30452 10.1609C4.3017 10.1698 4.27866 10.1557 4.26126 10.1698C4.2401 10.1863 4.25515 10.2075 4.25985 10.2216C4.26408 10.2357 4.26455 10.2611 4.29136 10.2625C4.31346 10.2629 4.3238 10.2385 4.33132 10.2441Z" fill="black"/>
<path d="M4.37505 10.2772C4.37082 10.2772 4.36564 10.2674 4.36846 10.2594C4.36705 10.2617 4.36188 10.2674 4.3553 10.2683C4.33931 10.2707 4.33273 10.2589 4.32474 10.2533C4.31674 10.2471 4.30358 10.2443 4.30076 10.2288C4.29935 10.2222 4.30358 10.2152 4.30499 10.2133C4.29841 10.2185 4.28759 10.2166 4.28618 10.2123C4.28477 10.2086 4.29276 10.2006 4.30076 10.2006C4.29841 10.2001 4.29135 10.1968 4.28853 10.1912C4.28148 10.1766 4.29041 10.1667 4.2937 10.1573C4.29652 10.1479 4.29511 10.1343 4.30922 10.1268C4.31486 10.1235 4.32286 10.1254 4.32521 10.1263C4.31815 10.1216 4.31674 10.1108 4.32003 10.108C4.3238 10.1056 4.33367 10.1108 4.33602 10.1183C4.33602 10.116 4.33649 10.108 4.34119 10.1037C4.35295 10.0924 4.36517 10.0981 4.37505 10.0981C4.38492 10.0981 4.39715 10.0924 4.4089 10.1037C4.4136 10.108 4.41407 10.116 4.41407 10.1183C4.41642 10.1108 4.4263 10.1056 4.43006 10.108C4.43335 10.1108 4.43194 10.1216 4.42489 10.1263C4.42724 10.1254 4.43523 10.1235 4.44087 10.1268C4.45498 10.1343 4.45357 10.1479 4.45639 10.1573C4.45968 10.1667 4.46862 10.1766 4.46156 10.1912C4.45874 10.1968 4.45169 10.2001 4.44934 10.2006C4.45733 10.2006 4.46532 10.2086 4.46391 10.2123C4.4625 10.2166 4.45169 10.2185 4.44511 10.2133C4.44652 10.2152 4.45075 10.2222 4.44934 10.2288C4.44652 10.2443 4.43335 10.2471 4.42536 10.2533C4.41736 10.2589 4.41078 10.2707 4.3948 10.2683C4.38821 10.2674 4.38304 10.2617 4.38163 10.2594C4.38445 10.2674 4.37928 10.2772 4.37505 10.2772ZM4.37505 10.2236C4.38022 10.2236 4.37693 10.2377 4.3868 10.2443C4.39856 10.2523 4.40702 10.2415 4.4136 10.2368C4.42019 10.2321 4.43335 10.2274 4.42912 10.2138C4.42583 10.202 4.41172 10.2011 4.41313 10.1959C4.41454 10.1912 4.42677 10.1987 4.43664 10.1912C4.44793 10.1823 4.43993 10.171 4.43758 10.1634C4.43476 10.1559 4.43476 10.1418 4.42019 10.1413C4.40796 10.1409 4.40279 10.154 4.39856 10.1512C4.39433 10.1484 4.40561 10.139 4.40138 10.1277C4.39621 10.1141 4.38304 10.1183 4.37505 10.1183C4.36705 10.1183 4.35389 10.1141 4.34872 10.1277C4.34448 10.139 4.35577 10.1484 4.35154 10.1512C4.34731 10.154 4.34213 10.1409 4.32991 10.1413C4.31533 10.1418 4.31533 10.1559 4.31251 10.1634C4.31016 10.171 4.30217 10.1823 4.31345 10.1912C4.32333 10.1987 4.33555 10.1912 4.33696 10.1959C4.33837 10.2011 4.32427 10.202 4.32097 10.2138C4.31674 10.2274 4.32991 10.2321 4.33649 10.2368C4.34307 10.2415 4.35154 10.2523 4.36329 10.2443C4.37317 10.2377 4.36988 10.2236 4.37505 10.2236Z" fill="black"/>
<path d="M4.37511 10.2063C4.38757 10.2063 4.39768 10.1962 4.39768 10.1837C4.39768 10.1712 4.38757 10.1611 4.37511 10.1611C4.36264 10.1611 4.35254 10.1712 4.35254 10.1837C4.35254 10.1962 4.36264 10.2063 4.37511 10.2063Z" fill="black"/>
<path d="M3.60864 9.68213C4.11938 9.6613 4.63075 9.6613 5.14148 9.68213" stroke="black" stroke-width="0.0225694" stroke-linecap="round" stroke-linejoin="round"/>
<path d="M4.31787 8.32178C4.35267 8.36033 4.35643 8.37021 4.35643 8.37021M4.42084 8.98287C4.41849 9.02284 4.42037 9.06422 4.42696 9.08538M4.32445 8.98946C4.3395 9.00591 4.35972 9.06281 4.3569 9.08397" stroke="black" stroke-width="0.0112847" stroke-linecap="round" stroke-linejoin="round"/>
<path d="M4.64159 9.67622C4.62325 9.68186 4.59128 9.7002 4.59175 9.71665C4.59222 9.73264 4.62983 9.73499 4.64112 9.73828C4.6209 9.74674 4.55648 9.75897 4.5278 9.74439C4.50711 9.75662 4.35947 9.72276 4.32938 9.72182C4.31057 9.72135 4.28377 9.70537 4.28706 9.66916C4.28753 9.66117 4.2927 9.64283 4.31057 9.63672C4.30022 9.61885 4.34583 9.58876 4.39097 9.56149C4.32326 9.57042 4.23816 9.54409 4.21653 9.51823C4.16481 9.50036 4.14224 9.51776 4.12061 9.5629C4.12249 9.64048 4.07923 9.67716 4.02751 9.67104C3.99225 9.66681 3.98472 9.68327 3.97532 9.68703L4.08064 9.71947C4.14929 9.78577 4.10885 9.8342 4.09381 9.84643C4.07923 9.85818 4.04021 9.85254 4.01717 9.85254C3.99413 9.85254 3.99366 9.85959 3.98378 9.86476C3.96733 9.87323 3.95087 9.87793 3.94382 9.87041C3.94805 9.85959 3.95463 9.81727 3.98284 9.81069C3.99977 9.80928 4.03033 9.80129 4.03127 9.7853C4.03174 9.76978 3.97485 9.77214 3.93018 9.75521C3.89256 9.7411 3.87987 9.72182 3.8935 9.66305C3.90432 9.59769 3.98096 9.59017 4.01811 9.5897C4.01293 9.56196 4.01623 9.514 4.05102 9.48249C4.1018 9.43594 4.18032 9.45287 4.24709 9.4571C4.28518 9.43594 4.35571 9.40444 4.42483 9.40162C4.48689 9.39927 4.76196 9.32827 4.88703 9.34191C4.85882 9.30006 4.8654 9.20132 4.91665 9.17216C4.98201 9.13549 5.05254 9.2347 5.06947 9.2173C5.08639 9.19944 5.04831 9.17357 5.00035 9.12373C4.98859 9.10163 4.99094 9.10446 4.99047 9.0974C4.98953 9.08142 4.99329 9.06214 4.99941 9.05791C5.00505 9.05414 5.04408 9.06872 5.05348 9.08283C5.06618 9.10211 5.08216 9.11104 5.09486 9.10069C5.11131 9.088 5.09016 9.0927 5.08075 9.06496C5.07605 9.05132 5.06523 9.04051 5.0657 9.02687C5.07511 9.01606 5.11178 8.98597 5.14047 8.97656C5.15222 8.98785 5.15974 9.00289 5.16915 9.01794C5.19219 9.05273 5.21335 9.04333 5.22886 9.06684C5.23451 9.07624 5.23451 9.10116 5.24579 9.12232C5.26601 9.16135 5.30598 9.20555 5.35864 9.23705C5.36663 9.24222 5.37792 9.2521 5.37886 9.26009C5.38027 9.27232 5.37039 9.28454 5.36569 9.29018C5.35911 9.29865 5.3356 9.29912 5.31303 9.2883C5.2787 9.27185 5.26648 9.26338 5.24626 9.2662C5.20206 9.27279 5.17291 9.34332 5.11037 9.34426C5.05113 9.33579 5.01116 9.25069 4.97637 9.27561C4.94204 9.30053 5.05724 9.37341 5.04314 9.40397C5.05301 9.41149 5.069 9.43689 5.06523 9.45804C5.12401 9.44535 5.17103 9.40538 5.18843 9.37294C5.21852 9.33109 5.2425 9.30758 5.26037 9.30006C5.27776 9.29253 5.30033 9.30335 5.30033 9.31698C5.30692 9.31557 5.31679 9.32357 5.32902 9.32545C5.34688 9.33391 5.33983 9.35131 5.33466 9.35742C5.33419 9.3546 5.32478 9.35131 5.31585 9.34708C5.30645 9.34332 5.29187 9.35507 5.27823 9.36636C5.2646 9.37717 5.25472 9.4035 5.24109 9.42043C5.22745 9.43689 5.19219 9.47074 5.17714 9.48908C5.18561 9.50177 5.18137 9.52528 5.18278 9.53657C5.18608 9.53657 5.19736 9.53939 5.20394 9.54409C5.21006 9.54879 5.20911 9.55396 5.20629 9.56666C5.20206 9.58218 5.14376 9.65177 5.12683 9.65129C5.10097 9.65129 5.08451 9.62073 5.08686 9.60804C5.05865 9.6212 5.04596 9.59017 5.04502 9.57888C5.0342 9.59346 4.99141 9.61697 4.9759 9.62261C4.96085 9.62826 4.95474 9.63014 4.95004 9.60992C4.94533 9.62355 4.90725 9.63766 4.89831 9.63954C4.84894 9.64941 4.79863 9.67104 4.74973 9.67057L4.62983 9.66822L4.64159 9.67622Z" fill="white" stroke="black" stroke-width="0.0169271" stroke-linecap="round" stroke-linejoin="round"/>
<path d="M4.81074 9.22019C4.81121 9.239 4.78394 9.28743 4.8239 9.32175C4.84836 9.34244 4.89114 9.35984 4.90525 9.38664C4.917 9.40921 4.90055 9.42943 4.89537 9.42802C4.86904 9.42237 4.83425 9.46798 4.82155 9.49902C4.80698 9.45529 4.7783 9.4661 4.74162 9.47222C4.75149 9.42661 4.71482 9.39792 4.6584 9.3904C4.6678 9.381 4.65228 9.36642 4.63865 9.3542C4.62454 9.34197 4.58034 9.35184 4.57611 9.34197C4.57188 9.3321 4.59727 9.31329 4.58457 9.29307C4.57235 9.27238 4.51922 9.28461 4.50229 9.27755C4.50605 9.25216 4.50887 9.23806 4.49618 9.21549C4.48301 9.19245 4.4233 9.1995 4.39415 9.19292C4.41813 9.17599 4.42894 9.15107 4.41577 9.1238C4.40214 9.09559 4.33913 9.12897 4.3396 9.09136C4.34148 9.07819 4.41342 9.06738 4.44258 9.0655C4.46938 9.06408 4.56342 9.08571 4.65087 9.10687C4.67156 9.12427 4.80886 9.16659 4.81074 9.22019Z" fill="white" stroke="black" stroke-width="0.0103443" stroke-linecap="round" stroke-linejoin="round"/>
<path d="M5.04508 9.57827C5.0888 9.55664 5.13159 9.52843 5.1772 9.48846M4.35718 9.45508C4.39667 9.45696 4.48178 9.46965 4.50623 9.5021C4.53068 9.53501 4.5462 9.5872 4.37646 9.6314C4.42724 9.63187 4.50341 9.61918 4.53021 9.62576C4.55419 9.62153 4.60873 9.60366 4.63177 9.61118C4.62284 9.61542 4.59416 9.62341 4.59322 9.64034C4.59228 9.65726 4.60544 9.66008 4.62989 9.66761M4.79352 9.55382C4.85229 9.5651 4.93787 9.54771 4.9501 9.6093" stroke="black" stroke-width="0.0169271" stroke-linecap="round" stroke-linejoin="round"/>
<path d="M4.99292 9.07422C5.01126 9.09209 5.05546 9.12312 5.07944 9.14005C5.11094 9.16215 5.12552 9.1344 5.10107 9.09444" stroke="black" stroke-width="0.0112847" stroke-linecap="round" stroke-linejoin="round"/>
<path d="M4.57625 9.34211C4.63597 9.32988 4.72107 9.31766 4.77138 9.32001M4.50243 9.27769C4.596 9.2523 4.6985 9.26311 4.76292 9.26405M4.74599 9.46859C4.76339 9.44649 4.80242 9.41499 4.83204 9.38819M4.65901 9.39007C4.68769 9.37831 4.74176 9.35809 4.7869 9.3501M4.65101 9.10701C4.70133 9.05764 4.76057 9.06469 4.81699 9.0346C4.85085 9.0172 4.88 8.96877 4.91432 8.93539C4.92984 8.92222 4.94113 8.91188 4.98015 8.91517C5.02106 8.91846 5.02623 8.93115 4.97357 8.93727C4.93595 8.94197 4.93454 8.96031 4.9195 8.98899C4.9068 9.01344 4.91903 9.04212 4.92655 9.06187C4.91715 9.08162 4.90539 9.10983 4.9021 9.13146C4.90022 9.14227 4.90492 9.15074 4.91809 9.16672M4.39429 9.19305C4.52641 9.16437 4.7159 9.21374 4.75164 9.21609" stroke="black" stroke-width="0.0103443" stroke-linecap="round" stroke-linejoin="round"/>
<path d="M5.20023 9.40222C5.24302 9.37918 5.24349 9.33545 5.30038 9.31664M5.08691 9.60769C5.14146 9.58183 5.15321 9.55973 5.18283 9.53622M5.22186 9.19721C5.196 9.20097 5.19177 9.17981 5.16638 9.17558C5.13911 9.17041 5.12077 9.18828 5.12077 9.20473C5.12077 9.22166 5.1377 9.23624 5.15462 9.23718C5.17155 9.23812 5.18566 9.22589 5.22092 9.22965M5.09773 9.00114C5.11842 9.00302 5.13958 9.00678 5.15509 8.99268M5.20964 9.098C5.2054 9.10223 5.19177 9.09659 5.18519 9.0886C5.17907 9.08013 5.17578 9.06885 5.18095 9.06368C5.18566 9.05897 5.19318 9.05991 5.20446 9.06932C5.21575 9.07872 5.21387 9.0933 5.20964 9.098Z" stroke="black" stroke-width="0.00752315" stroke-linecap="round" stroke-linejoin="round"/>
<path d="M4.40359 8.55868C4.40225 8.5594 4.4006 8.55898 4.399 8.55751C4.39739 8.55604 4.39597 8.55364 4.39503 8.55083C4.3941 8.54802 4.39373 8.54505 4.39401 8.54255C4.39429 8.54005 4.3952 8.53824 4.39654 8.53752C4.3951 8.53804 4.3934 8.53737 4.39181 8.53566C4.39022 8.53396 4.38887 8.53135 4.38806 8.52842C4.38725 8.52549 4.38704 8.52248 4.38749 8.52004C4.38793 8.5176 4.38899 8.51594 4.39042 8.51542C4.38972 8.51572 4.38894 8.51572 4.38814 8.51544C4.38734 8.51516 4.38652 8.51459 4.38574 8.51377C4.38496 8.51296 4.38423 8.5119 4.38359 8.51068C4.38295 8.50945 4.38241 8.50807 4.38201 8.50662C4.38161 8.50517 4.38135 8.50367 4.38125 8.50222C4.38114 8.50076 4.3812 8.49938 4.38142 8.49815C4.38163 8.49691 4.382 8.49585 4.38249 8.49502C4.38299 8.49419 4.38361 8.49362 4.38431 8.49332C4.38359 8.49362 4.38281 8.49363 4.382 8.49335C4.3812 8.49306 4.38039 8.49249 4.37962 8.49165C4.37885 8.49082 4.37814 8.48975 4.37752 8.4885C4.3769 8.48724 4.37639 8.48584 4.37602 8.48435C4.37565 8.48287 4.37543 8.48134 4.37536 8.47986C4.37529 8.47837 4.37538 8.47696 4.37563 8.4757C4.37613 8.47314 4.37722 8.47137 4.37867 8.47075C4.37718 8.47131 4.37548 8.47063 4.37394 8.46886C4.3724 8.4671 4.37115 8.46439 4.37046 8.46133C4.36978 8.45828 4.36971 8.45512 4.37028 8.45257C4.37085 8.45002 4.37201 8.44827 4.3735 8.44771C4.372 8.44819 4.37033 8.44743 4.36888 8.4456C4.36742 8.44378 4.36628 8.44104 4.36572 8.43798C4.36516 8.43493 4.36522 8.43181 4.36588 8.42931C4.36655 8.42681 4.36776 8.42515 4.36926 8.42467C4.3685 8.42488 4.3677 8.42478 4.3669 8.42438C4.3661 8.42399 4.36533 8.4233 4.36461 8.42235C4.3639 8.42141 4.36327 8.42023 4.36275 8.41888C4.36223 8.41753 4.36183 8.41605 4.36159 8.4145C4.36134 8.41296 4.36124 8.41139 4.36131 8.40988C4.36137 8.40838 4.36159 8.40697 4.36195 8.40573C4.36269 8.40322 4.36396 8.40158 4.3655 8.40116C4.36393 8.40162 4.36225 8.40079 4.36084 8.39886C4.35942 8.39693 4.35838 8.39406 4.35794 8.39088C4.3575 8.3877 4.35771 8.38447 4.35851 8.3819C4.35931 8.37933 4.36064 8.37764 4.36221 8.37718C4.36066 8.37756 4.35906 8.37668 4.35774 8.37475C4.35643 8.37281 4.35551 8.36997 4.3552 8.36685C4.35489 8.36373 4.35521 8.36059 4.35608 8.35812C4.35695 8.35565 4.35831 8.35405 4.35986 8.35367C4.35827 8.35396 4.35668 8.35298 4.35542 8.35094C4.35417 8.34889 4.35336 8.34596 4.35317 8.34278C4.35299 8.3396 4.35344 8.33643 4.35443 8.33398C4.35542 8.33152 4.35686 8.32998 4.35845 8.32969C4.35685 8.33002 4.35528 8.32908 4.35406 8.32707C4.35284 8.32505 4.35209 8.32214 4.35197 8.31896C4.35184 8.31578 4.35236 8.31259 4.3534 8.31011C4.35443 8.30763 4.35591 8.30604 4.35751 8.30571C4.35587 8.30593 4.35432 8.30484 4.35321 8.3027C4.3521 8.30056 4.3515 8.29754 4.35157 8.29429C4.35163 8.29105 4.35234 8.28786 4.35354 8.28541C4.35475 8.28297 4.35634 8.28148 4.35798 8.28126C4.35637 8.28139 4.35489 8.28024 4.35389 8.27808C4.35288 8.27592 4.35242 8.27292 4.3526 8.26974C4.35279 8.26656 4.35361 8.26346 4.35488 8.26113C4.35616 8.25879 4.35778 8.25741 4.35939 8.25728C4.35776 8.25741 4.35631 8.25626 4.35538 8.2541C4.35444 8.25194 4.35409 8.24894 4.3544 8.24576C4.35471 8.24258 4.35566 8.23948 4.35704 8.23715C4.35842 8.23481 4.36011 8.23343 4.36174 8.2333C4.36006 8.23333 4.35865 8.23206 4.35781 8.22978C4.35698 8.22751 4.35679 8.22441 4.35729 8.22117C4.35779 8.21792 4.35893 8.21481 4.36047 8.2125C4.36201 8.21019 4.36382 8.20888 4.3655 8.20885C4.36385 8.20874 4.36254 8.20737 4.36185 8.20505C4.36117 8.20272 4.36117 8.19963 4.36186 8.19645C4.36254 8.19327 4.36386 8.19026 4.36551 8.18809C4.36717 8.18592 4.36902 8.18476 4.37067 8.18487C4.36986 8.18479 4.36913 8.1844 4.36854 8.18373C4.36795 8.18307 4.36751 8.18213 4.36724 8.18098C4.36669 8.17866 4.36687 8.1756 4.36774 8.17248C4.36817 8.17094 4.36876 8.16943 4.36947 8.16803C4.37019 8.16664 4.37101 8.16539 4.37189 8.16436C4.37368 8.16227 4.37561 8.16119 4.37726 8.16136C4.37642 8.16126 4.37568 8.16087 4.37511 8.16019C4.37453 8.15951 4.37412 8.15856 4.37389 8.1574C4.37367 8.15624 4.37364 8.15489 4.3738 8.15342C4.37396 8.15196 4.37432 8.15041 4.37484 8.14887C4.37537 8.14733 4.37605 8.14582 4.37686 8.14443C4.37767 8.14304 4.37858 8.1418 4.37955 8.14077C4.38051 8.13975 4.38151 8.13897 4.38249 8.13846C4.38347 8.13796 4.38441 8.13776 4.38525 8.13785C4.38352 8.13753 4.38239 8.13598 4.38209 8.13355C4.38179 8.13112 4.38236 8.128 4.38367 8.12488C4.38498 8.12176 4.38692 8.1189 4.38907 8.11693C4.39122 8.11495 4.3934 8.11402 4.39512 8.11434C4.39341 8.11387 4.39239 8.1122 4.39228 8.1097C4.39218 8.10721 4.39299 8.10409 4.39455 8.10103C4.39611 8.09798 4.39828 8.09524 4.4006 8.09341C4.40291 8.09159 4.40517 8.09083 4.40688 8.0913C4.40524 8.09064 4.40439 8.08885 4.40451 8.08631C4.40463 8.08377 4.40572 8.0807 4.40753 8.07777C4.40933 8.07484 4.41172 8.07229 4.41415 8.07068C4.41659 8.06908 4.41888 8.06854 4.42052 8.0692C4.41968 8.06885 4.41905 8.06821 4.41866 8.06734C4.41828 8.06647 4.41815 8.06537 4.41828 8.06411C4.41854 8.06157 4.41984 8.05854 4.42189 8.05567C4.42395 8.0528 4.4266 8.05034 4.42925 8.04882C4.4319 8.0473 4.43434 8.04685 4.43603 8.04757C4.43446 8.04662 4.43389 8.04465 4.43445 8.04208C4.43501 8.03951 4.43666 8.03656 4.43903 8.03388C4.4414 8.0312 4.4443 8.029 4.44709 8.02778C4.44987 8.02656 4.45233 8.0264 4.4539 8.02736C4.4523 8.0263 4.4518 8.02425 4.45252 8.02165C4.45324 8.01905 4.45512 8.01612 4.45773 8.0135C4.46035 8.01088 4.4635 8.00879 4.46648 8.00769C4.46947 8.00658 4.47205 8.00655 4.47365 8.00761" fill="white"/>
<path d="M4.40359 8.55868C4.40225 8.5594 4.4006 8.55898 4.399 8.55751C4.39739 8.55604 4.39597 8.55364 4.39503 8.55083C4.3941 8.54802 4.39373 8.54505 4.39401 8.54255C4.39429 8.54005 4.3952 8.53824 4.39654 8.53752C4.3951 8.53804 4.3934 8.53737 4.39181 8.53566C4.39022 8.53396 4.38887 8.53135 4.38806 8.52842C4.38725 8.52549 4.38704 8.52248 4.38749 8.52004C4.38793 8.5176 4.38899 8.51594 4.39042 8.51542C4.38972 8.51571 4.38894 8.51572 4.38814 8.51544C4.38734 8.51516 4.38652 8.51459 4.38574 8.51377C4.38496 8.51296 4.38423 8.5119 4.38359 8.51068C4.38295 8.50945 4.38241 8.50807 4.38201 8.50662C4.38161 8.50517 4.38135 8.50367 4.38125 8.50222C4.38114 8.50076 4.3812 8.49938 4.38142 8.49815C4.38163 8.49691 4.382 8.49585 4.38249 8.49502C4.38299 8.49419 4.38361 8.49362 4.38431 8.49332C4.38359 8.49362 4.38281 8.49363 4.382 8.49335C4.3812 8.49306 4.38039 8.49249 4.37962 8.49165C4.37885 8.49082 4.37814 8.48975 4.37752 8.4885C4.3769 8.48724 4.37639 8.48584 4.37602 8.48435C4.37565 8.48287 4.37543 8.48134 4.37536 8.47986C4.37529 8.47837 4.37538 8.47696 4.37563 8.4757C4.37613 8.47314 4.37722 8.47137 4.37867 8.47075C4.37718 8.47131 4.37548 8.47063 4.37394 8.46886C4.3724 8.4671 4.37115 8.46439 4.37046 8.46133C4.36978 8.45828 4.36971 8.45512 4.37028 8.45257C4.37085 8.45002 4.37201 8.44827 4.3735 8.44771C4.372 8.44819 4.37033 8.44743 4.36888 8.4456C4.36742 8.44378 4.36628 8.44104 4.36572 8.43798C4.36516 8.43493 4.36522 8.43181 4.36588 8.42931C4.36655 8.42681 4.36776 8.42515 4.36926 8.42467C4.3685 8.42488 4.3677 8.42478 4.3669 8.42438C4.3661 8.42399 4.36533 8.4233 4.36461 8.42235C4.3639 8.42141 4.36327 8.42023 4.36275 8.41888C4.36223 8.41753 4.36183 8.41605 4.36159 8.4145C4.36134 8.41296 4.36124 8.41139 4.36131 8.40988C4.36137 8.40838 4.36159 8.40697 4.36195 8.40573C4.36269 8.40322 4.36396 8.40158 4.3655 8.40116C4.36393 8.40162 4.36225 8.40079 4.36084 8.39886C4.35942 8.39693 4.35838 8.39406 4.35794 8.39088C4.3575 8.3877 4.35771 8.38447 4.35851 8.3819C4.35931 8.37933 4.36064 8.37764 4.36221 8.37718C4.36066 8.37756 4.35906 8.37668 4.35774 8.37475C4.35643 8.37281 4.35551 8.36997 4.3552 8.36685C4.35489 8.36373 4.35521 8.36059 4.35608 8.35812C4.35695 8.35565 4.35831 8.35405 4.35986 8.35367C4.35827 8.35396 4.35668 8.35298 4.35542 8.35094C4.35417 8.34889 4.35336 8.34596 4.35317 8.34278C4.35299 8.3396 4.35344 8.33643 4.35443 8.33398C4.35542 8.33153 4.35686 8.32998 4.35845 8.32969C4.35685 8.33002 4.35528 8.32908 4.35406 8.32707C4.35284 8.32505 4.35209 8.32214 4.35197 8.31896C4.35184 8.31578 4.35236 8.31259 4.3534 8.31011C4.35443 8.30763 4.35591 8.30604 4.35751 8.30571C4.35587 8.30593 4.35432 8.30484 4.35321 8.3027C4.3521 8.30056 4.3515 8.29754 4.35157 8.29429C4.35163 8.29105 4.35234 8.28786 4.35354 8.28541C4.35475 8.28297 4.35634 8.28148 4.35798 8.28126C4.35637 8.28139 4.35489 8.28024 4.35389 8.27808C4.35288 8.27592 4.35242 8.27292 4.3526 8.26974C4.35279 8.26656 4.35361 8.26346 4.35488 8.26113C4.35616 8.25879 4.35778 8.25741 4.35939 8.25728C4.35776 8.25741 4.35631 8.25626 4.35538 8.2541C4.35444 8.25194 4.35409 8.24894 4.3544 8.24576C4.35471 8.24258 4.35566 8.23948 4.35704 8.23715C4.35842 8.23481 4.36011 8.23343 4.36174 8.2333C4.36006 8.23333 4.35865 8.23206 4.35781 8.22978C4.35698 8.22751 4.35679 8.22441 4.35729 8.22117C4.35779 8.21792 4.35893 8.21481 4.36047 8.2125C4.36201 8.21019 4.36382 8.20888 4.3655 8.20885C4.36385 8.20874 4.36254 8.20737 4.36185 8.20505C4.36117 8.20272 4.36117 8.19963 4.36186 8.19645C4.36254 8.19327 4.36386 8.19026 4.36551 8.18809C4.36717 8.18592 4.36902 8.18476 4.37067 8.18487C4.36986 8.18479 4.36913 8.1844 4.36854 8.18373C4.36795 8.18307 4.36751 8.18213 4.36724 8.18098C4.36669 8.17866 4.36687 8.1756 4.36774 8.17248C4.36817 8.17094 4.36876 8.16943 4.36947 8.16803C4.37019 8.16664 4.37101 8.16539 4.37189 8.16436C4.37368 8.16227 4.37561 8.16119 4.37726 8.16136C4.37642 8.16126 4.37568 8.16087 4.37511 8.16019C4.37453 8.15951 4.37412 8.15856 4.37389 8.1574C4.37367 8.15624 4.37364 8.15489 4.3738 8.15342C4.37396 8.15196 4.37432 8.15041 4.37484 8.14887C4.37537 8.14733 4.37605 8.14582 4.37686 8.14443C4.37767 8.14304 4.37858 8.1418 4.37955 8.14077C4.38051 8.13975 4.38151 8.13897 4.38249 8.13846C4.38347 8.13796 4.38441 8.13776 4.38525 8.13785C4.38352 8.13753 4.38239 8.13598 4.38209 8.13355C4.38179 8.13112 4.38236 8.128 4.38367 8.12488C4.38498 8.12176 4.38692 8.1189 4.38907 8.11693C4.39122 8.11495 4.3934 8.11402 4.39512 8.11434C4.39341 8.11387 4.39239 8.1122 4.39228 8.1097C4.39218 8.10721 4.39299 8.10409 4.39455 8.10103C4.39611 8.09798 4.39828 8.09524 4.4006 8.09341C4.40291 8.09159 4.40517 8.09083 4.40688 8.0913C4.40524 8.09064 4.40439 8.08885 4.40451 8.08631C4.40463 8.08377 4.40572 8.0807 4.40753 8.07777C4.40933 8.07484 4.41172 8.07229 4.41415 8.07068C4.41659 8.06908 4.41888 8.06854 4.42052 8.0692C4.41968 8.06885 4.41905 8.06821 4.41866 8.06734C4.41828 8.06647 4.41815 8.06537 4.41828 8.06411C4.41854 8.06157 4.41984 8.05854 4.42189 8.05567C4.42395 8.0528 4.4266 8.05034 4.42925 8.04882C4.4319 8.0473 4.43434 8.04685 4.43603 8.04757C4.43446 8.04662 4.43389 8.04465 4.43445 8.04208C4.43501 8.03951 4.43666 8.03656 4.43903 8.03388C4.4414 8.0312 4.4443 8.029 4.44709 8.02778C4.44987 8.02656 4.45233 8.0264 4.4539 8.02736C4.4523 8.0263 4.4518 8.02425 4.45252 8.02165C4.45324 8.01905 4.45512 8.01612 4.45773 8.0135C4.46035 8.01088 4.4635 8.00879 4.46648 8.00769C4.46947 8.00658 4.47205 8.00655 4.47365 8.00761" stroke="black" stroke-width="0.00470197" stroke-linecap="round" stroke-linejoin="round"/>
<path d="M4.4303 8.55089L4.4035 8.55888M4.4256 8.52973L4.39645 8.53772M4.42137 8.5081L4.39034 8.51562M4.41714 8.486L4.38422 8.49353M4.41385 8.4639L4.37858 8.47096M4.41055 8.44133L4.37341 8.44792M4.4082 8.41876L4.36918 8.42488M4.40632 8.3962L4.36542 8.40137M4.40538 8.37363L4.36212 8.37739M4.40491 8.35153L4.35977 8.35388M4.40538 8.32896L4.35836 8.3299M4.40632 8.30686L4.35742 8.30592M4.4082 8.28476L4.35789 8.28147M4.41149 8.26313L4.3593 8.25749M4.41526 8.24197L4.36165 8.23351M4.42043 8.22128L4.36542 8.20906M4.42654 8.20059L4.37059 8.18508M4.43406 8.18084L4.37717 8.16157M4.44253 8.16204L4.38516 8.13806M4.45193 8.14323L4.39504 8.11455M4.46322 8.12583L4.40679 8.09151M4.47544 8.1089L4.42043 8.06941M4.48955 8.09245L4.43594 8.04778M4.50459 8.0774L4.45381 8.02756M4.52152 8.0633L4.47356 8.00781" stroke="black" stroke-width="0.00470197" stroke-linecap="round" stroke-linejoin="round"/>
<path d="M4.72902 8.24096C4.70128 8.24707 4.68718 8.24801 4.65144 8.24942C4.64439 8.26588 4.64392 8.31055 4.64439 8.32653C4.72009 8.39847 4.79344 8.4911 4.79814 8.57856C4.82165 8.59737 4.8367 8.61664 4.84987 8.65144C4.90394 8.62464 4.95848 8.57856 5.00456 8.5668C5.03465 8.55928 5.08778 8.55693 5.11412 8.57245C5.12869 8.58091 5.25753 8.65943 5.29514 8.68247C5.33229 8.70598 5.35815 8.73655 5.37649 8.76335C5.39482 8.79015 5.3967 8.83858 5.39059 8.8508L5.28245 8.81977C5.27492 8.8019 5.28104 8.78121 5.2895 8.76335C5.29749 8.74642 5.29749 8.74548 5.28198 8.73325C5.27163 8.72479 5.25706 8.72714 5.24671 8.72949C5.23637 8.73137 5.21991 8.72714 5.21051 8.71209C5.20016 8.69658 5.08684 8.64674 5.06757 8.64392C5.04876 8.6411 5.02008 8.64062 4.99657 8.66272C4.98528 8.68106 4.9472 8.74031 4.9171 8.76711C4.90911 8.7751 4.9077 8.78403 4.9124 8.79344C4.9124 8.79344 4.98434 8.79062 5.02807 8.79673C5.07227 8.80331 5.12728 8.84892 5.15126 8.8776C5.26129 8.9787 5.30314 9.03371 5.33887 9.0685C5.35486 9.08402 5.37225 9.10142 5.36849 9.1254L5.26129 9.12352C5.2627 9.08496 5.25517 9.05722 5.24859 9.03606C5.2359 9.01866 5.21333 9.02713 5.20439 9.0276C5.19546 9.02854 5.18182 9.00926 5.17101 8.99186C5.15737 8.9613 5.09907 8.92039 5.07321 8.90441C5.04735 8.88842 5.03841 8.89547 5.01114 8.89312C4.99469 8.88795 4.95707 8.88137 4.9298 8.89218C4.90253 8.90299 4.82259 8.92839 4.74877 8.93685C4.7215 8.94907 4.6411 8.96412 4.55599 8.98246C4.49205 8.99609 4.34864 9.01913 4.31807 9.0196C4.30867 9.08872 4.23626 9.18558 4.21557 9.1964C4.19441 9.22461 4.19535 9.24953 4.20993 9.26223C4.22497 9.27539 4.33453 9.27539 4.3618 9.27633C4.38954 9.2768 4.44409 9.27868 4.45208 9.28009C4.47089 9.28291 4.4944 9.30548 4.52261 9.321C4.54283 9.33181 4.54706 9.3431 4.55975 9.36332C4.56775 9.37648 4.57997 9.38918 4.5842 9.40046L4.4549 9.39764C4.45631 9.37037 4.44032 9.34733 4.42199 9.34733C4.40412 9.36003 4.38202 9.37507 4.35757 9.3652C4.25742 9.35909 4.19347 9.36332 4.10037 9.3572C4.07404 9.35579 4.05053 9.31771 4.06041 9.28291C4.07028 9.24765 4.06605 9.22367 4.05946 9.19828C4.05006 9.20862 4.01339 9.24483 3.9927 9.26881C3.96072 9.30501 3.97906 9.34404 3.99082 9.36379C4.01009 9.38024 4.11636 9.48275 4.13046 9.51378C4.14128 9.53024 4.1836 9.56362 4.22591 9.59889C4.23955 9.63039 4.26494 9.64591 4.28516 9.66659L4.12106 9.66706C4.12623 9.65672 4.12858 9.64685 4.13093 9.62381C4.13187 9.61534 4.12106 9.59653 4.0999 9.59889C4.07827 9.60171 4.05946 9.57679 4.05288 9.55657C4.0463 9.53588 3.97389 9.44325 3.95226 9.42256C3.93063 9.40234 3.86527 9.33558 3.85399 9.33134C3.84223 9.32711 3.83941 9.30313 3.85305 9.28903C3.86715 9.27492 3.90759 9.2105 3.92029 9.16866C3.92875 9.13997 3.91841 9.13762 3.91182 9.12869C3.84035 9.07556 3.77782 9.00503 3.74067 8.93779C3.72704 8.94625 3.64898 8.94578 3.60996 8.9265C3.58033 8.9124 3.54084 8.90817 3.51968 8.94155C3.50745 8.9613 3.50792 8.99844 3.52955 9.0149C3.56059 9.03841 3.59773 9.07697 3.63347 9.12117C3.6692 9.16536 3.63817 9.19452 3.59303 9.23307C3.59961 9.25 3.59209 9.24718 3.60055 9.27539C3.6156 9.29702 3.6156 9.35156 3.59632 9.36285C3.57751 9.37507 3.55306 9.3873 3.53049 9.41363C3.50792 9.4409 3.49805 9.41457 3.50792 9.36943C3.51357 9.34122 3.49053 9.31771 3.47078 9.29608C3.4515 9.27445 3.46137 9.21144 3.47407 9.19264C3.48629 9.17477 3.49899 9.13809 3.47172 9.11082C3.44445 9.08355 3.39037 9.02619 3.39884 8.95001C3.40918 8.84939 3.50651 8.81742 3.56435 8.84375C3.65839 8.88607 3.71434 8.87666 3.74255 8.87055C3.77076 8.82494 3.80603 8.78168 3.86386 8.74877C3.91794 8.71774 4.02467 8.67495 4.12952 8.65849L4.39001 8.56539C4.42528 8.55505 4.42387 8.52402 4.42058 8.50615C4.38672 8.3303 4.39707 8.14457 4.54001 8.05006C4.55505 8.03642 4.55035 7.99787 4.57292 7.96777C4.57715 7.98094 4.6063 8.01667 4.61289 8.03971C4.67448 8.05993 4.78592 8.09896 4.82965 8.12106C4.85081 8.1314 4.87291 8.13281 4.88607 8.13798C4.89783 8.14269 4.90864 8.15444 4.91616 8.16902C4.92792 8.19018 4.91475 8.21087 4.90347 8.21698C4.895 8.22121 4.84328 8.20381 4.83059 8.21557C4.83294 8.22732 4.8461 8.24002 4.87385 8.2513C4.88654 8.25694 4.86726 8.28045 4.85222 8.28186C4.84375 8.28281 4.832 8.27904 4.82447 8.2734C4.79391 8.26447 4.761 8.25177 4.72902 8.24096Z" fill="white" stroke="black" stroke-width="0.0169271" stroke-linecap="round" stroke-linejoin="round"/>
<path d="M4.55021 8.12646C4.5488 8.23461 4.58548 8.28915 4.64425 8.32677M4.84973 8.65167C4.86007 8.69728 4.85866 8.74242 4.8502 8.78192M4.05933 9.19851C4.14114 9.15996 4.21214 9.06733 4.20979 9.01185M4.20979 9.01185C4.20838 8.9794 4.18299 8.92956 4.11011 8.92721M4.20979 9.01185C4.23236 9.02078 4.2822 9.01514 4.31793 9.01984M4.72183 8.75653C4.78531 8.75935 4.87042 8.79555 4.91226 8.79367M4.69221 8.88301C4.74581 8.89477 4.74675 8.92063 4.85819 8.91498M4.66541 8.52425C4.72795 8.52613 4.76368 8.55669 4.79801 8.57879" stroke="black" stroke-width="0.0169271" stroke-linecap="round" stroke-linejoin="round"/>
<path d="M4.198 9.06263C4.24173 9.06216 4.27464 9.05651 4.29251 9.01796M4.55018 8.12646C4.54782 8.21486 4.58356 8.23696 4.65127 8.24966" stroke="black" stroke-width="0.0103443" stroke-linecap="round" stroke-linejoin="round"/>
<path d="M4.89119 8.14167C4.88696 8.16424 4.88649 8.18211 4.92317 8.17882M4.72804 8.08008C4.69982 8.15249 4.84229 8.16189 4.84794 8.2075M4.04907 8.6777C4.11866 8.70826 4.11067 8.8465 4.1102 8.92737" stroke="black" stroke-width="0.00752315" stroke-linecap="round" stroke-linejoin="round"/>
<path d="M4.81457 8.20741C4.792 8.25161 4.74263 8.32026 4.69185 8.35693C4.61662 8.41053 4.53527 8.4505 4.43324 8.47448C4.4196 8.47777 4.40221 8.482 4.38246 8.47777C4.36318 8.47401 4.34202 8.46131 4.32839 8.43357C4.32086 8.419 4.32462 8.34941 4.35048 8.33953C4.37776 8.32966 4.40268 8.32637 4.42854 8.32778C4.44264 8.32872 4.46239 8.33295 4.46098 8.35223C4.46004 8.36869 4.44452 8.37856 4.42807 8.37386C4.40832 8.36822 4.37823 8.35693 4.3613 8.36822C4.34954 8.37574 4.34249 8.40724 4.35048 8.42135C4.36271 8.44392 4.37494 8.45097 4.38763 8.45332C4.40033 8.45614 4.41396 8.45332 4.4276 8.45003C4.5254 8.42699 4.60298 8.3889 4.6768 8.33624C4.72523 8.30145 4.77554 8.22904 4.79247 8.19565L4.81457 8.20741ZM4.43136 8.34518C4.40221 8.33906 4.35519 8.34612 4.35096 8.35834C4.37258 8.34471 4.39939 8.34894 4.42995 8.35834C4.43935 8.36116 4.44499 8.34753 4.43136 8.34518ZM4.62179 8.10679L4.63307 8.08516C4.63542 8.08046 4.62461 8.02873 4.67821 8.05648C4.73181 8.08422 4.68856 8.1082 4.68621 8.11337C4.68385 8.11807 4.67492 8.13453 4.67492 8.13453" fill="white"/>
<path d="M4.62179 8.10679L4.63307 8.08516C4.63542 8.08046 4.62461 8.02873 4.67821 8.05648C4.73181 8.08422 4.68856 8.1082 4.68621 8.11337C4.68385 8.11807 4.67492 8.13453 4.67492 8.13453M4.81457 8.20741C4.792 8.25161 4.74263 8.32026 4.69185 8.35693C4.61662 8.41053 4.53527 8.4505 4.43324 8.47448C4.4196 8.47777 4.40221 8.482 4.38246 8.47777C4.36318 8.47401 4.34202 8.46131 4.32839 8.43357C4.32086 8.419 4.32462 8.34941 4.35048 8.33953C4.37776 8.32966 4.40268 8.32637 4.42854 8.32778C4.44264 8.32872 4.46239 8.33295 4.46098 8.35223C4.46004 8.36869 4.44452 8.37856 4.42807 8.37386C4.40832 8.36822 4.37823 8.35693 4.3613 8.36822C4.34954 8.37574 4.34249 8.40724 4.35048 8.42135C4.36271 8.44392 4.37494 8.45097 4.38763 8.45332C4.40033 8.45614 4.41396 8.45332 4.4276 8.45003C4.5254 8.42699 4.60298 8.3889 4.6768 8.33624C4.72523 8.30145 4.77554 8.22904 4.79247 8.19565L4.81457 8.20741ZM4.43136 8.34518C4.40221 8.33906 4.35519 8.34612 4.35096 8.35834C4.37258 8.34471 4.39939 8.34894 4.42995 8.35834C4.43935 8.36116 4.44499 8.34753 4.43136 8.34518Z" stroke="black" stroke-width="0.00658275" stroke-linecap="round" stroke-linejoin="round"/>
<path d="M4.53149 8.05859L4.8343 8.21705" stroke="black" stroke-width="0.0112847" stroke-linecap="round" stroke-linejoin="round"/>
<path d="M4.14752 8.07086C4.09392 8.07603 3.99518 8.06522 3.94158 8.05582C3.91572 8.05111 3.84283 8.15691 3.80428 8.16443C3.76572 8.17195 3.72905 8.08685 3.67215 8.10707C3.64582 8.12729 3.67356 8.23167 3.65758 8.24484C3.64112 8.258 3.59081 8.19217 3.55978 8.21427C3.52874 8.23637 3.58611 8.37508 3.57106 8.39107C3.55696 8.40611 3.48643 8.33041 3.46527 8.34452C3.44411 8.35862 3.48831 8.57444 3.46762 8.58573C3.44646 8.59701 3.34866 8.52883 3.33596 8.55799C3.32327 8.58714 3.47373 8.65579 3.51605 8.65767L3.55837 8.64168C3.57247 8.6492 3.69284 8.65908 3.7046 8.66002L3.77372 8.58996C3.87951 8.45219 3.99565 8.32289 4.14752 8.33088V8.07086Z" fill="white" stroke="black" stroke-width="0.0103443" stroke-linecap="round" stroke-linejoin="round"/>
<path d="M3.68251 8.10469L3.88422 8.09717M3.56167 8.21284L3.66041 8.17898M3.4681 8.34167L3.55791 8.30217M3.33691 8.55561L3.46246 8.44182M3.55932 8.63883C3.61245 8.54527 3.72106 8.44182 3.80993 8.38728M3.46857 8.58523C3.54427 8.49401 3.76103 8.3412 3.83015 8.33274M3.65712 8.24481C3.74693 8.20343 3.87529 8.19873 3.97732 8.19027M3.80194 8.16488C3.81463 8.16347 3.96886 8.14419 4.03469 8.14748M3.56966 8.39292C3.68956 8.32286 3.80664 8.26597 3.93877 8.22459" stroke="black" stroke-width="0.0103443" stroke-linecap="round" stroke-linejoin="round"/>
<path d="M4.57956 9.8557C4.58896 9.85852 4.59884 9.87874 4.59884 9.87874C4.59884 9.87874 4.57862 9.88861 4.57016 9.88673L3.62976 9.60555C3.60202 9.59709 3.61378 9.5543 3.64293 9.56324L4.57956 9.8557ZM3.68101 8.5415C3.67537 8.52222 3.65844 8.50482 3.64575 8.50247C3.63776 8.50153 3.61707 8.52269 3.61801 8.52927C3.62036 8.54291 3.64763 8.56031 3.65844 8.56407L3.68101 8.5415ZM3.76988 8.57629L3.69089 8.65529C3.68101 8.66563 3.69935 8.68209 3.70876 8.67268L3.78775 8.59369C3.79762 8.58382 3.77881 8.56736 3.76988 8.57629ZM3.73085 8.65058L3.97583 8.90449L4.02661 8.91201L4.01908 8.86123L3.76518 8.61626L3.73085 8.65058Z" fill="white" stroke="black" stroke-width="0.0131655" stroke-linecap="round" stroke-linejoin="round"/>
<path d="M3.99091 8.87639L3.74829 8.6333" stroke="black" stroke-width="0.00376157" stroke-linecap="round" stroke-linejoin="round"/>
<path d="M4.31578 8.1704C4.3139 8.15723 4.32095 8.14924 4.33083 8.14218C4.34775 8.13043 4.34305 8.13607 4.35246 8.14077C4.36139 8.14548 4.37079 8.153 4.37597 8.15723C4.38255 8.16193 4.38631 8.15958 4.38866 8.15582C4.39289 8.14924 4.3943 8.13607 4.39853 8.13184C4.40183 8.13231 4.407 8.12996 4.40653 8.12385C4.4117 8.12291 4.41311 8.11961 4.41264 8.11444C4.4117 8.11068 4.41499 8.10034 4.4211 8.10222C4.42769 8.1041 4.44132 8.11021 4.44179 8.10128C4.44273 8.09469 4.44697 8.07024 4.44932 8.05144C4.46859 8.05473 4.46201 8.03263 4.46906 8.02981C4.48975 8.03733 4.49728 8.00442 4.48552 7.99266C4.4874 7.96633 4.50668 7.96163 4.53865 7.9621C4.5363 7.94423 4.51185 7.93906 4.49493 7.91649C4.47941 7.89345 4.42816 7.86383 4.37314 7.86477C4.31813 7.86618 4.27299 7.91743 4.25277 7.94C4.23256 7.96257 4.19071 7.97244 4.17801 7.97009C4.16579 7.96727 4.16015 7.95834 4.14604 7.95693C4.14604 7.95693 4.1103 7.95787 4.0915 7.95834C4.07269 7.95834 4.06564 7.9715 4.04448 7.96868C4.03178 7.96774 3.98006 7.96821 3.96501 7.97338C3.94997 7.97856 3.96454 8.01241 3.98053 8.01382C3.98805 8.01476 4.02755 8.01711 4.04213 8.02558C4.05858 8.03451 4.10701 8.03686 4.12864 8.02887C4.16908 8.01429 4.19588 8.04156 4.24055 8.05238L4.25465 8.05755C4.25371 8.08106 4.25512 8.09328 4.24337 8.09328C4.23256 8.09328 4.21469 8.09234 4.20481 8.0914C4.19917 8.0914 4.17613 8.07589 4.16297 8.07307C4.14275 8.06883 4.13052 8.0773 4.12253 8.08059C4.07034 8.10222 3.87709 8.25268 3.85828 8.287C3.83712 8.32509 3.80562 8.34766 3.77552 8.40455C3.7586 8.43606 3.72662 8.47461 3.70735 8.52775C3.6749 8.54232 3.64152 8.57288 3.63635 8.57994C3.6307 8.58746 3.64152 8.59969 3.64763 8.59922C3.64528 8.60392 3.65656 8.61661 3.6655 8.61567C3.66033 8.62131 3.67443 8.63166 3.68101 8.62978C3.67725 8.63542 3.68713 8.65094 3.69512 8.65047L3.77317 8.57241C3.77317 8.53903 3.79292 8.50188 3.80327 8.48355C3.84511 8.43277 3.89966 8.3486 3.9147 8.32603C3.9227 8.31334 4.01438 8.27713 4.03836 8.25362C4.03225 8.31945 4.03413 8.36459 4.0426 8.40361C4.05576 8.46756 4.07692 8.50847 4.08962 8.56254C4.10278 8.61614 4.08962 8.64906 4.09197 8.67445C4.09291 8.69419 4.09996 8.69608 4.11877 8.70689C4.13805 8.71865 4.21234 8.70877 4.23585 8.71582C4.27958 8.72946 4.31954 8.7304 4.33553 8.73322C4.39007 8.7257 4.43098 8.74074 4.44838 8.75438C4.46624 8.76849 4.50104 8.84936 4.5142 8.87945C4.5269 8.90907 4.59743 8.95045 4.612 8.96738C4.62705 8.98384 4.63786 9.0318 4.63504 9.05296C4.63269 9.07364 4.63551 9.08305 4.65714 9.0807C4.67407 9.07835 4.73661 9.0901 4.74836 9.09621C4.75965 9.10186 4.78692 9.12348 4.79632 9.12442C4.80573 9.12537 4.85039 9.13007 4.87108 9.12819C4.89177 9.12631 4.89083 9.09245 4.8819 9.09104C4.87343 9.0901 4.8377 9.08258 4.81654 9.07741C4.79585 9.0727 4.7493 9.03133 4.73096 9.00876C4.71216 8.98572 4.70275 8.95374 4.691 8.9307C4.67877 8.90766 4.60871 8.80939 4.59038 8.78729C4.58473 8.77648 4.54759 8.68761 4.53912 8.66551C4.53113 8.64341 4.51279 8.64106 4.49869 8.63683C4.44038 8.6199 4.41781 8.61238 4.3581 8.6011C4.31484 8.5931 4.30497 8.59075 4.3012 8.55878C4.29838 8.5348 4.28005 8.48919 4.28945 8.45769C4.29274 8.44734 4.29885 8.41396 4.30167 8.39891C4.30497 8.38387 4.31437 8.35894 4.31672 8.3439C4.31954 8.32368 4.3233 8.26208 4.3233 8.2461C4.3233 8.21695 4.31907 8.19438 4.31578 8.1704ZM4.36092 8.43512C4.35528 8.43653 4.32801 8.44029 4.3139 8.43465C4.3092 8.4323 4.31014 8.42289 4.31484 8.42289C4.31202 8.42101 4.30732 8.41114 4.3139 8.40973C4.31014 8.40879 4.30544 8.39468 4.31202 8.39421C4.30544 8.38998 4.30544 8.38198 4.31202 8.37916C4.31672 8.3754 4.34587 8.37446 4.3581 8.37634C4.36562 8.39139 4.36374 8.41913 4.36092 8.43512Z" fill="white" stroke="black" stroke-width="0.0169271" stroke-linecap="round" stroke-linejoin="round"/>
<path d="M4.25509 8.06071C4.26873 8.06917 4.26685 8.05977 4.2913 8.05272C4.31528 8.04566 4.33126 8.06682 4.32374 8.08657C4.31669 8.10632 4.31575 8.12278 4.34161 8.12419C4.36747 8.1256 4.37358 8.1035 4.37922 8.09268C4.38534 8.08234 4.39662 8.08281 4.4032 8.07011C4.40837 8.04378 4.43518 8.0499 4.45163 8.05272M4.48502 7.99394C4.47185 8.00099 4.44364 7.97843 4.43894 7.9568C4.43094 7.93141 4.41261 7.91307 4.38016 7.9126C4.34772 7.9126 4.28612 7.93094 4.27296 7.96902C4.26873 7.9977 4.26638 8.01651 4.26591 8.02168C4.25415 8.02592 4.24287 8.02215 4.24193 8.02733C4.24287 8.03861 4.24522 8.04848 4.23863 8.05319M4.03833 8.25396L4.10369 8.22575" stroke="black" stroke-width="0.0169271" stroke-linecap="round" stroke-linejoin="round"/>
<path d="M4.10374 8.2251C4.12208 8.26647 4.13477 8.30879 4.16017 8.32337M4.1959 8.33936C4.22317 8.35299 4.24151 8.34829 4.27395 8.34312M4.11079 8.64686C4.1785 8.65016 4.20624 8.68072 4.2622 8.69812C4.31768 8.71504 4.39667 8.70564 4.46861 8.73949M4.09058 8.4301C4.1075 8.4428 4.13195 8.45126 4.15217 8.45126M4.18179 8.45267C4.21753 8.45832 4.25044 8.47242 4.25562 8.49311M4.16722 8.53073C4.19966 8.56223 4.25891 8.58621 4.30122 8.58856" stroke="black" stroke-width="0.00846354" stroke-linecap="round" stroke-linejoin="round"/>
<path d="M4.21716 8.09156C4.24772 8.1903 4.25195 8.23074 4.32342 8.24579M4.32342 8.24579C4.25524 8.23779 4.22186 8.18466 4.1913 8.08545M4.32342 8.24579C4.2402 8.24155 4.19365 8.17197 4.16309 8.07275" stroke="black" stroke-width="0.00752315" stroke-linecap="round" stroke-linejoin="round"/>
<path d="M4.69296 9.03739C4.67792 9.0261 4.67416 9.01905 4.66334 8.99742L4.63795 8.94711L4.62196 8.95557C4.61491 8.95886 4.60739 8.94617 4.61538 8.94241L4.62902 8.93582L4.61068 8.89915C4.60033 8.89727 4.61021 8.89115 4.61726 8.88786C4.62478 8.8841 4.6356 8.8794 4.6309 8.8888L4.64923 8.92548L4.6624 8.9189C4.67039 8.91466 4.67651 8.9283 4.66898 8.93159L4.653 8.93959L4.67839 8.9899C4.6892 9.01153 4.69296 9.01858 4.69296 9.03739Z" stroke="black" stroke-width="0.00752315" stroke-linecap="round" stroke-linejoin="round"/>
<path d="M4.69095 8.93072L4.61384 8.96974M4.54284 8.91285L4.6444 8.8616M4.52686 8.89686L4.63265 8.84326" stroke="black" stroke-width="0.00564236" stroke-linecap="round" stroke-linejoin="round"/>
<path d="M3.68109 8.63012L3.71541 8.59908M3.66557 8.61601L3.69849 8.58639M3.64771 8.59956L3.68344 8.56946M4.31491 8.42323L4.3483 8.42182M4.31209 8.39455L4.3436 8.39361M4.31397 8.41007L4.34501 8.40724M4.38544 8.11572C4.3925 8.11995 4.39908 8.12325 4.40566 8.12419" stroke="black" stroke-width="0.00376157" stroke-linecap="round" stroke-linejoin="round"/>
<path d="M32.5 0H-6.5V26H32.5V0Z" fill="#21468B"/>
<path d="M32.5 0H-6.5V17.3333H32.5V0Z" fill="white"/>
<path d="M32.5 0H-6.5V8.66667H32.5V0Z" fill="#AE1C28"/>
</g>
<defs>
<clipPath id="clip0_2326_37938">
<rect width="52" height="26" fill="white"/>
</clipPath>
<clipPath id="clip1_2326_37938">
<rect width="41.6" height="26" fill="white" transform="translate(-7.7998)"/>
</clipPath>
</defs>
</svg>
