<svg width="26" height="26" viewBox="0 0 26 26" fill="none" xmlns="http://www.w3.org/2000/svg">
<circle cx="13" cy="13" r="13" fill="white"/>
<path d="M2.68677 5.08496C1.66561 6.41355 0.895613 7.94486 0.447266 9.6084H7.21021L2.68677 5.08496Z" fill="#0052B4"/>
<path d="M25.5519 9.60835C25.1036 7.94486 24.3335 6.41355 23.3124 5.08496L18.7891 9.60835H25.5519Z" fill="#0052B4"/>
<path d="M0.447266 16.3911C0.895664 18.0546 1.66566 19.5859 2.68677 20.9145L7.21006 16.3911H0.447266Z" fill="#0052B4"/>
<path d="M20.914 2.6878C19.5854 1.66664 18.0542 0.896641 16.3906 0.448242V7.21114L20.914 2.6878Z" fill="#0052B4"/>
<path d="M5.08594 23.3124C6.41453 24.3335 7.94584 25.1035 9.60933 25.5519V18.7891L5.08594 23.3124Z" fill="#0052B4"/>
<path d="M9.60928 0.448242C7.94579 0.896641 6.41448 1.66664 5.08594 2.68775L9.60928 7.21109V0.448242Z" fill="#0052B4"/>
<path d="M16.3906 25.5519C18.0541 25.1035 19.5854 24.3335 20.914 23.3124L16.3906 18.7891V25.5519Z" fill="#0052B4"/>
<path d="M18.7891 16.3911L23.3124 20.9145C24.3335 19.586 25.1036 18.0546 25.5519 16.3911H18.7891Z" fill="#0052B4"/>
<path d="M25.89 11.3044H14.6957H14.6957V0.110043C14.1406 0.0377812 13.5747 0 13 0C12.4252 0 11.8594 0.0377812 11.3044 0.110043V11.3043V11.3043H0.110043C0.0377813 11.8594 0 12.4253 0 13C0 13.5748 0.0377813 14.1406 0.110043 14.6956H11.3043H11.3043V25.89C11.8594 25.9622 12.4252 26 13 26C13.5747 26 14.1406 25.9623 14.6956 25.89V14.6957V14.6957H25.89C25.9622 14.1406 26 13.5748 26 13C26 12.4253 25.9622 11.8594 25.89 11.3044Z" fill="#D80027"/>
<path d="M16.3926 16.3912L22.1936 22.1922C22.4604 21.9255 22.7149 21.6467 22.9578 21.3576L17.9913 16.3911H16.3926V16.3912Z" fill="#D80027"/>
<path d="M9.60774 16.3911H9.60764L3.80664 22.1921C4.07334 22.4589 4.35218 22.7134 4.64123 22.9563L9.60774 17.9897V16.3911Z" fill="#D80027"/>
<path d="M9.60817 9.60882V9.60871L3.80713 3.80762C3.54032 4.07432 3.2858 4.35316 3.04297 4.64221L8.00953 9.60877H9.60817V9.60882Z" fill="#D80027"/>
<path d="M16.3926 9.60871L22.1937 3.80756C21.927 3.54076 21.6481 3.28624 21.3591 3.04346L16.3926 8.01002V9.60871H16.3926Z" fill="#D80027"/>
</svg>
