<svg width="26" height="26" viewBox="0 0 26 26" fill="none" xmlns="http://www.w3.org/2000/svg">
<circle cx="13" cy="13" r="13" fill="white"/>
<path d="M12.4346 12.9997H25.9998C25.9998 11.8264 25.8434 10.6897 25.5519 9.6084H12.4346V12.9997Z" fill="#D80027"/>
<path d="M12.4346 6.21701H24.0917C23.2959 4.91843 22.2784 3.77062 21.0921 2.82568H12.4346V6.21701Z" fill="#D80027"/>
<path d="M12.9985 25.9994C16.0581 25.9994 18.8702 24.9419 21.0908 23.1733H4.90625C7.12691 24.9419 9.93903 25.9994 12.9985 25.9994Z" fill="#D80027"/>
<path d="M1.90748 19.7819H24.0914C24.7303 18.7395 25.2257 17.5999 25.5516 16.3906H0.447266C0.773129 17.5999 1.2686 18.7395 1.90748 19.7819Z" fill="#D80027"/>
<path fill-rule="evenodd" clip-rule="evenodd" d="M7.20652 2.03013H6.02184C8.03791 0.744961 10.4319 0 13 0V13H0C0 12.451 0.0344297 11.9101 0.100496 11.379L0.760551 10.8994L1.86245 11.7L1.44153 10.4046L2.54348 9.60405H1.18143L0.812398 8.46818C0.940113 8.12465 1.0822 7.78812 1.23754 7.459L1.86245 7.91304L1.5275 6.88213C1.62795 6.69419 1.73276 6.50899 1.84204 6.32668L2.54348 5.81709H2.16389C2.86467 4.76206 3.71505 3.8152 4.68528 3.00701L4.32169 4.12608L5.42359 3.32551L6.52549 4.12608L6.10457 2.8307L7.20652 2.03013ZM5.42376 10.8994L6.52567 11.7L6.10474 10.4046L7.20669 9.60401H5.84464L5.42376 8.30863L5.00289 9.60401H3.64083L4.74279 10.4046L4.32186 11.7L5.42376 10.8994ZM6.10474 6.61752L6.52567 7.9129L5.42376 7.11233L4.32186 7.9129L4.74279 6.61752L3.64083 5.81695H5.00289L5.42376 4.52157L5.84464 5.81695H7.20669L6.10474 6.61752ZM10.0866 10.8994L11.1885 11.7L10.7675 10.4046L11.8695 9.60401H10.5074L10.0866 8.30863L9.6657 9.60401H8.30364L9.40559 10.4046L8.98467 11.7L10.0866 10.8994ZM10.7675 6.61752L11.1885 7.9129L10.0866 7.11233L8.98467 7.9129L9.40559 6.61752L8.30364 5.81695H9.6657L10.0866 4.52157L10.5074 5.81695H11.8695L10.7675 6.61752ZM11.1885 4.12607L10.7675 2.83069L11.8695 2.03012H10.5074L10.0866 0.734741L9.6657 2.03012H8.30364L9.40559 2.83069L8.98467 4.12607L10.0866 3.3255L11.1885 4.12607Z" fill="#0052B4"/>
</svg>
