<svg width="50" height="48" viewBox="0 0 50 48" fill="none" xmlns="http://www.w3.org/2000/svg">
<path opacity="0.6" fill-rule="evenodd" clip-rule="evenodd" d="M22.8915 25.7561C22.1572 25.1521 21.4183 24.5444 20.6647 23.9297C18.0217 28.6926 15.3787 33.4218 12.7357 38.1509L12.7349 38.1524C12.8406 38.1524 12.9111 38.1186 12.9463 38.0848C17.2461 34.9092 21.5458 31.7336 25.9161 28.558C26.1628 28.3553 26.4447 28.1864 26.7267 28.0512C28.2598 27.2911 29.7842 26.5394 31.3085 25.7877C32.8328 25.0361 34.357 24.2844 35.8901 23.5243C35.9583 23.5025 36.0266 23.4666 36.1044 23.4257C36.147 23.4033 36.1926 23.3793 36.2425 23.3554C36.1368 23.2878 36.0663 23.2203 35.9958 23.1527C33.9693 21.4635 31.9516 19.7828 29.9339 18.1021C27.9162 16.4214 25.8984 14.7407 23.8719 13.0515C23.7309 12.9164 23.5195 12.7813 23.3433 12.7475C22.1861 12.5083 21.0436 12.297 19.9063 12.0868C19.277 11.9704 18.6492 11.8543 18.0214 11.734C16.4883 11.4468 14.9464 11.1597 13.4045 10.8725C11.8626 10.5854 10.3207 10.2982 8.78756 10.011C8.36463 9.92659 7.95052 9.85058 7.5364 9.77457C7.12228 9.69856 6.70817 9.62254 6.28524 9.53809C6.28524 9.53809 6.25 9.57187 6.25 9.60565C9.79532 12.0534 13.3232 14.5179 16.8582 16.9874C18.3484 18.0284 19.8398 19.0703 21.3344 20.1122C21.6291 19.1234 21.9177 18.1405 22.2052 17.1611C22.6054 15.798 23.0036 14.4417 23.4137 13.0853C23.4842 13.1191 23.4842 13.1529 23.4842 13.1867C22.7441 16.4974 21.9688 19.8082 21.1934 23.1189C21.1229 23.3216 21.1581 23.4905 21.3344 23.6594C22.004 24.3182 22.6736 24.9854 23.3433 25.6526C24.0129 26.3199 24.6825 26.9871 25.3522 27.6458C25.3874 27.6796 25.4226 27.7219 25.4579 27.7641C25.4931 27.8063 25.5284 27.8485 25.5636 27.8823L25.5284 27.9161C24.6447 27.1979 23.7714 26.4797 22.8915 25.7561ZM40.8108 18.674C41.8317 18.469 42.8439 18.2658 43.868 18.0513C43.8128 18.0119 43.7684 17.9726 43.7285 17.9372C43.6655 17.8814 43.6137 17.8355 43.5486 17.8148C42.3421 16.8352 41.1356 15.8893 39.9291 14.9435L39.9288 14.9433C39.7158 14.7744 39.5384 14.7406 39.29 14.8419C38.1544 15.2304 37.0276 15.6274 35.9008 16.0243C34.7741 16.4213 33.6473 16.8182 32.5117 17.2067L32.5117 17.2067C31.9794 17.4094 31.447 17.6121 30.8438 17.8148L30.8438 17.8148C32.7601 19.6391 34.641 21.4296 36.5574 23.2877C37.551 20.5515 38.5091 17.8491 39.4672 15.1466L39.4674 15.146C39.4877 15.1652 39.4964 15.1735 39.5067 15.1771C39.5145 15.1798 39.5232 15.1798 39.5384 15.1798C39.219 16.4635 38.8996 17.7473 38.5447 19.1324C39.3101 18.9752 40.0628 18.8241 40.8108 18.674Z" fill="#E5E5E5"/>
</svg>
