<svg width="42" height="42" viewBox="0 0 42 42" fill="none" xmlns="http://www.w3.org/2000/svg">
<circle opacity="0.1" cx="21" cy="21" r="21" fill="#191D1D"/>
<path d="M21 31.5C22.9183 31.5 24.6935 31.0204 26.3257 30.0613C27.9074 29.1526 29.1526 27.9074 30.0613 26.3257C31.0204 24.6935 31.5 22.9183 31.5 21C31.5 19.0817 31.0204 17.3065 30.0613 15.6743C29.1526 14.0925 27.9074 12.8474 26.3257 11.9387C24.6935 10.9796 22.9183 10.5 21 10.5C19.0986 10.5 17.3317 10.9796 15.6995 11.9387C14.1178 12.8642 12.8642 14.1178 11.9387 15.6995C10.9796 17.3317 10.5 19.0986 10.5 21C10.5 22.9014 10.9796 24.6683 11.9387 26.3005C12.8474 27.8822 14.0925 29.1358 15.6743 30.0613C17.3065 31.0204 19.0817 31.5 21 31.5Z" fill="#005B58"/>
<path d="M20.0371 16.4788C20.0371 16.0763 20.3634 15.75 20.7659 15.75C21.1684 15.75 21.4947 16.0763 21.4947 16.4788V23.0592H20.0371V16.4788Z" fill="white"/>
<path fill-rule="evenodd" clip-rule="evenodd" d="M26.5666 24.6158C26.9285 24.7928 27.0787 25.2293 26.9026 25.5915C26.7259 25.9549 26.2877 26.1058 25.9247 25.9282L20.0322 23.0458L20.6712 21.7319L26.5666 24.6158Z" fill="white"/>
</svg>
