<svg width="66" height="44" viewBox="0 0 66 44" fill="none" xmlns="http://www.w3.org/2000/svg">
<rect x="1.625" y="16.9492" width="58" height="26" rx="13" transform="rotate(-15 1.625 16.9492)" fill="#005B58"/>
<path d="M23.7997 21.5672C24.7902 21.3018 25.6073 21.3141 26.2512 21.6039C26.895 21.8938 27.3349 22.4789 27.5708 23.3593L28.8889 28.2785L27.4824 28.6554L26.8239 27.7561L26.7711 27.7703C26.6306 28.091 26.4727 28.3645 26.2974 28.5908C26.1221 28.817 25.902 29.0081 25.6371 29.164C25.3722 29.3199 25.0351 29.4527 24.6257 29.5624C24.1899 29.6792 23.7757 29.7005 23.3831 29.6264C22.995 29.5511 22.6558 29.3684 22.3657 29.0781C22.0745 28.7834 21.8575 28.3697 21.7147 27.8371C21.5048 27.0535 21.6254 26.4032 22.0766 25.886C22.5266 25.3643 23.2965 24.9363 24.3864 24.6018L25.6567 24.2189L25.5701 23.8954C25.4663 23.508 25.2889 23.2512 25.0381 23.125C24.7872 22.9988 24.4813 22.984 24.1204 23.0807C23.7638 23.1763 23.4274 23.3207 23.1112 23.5139C22.7949 23.7072 22.4858 23.9268 22.1837 24.1729L21.1523 22.9914C21.4887 22.6795 21.883 22.3993 22.3354 22.1507C22.7922 21.9009 23.2803 21.7064 23.7997 21.5672ZM25.9717 25.3943L25.1996 25.6295C24.5528 25.8216 24.1307 26.0598 23.9332 26.3439C23.74 26.6268 23.6907 26.9444 23.785 27.2965C23.8676 27.6047 24.0168 27.8006 24.2327 27.8843C24.4474 27.9636 24.7 27.9643 24.9905 27.8865C25.4219 27.7709 25.7509 27.5459 25.9774 27.2116C26.2083 26.876 26.2607 26.4728 26.1345 26.0018L25.9717 25.3943ZM29.3344 23.4175C29.0431 22.3302 28.9296 21.3698 28.9941 20.5363C29.0586 19.7028 29.3228 18.9809 29.7868 18.3707C30.2496 17.756 30.9346 17.2398 31.8417 16.8222C32.2947 16.6111 32.7585 16.4137 33.233 16.23C33.7106 16.0407 34.2042 15.84 34.7135 15.628L35.417 17.3291C35.1952 17.4169 34.9542 17.5121 34.6939 17.6149C34.4336 17.7176 34.1718 17.8232 33.9083 17.9316C33.6436 18.0355 33.3883 18.1393 33.1425 18.2429C32.8954 18.3421 32.6725 18.4349 32.4739 18.5211C32.0438 18.7119 31.6991 18.9222 31.4399 19.1521C31.1806 19.3819 31.0154 19.681 30.9442 20.0492C30.873 20.4174 30.9018 20.9122 31.0305 21.5335L31.1296 21.5069C31.1904 21.3113 31.2947 21.1018 31.4424 20.8782C31.5889 20.6502 31.7899 20.4407 32.0453 20.2495C32.2996 20.054 32.6138 19.9061 32.988 19.8059C33.5779 19.6478 34.1209 19.632 34.6172 19.7586C35.1135 19.8851 35.5426 20.157 35.9044 20.5743C36.2695 20.986 36.5476 21.5484 36.7387 22.2616C36.9628 23.0979 36.9963 23.8391 36.8391 24.4852C36.6852 25.1256 36.3752 25.6592 35.9093 26.086C35.4433 26.5129 34.8538 26.8218 34.1406 27.0129C33.5948 27.1591 33.0752 27.1922 32.5819 27.1121C32.0887 27.0319 31.6317 26.8406 31.2109 26.5382C30.7946 26.2345 30.4273 25.8234 30.109 25.3048C29.7896 24.7817 29.5314 24.1527 29.3344 23.4175ZM33.8225 25.3501C34.1086 25.2734 34.3408 25.1452 34.5191 24.9653C34.7006 24.7798 34.8124 24.5281 34.8546 24.2101C34.9 23.8866 34.8572 23.4805 34.7263 22.9919C34.5683 22.402 34.3442 21.9619 34.0541 21.6716C33.7672 21.3758 33.3883 21.291 32.9173 21.4172C32.6311 21.4938 32.3815 21.6362 32.1683 21.8443C31.9584 22.0468 31.7917 22.2613 31.6684 22.4878C31.5439 22.7099 31.4652 22.8914 31.4322 23.0324C31.5254 23.3801 31.6426 23.712 31.7839 24.028C31.9284 24.3384 32.0977 24.6092 32.2917 24.8402C32.4857 25.0713 32.709 25.2356 32.9616 25.3331C33.2186 25.4293 33.5055 25.435 33.8225 25.3501ZM45.0972 19.9653C45.2623 20.5816 45.3249 21.1498 45.285 21.6701C45.2495 22.1891 45.1175 22.6562 44.8891 23.0713C44.6638 23.4808 44.3513 23.8287 43.9515 24.1151C43.5561 24.4004 43.0811 24.6173 42.5265 24.7659C42.007 24.9051 41.507 24.9494 41.0264 24.8989C40.5502 24.8472 40.1077 24.7016 39.6991 24.4619C39.2937 24.2167 38.9393 23.88 38.6358 23.4517C38.3367 23.0223 38.1046 22.4995 37.9395 21.8832C37.7201 21.0644 37.6796 20.3322 37.818 19.6865C37.9563 19.0408 38.2545 18.4985 38.7126 18.0597C39.1706 17.6208 39.7716 17.3017 40.5155 17.1024C41.2066 16.9172 41.858 16.9007 42.4697 17.0529C43.0857 17.204 43.6217 17.5227 44.0776 18.0092C44.5379 18.4945 44.8778 19.1465 45.0972 19.9653ZM39.993 21.333C40.1228 21.8172 40.2847 22.2102 40.4788 22.512C40.6729 22.8139 40.9046 23.0184 41.174 23.1255C41.4433 23.2326 41.7584 23.2378 42.1194 23.1411C42.476 23.0456 42.7419 22.8847 42.9172 22.6584C43.0968 22.431 43.1931 22.1386 43.2059 21.7813C43.223 21.4229 43.1668 21.0015 43.037 20.5173C42.9061 20.0287 42.7447 19.6379 42.553 19.3448C42.3645 19.0462 42.1361 18.8455 41.868 18.7428C41.5998 18.6401 41.2853 18.6371 40.9243 18.7338C40.3917 18.8765 40.0532 19.163 39.909 19.5933C39.7692 20.0223 39.7972 20.6022 39.993 21.333Z" fill="white"/>
</svg>
