<svg width="42" height="42" viewBox="0 0 42 42" fill="none" xmlns="http://www.w3.org/2000/svg">
<circle opacity="0.1" cx="21" cy="21" r="21" fill="#191D1D"/>
<path fill-rule="evenodd" clip-rule="evenodd" d="M30.6684 13.0377V15.6312C31.3395 16.0293 31.8059 16.7459 31.8059 17.5877V24.4127C31.8059 25.2544 31.3395 25.9711 30.6684 26.3692V28.9627C30.6684 30.2139 29.6446 31.2377 28.3934 31.2377H12.4684C11.2057 31.2377 10.1934 30.2139 10.1934 28.9627V13.0377C10.1934 11.7864 11.2057 10.7627 12.4684 10.7627H28.3934C29.6446 10.7627 30.6684 11.7864 30.6684 13.0377ZM29.5309 24.4127V17.5877H21.5684V24.4127H29.5309ZM19.851 28.3502C18.7464 28.3502 17.851 27.4548 17.851 26.3502V15.6502C17.851 14.5456 18.7464 13.6502 19.851 13.6502H28.351V15.7502H22.051C20.896 15.7502 19.951 16.6952 19.951 17.8502V24.1502C19.951 25.3052 20.896 26.2502 22.051 26.2502H28.351V28.3502H19.851ZM23.2746 21.0002C23.2746 20.0579 24.0385 19.2939 24.9809 19.2939C25.9232 19.2939 26.6871 20.0579 26.6871 21.0002C26.6871 21.9425 25.9232 22.7064 24.9809 22.7064C24.0385 22.7064 23.2746 21.9425 23.2746 21.0002Z" fill="#005B58"/>
<path d="M29.5309 17.5874V24.4124H21.5684V17.5874H29.5309Z" fill="#005B58"/>
<path d="M24.9797 19.2939C24.0374 19.2939 23.2734 20.0579 23.2734 21.0002C23.2734 21.9425 24.0374 22.7064 24.9797 22.7064C25.922 22.7064 26.6859 21.9425 26.6859 21.0002C26.6859 20.0579 25.922 19.2939 24.9797 19.2939Z" fill="#DFDFDF"/>
</svg>
