<svg width="42" height="42" viewBox="0 0 42 42" fill="none" xmlns="http://www.w3.org/2000/svg">
<circle opacity="0.1" cx="21" cy="21" r="21" fill="#191D1D"/>
<path d="M11.5488 18.5723C11.5488 18.1734 11.8722 17.8501 12.2711 17.8501H28.6766C29.0755 17.8501 29.3988 18.1734 29.3988 18.5723V29.7279C29.3988 30.1267 29.0755 30.4501 28.6766 30.4501H12.2711C11.8722 30.4501 11.5488 30.1267 11.5488 29.7279V18.5723Z" fill="#005B58"/>
<path fill-rule="evenodd" clip-rule="evenodd" d="M27.8242 11.9H28.9617C30.213 11.9 31.2367 12.9237 31.2367 14.175V30.1C31.2367 31.3512 30.213 32.375 28.9617 32.375H13.0367C11.7741 32.375 10.7617 31.3512 10.7617 30.1V14.175C10.7617 12.9237 11.7741 11.9 13.0367 11.9H14.1742V9.625H16.4492V11.9H25.5492V9.625H27.8242V11.9ZM13.0367 18.7252V30.1002H28.9617V18.7252H13.0367ZM28.9617 16.4502H13.0367V14.1752H28.9617V16.4502ZM16.0339 21.0002C15.6351 21.0002 15.3117 21.3235 15.3117 21.7224V25.9654C15.3117 26.3643 15.6351 26.6877 16.0339 26.6877H20.277C20.6759 26.6877 20.9992 26.3643 20.9992 25.9654V21.7224C20.9992 21.3235 20.6759 21.0002 20.277 21.0002H16.0339Z" fill="#005B58"/>
<path d="M15.3125 21.7222C15.3125 21.3233 15.6358 21 16.0347 21H20.2778C20.6766 21 21 21.3233 21 21.7222V25.9653C21 26.3641 20.6766 26.6875 20.2778 26.6875H16.0347C15.6358 26.6875 15.3125 26.3641 15.3125 25.9653V21.7222Z" fill="#DFDFDF"/>
</svg>
