<svg width="30" height="30" viewBox="0 0 30 30" fill="none" xmlns="http://www.w3.org/2000/svg">
<circle opacity="0.1" cx="15" cy="15" r="15" fill="#191D1D"/>
<path d="M15 22.5C16.3702 22.5 17.6382 22.1575 18.8041 21.4724C19.9339 20.8233 20.8233 19.9339 21.4724 18.8041C22.1575 17.6382 22.5 16.3702 22.5 15C22.5 13.6298 22.1575 12.3618 21.4724 11.1959C20.8233 10.0661 19.9339 9.17668 18.8041 8.52764C17.6382 7.84255 16.3702 7.5 15 7.5C13.6418 7.5 12.3798 7.84255 11.2139 8.52764C10.0841 9.1887 9.1887 10.0841 8.52764 11.2139C7.84255 12.3798 7.5 13.6418 7.5 15C7.5 16.3582 7.84255 17.6202 8.52764 18.7861C9.17668 19.9159 10.0661 20.8113 11.1959 21.4724C12.3618 22.1575 13.6298 22.5 15 22.5Z" fill="#005B58"/>
<path d="M14.3115 11.7706C14.3115 11.4831 14.5446 11.25 14.8321 11.25C15.1196 11.25 15.3526 11.4831 15.3526 11.7706V16.4709H14.3115V11.7706Z" fill="white"/>
<path fill-rule="evenodd" clip-rule="evenodd" d="M18.9759 17.5828C19.2343 17.7092 19.3417 18.021 19.2159 18.2797C19.0896 18.5393 18.7766 18.6471 18.5173 18.5202L14.3085 16.4614L14.7648 15.5229L18.9759 17.5828Z" fill="white"/>
</svg>
