<svg width="42" height="42" viewBox="0 0 42 42" fill="none" xmlns="http://www.w3.org/2000/svg">
<circle cx="21" cy="21" r="21" fill="#F5F5F5"/>
<g clip-path="url(#clip0_1468_26248)">
<path d="M28.9056 19.9464C28.4521 20.1567 27.9579 20.266 27.4495 20.2661C26.8458 20.2661 26.249 20.1058 25.7235 19.8024C24.7426 19.2361 24.1102 18.2238 24.0087 17.1175C22.8966 17.0159 21.8873 16.3783 21.3239 15.4025C20.7577 14.4218 20.716 13.2293 21.1809 12.2207C20.4692 11.7207 19.9731 10.9722 19.791 10.1211C17.3687 10.1988 15.1448 11.0737 13.3718 12.4906C13.8364 12.941 14.1114 13.5666 14.1114 14.2414C14.1114 15.1051 13.6599 15.8649 12.9809 16.2986C12.6022 16.5404 12.1532 16.6813 11.6715 16.6813C11.3322 16.6813 11.0013 16.6109 10.6968 16.4781C10.6953 16.4796 10.6938 16.4811 10.6922 16.4827C10.5783 16.7987 10.4789 17.1215 10.3939 17.4502C10.1676 18.3258 10.0464 19.2434 10.0464 20.189C10.0464 26.2268 14.9585 31.1389 20.9963 31.1389C23.3845 31.1389 25.5959 30.3696 27.3975 29.0668C27.4355 29.0327 27.4842 28.9969 27.5408 28.9598C28.2155 28.4551 28.8314 27.876 29.3735 27.2322C28.7454 26.7827 28.3476 26.047 28.3476 25.2459C28.3476 24.7144 28.519 24.2224 28.8087 23.8211C29.235 23.2307 29.9185 22.8385 30.6937 22.8089C30.7241 22.8072 30.7551 22.8061 30.7875 22.8061C30.811 22.8061 30.8344 22.8069 30.8578 22.8076C30.9394 22.3269 30.9898 21.8357 31.0058 21.3359C30.1545 21.1541 29.4059 20.658 28.9056 19.9464ZM16.5779 27.5303C15.8173 27.5303 15.137 27.1803 14.6892 26.633C14.3282 26.2075 14.1097 25.6574 14.1097 25.057C14.1097 23.7116 15.2042 22.6171 16.5495 22.6171C17.3101 22.6171 17.9904 22.9671 18.4382 23.5144C18.7992 23.9399 19.0177 24.49 19.0177 25.0904C19.0177 26.4358 17.9233 27.5303 16.5779 27.5303ZM18.1904 18.7479C17.4298 18.7479 16.7496 18.3979 16.3018 17.8506C15.9407 17.4251 15.7222 16.875 15.7222 16.2746C15.7222 14.9292 16.8167 13.8347 18.1621 13.8347C18.9227 13.8347 19.6029 14.1847 20.0507 14.732C20.4118 15.1575 20.6302 15.7076 20.6302 16.308C20.6302 17.6533 19.5358 18.7479 18.1904 18.7479ZM23.2309 26.3664C22.2542 26.3664 21.3804 25.9175 20.8046 25.2153C20.344 24.6692 20.0657 23.9646 20.0657 23.1959C20.0657 21.4662 21.4729 20.059 23.2026 20.059C24.1793 20.059 25.0531 20.5079 25.6289 21.2101C26.0895 21.7562 26.3679 22.4608 26.3679 23.2294C26.3679 24.9592 24.9606 26.3664 23.2309 26.3664Z" fill="#E8BACA"/>
<path d="M18.162 17.5521C18.8667 17.5521 19.44 16.9788 19.44 16.2741C19.44 15.5694 18.8667 14.9961 18.162 14.9961C17.4573 14.9961 16.884 15.5694 16.884 16.2741C16.884 16.9788 17.4574 17.5521 18.162 17.5521Z" fill="#E0004D"/>
<path d="M16.5495 26.3348C17.2542 26.3348 17.8275 25.7615 17.8275 25.0568C17.8275 24.3521 17.2542 23.7788 16.5495 23.7788C15.8448 23.7788 15.2715 24.3521 15.2715 25.0568C15.2715 25.7615 15.8448 26.3348 16.5495 26.3348Z" fill="#E0004D"/>
<path d="M12.9497 14.2409C12.9497 13.8632 12.7848 13.5151 12.5103 13.2769C11.9785 13.9285 11.5204 14.6423 11.1482 15.4055C11.3114 15.479 11.489 15.519 11.6717 15.519C12.3764 15.5189 12.9497 14.9456 12.9497 14.2409Z" fill="#E0004D"/>
<path d="M29.5095 25.2458C29.5095 25.677 29.7297 26.0717 30.0744 26.305C30.5463 25.6068 30.9396 24.8513 31.2421 24.0517C31.0987 23.9969 30.9458 23.9678 30.7875 23.9678C30.0829 23.9678 29.5095 24.5411 29.5095 25.2458Z" fill="#E0004D"/>
<path d="M23.2026 25.1709C24.2917 25.1709 25.1777 24.2848 25.1777 23.1958C25.1777 22.1067 24.2917 21.2207 23.2026 21.2207C22.1135 21.2207 21.2275 22.1067 21.2275 23.1958C21.2275 24.2848 22.1135 25.1709 23.2026 25.1709Z" fill="#E0004D"/>
<path d="M20.0507 14.7319C20.395 15.1526 20.6019 15.6898 20.6019 16.2745C20.6019 17.6199 19.5074 18.7144 18.1621 18.7144C17.4172 18.7144 16.7496 18.3785 16.3018 17.8506C16.7495 18.3978 17.4298 18.7478 18.1904 18.7478C19.5358 18.7478 20.6302 17.6533 20.6302 16.308C20.6302 15.7076 20.4118 15.1575 20.0507 14.7319Z" fill="#89634A"/>
<path d="M18.9893 25.0568C18.9893 26.4021 17.8949 27.4966 16.5495 27.4966C15.8047 27.4966 15.1371 27.1607 14.6892 26.6328C15.137 27.1801 15.8173 27.5301 16.5779 27.5301C17.9232 27.5301 19.0177 26.4356 19.0177 25.0902C19.0177 24.4897 18.7992 23.9397 18.4382 23.5142C18.7824 23.9349 18.9893 24.472 18.9893 25.0568Z" fill="#89634A"/>
<path d="M26.3396 23.1958C26.3396 24.9255 24.9323 26.3327 23.2026 26.3327C22.2416 26.3327 21.3806 25.8979 20.8047 25.2152C21.3804 25.9173 22.2542 26.3663 23.231 26.3663C24.9606 26.3663 26.3679 24.959 26.3679 23.2293C26.3679 22.4607 26.0895 21.7561 25.6289 21.21C26.0727 21.7512 26.3396 22.4428 26.3396 23.1958Z" fill="#89634A"/>
<path d="M18.162 18.7141C19.5073 18.7141 20.6018 17.6196 20.6018 16.2743C20.6018 15.6896 20.3949 15.1524 20.0507 14.7317C19.6029 14.1845 18.9226 13.8345 18.162 13.8345C16.8167 13.8345 15.7222 14.929 15.7222 16.2743C15.7222 16.8748 15.9406 17.4249 16.3017 17.8504C16.7496 18.3782 17.4172 18.7141 18.162 18.7141ZM18.162 14.9963C18.8667 14.9963 19.44 15.5696 19.44 16.2743C19.44 16.979 18.8667 17.5523 18.162 17.5523C17.4573 17.5523 16.884 16.979 16.884 16.2743C16.884 15.5696 17.4574 14.9963 18.162 14.9963Z" fill="#101820"/>
<path d="M16.5497 27.4968C17.895 27.4968 18.9895 26.4024 18.9895 25.057C18.9895 24.4723 18.7826 23.9351 18.4384 23.5144C17.9906 22.9672 17.3103 22.6172 16.5497 22.6172C15.2044 22.6172 14.1099 23.7117 14.1099 25.057C14.1099 25.6575 14.3283 26.2076 14.6894 26.6331C15.1373 27.161 15.8048 27.4968 16.5497 27.4968ZM16.5497 23.779C17.2544 23.779 17.8277 24.3523 17.8277 25.057C17.8277 25.7617 17.2544 26.335 16.5497 26.335C15.845 26.335 15.2717 25.7617 15.2717 25.057C15.2717 24.3523 15.845 23.779 16.5497 23.779Z" fill="#101820"/>
<path d="M33.107 20.0786L33.1062 20.0303C33.1025 19.7236 32.861 19.4727 32.5547 19.4573C31.6906 19.4136 30.9278 18.8973 30.5639 18.11C30.4916 17.9535 30.3535 17.8372 30.187 17.7925C30.0204 17.7478 29.8427 17.7795 29.7017 17.8789C29.3122 18.1536 28.8346 18.305 28.3572 18.305C27.9526 18.305 27.5522 18.1973 27.1991 17.9935C26.4173 17.5421 25.9651 16.6688 26.0472 15.7687C26.0628 15.5969 26.0013 15.4271 25.8794 15.3053C25.7574 15.1833 25.587 15.122 25.416 15.1374C25.3466 15.1438 25.2759 15.147 25.2061 15.147C24.377 15.147 23.605 14.7019 23.1913 13.9854C22.7399 13.2036 22.785 12.2212 23.3061 11.4826C23.4055 11.3417 23.4372 11.1639 23.3925 10.9974C23.3479 10.8308 23.2316 10.6927 23.0751 10.6204C22.2881 10.2566 21.7719 9.49417 21.728 8.63053C21.7125 8.32444 21.4618 8.08307 21.1554 8.07912L21.108 8.07837C21.0709 8.07773 21.0337 8.07715 20.9965 8.07715C14.318 8.07715 8.88477 13.5105 8.88477 20.1889C8.88477 26.8674 14.318 32.3007 20.9965 32.3007C27.6749 32.3007 33.1082 26.8674 33.1082 20.1889C33.1082 20.152 33.1076 20.1153 33.107 20.0786ZM12.5104 13.2772C12.7849 13.5155 12.9498 13.8635 12.9498 14.2413C12.9498 14.946 12.3765 15.5193 11.6717 15.5193C11.4891 15.5193 11.3115 15.4792 11.1483 15.4058C11.5205 14.6426 11.9786 13.9288 12.5104 13.2772ZM30.0745 26.3051C29.7297 26.0718 29.5096 25.677 29.5096 25.2458C29.5096 24.5411 30.0829 23.9678 30.7876 23.9678C30.9459 23.9678 31.0988 23.9969 31.2422 24.0517C30.9397 24.8514 30.5464 25.6068 30.0745 26.3051ZM31.5953 22.9442C31.3591 22.8612 31.11 22.8148 30.8579 22.8074C30.8345 22.8067 30.811 22.8059 30.7876 22.8059C30.7561 22.8059 30.725 22.8076 30.6938 22.8088C29.9186 22.8384 29.2351 23.2305 28.8088 23.821C28.5191 24.2222 28.3477 24.7142 28.3477 25.2458C28.3477 26.0469 28.7455 26.7825 29.3736 27.2321C28.8315 27.8758 28.2155 28.455 27.5409 28.9597C27.4931 28.9954 27.4459 29.0317 27.3976 29.0667C25.596 30.3696 23.3846 31.1388 20.9964 31.1388C14.9587 31.1388 10.0465 26.2268 10.0465 20.1889C10.0465 19.2434 10.1677 18.3258 10.3941 17.45C10.4791 17.1214 10.5785 16.7986 10.6924 16.4825C10.6931 16.4807 10.6937 16.4788 10.6944 16.4768C10.6952 16.4772 10.6961 16.4775 10.697 16.4779C11.0015 16.6107 11.3324 16.6811 11.6717 16.6811C12.1534 16.6811 12.6024 16.5402 12.9811 16.2984C13.66 15.8647 14.1116 15.105 14.1116 14.2413C14.1116 13.5664 13.8366 12.9408 13.372 12.4905C13.3458 12.4651 13.3194 12.44 13.292 12.4157C15.1935 10.5309 17.7802 9.33639 20.6407 9.24461C20.8241 10.1022 21.3241 10.8564 22.0411 11.3602C21.5726 12.3765 21.6146 13.578 22.1851 14.5662C22.7528 15.5494 23.7698 16.1919 24.8903 16.2943C24.9926 17.409 25.6297 18.429 26.6181 18.9996C27.1476 19.3053 27.7489 19.4669 28.3572 19.4668C28.8695 19.4667 29.3675 19.3566 29.8244 19.1447C30.3284 19.8618 31.0827 20.3616 31.9405 20.5449C31.9141 21.3707 31.7958 22.1738 31.5953 22.9442Z" fill="#101820"/>
<path d="M23.2026 26.3329C24.9323 26.3329 26.3395 24.9257 26.3395 23.196C26.3395 22.4431 26.0727 21.7514 25.6289 21.2102C25.0532 20.508 24.1794 20.0591 23.2026 20.0591C21.4729 20.0591 20.0657 21.4663 20.0657 23.196C20.0657 23.9647 20.344 24.6693 20.8047 25.2154C21.3806 25.8981 22.2416 26.3329 23.2026 26.3329ZM23.2026 21.2209C24.2917 21.2209 25.1777 22.1069 25.1777 23.196C25.1777 24.285 24.2917 25.1711 23.2026 25.1711C22.1135 25.1711 21.2275 24.285 21.2275 23.196C21.2275 22.1069 22.1135 21.2209 23.2026 21.2209Z" fill="#101820"/>
</g>
<defs>
<clipPath id="clip0_1468_26248">
<rect width="24.2235" height="24.2235" fill="white" transform="translate(8.88452 8.07715)"/>
</clipPath>
</defs>
</svg>
