<svg width="36" height="36" viewBox="0 0 36 36" fill="none" xmlns="http://www.w3.org/2000/svg">
<mask id="mask0_971_45234" style="mask-type:alpha" maskUnits="userSpaceOnUse" x="0" y="0" width="36" height="36">
<rect width="36" height="36" fill="#D9D9D9"/>
</mask>
<g mask="url(#mask0_971_45234)">
<path d="M10.0757 9.58962C10.0757 8.7117 10.7874 8 11.6653 8H21.203C22.081 8 22.7927 8.7117 22.7927 9.58962V23.1014C22.7927 23.9793 22.081 24.691 21.203 24.691H11.6653C10.7874 24.691 10.0757 23.9793 10.0757 23.1014V9.58962Z" fill="#007672"/>
<path d="M13.9508 12.6636C14.0064 11.8285 14.7 11.1797 15.5369 11.1797H24.3822C25.2602 11.1797 25.9718 11.8914 25.9718 12.7693V25.4863C25.9718 26.3642 25.2602 27.0759 24.3822 27.0759H15.3529C14.5951 27.0759 13.9427 26.5411 13.7941 25.798L13.2963 23.3088C13.2688 23.1714 13.2596 23.031 13.2689 22.8913L13.9508 12.6636Z" fill="#007672"/>
<path d="M24.5748 10.7251H23.392C23.3674 10.7251 23.3455 10.7335 23.3225 10.7391V9.49707C23.3225 8.67152 22.6356 8 21.7912 8H11.5314C10.6869 8 10 8.67152 10 9.49707V23.4589C10 24.2844 10.6869 24.956 11.5314 24.956H13.3306V25.6319C13.3306 26.4279 13.9912 27.0754 14.8035 27.0754H24.5748C25.387 27.0754 26.0476 26.4279 26.0476 25.6319V12.1686C26.0476 11.3726 25.387 10.7251 24.5748 10.7251ZM10.6056 23.4589V9.49707C10.6056 9.00563 11.021 8.60559 11.5314 8.60559H21.7912C22.3015 8.60559 22.717 9.00563 22.717 9.49707V23.4589C22.717 23.9503 22.3015 24.3504 21.7912 24.3504H11.5314C11.021 24.3504 10.6056 23.9503 10.6056 23.4589ZM25.442 25.6319C25.442 26.0941 25.0529 26.4699 24.5748 26.4699H14.8035C14.3253 26.4699 13.9362 26.0941 13.9362 25.6319V24.956H21.7912C22.6356 24.956 23.3225 24.2844 23.3225 23.4589V11.3166C23.3454 11.3222 23.3674 11.3306 23.392 11.3306H24.5748C25.0529 11.3306 25.442 11.7064 25.442 12.1686V25.6319Z" fill="#F5F5F5"/>
<path d="M19.9919 11.9375H13.3306C13.1633 11.9375 13.0278 12.0729 13.0278 12.2403C13.0278 12.4077 13.1633 12.5431 13.3306 12.5431H19.9919C20.1592 12.5431 20.2947 12.4077 20.2947 12.2403C20.2947 12.0729 20.1592 11.9375 19.9919 11.9375Z" fill="#F5F5F5"/>
<path d="M19.9919 14.3594H13.3306C13.1633 14.3594 13.0278 14.4948 13.0278 14.6621C13.0278 14.8295 13.1633 14.9649 13.3306 14.9649H19.9919C20.1592 14.9649 20.2947 14.8295 20.2947 14.6621C20.2947 14.4948 20.1592 14.3594 19.9919 14.3594Z" fill="#F5F5F5"/>
<path d="M19.9919 16.7793H13.3306C13.1633 16.7793 13.0278 16.9147 13.0278 17.0821C13.0278 17.2494 13.1633 17.3849 13.3306 17.3849H19.9919C20.1592 17.3849 20.2947 17.2494 20.2947 17.0821C20.2947 16.9147 20.1592 16.7793 19.9919 16.7793Z" fill="#F5F5F5"/>
<path d="M16.9641 19.2031H13.3306C13.1633 19.2031 13.0278 19.3386 13.0278 19.5059C13.0278 19.6733 13.1633 19.8087 13.3306 19.8087H16.9641C17.1314 19.8087 17.2668 19.6733 17.2668 19.5059C17.2668 19.3386 17.1314 19.2031 16.9641 19.2031Z" fill="#F5F5F5"/>
</g>
</svg>
