<svg width="67" height="60" viewBox="0 0 67 60" fill="none" xmlns="http://www.w3.org/2000/svg">
<mask id="mask0_3584_19229" style="mask-type:luminance" maskUnits="userSpaceOnUse" x="0" y="0" width="60" height="60">
<rect width="60" height="60" fill="white"/>
</mask>
<g mask="url(#mask0_3584_19229)">
<path d="M10.0085 38.3559C10.0085 43.6823 14.2714 48 19.5303 48C24.7892 48 29.0521 43.6823 29.0521 38.3559C29.0521 33.0295 24.7892 28.7119 19.5303 28.7119C18.4495 28.7119 17.4149 28.9027 16.4464 29.239C18.5892 16.7916 28.1727 8.76448 19.2889 15.371C9.438 22.6968 9.99795 38.0612 10.009 38.3427C10.009 38.3471 10.0085 38.351 10.0085 38.3559Z" fill="#005B58"/>
<path d="M30.9563 38.3559C30.9563 43.6823 35.2192 48 40.4781 48C45.737 48 49.9999 43.6823 49.9999 38.3559C49.9999 33.0295 45.7369 28.7119 40.478 28.7119C39.3972 28.7119 38.3627 28.9027 37.3942 29.239C39.537 16.7916 49.1205 8.76448 40.2366 15.371C30.3858 22.6968 30.9456 38.0612 30.9568 38.3427C30.9568 38.3471 30.9563 38.351 30.9563 38.3559Z" fill="#005B58"/>
</g>
</svg>
