<svg width="24" height="24" viewBox="0 0 24 24" fill="none" xmlns="http://www.w3.org/2000/svg">
<g id="Location">
<path id="&#238;&#167;&#183; copy 7" fill-rule="evenodd" clip-rule="evenodd" d="M12.8058 4.99783C12.0383 4.54591 11.1964 4.31995 10.28 4.31995C9.36364 4.31995 8.52173 4.54591 7.75426 4.99783C6.99824 5.44976 6.39687 6.05811 5.95013 6.8229C5.50339 7.59929 5.28003 8.45098 5.28003 9.37801C5.28003 10.0849 5.45185 10.896 5.79549 11.8114C6.09332 12.5878 6.50569 13.4279 7.03261 14.3318C7.46789 15.0502 7.96617 15.7976 8.52745 16.574C8.91692 17.1186 9.32928 17.6517 9.76457 18.1731L10.28 18.7815L10.7955 18.1731C11.2308 17.6517 11.6431 17.1186 12.0326 16.574C12.5939 15.7976 13.0922 15.0502 13.5275 14.3318C14.0544 13.4279 14.4667 12.5878 14.7646 11.8114C15.1082 10.896 15.28 10.0849 15.28 9.37801C15.28 8.45098 15.0567 7.59929 14.6099 6.8229C14.1632 6.05811 13.5618 5.44976 12.8058 4.99783ZM11.1604 10.9933C10.8869 11.1598 10.5906 11.243 10.2715 11.243C9.78145 11.243 9.3655 11.0647 9.02362 10.7079C8.68174 10.3512 8.5108 9.91712 8.5108 9.40579C8.5108 9.07282 8.59057 8.76365 8.75011 8.47825C8.90966 8.19285 9.12333 7.96692 9.39114 7.80044C9.65895 7.63396 9.95239 7.55072 10.2715 7.55072C10.5906 7.55072 10.8869 7.63396 11.1604 7.80044C11.4339 7.96692 11.6504 8.19285 11.8099 8.47825C11.9695 8.76365 12.0493 9.07282 12.0493 9.40579C12.0493 9.73875 11.9695 10.045 11.8099 10.3244C11.6504 10.6039 11.4339 10.8268 11.1604 10.9933Z" fill="#101820"/>
</g>
</svg>
