<svg width="61" height="48" viewBox="0 0 61 48" fill="none" xmlns="http://www.w3.org/2000/svg">
<path fill-rule="evenodd" clip-rule="evenodd" d="M26.6329 27.2053C25.4578 26.1922 24.2752 25.1728 23.0693 24.1417C18.839 32.1322 14.6087 40.0661 10.3784 48C10.5476 48 10.6604 47.9433 10.7168 47.8867C17.5981 42.5596 24.4794 37.2326 31.4736 31.9055C31.8684 31.5655 32.3196 31.2822 32.7709 31.0555C35.2244 29.7804 37.6639 28.5195 40.1034 27.2586C42.5429 25.9976 44.9824 24.7367 47.436 23.4616C47.5452 23.425 47.6545 23.3648 47.7789 23.2962C47.8472 23.2586 47.9201 23.2184 48 23.1783C47.8308 23.0649 47.718 22.9516 47.6052 22.8383C44.3621 20.0049 41.1331 17.1856 37.9041 14.3664C34.6748 11.5469 31.4455 8.72741 28.2021 5.89374C27.9765 5.66706 27.6381 5.44038 27.3561 5.38371C25.5042 4.9824 23.6757 4.62807 21.8556 4.27534C20.8483 4.08016 19.8437 3.88547 18.839 3.68359C16.3854 3.20189 13.9177 2.72019 11.4501 2.23849C8.98237 1.75679 6.51469 1.27509 4.0611 0.793388C3.38425 0.651712 2.7215 0.524203 2.05875 0.396694C1.396 0.269185 0.733255 0.141676 0.0564042 0C0.0564042 0 0 0.0566706 0 0.113341C5.67399 4.2195 11.3201 8.3537 16.9775 12.4962C19.3623 14.2425 21.7492 15.9902 24.141 17.7379C24.6127 16.0792 25.0745 14.4305 25.5347 12.7875C26.1751 10.501 26.8125 8.22572 27.4689 5.95041C27.5817 6.00708 27.5817 6.06375 27.5817 6.12043C26.3972 11.674 25.1564 17.2275 23.9155 22.781L23.9154 22.7816C23.8026 23.1216 23.859 23.405 24.141 23.6883C25.2127 24.7934 26.2844 25.9126 27.3561 27.0319C28.4277 28.1511 29.4994 29.2704 30.5711 30.3754C30.6275 30.4321 30.6839 30.503 30.7403 30.5738C30.7967 30.6446 30.8531 30.7155 30.9095 30.7721L30.8531 30.8288C29.4388 29.624 28.0412 28.4192 26.6329 27.2053ZM55.3107 15.3255C56.9445 14.9817 58.5645 14.6408 60.2034 14.281C60.1151 14.215 60.044 14.149 59.9801 14.0896C59.8794 13.9961 59.7964 13.919 59.6922 13.8844C57.7613 12.241 55.8303 10.6543 53.8994 9.06762L53.8991 9.06735C53.5583 8.784 53.2743 8.72733 52.8768 8.89734C51.0593 9.54905 49.2561 10.2149 47.4528 10.8808C45.6495 11.5467 43.8463 12.2126 42.0288 12.8643C41.1769 13.2043 40.3249 13.5443 39.3594 13.8844C42.4264 16.9446 45.4365 19.9481 48.5035 23.065C50.0938 18.4747 51.6272 13.9411 53.1607 9.40749L53.1607 9.40738C53.1934 9.43995 53.2073 9.4538 53.224 9.45969C53.2363 9.46405 53.2502 9.46405 53.2743 9.46405C52.7632 11.6175 52.252 13.771 51.6841 16.0945C52.909 15.8309 54.1136 15.5774 55.3107 15.3255Z" fill="#007672"/>
</svg>
