<svg width="30" height="30" viewBox="0 0 30 30" fill="none" xmlns="http://www.w3.org/2000/svg">
<path d="M15 30C23.2843 30 30 23.2843 30 15C30 6.71573 23.2843 0 15 0C6.71573 0 0 6.71573 0 15C0 23.2843 6.71573 30 15 30Z" fill="#FFF3F3"/>
<path d="M19.8859 21.2953C20.2751 21.6845 20.9061 21.6845 21.2953 21.2953C21.6845 20.9061 21.6845 20.2751 21.2953 19.8859L17.1165 15.7071C16.726 15.3166 16.726 14.6834 17.1165 14.2929L21.2953 10.1141C21.6845 9.7249 21.6845 9.09389 21.2953 8.7047C20.9061 8.3155 20.2751 8.3155 19.8859 8.7047L15.7071 12.8835C15.3166 13.274 14.6834 13.274 14.2929 12.8835L10.1141 8.7047C9.7249 8.3155 9.09389 8.3155 8.7047 8.7047C8.3155 9.09389 8.3155 9.7249 8.7047 10.1141L12.8835 14.2929C13.274 14.6834 13.274 15.3166 12.8835 15.7071L8.7047 19.8859C8.3155 20.2751 8.3155 20.9061 8.7047 21.2953C9.09389 21.6845 9.7249 21.6845 10.1141 21.2953L14.2929 17.1165C14.6834 16.726 15.3166 16.726 15.7071 17.1165L19.8859 21.2953Z" fill="#E0004D"/>
</svg>
