<svg width="30" height="30" viewBox="0 0 30 30" fill="none" xmlns="http://www.w3.org/2000/svg">
<path d="M15 30C23.2843 30 30 23.2843 30 15C30 6.71573 23.2843 0 15 0C6.71573 0 0 6.71573 0 15C0 23.2843 6.71573 30 15 30Z" fill="#F1F7F7"/>
<path d="M23.1431 8.73293C22.7507 8.33102 22.1044 8.33102 21.712 8.73292L13.9532 16.6801C13.5609 17.082 12.9145 17.082 12.5222 16.6801L8.95463 13.026C8.56225 12.6241 7.91593 12.6241 7.52355 13.026L6.68201 13.888C6.30273 14.2765 6.30273 14.8966 6.68201 15.2851L12.5222 21.2671C12.9145 21.669 13.5609 21.669 13.9532 21.2671L23.9847 10.9921C24.3639 10.6036 24.3639 9.98342 23.9847 9.59493L23.1431 8.73293Z" fill="#00B7B1"/>
</svg>
