<svg xmlns="http://www.w3.org/2000/svg" width="40" height="40" viewBox="0 0 40 40">
  <g fill="none" fill-rule="evenodd">
    <rect width="40" height="40"/>
    <path fill="#FFFFFF" d="M20.2857265,10 C25.9643047,10 30.5714531,14.6071483 30.5714531,20.2857265 C30.5714531,24.8259105 27.625021,28.683058 23.5401947,30.049131 C23.0178727,30.1428812 22.8303724,29.8214522 22.8303724,29.5535947 C22.8303724,29.2187729 22.8437653,28.1071644 22.8437653,26.7276985 C22.8437653,25.7634116 22.5223364,25.1473395 22.1473359,24.8259105 C24.4375172,24.5714459 26.8482344,23.7009092 26.8482344,19.7500116 C26.8482344,18.6250103 26.4464482,17.7142949 25.7901974,16.9910798 C25.8973404,16.7232223 26.2455551,15.6785782 25.6830544,14.2589336 C24.8259105,13.9910762 22.8571582,15.3169706 22.8571582,15.3169706 C22.0401929,15.0892918 21.1562633,14.9687559 20.2857265,14.9687559 C19.4151898,14.9687559 18.5312602,15.0892918 17.7142949,15.3169706 C17.7142949,15.3169706 15.7455426,13.9910762 14.8883987,14.2589336 C14.325898,15.6785782 14.6741127,16.7232223 14.7812557,16.9910798 C14.1250049,17.7142949 13.7232187,18.6250103 13.7232187,19.7500116 C13.7232187,23.6875163 16.120543,24.5714459 18.4107243,24.8259105 C18.1160811,25.093768 17.8482236,25.5491257 17.7544735,26.2053765 C17.1651871,26.4732339 15.6651853,26.9285916 14.7678628,25.3482326 C14.2053622,24.3705528 13.1875038,24.2901956 13.1875038,24.2901956 C12.1830383,24.2768027 13.1205394,24.9196606 13.1205394,24.9196606 C13.7901831,25.2276967 14.2589336,26.4196624 14.2589336,26.4196624 C14.8616129,28.254486 17.7276878,27.6384139 17.7276878,27.6384139 C17.7276878,28.4955578 17.7410807,29.2991301 17.7410807,29.5535947 C17.7410807,29.8214522 17.5535804,30.1428812 17.0312584,30.049131 C12.9464321,28.683058 10,24.8259105 10,20.2857265 C10,14.6071483 14.6071483,10 20.2857265,10 Z M13.8973261,24.772339 C13.8705403,24.8259105 13.7901831,24.8393034 13.7232187,24.7991248 C13.6428615,24.7589462 13.6026829,24.6919818 13.6294686,24.6384103 C13.6562544,24.5982317 13.7232187,24.5848388 13.803576,24.6116246 C13.8839332,24.6518032 13.9241118,24.7187675 13.8973261,24.772339 Z M14.3125051,25.2276967 C14.2589336,25.2812682 14.1651835,25.2544825 14.0982192,25.1875181 C14.0312548,25.1071609 14.0178619,25.0134108 14.0714334,24.9732321 C14.1250049,24.9196606 14.218755,24.9464464 14.2857194,25.0134108 C14.3526838,25.093768 14.3660766,25.1875181 14.3125051,25.2276967 Z M14.7142913,25.830376 C14.6607198,25.8705546 14.5535769,25.830376 14.4866125,25.7366259 C14.4196481,25.6428758 14.4196481,25.5357328 14.4866125,25.4955542 C14.5535769,25.4419827 14.6607198,25.4821613 14.7142913,25.5759114 C14.7812557,25.6696615 14.7812557,25.7768045 14.7142913,25.830376 Z M15.276792,26.3928767 C15.2232205,26.4598411 15.1026847,26.4464482 15.0089345,26.3526981 C14.9151844,26.2723408 14.8883987,26.151805 14.9553631,26.0982335 C15.0089345,26.0312691 15.1294704,26.044662 15.2232205,26.1384121 C15.3035778,26.2187693 15.3303635,26.3393052 15.276792,26.3928767 Z M16.0401858,26.7276985 C16.0134,26.8080558 15.8928642,26.8482344 15.7857212,26.8080558 C15.6651853,26.78127 15.5848281,26.6875199 15.6116138,26.6071627 C15.6383996,26.5268054 15.7589354,26.4866268 15.8660784,26.5134125 C15.9866143,26.5535912 16.0669715,26.6473413 16.0401858,26.7276985 Z M16.8839368,26.7946629 C16.8839368,26.8750201 16.7901867,26.9419845 16.6696508,26.9419845 C16.5357221,26.9553774 16.441972,26.888413 16.441972,26.7946629 C16.441972,26.7143056 16.5357221,26.6473413 16.6562579,26.6473413 C16.7767938,26.6339484 16.8839368,26.7009128 16.8839368,26.7946629 Z M17.6607234,26.6607341 C17.6741163,26.7410914 17.5937591,26.8214486 17.4732232,26.8482344 C17.3526873,26.8750201 17.2455444,26.8214486 17.2321515,26.7410914 C17.2187586,26.6473413 17.2991158,26.566984 17.4196517,26.5401983 C17.5401876,26.5268054 17.6473305,26.5803769 17.6607234,26.6607341 Z"/>
  </g>
</svg>
