<svg xmlns="http://www.w3.org/2000/svg" width="40" height="40" viewBox="0 0 40 40">
  <g fill="none" fill-rule="evenodd">
    <rect width="40" height="40"/>
    <path fill="#FFFFFF" d="M23.7151391,20.2865636 C23.7151391,18.3981685 22.1749587,16.8579881 20.2865636,16.8579881 C18.3981685,16.8579881 16.8579881,18.3981685 16.8579881,20.2865636 C16.8579881,22.1749587 18.3981685,23.7151391 20.2865636,23.7151391 C22.1749587,23.7151391 23.7151391,22.1749587 23.7151391,20.2865636 Z M25.5633556,20.2865636 C25.5633556,23.2062099 23.2062099,25.5633556 20.2865636,25.5633556 C17.3669173,25.5633556 15.0097716,23.2062099 15.0097716,20.2865636 C15.0097716,17.3669173 17.3669173,15.0097716 20.2865636,15.0097716 C23.2062099,15.0097716 25.5633556,17.3669173 25.5633556,20.2865636 Z M27.0097859,14.7954856 C27.0097859,15.4785222 26.4606781,16.02763 25.7776416,16.02763 C25.094605,16.02763 24.5454973,15.4785222 24.5454973,14.7954856 C24.5454973,14.1124491 25.094605,13.5633413 25.7776416,13.5633413 C26.4606781,13.5633413 27.0097859,14.1124491 27.0097859,14.7954856 Z M20.2865636,11.8490535 C18.7865618,11.8490535 15.5722723,11.7285177 14.2195921,12.2642326 C13.7508415,12.4517328 13.4026268,12.6794117 13.0410193,13.0410193 C12.6794117,13.4026268 12.4517328,13.7508415 12.2642326,14.2195921 C11.7285177,15.5722723 11.8490535,18.7865618 11.8490535,20.2865636 C11.8490535,21.7865654 11.7285177,25.0008549 12.2642326,26.3535351 C12.4517328,26.8222857 12.6794117,27.1705004 13.0410193,27.532108 C13.4026268,27.8937155 13.7508415,28.1213944 14.2195921,28.3088946 C15.5722723,28.8446095 18.7865618,28.7240737 20.2865636,28.7240737 C21.7865654,28.7240737 25.0008549,28.8446095 26.3535351,28.3088946 C26.8222857,28.1213944 27.1705004,27.8937155 27.532108,27.532108 C27.8937155,27.1705004 28.1213944,26.8222857 28.3088946,26.3535351 C28.8446095,25.0008549 28.7240737,21.7865654 28.7240737,20.2865636 C28.7240737,18.7865618 28.8446095,15.5722723 28.3088946,14.2195921 C28.1213944,13.7508415 27.8937155,13.4026268 27.532108,13.0410193 C27.1705004,12.6794117 26.8222857,12.4517328 26.3535351,12.2642326 C25.0008549,11.7285177 21.7865654,11.8490535 20.2865636,11.8490535 Z M30.5722901,20.2865636 C30.5722901,21.7062082 30.585683,23.1124598 30.5053258,24.5321044 C30.4249685,26.1794278 30.0499681,27.6392509 28.8446095,28.8446095 C27.6392509,30.0499681 26.1794278,30.4249685 24.5321044,30.5053258 C23.1124598,30.585683 21.7062082,30.5722901 20.2865636,30.5722901 C18.8669191,30.5722901 17.4606674,30.585683 16.0410228,30.5053258 C14.3936994,30.4249685 12.9338763,30.0499681 11.7285177,28.8446095 C10.5231591,27.6392509 10.1481587,26.1794278 10.0678014,24.5321044 C9.98744418,23.1124598 10.0008371,21.7062082 10.0008371,20.2865636 C10.0008371,18.8669191 9.98744418,17.4606674 10.0678014,16.0410228 C10.1481587,14.3936994 10.5231591,12.9338763 11.7285177,11.7285177 C12.9338763,10.5231591 14.3936994,10.1481587 16.0410228,10.0678014 C17.4606674,9.98744418 18.8669191,10.0008371 20.2865636,10.0008371 C21.7062082,10.0008371 23.1124598,9.98744418 24.5321044,10.0678014 C26.1794278,10.1481587 27.6392509,10.5231591 28.8446095,11.7285177 C30.0499681,12.9338763 30.4249685,14.3936994 30.5053258,16.0410228 C30.585683,17.4606674 30.5722901,18.8669191 30.5722901,20.2865636 Z"/>
  </g>
</svg>
