<svg width="40" height="40" viewBox="0 0 40 40" fill="none" xmlns="http://www.w3.org/2000/svg">
<mask id="mask0_2924_45172" style="mask-type:alpha" maskUnits="userSpaceOnUse" x="0" y="0" width="40" height="40">
<rect width="40" height="40" fill="#F5F5F5"/>
</mask>
<g mask="url(#mask0_2924_45172)">
<path fill-rule="evenodd" clip-rule="evenodd" d="M12.2609 13.5217C13.5095 13.5217 14.5217 12.5095 14.5217 11.2609C14.5217 10.0122 13.5095 9 12.2609 9C11.0122 9 10 10.0122 10 11.2609C10 12.5095 11.0122 13.5217 12.2609 13.5217ZM10 30.4783V14.6522H14.5217V30.4783H10ZM25.2597 14.6522C22.1047 14.6522 21.5621 15.803 21.3043 16.913V14.6522H16.7826V30.4783H21.3043V21.4348C21.3043 19.9686 22.099 19.1739 23.5652 19.1739C24.9963 19.1739 25.8261 19.9517 25.8261 21.4348V30.4783H30.3478V22.5652C30.3478 18.0435 29.7589 14.6522 25.2597 14.6522Z" fill="#007672"/>
</g>
</svg>
