<svg width="36" height="36" viewBox="0 0 36 36" fill="none" xmlns="http://www.w3.org/2000/svg">
<path fill-rule="evenodd" clip-rule="evenodd" d="M13.2067 14.7496H9.22902V26.6947H13.2067V14.7496ZM13.4598 11.0612C13.4478 9.89197 12.604 9 11.242 9C9.89197 9 9 9.89197 9 11.0612C9 12.2063 9.8558 13.1223 11.1938 13.1223H11.2179C12.604 13.1223 13.4719 12.2063 13.4598 11.0612ZM19.3661 16.4474V14.7496H15.4005C15.4005 14.7496 15.4487 15.8705 15.4005 26.6947H19.3661V20.029C19.3661 19.6674 19.4022 19.3179 19.4987 19.0527C19.788 18.3415 20.4389 17.6063 21.5357 17.6063C22.9701 17.6063 23.5487 18.7031 23.5487 20.3063V26.6947H27.5143V19.8482C27.5143 16.1839 25.5616 14.4723 22.946 14.4723C20.8333 14.4723 19.8894 15.6294 19.3661 16.4474Z" fill="#E0004D"/>
</svg>
