<svg xmlns="http://www.w3.org/2000/svg" width="40" height="40" viewBox="0 0 40 40">
  <g fill="none" fill-rule="evenodd">
    <rect width="40" height="40"/>
    <path fill="#FFFFFF" d="M14.6741127,16.3884005 L10.2544646,16.3884005 L10.2544646,29.6607377 L14.6741127,29.6607377 L14.6741127,16.3884005 Z M14.9553631,12.2901813 C14.9419702,10.9910726 14.0044691,10 12.4910744,10 C10.9910726,10 10,10.9910726 10,12.2901813 C10,13.5625042 10.950894,14.5803626 12.4375029,14.5803626 L12.4642887,14.5803626 C14.0044691,14.5803626 14.9687559,13.5625042 14.9553631,12.2901813 Z M21.5178709,18.2748559 L21.5178709,16.3884005 L17.1116156,16.3884005 C17.1116156,16.3884005 17.1651871,17.6339377 17.1116156,29.6607377 L21.5178709,29.6607377 L21.5178709,22.2544789 C21.5178709,21.8526927 21.5580495,21.4642994 21.6651925,21.1696562 C21.9866214,20.3794767 22.7098366,19.5625114 23.928588,19.5625114 C25.5223399,19.5625114 26.1651978,20.7812629 26.1651978,22.562515 L26.1651978,29.6607377 L30.5714531,29.6607377 L30.5714531,22.0535858 C30.5714531,17.9821524 28.4018077,16.0803644 25.4955542,16.0803644 C23.1481237,16.0803644 22.0992823,17.3659675 21.5178709,18.2748559 L21.5178709,18.2748559 Z"/>
  </g>
</svg>
