<?xml version="1.0" encoding="UTF-8"?>
<svg width="40px" height="40px" viewBox="0 0 40 40" version="1.1" xmlns="http://www.w3.org/2000/svg" xmlns:xlink="http://www.w3.org/1999/xlink">
    <!-- Generator: Sketch 63.1 (92452) - https://sketch.com -->
    <title>medium/2</title>
    <desc>Created with Sketch.</desc>
    <g id="medium/2" stroke="none" stroke-width="1" fill="none" fill-rule="evenodd">
        <g id="Group">
            <rect id="Rectangle" x="0" y="0" width="40" height="40"></rect>
            <path d="M15.996,29.2048227 C15.996,29.8910264 15.475,30.174394 14.898,29.8910264 L8.67,26.8174262 C8.482,26.7295526 8.324,26.5824385 8.195,26.3760837 C8.066,26.1697289 8,25.9643615 8,25.7619561 L8,10.7276772 C8,10.1668661 8.341,9.91311884 9.112,10.2922587 L15.956,13.6689734 C16.055,13.7667204 15.982,13.0953268 15.996,29.2048227 Z M16.853,15.0660644 L24.005,26.4876535 L16.853,22.9796222 L16.853,15.0660644 Z M32,15.3040141 L32,29.2048227 C32,29.4250003 31.938,29.6027221 31.812,29.7389755 C31.687,29.8752289 31.517,29.9433556 31.303,29.9433556 C31.089,29.9433556 30.879,29.8860897 30.674,29.7715578 L24.768,26.8697554 L32,15.3040141 Z M31.96,13.7213026 C31.96,13.7479608 30.815,15.5923184 28.525,19.253388 C26.235,22.9144575 24.893,25.0589675 24.5,25.6829686 L19.277,17.3211568 L23.616,10.3712462 C23.852,9.98815694 24.336,9.92101759 24.661,10.0809672 L31.907,13.6423151 C31.942,13.6590999 31.96,13.6857582 31.96,13.7213026 L31.96,13.7213026 Z" id="Shape" fill="#FFFFFF" fill-rule="nonzero"></path>
        </g>
    </g>
</svg>
