<svg width="40" height="40" viewBox="0 0 40 40" fill="none" xmlns="http://www.w3.org/2000/svg">
<mask id="mask0_2924_45163" style="mask-type:alpha" maskUnits="userSpaceOnUse" x="0" y="0" width="40" height="40">
<rect width="40" height="40" fill="#F5F5F5"/>
</mask>
<g mask="url(#mask0_2924_45163)">
<path d="M6.61485 19.7649C14.3105 16.3794 24.2692 12.2517 25.6439 11.6804C29.2498 10.1852 30.3563 10.4717 29.8046 13.7831C29.4084 16.1632 28.2652 24.0432 27.3541 28.9478C26.8134 31.8563 25.6004 32.2011 23.693 30.9428C22.7758 30.3372 18.146 27.2756 17.1412 26.5567C16.224 25.9015 14.9589 25.1135 16.5454 23.5613C17.11 23.0083 20.8109 19.4746 23.6943 16.7241C24.0721 16.3628 23.5975 15.7695 23.1615 16.0591C19.2752 18.6364 13.8868 22.2136 13.201 22.6795C12.1649 23.3831 11.1699 23.7058 9.38376 23.1926C8.03421 22.8051 6.71589 22.3427 6.20276 22.1664C4.22681 21.488 4.69585 20.6093 6.61485 19.7649Z" fill="#007672"/>
</g>
</svg>
