<svg width="34" height="34" viewBox="0 0 34 34" fill="none" xmlns="http://www.w3.org/2000/svg">
<g id="left-quotes-sign" opacity="0.5">
<mask id="mask0_276_43334" style="mask-type:alpha" maskUnits="userSpaceOnUse" x="0" y="0" width="34" height="34">
<rect id="Mask" width="34" height="34" fill="white"/>
</mask>
<g mask="url(#mask0_276_43334)">
<g id="left-quotes-sign_2">
<path id="Path" d="M0.00481923 22.8683C0.00481923 25.8867 2.42048 28.3333 5.40048 28.3333C8.38053 28.3333 10.7962 25.8867 10.7962 22.8683C10.7962 19.85 8.38053 17.4034 5.40048 17.4034C4.78804 17.4034 4.2018 17.5115 3.65298 17.7021C4.86724 10.6486 10.2979 6.09987 5.26369 9.84355C-0.318465 13.9949 -0.00115924 22.7013 0.00508692 22.8609C0.00508692 22.8634 0.00481923 22.8656 0.00481923 22.8683Z" fill="#CCCCCC"/>
<path id="Path_2" d="M11.8749 22.8683C11.8749 25.8867 14.2906 28.3333 17.2707 28.3333C20.2507 28.3333 22.6664 25.8867 22.6664 22.8683C22.6664 19.85 20.2507 17.4034 17.2706 17.4034C16.6581 17.4034 16.0719 17.5115 15.5231 17.7021C16.7374 10.6486 22.168 6.09987 17.1338 9.84355C11.5517 13.9949 11.8689 22.7013 11.8752 22.8609C11.8752 22.8634 11.8749 22.8656 11.8749 22.8683Z" fill="#CCCCCC"/>
</g>
</g>
</g>
</svg>
