<svg width="52" height="52" viewBox="0 0 52 52" fill="none" xmlns="http://www.w3.org/2000/svg">

<mask id="mask0_3978_1287" style="mask-type:alpha" maskUnits="userSpaceOnUse" x="6" y="6" width="40" height="40">
<rect x="6" y="6" width="40" height="40" fill="#F5F5F5"/>
</mask>
<g mask="url(#mask0_3978_1287)">
<path fill-rule="evenodd" clip-rule="evenodd" d="M18.2609 19.5217C19.5095 19.5217 20.5217 18.5095 20.5217 17.2609C20.5217 16.0122 19.5095 15 18.2609 15C17.0122 15 16 16.0122 16 17.2609C16 18.5095 17.0122 19.5217 18.2609 19.5217ZM16 36.4783V20.6522H20.5217V36.4783H16ZM31.2597 20.6522C28.1047 20.6522 27.5621 21.803 27.3043 22.913V20.6522H22.7826V36.4783H27.3043V27.4348C27.3043 25.9686 28.099 25.1739 29.5652 25.1739C30.9963 25.1739 31.8261 25.9517 31.8261 27.4348V36.4783H36.3478V28.5652C36.3478 24.0435 35.7589 20.6522 31.2597 20.6522Z" fill="#E0004D"/>
</g>
</svg>
