<svg width="60" height="60" viewBox="0 0 60 60" fill="none" xmlns="http://www.w3.org/2000/svg">
<mask id="mask0_966_23329" style="mask-type:luminance" maskUnits="userSpaceOnUse" x="0" y="0" width="60" height="60">
<rect width="60" height="60" fill="white"/>
</mask>
<g mask="url(#mask0_966_23329)">
<circle cx="27.75" cy="30" r="19.125" stroke="#E5E5E5" stroke-width="0.75" stroke-linecap="square" stroke-dasharray="4.5"/>
<path d="M48.6773 17.5757C48.0904 16.9833 47.133 16.9832 46.546 17.5757L31.6925 32.5695C31.1056 33.1619 30.1481 33.1619 29.5612 32.5695L22.4539 25.3952C21.867 24.8028 20.9096 24.8028 20.3227 25.3952L18.2958 27.4412C17.7166 28.0259 17.7166 28.9679 18.2958 29.5526L29.5612 40.9243C30.1481 41.5168 31.1056 41.5168 31.6925 40.9243L50.7042 21.7331C51.2834 21.1485 51.2834 20.2064 50.7042 19.6218L48.6773 17.5757Z" fill="#E5E5E5"/>
</g>
</svg>
