<svg width="454" height="326" viewBox="0 0 454 326" fill="none" xmlns="http://www.w3.org/2000/svg">
<g opacity="0.1">
<path d="M22.2091 90.4179C34.0319 94.1626 198.72 148.848 204.846 150.783C210.971 152.718 216.927 153.074 225.803 151.505C234.679 149.935 240.164 147.557 245.282 143.635C250.399 139.712 387.105 31.746 396.979 24.1656C400.67 21.4006 406.837 16.4876 407.594 12.028C408.882 4.15486 405.633 1.81177 394.686 3.74703L206.117 37.0824L17.5487 70.4178C6.60152 72.353 4.34395 75.7701 8.16791 82.639C10.3863 86.6732 17.8128 89.0825 22.2091 90.4179Z" fill="white"/>
<path d="M406.799 27.269C399.41 32.8175 335.563 97.0202 292.783 136.395L389.482 212.623C391.792 214.233 393.084 216.426 392.2 217.794C391.2 219.081 388.533 218.948 386.14 217.455L274.815 153.205C261.72 165.215 252.465 173.516 250.856 174.811C243.91 179.978 238.663 181.412 231.358 182.707C224.053 184.001 218.638 184.456 210.381 181.983C208.337 181.336 196.961 176.69 180.638 169.893L97.2896 268.638C95.6515 270.947 93.087 272.007 91.7006 271.042C90.331 270.174 90.7992 267.568 92.4373 265.259L157.933 160.29C104.562 137.953 22.305 99.6398 13.5039 96.9602C4.06011 94.0916 4.4576 99.3706 5.14692 103.387C5.83625 107.403 39.6131 304.193 39.6131 304.193C41.1767 313.303 56.6514 322.269 66.3258 320.554L249.449 288.105L432.572 255.656C442.246 253.942 451.829 240.435 450.282 231.423C450.282 231.423 416.489 34.5351 415.816 30.6169C415.11 26.5028 414.828 21.3042 406.799 27.269Z" fill="white"/>
</g>
</svg>
