<svg width="450" height="400" viewBox="0 0 450 400" fill="none" xmlns="http://www.w3.org/2000/svg">
<mask id="mask0_280_14522" style="mask-type:alpha" maskUnits="userSpaceOnUse" x="0" y="0" width="450" height="400">
<rect width="450" height="400" rx="10" fill="url(#paint0_linear_280_14522)"/>
</mask>
<g mask="url(#mask0_280_14522)">
<mask id="mask1_280_14522" style="mask-type:alpha" maskUnits="userSpaceOnUse" x="0" y="0" width="450" height="392">
<rect x="450" y="392" width="450" height="392" rx="10" transform="rotate(180 450 392)" fill="url(#paint1_linear_280_14522)"/>
</mask>
<g mask="url(#mask1_280_14522)">
<g opacity="0.2">
<path d="M62.2274 140.571C72.1088 143.765 209.762 190.37 214.882 192.02C220.001 193.671 224.973 193.99 232.377 192.699C239.781 191.408 244.352 189.424 248.611 186.138C252.869 182.852 366.621 92.403 374.838 86.0534C377.909 83.7376 383.041 79.6215 383.658 75.8689C384.706 69.2437 381.987 67.2597 372.855 68.8522L215.563 96.2834L58.2704 123.715C49.1389 125.307 47.2659 128.177 50.4808 133.974C52.3461 137.378 58.5532 139.432 62.2274 140.571Z" fill="white"/>
<path d="M382.64 88.5071C376.497 93.1387 323.467 146.805 287.923 179.706L368.816 244.009C370.748 245.367 371.833 247.212 371.1 248.357C370.271 249.435 368.046 249.314 366.046 248.052L272.995 193.753C262.115 203.788 254.424 210.724 253.086 211.805C247.311 216.118 242.941 217.304 236.853 218.366C230.765 219.428 226.251 219.791 219.357 217.687C217.651 217.137 208.148 213.2 194.513 207.44L125.336 290.031C123.977 291.963 121.842 292.844 120.683 292.029C119.538 291.297 119.92 289.111 121.278 287.179L175.547 199.304C130.965 180.377 62.2411 147.944 54.8927 145.665C47.0077 143.226 47.3568 147.657 47.945 151.03C48.5332 154.403 77.3561 319.675 77.3561 319.675C78.6903 327.326 91.625 334.903 99.6871 333.497L252.29 306.884L404.893 280.27C412.955 278.864 420.902 267.561 419.582 259.992C419.582 259.992 390.745 94.638 390.171 91.3473C389.568 87.8922 389.316 83.5282 382.64 88.5071Z" fill="white"/>
</g>
</g>
</g>
<defs>
<linearGradient id="paint0_linear_280_14522" x1="-40.5331" y1="200" x2="405.868" y2="397.611" gradientUnits="userSpaceOnUse">
<stop stop-color="#007672"/>
<stop offset="1" stop-color="#00B8B2"/>
</linearGradient>
<linearGradient id="paint1_linear_280_14522" x1="409.467" y1="588" x2="852.872" y2="788.291" gradientUnits="userSpaceOnUse">
<stop stop-color="#007672"/>
<stop offset="1" stop-color="#00B8B2"/>
</linearGradient>
</defs>
</svg>
