<svg width="162" height="26" viewBox="0 0 162 26" fill="none" xmlns="http://www.w3.org/2000/svg">
<path d="M5.39648 11.791C6.18164 11.791 6.87891 11.9404 7.48828 12.2393C8.10352 12.5381 8.58691 12.9775 8.93848 13.5576C9.29004 14.1377 9.46582 14.8525 9.46582 15.7021C9.46582 16.6279 9.27246 17.4277 8.88574 18.1016C8.50488 18.7695 7.93359 19.2822 7.17188 19.6396C6.41602 19.9971 5.47266 20.1758 4.3418 20.1758C3.66797 20.1758 3.03223 20.1172 2.43457 20C1.84277 19.8887 1.32422 19.7158 0.878906 19.4814V17.1348C1.32422 17.3691 1.85742 17.5684 2.47852 17.7324C3.10547 17.8906 3.69434 17.9697 4.24512 17.9697C4.78418 17.9697 5.23828 17.8994 5.60742 17.7588C5.97656 17.6123 6.25488 17.3896 6.44238 17.0908C6.63574 16.7861 6.73242 16.3994 6.73242 15.9307C6.73242 15.3037 6.52148 14.8232 6.09961 14.4893C5.67773 14.1553 5.03027 13.9883 4.15723 13.9883C3.82324 13.9883 3.47461 14.0205 3.11133 14.085C2.75391 14.1494 2.45508 14.2139 2.21484 14.2783L1.13379 13.6982L1.61719 7.15039H8.58691V9.45312H3.99902L3.76172 11.9756C3.96094 11.9346 4.17773 11.8936 4.41211 11.8525C4.64648 11.8115 4.97461 11.791 5.39648 11.791ZM11.3291 18.7432C11.3291 18.1924 11.4785 17.8057 11.7773 17.583C12.082 17.3604 12.4482 17.249 12.876 17.249C13.292 17.249 13.6494 17.3604 13.9482 17.583C14.2529 17.8057 14.4053 18.1924 14.4053 18.7432C14.4053 19.2705 14.2529 19.6514 13.9482 19.8857C13.6494 20.1201 13.292 20.2373 12.876 20.2373C12.4482 20.2373 12.082 20.1201 11.7773 19.8857C11.4785 19.6514 11.3291 19.2705 11.3291 18.7432ZM25.0664 13.5752C25.0664 14.6123 24.9844 15.5381 24.8203 16.3525C24.6621 17.167 24.4043 17.8584 24.0469 18.4268C23.6953 18.9951 23.2324 19.4287 22.6582 19.7275C22.084 20.0264 21.3867 20.1758 20.5664 20.1758C19.5352 20.1758 18.6885 19.915 18.0264 19.3936C17.3643 18.8662 16.875 18.1104 16.5586 17.126C16.2422 16.1357 16.084 14.9521 16.084 13.5752C16.084 12.1865 16.2275 11 16.5146 10.0156C16.8076 9.02539 17.2822 8.2666 17.9385 7.73926C18.5947 7.21191 19.4707 6.94824 20.5664 6.94824C21.5918 6.94824 22.4355 7.21191 23.0977 7.73926C23.7656 8.26074 24.2607 9.0166 24.583 10.0068C24.9053 10.9912 25.0664 12.1807 25.0664 13.5752ZM18.7822 13.5752C18.7822 14.5537 18.835 15.3711 18.9404 16.0273C19.0518 16.6777 19.2363 17.167 19.4941 17.4951C19.752 17.8232 20.1094 17.9873 20.5664 17.9873C21.0176 17.9873 21.3721 17.8262 21.6299 17.5039C21.8936 17.1758 22.0811 16.6865 22.1924 16.0361C22.3037 15.3799 22.3594 14.5596 22.3594 13.5752C22.3594 12.5967 22.3037 11.7793 22.1924 11.123C22.0811 10.4668 21.8936 9.97461 21.6299 9.64648C21.3721 9.3125 21.0176 9.14551 20.5664 9.14551C20.1094 9.14551 19.752 9.3125 19.4941 9.64648C19.2363 9.97461 19.0518 10.4668 18.9404 11.123C18.835 11.7793 18.7822 12.5967 18.7822 13.5752Z" fill="#E5E5E5"/>
<path d="M49.6196 2.17082C49.7393 1.8023 50.2607 1.8023 50.3804 2.17082L52.6044 9.0154C52.6579 9.18021 52.8115 9.2918 52.9848 9.2918H60.1816C60.5691 9.2918 60.7302 9.78764 60.4167 10.0154L54.5944 14.2456C54.4542 14.3474 54.3955 14.528 54.4491 14.6928L56.673 21.5374C56.7927 21.9059 56.3709 22.2124 56.0575 21.9846L50.2351 17.7544C50.0949 17.6526 49.9051 17.6526 49.7649 17.7544L43.9425 21.9846C43.6291 22.2124 43.2073 21.9059 43.327 21.5374L45.5509 14.6928C45.6045 14.528 45.5458 14.3474 45.4056 14.2456L39.5833 10.0154C39.2698 9.78764 39.4309 9.2918 39.8184 9.2918H47.0152C47.1885 9.2918 47.3421 9.18021 47.3956 9.0154L49.6196 2.17082Z" fill="#E5E5E5"/>
<path d="M74.6196 2.17082C74.7393 1.8023 75.2607 1.8023 75.3804 2.17082L77.6044 9.0154C77.6579 9.18021 77.8115 9.2918 77.9848 9.2918H85.1816C85.5691 9.2918 85.7302 9.78764 85.4167 10.0154L79.5944 14.2456C79.4542 14.3474 79.3955 14.528 79.4491 14.6928L81.673 21.5374C81.7927 21.9059 81.3709 22.2124 81.0575 21.9846L75.2351 17.7544C75.0949 17.6526 74.9051 17.6526 74.7649 17.7544L68.9425 21.9846C68.6291 22.2124 68.2073 21.9059 68.327 21.5374L70.5509 14.6928C70.6045 14.528 70.5458 14.3474 70.4056 14.2456L64.5833 10.0154C64.2698 9.78764 64.4309 9.2918 64.8184 9.2918H72.0152C72.1885 9.2918 72.3421 9.18021 72.3956 9.0154L74.6196 2.17082Z" fill="#E5E5E5"/>
<path d="M99.6196 2.17082C99.7393 1.8023 100.261 1.8023 100.38 2.17082L102.604 9.0154C102.658 9.18021 102.811 9.2918 102.985 9.2918H110.182C110.569 9.2918 110.73 9.78764 110.417 10.0154L104.594 14.2456C104.454 14.3474 104.396 14.528 104.449 14.6928L106.673 21.5374C106.793 21.9059 106.371 22.2124 106.057 21.9846L100.235 17.7544C100.095 17.6526 99.9051 17.6526 99.7649 17.7544L93.9425 21.9846C93.6291 22.2124 93.2073 21.9059 93.327 21.5374L95.5509 14.6928C95.6045 14.528 95.5458 14.3474 95.4056 14.2456L89.5833 10.0154C89.2698 9.78764 89.4309 9.2918 89.8184 9.2918H97.0152C97.1885 9.2918 97.3421 9.18021 97.3956 9.0154L99.6196 2.17082Z" fill="#E5E5E5"/>
<path d="M124.62 2.17082C124.739 1.8023 125.261 1.8023 125.38 2.17082L127.604 9.0154C127.658 9.18021 127.811 9.2918 127.985 9.2918H135.182C135.569 9.2918 135.73 9.78764 135.417 10.0154L129.594 14.2456C129.454 14.3474 129.396 14.528 129.449 14.6928L131.673 21.5374C131.793 21.9059 131.371 22.2124 131.057 21.9846L125.235 17.7544C125.095 17.6526 124.905 17.6526 124.765 17.7544L118.943 21.9846C118.629 22.2124 118.207 21.9059 118.327 21.5374L120.551 14.6928C120.604 14.528 120.546 14.3474 120.406 14.2456L114.583 10.0154C114.27 9.78764 114.431 9.2918 114.818 9.2918H122.015C122.189 9.2918 122.342 9.18021 122.396 9.0154L124.62 2.17082Z" fill="#E5E5E5"/>
<path d="M149.62 2.17082C149.739 1.8023 150.261 1.8023 150.38 2.17082L152.604 9.0154C152.658 9.18021 152.811 9.2918 152.985 9.2918H160.182C160.569 9.2918 160.73 9.78764 160.417 10.0154L154.594 14.2456C154.454 14.3474 154.396 14.528 154.449 14.6928L156.673 21.5374C156.793 21.9059 156.371 22.2124 156.057 21.9846L150.235 17.7544C150.095 17.6526 149.905 17.6526 149.765 17.7544L143.943 21.9846C143.629 22.2124 143.207 21.9059 143.327 21.5374L145.551 14.6928C145.604 14.528 145.546 14.3474 145.406 14.2456L139.583 10.0154C139.27 9.78764 139.431 9.2918 139.818 9.2918H147.015C147.189 9.2918 147.342 9.18021 147.396 9.0154L149.62 2.17082Z" fill="#E5E5E5"/>
</svg>
