<svg width="160" height="160" viewBox="0 0 160 160" fill="none" xmlns="http://www.w3.org/2000/svg">
<path d="M156.736 87.0529C156.785 87.0281 156.864 86.9341 156.972 86.7707C157.09 86.6081 157.215 86.4032 157.349 86.156C157.483 85.9087 157.604 85.6367 157.713 85.3399C157.822 85.0431 157.888 84.7429 157.912 84.4395C157.942 84.0413 157.895 83.7276 157.77 83.4985C157.654 83.2702 157.453 83.145 157.168 83.123C156.941 83.1054 156.754 83.1721 156.609 83.323C156.463 83.4834 156.325 83.7161 156.197 84.0209C156.078 84.3265 155.934 84.7017 155.766 85.1466C155.545 85.7782 155.293 86.3215 155.01 86.7766C154.736 87.2323 154.399 87.5688 154.001 87.786C153.601 88.0127 153.088 88.1019 152.462 88.0535C151.892 88.0095 151.417 87.8679 151.034 87.6285C150.661 87.3898 150.365 87.0808 150.146 86.7014C149.936 86.3323 149.792 85.9157 149.713 85.4518C149.644 84.9886 149.628 84.5152 149.665 84.0316C149.704 83.5385 149.79 83.0349 149.925 82.5207C150.07 82.0167 150.25 81.5347 150.467 81.0745C150.694 80.6151 150.955 80.1965 151.252 79.8187L153.208 81C153.158 81.0343 153.058 81.1506 152.909 81.3489C152.77 81.548 152.617 81.7938 152.451 82.0862C152.294 82.3888 152.149 82.7258 152.015 83.097C151.881 83.4682 151.799 83.8482 151.769 84.237C151.737 84.6542 151.779 84.9675 151.897 85.1769C152.014 85.3958 152.191 85.5143 152.428 85.5327C152.684 85.5525 152.892 85.4588 153.051 85.2517C153.21 85.0541 153.36 84.7748 153.503 84.4138C153.644 84.0623 153.805 83.6549 153.984 83.1918C154.221 82.5902 154.474 82.0946 154.743 81.7052C155.011 81.3253 155.324 81.049 155.681 80.8762C156.037 80.713 156.472 80.6511 156.984 80.6907C157.696 80.7457 158.281 80.9578 158.74 81.327C159.207 81.7065 159.542 82.1902 159.744 82.7782C159.957 83.3669 160.037 83.9979 159.985 84.6711C159.948 85.1452 159.856 85.596 159.708 86.0234C159.56 86.4602 159.385 86.8617 159.185 87.2278C158.984 87.6034 158.787 87.9363 158.592 88.2265L156.736 87.0529Z" fill="#007672"/>
<path d="M154.314 92.0215C154.915 92.1696 155.474 92.425 155.993 92.7878C156.52 93.1529 156.967 93.6059 157.334 94.1468C157.7 94.6877 157.947 95.2971 158.074 95.9748C158.21 96.6548 158.182 97.3827 157.99 98.1583C157.762 99.0816 157.366 99.8314 156.803 100.407C156.236 100.993 155.594 101.373 154.874 101.548L154.085 99.5026C154.472 99.4414 154.794 99.3101 155.05 99.1086C155.303 98.9163 155.503 98.6816 155.65 98.4043C155.804 98.1386 155.914 97.8718 155.98 97.6041C156.087 97.1701 156.093 96.7699 155.997 96.4034C155.91 96.0392 155.75 95.7157 155.516 95.4327C155.282 95.1497 155.002 94.9142 154.676 94.726C154.35 94.5379 154.011 94.4006 153.66 94.314C153.272 94.2183 152.882 94.1861 152.492 94.2173C152.102 94.2485 151.741 94.3408 151.409 94.494C151.075 94.6565 150.785 94.8789 150.539 95.1611C150.302 95.4455 150.135 95.7817 150.04 96.1695C149.971 96.4465 149.948 96.7395 149.97 97.0485C149.991 97.3575 150.07 97.656 150.204 97.9439C150.346 98.2433 150.563 98.4975 150.854 98.7065L149.301 100.293C148.868 99.9802 148.536 99.5603 148.303 99.0328C148.071 98.5053 147.931 97.9371 147.886 97.3283C147.847 96.7311 147.895 96.16 148.029 95.6152C148.205 94.9043 148.51 94.284 148.945 93.7544C149.386 93.2363 149.901 92.8195 150.489 92.504C151.083 92.2 151.711 92.002 152.371 91.9099C153.038 91.8294 153.686 91.8666 154.314 92.0215Z" fill="#007672"/>
<path d="M146.201 102.841L155.523 106.821L153.728 111.019C153.541 111.456 153.277 111.819 152.936 112.108C152.6 112.409 152.221 112.63 151.798 112.77C151.385 112.915 150.958 112.981 150.518 112.968C150.074 112.965 149.66 112.881 149.275 112.717C148.889 112.552 148.548 112.334 148.25 112.062C147.961 111.794 147.725 111.486 147.542 111.14C147.368 110.796 147.261 110.43 147.221 110.04L142.879 110.607L143.895 108.232L147.665 107.732L148.288 106.276L145.281 104.992L146.201 102.841ZM150.165 107.078L149.323 109.045C149.249 109.22 149.236 109.396 149.285 109.572C149.338 109.76 149.443 109.939 149.598 110.109C149.753 110.279 149.958 110.418 150.212 110.526C150.466 110.635 150.707 110.676 150.936 110.649C151.169 110.635 151.37 110.576 151.539 110.472C151.708 110.369 151.828 110.234 151.899 110.067L152.712 108.165L150.165 107.078Z" fill="#007672"/>
<path d="M139.355 116.619C139.771 115.982 140.267 115.482 140.844 115.12C141.424 114.771 142.04 114.542 142.691 114.432C143.345 114.336 143.992 114.354 144.632 114.487C145.28 114.626 145.88 114.874 146.43 115.232C146.996 115.601 147.467 116.055 147.842 116.595C148.212 117.142 148.474 117.733 148.629 118.367C148.786 119.015 148.811 119.672 148.704 120.341C148.598 121.009 148.344 121.65 147.944 122.264C147.533 122.893 147.038 123.382 146.458 123.731C145.881 124.093 145.266 124.323 144.612 124.419C143.953 124.523 143.299 124.506 142.651 124.368C142.011 124.235 141.423 123.994 140.889 123.646C140.323 123.278 139.852 122.824 139.477 122.284C139.102 121.744 138.835 121.151 138.678 120.504C138.529 119.862 138.504 119.204 138.602 118.53C138.704 117.87 138.955 117.233 139.355 116.619ZM145.104 117.213C144.777 117 144.427 116.84 144.053 116.733C143.688 116.631 143.326 116.594 142.967 116.621C142.603 116.657 142.258 116.767 141.933 116.953C141.607 117.138 141.327 117.41 141.094 117.768C140.849 118.143 140.708 118.516 140.67 118.889C140.639 119.266 140.688 119.627 140.815 119.971C140.943 120.316 141.13 120.63 141.376 120.915C141.624 121.213 141.908 121.466 142.227 121.674C142.554 121.887 142.9 122.044 143.266 122.146C143.631 122.248 143.996 122.281 144.36 122.245C144.732 122.215 145.076 122.105 145.394 121.914C145.711 121.724 145.985 121.453 146.213 121.103C146.458 120.728 146.599 120.355 146.637 119.982C146.671 119.618 146.626 119.26 146.503 118.908C146.384 118.568 146.2 118.25 145.951 117.952C145.705 117.667 145.423 117.42 145.104 117.213Z" fill="#007672"/>
<path d="M134.495 123.795L141.97 130.638L140.387 132.363L134.429 126.908L131.11 130.526L129.595 129.138L134.495 123.795Z" fill="#007672"/>
<path d="M127.676 131.089L134.107 138.919L132.297 140.403L127.17 134.161L123.373 137.275L122.069 135.687L127.676 131.089Z" fill="#007672"/>
<path d="M114.922 140.572L119.285 149.715L115.869 151.342C114.864 151.82 113.928 152.013 113.061 151.921C112.19 151.84 111.416 151.534 110.741 151.003C110.069 150.48 109.533 149.797 109.132 148.956C108.689 148.029 108.493 147.132 108.543 146.265C108.594 145.398 108.873 144.612 109.38 143.907C109.878 143.206 110.587 142.637 111.507 142.199L114.922 140.572ZM111.284 147.931C111.538 148.463 111.856 148.886 112.237 149.2C112.623 149.522 113.049 149.708 113.517 149.76C113.988 149.819 114.478 149.729 114.985 149.487L116.286 148.867L113.693 143.433L112.392 144.053C111.876 144.299 111.497 144.621 111.256 145.021C111.01 145.433 110.89 145.89 110.898 146.392C110.909 146.903 111.038 147.416 111.284 147.931Z" fill="#007672"/>
<path d="M99.797 146.733C100.532 146.534 101.236 146.491 101.907 146.605C102.573 146.73 103.185 146.968 103.743 147.319C104.296 147.682 104.766 148.126 105.155 148.652C105.547 149.186 105.828 149.77 106 150.404C106.177 151.055 106.226 151.707 106.146 152.359C106.057 153.014 105.859 153.629 105.552 154.205C105.238 154.793 104.818 155.3 104.293 155.728C103.768 156.156 103.152 156.466 102.445 156.657C101.719 156.854 101.023 156.889 100.358 156.764C99.6862 156.65 99.0742 156.412 98.5221 156.049C97.9608 155.689 97.4844 155.241 97.0929 154.707C96.7038 154.182 96.4259 153.611 96.2591 152.996C96.0823 152.345 96.0337 151.693 96.1132 151.041C96.1927 150.389 96.3895 149.769 96.7036 149.181C97.0201 148.603 97.4396 148.095 97.9621 147.658C98.4779 147.233 99.0896 146.924 99.797 146.733ZM103.691 150.999C103.589 150.623 103.434 150.27 103.227 149.942C103.022 149.623 102.777 149.355 102.491 149.137C102.195 148.921 101.865 148.774 101.498 148.696C101.132 148.618 100.742 148.635 100.329 148.747C99.8967 148.863 99.5424 149.048 99.2657 149.3C98.9914 149.562 98.7872 149.863 98.6531 150.205C98.5189 150.547 98.4486 150.906 98.4422 151.282C98.429 151.67 98.4722 152.048 98.5718 152.415C98.6739 152.791 98.8274 153.139 99.0323 153.458C99.2371 153.777 99.4872 154.044 99.7824 154.26C100.08 154.484 100.411 154.631 100.775 154.7C101.139 154.769 101.523 154.749 101.927 154.64C102.359 154.523 102.713 154.338 102.99 154.086C103.257 153.836 103.463 153.539 103.606 153.195C103.743 152.862 103.818 152.502 103.831 152.114C103.837 151.738 103.791 151.366 103.691 150.999Z" fill="#007672"/>
<path d="M88.9099 159.359L86.7574 159.484L85.515 156.312L84.6476 159.606L82.4809 159.732L83.9332 154.932L82.7507 152.3L80.6428 159.852L78.0912 160L81.4534 149.66L83.4776 149.543L85.3465 153.407L86.742 149.354L88.7804 149.236L93.3012 159.12L90.7638 159.266L87.7827 152.008L86.941 154.758L88.9099 159.359Z" fill="#007672"/>
<path d="M72.1115 155.072L72.9789 149.346L75.2943 149.696L73.7774 159.71L71.9421 159.433L68.1902 152.835L67.2972 158.731L64.9818 158.38L66.4987 148.366L68.3905 148.652L72.1115 155.072Z" fill="#007672"/>
<path d="M51.7672 149.079C51.8735 148.814 52.039 148.594 52.2636 148.417C52.4759 148.246 52.7191 148.139 52.9931 148.095C53.2636 148.06 53.5358 148.097 53.8097 148.207C54.0747 148.313 54.2929 148.472 54.4641 148.684C54.6318 148.905 54.7377 149.153 54.7816 149.426C54.822 149.709 54.789 149.983 54.6827 150.247C54.5764 150.512 54.4127 150.728 54.1916 150.896C53.9705 151.064 53.7229 151.169 53.4488 151.213C53.1748 151.257 52.9053 151.226 52.6402 151.12C52.3663 151.01 52.1455 150.845 51.9778 150.624C51.8101 150.403 51.7087 150.157 51.6736 149.887C51.6297 149.613 51.6608 149.344 51.7672 149.079Z" fill="#007672"/>
<path d="M35.906 142.855C35.9029 142.91 35.9455 143.025 36.0339 143.2C36.1169 143.383 36.2327 143.593 36.3813 143.832C36.5299 144.071 36.7062 144.311 36.9102 144.552C37.1142 144.794 37.3423 145 37.5944 145.171C37.9252 145.395 38.2214 145.51 38.4827 145.515C38.7387 145.527 38.9469 145.415 39.1072 145.179C39.2354 144.99 39.27 144.795 39.2108 144.594C39.1438 144.388 39.0097 144.154 38.8085 143.891C38.602 143.636 38.3471 143.325 38.0437 142.959C37.6042 142.454 37.2569 141.966 37.002 141.495C36.7416 141.031 36.6159 140.572 36.6248 140.119C36.6259 139.66 36.8027 139.17 37.1554 138.651C37.476 138.179 37.8351 137.836 38.2329 137.623C38.6253 137.418 39.0406 137.314 39.4789 137.312C39.904 137.313 40.3377 137.394 40.7799 137.556C41.2169 137.726 41.6362 137.947 42.038 138.219C42.4476 138.497 42.8424 138.822 43.2223 139.194C43.5889 139.569 43.9184 139.964 44.2108 140.381C44.4978 140.805 44.732 141.24 44.9132 141.684L42.9163 142.796C42.9115 142.735 42.8598 142.591 42.7613 142.364C42.6575 142.144 42.5196 141.889 42.3476 141.601C42.1624 141.314 41.9417 141.021 41.6853 140.721C41.429 140.421 41.1393 140.161 40.8163 139.942C40.4697 139.707 40.1762 139.589 39.936 139.587C39.6879 139.58 39.497 139.675 39.3634 139.871C39.2192 140.084 39.1975 140.311 39.2986 140.551C39.3918 140.787 39.5599 141.056 39.803 141.359C40.0383 141.656 40.3128 141.997 40.6265 142.382C41.0317 142.887 41.3369 143.352 41.5421 143.778C41.7394 144.199 41.8246 144.607 41.7977 145.003C41.7629 145.393 41.6012 145.801 41.3126 146.226C40.9119 146.816 40.4374 147.218 39.8892 147.433C39.3277 147.65 38.7411 147.701 38.1295 147.585C37.5126 147.477 36.9244 147.234 36.3651 146.855C35.9712 146.588 35.6251 146.284 35.3268 145.944C35.0207 145.599 34.7581 145.249 34.5392 144.894C34.3124 144.533 34.121 144.196 33.9651 143.884L35.906 142.855Z" fill="#007672"/>
<path d="M32.8151 138.287C32.3888 138.735 31.8896 139.094 31.3174 139.364C30.7387 139.641 30.1234 139.805 29.4716 139.855C28.8197 139.905 28.1677 139.817 27.5156 139.592C26.8569 139.373 26.2377 138.988 25.6581 138.438C24.9681 137.783 24.5122 137.068 24.2905 136.293C24.0619 135.512 24.0496 134.766 24.2537 134.054L26.4234 134.382C26.2846 134.749 26.2395 135.093 26.2881 135.415C26.3298 135.73 26.4348 136.02 26.6032 136.285C26.7581 136.55 26.9356 136.778 27.1357 136.968C27.46 137.276 27.8052 137.479 28.1713 137.577C28.5308 137.682 28.8916 137.703 29.2536 137.64C29.6156 137.577 29.9591 137.451 30.2842 137.261C30.6093 137.071 30.8965 136.845 31.1456 136.583C31.4211 136.294 31.6418 135.972 31.8079 135.618C31.9739 135.264 32.0725 134.905 32.1036 134.541C32.1279 134.17 32.0782 133.808 31.9548 133.455C31.8248 133.108 31.6148 132.798 31.325 132.522C31.118 132.326 30.8748 132.16 30.5953 132.026C30.3158 131.892 30.0175 131.812 29.7004 131.787C29.3698 131.761 29.0415 131.824 28.7154 131.973L28.1055 129.839C28.5914 129.618 29.1213 129.538 29.6952 129.597C30.269 129.657 30.832 129.817 31.384 130.079C31.9226 130.341 32.3955 130.665 32.8026 131.052C33.3339 131.556 33.7222 132.128 33.9674 132.768C34.1991 133.408 34.3067 134.061 34.29 134.727C34.2598 135.394 34.1213 136.037 33.8745 136.655C33.6141 137.274 33.261 137.818 32.8151 138.287Z" fill="#007672"/>
<path d="M27.3324 125.779L19.2442 131.885L16.4894 128.243C16.2024 127.864 16.0182 127.455 15.9366 127.016C15.8417 126.575 15.8382 126.136 15.9261 125.7C16.0064 125.27 16.1611 124.867 16.39 124.492C16.6133 124.109 16.892 123.791 17.2262 123.539C17.5603 123.286 17.9195 123.099 18.3036 122.975C18.6801 122.858 19.0645 122.806 19.4568 122.82C19.8414 122.84 20.213 122.929 20.5715 123.087L22.236 119.041L23.7942 121.101L22.3562 124.618L23.3118 125.882L25.9206 123.912L27.3324 125.779ZM21.6828 127.112L20.3915 125.404C20.2767 125.253 20.1307 125.154 19.9535 125.109C19.7629 125.062 19.5554 125.064 19.3309 125.114C19.1065 125.165 18.8841 125.273 18.6639 125.439C18.4436 125.606 18.2882 125.794 18.1976 126.006C18.0936 126.215 18.0449 126.419 18.0513 126.617C18.0577 126.815 18.1155 126.986 18.2245 127.13L19.4728 128.78L21.6828 127.112Z" fill="#007672"/>
<path d="M18.8451 113.174C19.1956 113.85 19.3864 114.527 19.4176 115.208C19.436 115.884 19.3326 116.532 19.1075 117.152C18.8695 117.768 18.5349 118.321 18.1035 118.813C17.6637 119.308 17.1522 119.707 16.5691 120.009C15.969 120.32 15.3416 120.505 14.6868 120.566C14.0277 120.618 13.3839 120.555 12.7554 120.377C12.1141 120.195 11.5285 119.893 10.9987 119.471C10.4689 119.049 10.0353 118.513 9.69798 117.863C9.3519 117.196 9.16968 116.524 9.1513 115.848C9.12009 115.168 9.22347 114.52 9.46142 113.904C9.695 113.28 10.0317 112.72 10.4715 112.224C10.9029 111.733 11.4017 111.341 11.9679 111.048C12.568 110.737 13.1954 110.551 13.8502 110.491C14.5049 110.43 15.153 110.491 15.7943 110.673C16.4271 110.859 17.0127 111.161 17.551 111.579C18.0764 111.992 18.5078 112.524 18.8451 113.174ZM15.4971 117.881C15.8436 117.701 16.1553 117.475 16.4324 117.203C16.701 116.936 16.9116 116.639 17.0644 116.314C17.2128 115.98 17.2864 115.626 17.2852 115.251C17.284 114.877 17.1848 114.5 16.9877 114.12C16.7818 113.723 16.5261 113.416 16.2207 113.2C15.9068 112.987 15.5685 112.852 15.2057 112.793C14.843 112.735 14.4769 112.742 14.1076 112.816C13.7254 112.885 13.3653 113.007 13.0273 113.182C12.6808 113.362 12.3732 113.585 12.1046 113.853C11.836 114.121 11.6276 114.421 11.4792 114.755C11.3223 115.094 11.2487 115.448 11.2584 115.818C11.268 116.188 11.3692 116.558 11.562 116.93C11.7679 117.327 12.0235 117.633 12.329 117.85C12.63 118.058 12.9641 118.196 13.3313 118.263C13.6856 118.326 14.0538 118.323 14.436 118.253C14.8053 118.18 15.159 118.056 15.4971 117.881Z" fill="#007672"/>
<path d="M14.9695 105.36L5.3149 108.451L4.60044 106.223L12.2969 103.759L10.7983 99.0857L12.7564 98.459L14.9695 105.36Z" fill="#007672"/>
<path d="M12.0015 95.8104L2.00203 97.4791L1.6162 95.1716L9.58757 93.8412L8.77828 89.001L10.8063 88.6625L12.0015 95.8104Z" fill="#007672"/>
<path d="M10.1078 79.9063L0 79.1256L0.291624 75.3565C0.37746 74.2471 0.676772 73.3402 1.18956 72.6358C1.69359 71.9212 2.34466 71.4039 3.14277 71.084C3.93139 70.7633 4.79075 70.6389 5.72086 70.7107C6.74588 70.7899 7.62189 71.0674 8.34888 71.5433C9.07587 72.0191 9.61882 72.6524 9.97773 73.4432C10.3374 74.2246 10.4779 75.1226 10.3994 76.1371L10.1078 79.9063ZM5.53709 73.086C4.94865 73.0406 4.42332 73.1049 3.96111 73.2791C3.48941 73.4525 3.11477 73.7288 2.83719 74.108C2.55012 74.4865 2.38495 74.9554 2.34166 75.5148L2.23051 76.9514L8.23826 77.4153L8.34941 75.9788C8.39343 75.4099 8.30235 74.9211 8.07617 74.5126C7.84124 74.0938 7.50406 73.7625 7.06464 73.5188C6.61573 73.2742 6.10654 73.13 5.53709 73.086Z" fill="#007672"/>
<path d="M12.2876 63.6764C12.094 64.4122 11.7805 65.0428 11.347 65.5681C10.9067 66.0818 10.3949 66.4932 9.81166 66.8022C9.2216 67.0996 8.60171 67.2859 7.952 67.3611C7.29307 67.4339 6.64599 67.3868 6.01074 67.22C5.35708 67.0484 4.76711 66.7656 4.24082 66.3717C3.71694 65.9686 3.28172 65.4905 2.93513 64.9373C2.58177 64.3725 2.35024 63.7561 2.24056 63.0881C2.13087 62.4201 2.1692 61.732 2.35554 61.0238C2.54673 60.2972 2.86246 59.677 3.30274 59.1633C3.73624 58.6379 4.24802 58.2266 4.83808 57.9292C5.43055 57.6226 6.05625 57.4329 6.71518 57.3602C7.36489 57.2849 7.99816 57.3283 8.615 57.4903C9.26866 57.662 9.85863 57.9448 10.3849 58.3387C10.9112 58.7325 11.351 59.2119 11.7044 59.7767C12.0486 60.3391 12.2801 60.9555 12.399 61.6259C12.5111 62.2846 12.474 62.9682 12.2876 63.6764ZM6.64458 64.9232C7.02205 65.0223 7.40483 65.0639 7.79292 65.0478C8.17181 65.0293 8.52718 64.9505 8.85903 64.8115C9.19331 64.6633 9.48565 64.45 9.73607 64.1716C9.98649 63.8932 10.1662 63.547 10.2751 63.1331C10.3888 62.7008 10.4052 62.3019 10.3241 61.9365C10.2339 61.5686 10.0739 61.2414 9.8442 60.9549C9.61446 60.6684 9.33798 60.4286 9.01475 60.2356C8.68474 60.0309 8.33561 59.8802 7.96735 59.7835C7.58988 59.6844 7.21171 59.6441 6.83282 59.6626C6.45393 59.6811 6.09735 59.7644 5.76308 59.9127C5.4196 60.0585 5.12725 60.2718 4.88604 60.5526C4.64483 60.8334 4.47098 61.1762 4.3645 61.5809C4.25076 62.0132 4.23439 62.4121 4.31541 62.7775C4.39884 63.1338 4.55422 63.4597 4.78154 63.7554C5.00207 64.0395 5.27735 64.2839 5.60736 64.4886C5.93058 64.6816 6.27633 64.8265 6.64458 64.9232Z" fill="#007672"/>
<path d="M6.62387 48.1766L7.58763 46.2497L10.9594 46.7529L8.53224 44.3611L9.50239 42.4214L12.9452 46.0698L15.8188 46.3561L10.313 40.7689L11.4554 38.4846L18.7563 46.5468L17.85 48.3589L13.5651 48.0537L16.3884 51.2812L15.4757 53.106L4.64527 52.1007L5.78136 49.8292L13.5658 50.8608L11.5985 48.7624L6.62387 48.1766Z" fill="#007672"/>
<path d="M18.6452 35.7842L23.1796 39.3929L21.7205 41.2228L13.791 34.912L14.9475 33.4615L22.543 33.5059L17.8746 29.7905L19.3336 27.9606L27.2632 34.2714L26.071 35.7666L18.6452 35.7842Z" fill="#007672"/>
<path d="M33.747 21.2522C33.9249 21.4754 34.0351 21.7281 34.0777 22.0104C34.1217 22.2794 34.0951 22.5437 33.998 22.8034C33.8949 23.0557 33.7279 23.2737 33.4971 23.4574C33.2737 23.6351 33.0275 23.746 32.7583 23.79C32.4832 23.8266 32.2156 23.7963 31.9557 23.6992C31.6898 23.5947 31.4679 23.4309 31.2899 23.2077C31.112 22.9846 31.0047 22.7355 30.9681 22.4607C30.9315 22.1858 30.9618 21.9186 31.059 21.6588C31.1562 21.3991 31.3164 21.1804 31.5398 21.0026C31.7706 20.8189 32.0236 20.7088 32.2987 20.6722C32.5738 20.6357 32.8376 20.6689 33.0901 20.7719C33.3501 20.869 33.569 21.0291 33.747 21.2522Z" fill="#007672"/>
<path d="M47.2835 10.3345C47.2369 10.3044 47.1158 10.2843 46.92 10.2743C46.7201 10.2558 46.4796 10.2518 46.1985 10.2624C45.9174 10.273 45.6213 10.3069 45.3101 10.364C44.9989 10.4212 44.7065 10.5168 44.433 10.6508C44.0741 10.8267 43.8277 11.0268 43.694 11.2512C43.5561 11.4671 43.5501 11.7031 43.6758 11.9593C43.7764 12.1642 43.9287 12.2908 44.1327 12.3392C44.3452 12.3833 44.6156 12.3833 44.9437 12.339C45.2677 12.2862 45.6641 12.2191 46.133 12.1376C46.7896 12.0065 47.3861 11.9473 47.9224 11.9599C48.4546 11.964 48.9156 12.0823 49.3054 12.315C49.7039 12.5435 50.0414 12.9395 50.3181 13.503C50.5696 14.0154 50.6893 14.4969 50.6774 14.9477C50.6612 15.3899 50.5452 15.8016 50.3294 16.1827C50.118 16.5511 49.8323 16.8871 49.4724 17.1906C49.1083 17.4855 48.7083 17.7398 48.2724 17.9533C47.8279 18.1711 47.3497 18.3525 46.8378 18.4974C46.3301 18.6296 45.8228 18.7193 45.3159 18.7665C44.8047 18.8051 44.3109 18.7928 43.8346 18.7296L43.8585 16.4458C43.9137 16.4717 44.0646 16.4984 44.3113 16.5258C44.5538 16.5447 44.8433 16.5511 45.1796 16.5452C45.5204 16.5265 45.8847 16.4804 46.2727 16.4068C46.6607 16.3332 47.0299 16.2106 47.3803 16.0389C47.7563 15.8546 48.0047 15.6588 48.1255 15.4513C48.2549 15.2396 48.2672 15.027 48.1624 14.8136C48.0492 14.583 47.8629 14.4519 47.6034 14.4201C47.3525 14.3842 47.0353 14.3966 46.6516 14.4575C46.2766 14.5142 45.8439 14.5831 45.3537 14.6645C44.7144 14.7659 44.1585 14.7999 43.6862 14.7665C43.2225 14.7289 42.8254 14.6004 42.495 14.381C42.1732 14.1573 41.8991 13.815 41.6727 13.3539C41.3584 12.7135 41.2438 12.1023 41.3292 11.5202C41.4189 10.9255 41.6657 10.3914 42.0695 9.91815C42.4691 9.43634 42.9723 9.04676 43.5791 8.74943C44.0065 8.54003 44.4418 8.39025 44.8853 8.30007C45.3373 8.20571 45.7719 8.15162 46.1893 8.1378C46.6151 8.1198 47.0025 8.12064 47.3515 8.14032L47.2835 10.3345Z" fill="#007672"/>
<path d="M52.7087 9.92336C52.531 9.3312 52.4669 8.71995 52.5164 8.08961C52.5631 7.45015 52.7265 6.83532 53.0066 6.24513C53.2867 5.65493 53.6866 5.13309 54.2065 4.67961C54.7236 4.21701 55.3651 3.87106 56.1311 3.64173C57.043 3.36873 57.8905 3.32846 58.6736 3.5209C59.4659 3.71061 60.1204 4.07063 60.6373 4.60095L59.2745 6.31945C59.0248 6.01695 58.7482 5.80689 58.4446 5.68929C58.1501 5.56896 57.846 5.51604 57.5324 5.53051C57.2251 5.53315 56.9393 5.57406 56.6748 5.65323C56.2462 5.78154 55.8983 5.98001 55.6311 6.24866C55.3611 6.50819 55.1637 6.81056 55.0386 7.15576C54.9136 7.50096 54.8529 7.86167 54.8564 8.23789C54.8599 8.6141 54.9136 8.9753 55.0175 9.32148C55.1322 9.70411 55.3022 10.0553 55.5273 10.3751C55.7524 10.6949 56.0154 10.9587 56.3162 11.1665C56.6261 11.3716 56.9653 11.5083 57.3336 11.5767C57.6992 11.6361 58.0735 11.6084 58.4565 11.4937C58.73 11.4118 58.9945 11.283 59.2498 11.1073C59.5052 10.9315 59.7227 10.7125 59.9024 10.4502C60.0885 10.1761 60.1976 9.86051 60.2296 9.50343L62.3862 10.0343C62.3368 10.5653 62.1438 11.0649 61.8072 11.533C61.4707 12.0011 61.0516 12.4095 60.55 12.7583C60.0548 13.0952 59.5382 13.3442 59.0002 13.5052C58.2981 13.7154 57.6083 13.7681 56.9309 13.6631C56.2598 13.5463 55.639 13.3152 55.0683 12.9698C54.504 12.6125 54.0145 12.1733 53.5998 11.6521C53.1915 11.1191 52.8945 10.5428 52.7087 9.92336Z" fill="#007672"/>
<path d="M66.1299 11.3904L64.8442 1.34361L69.3766 0.764699C69.8487 0.704395 70.2957 0.747969 70.7176 0.89542C71.1478 1.03223 71.5304 1.24703 71.8653 1.53982C72.1991 1.82317 72.4722 2.15742 72.6846 2.54256C72.9065 2.92649 73.044 3.326 73.0971 3.74108C73.1502 4.15615 73.1348 4.56081 73.0509 4.95504C72.9658 5.33983 72.8198 5.69884 72.6129 6.03207C72.4049 6.35587 72.1429 6.63382 71.8271 6.86591L74.5147 10.3194L71.9511 10.6468L69.6102 7.65243L68.038 7.85324L68.4527 11.0937L66.1299 11.3904ZM67.7791 5.82974L69.9036 5.55838C70.0925 5.53426 70.2505 5.45655 70.3776 5.32525C70.513 5.18332 70.6146 5.00255 70.6825 4.78296C70.7504 4.56336 70.7668 4.31677 70.7318 4.0432C70.6968 3.76962 70.6099 3.54102 70.4713 3.35739C70.3409 3.16311 70.1881 3.01963 70.0131 2.92693C69.8381 2.83423 69.6609 2.79934 69.4815 2.82225L67.4278 3.08457L67.7791 5.82974Z" fill="#007672"/>
<path d="M81.6974 10.2643C80.9367 10.2291 80.2539 10.0547 79.6491 9.74108C79.0542 9.4184 78.5445 9.00446 78.12 8.49926C77.7055 7.985 77.3935 7.41836 77.184 6.79934C76.9749 6.17082 76.8856 5.52881 76.916 4.8733C76.9473 4.19878 77.1006 3.56325 77.376 2.96668C77.661 2.37056 78.0379 1.84534 78.5069 1.39102C78.9858 0.927645 79.5407 0.572512 80.1716 0.325623C80.8024 0.0787345 81.484 -0.0277602 82.2162 0.0061389C82.9674 0.0409185 83.6404 0.219649 84.2354 0.54233C84.8402 0.855951 85.3499 1.26989 85.7644 1.78415C86.1884 2.29885 86.505 2.87046 86.714 3.49898C86.9236 4.118 87.0136 4.74576 86.984 5.38227C86.9527 6.05678 86.7994 6.69232 86.5239 7.28889C86.2485 7.88545 85.8713 8.41542 85.3924 8.8788C84.914 9.33267 84.3591 9.68781 83.7278 9.94419C83.1064 10.1915 82.4296 10.2982 81.6974 10.2643ZM79.2967 5.01208C79.2786 5.40159 79.318 5.78424 79.4149 6.16002C79.5123 6.52631 79.6637 6.85702 79.8692 7.15215C80.0842 7.44773 80.3541 7.68872 80.679 7.87513C81.0039 8.06154 81.3803 8.16465 81.8082 8.18446C82.2551 8.20515 82.649 8.1377 82.9897 7.98211C83.3309 7.81701 83.6177 7.59228 83.8501 7.3079C84.0824 7.02352 84.2593 6.70325 84.3806 6.34708C84.5119 5.98186 84.5864 5.60924 84.604 5.22924C84.6221 4.83973 84.5824 4.46183 84.4851 4.09554C84.3877 3.72925 84.2315 3.39832 84.0165 3.10275C83.802 2.79768 83.532 2.55669 83.2067 2.37978C82.8814 2.20287 82.5095 2.10473 82.0911 2.08536C81.6442 2.06466 81.2504 2.13211 80.9096 2.28771C80.5784 2.44374 80.2918 2.66373 80.0499 2.94767C79.818 3.22255 79.6364 3.5426 79.5051 3.90782C79.3838 4.26399 79.3143 4.63207 79.2967 5.01208Z" fill="#007672"/>
<path d="M90.473 10.8012L92.6001 0.898155L94.8897 1.38902L93.194 9.2836L97.9966 10.3132L97.5652 12.3217L90.473 10.8012Z" fill="#007672"/>
<path d="M100.198 12.9644L103.724 3.46819L105.92 4.28187L103.109 11.8521L107.714 13.5588L106.999 15.4848L100.198 12.9644Z" fill="#007672"/>
<path d="M114.51 18.963L120.201 10.5806L123.333 12.7026C124.254 13.3272 124.894 14.0366 125.252 14.8308C125.623 15.6225 125.75 16.4438 125.633 17.2949C125.52 18.1381 125.202 18.9454 124.679 19.7167C124.101 20.5667 123.426 21.1891 122.652 21.5839C121.878 21.9787 121.058 22.1357 120.193 22.0549C119.335 21.9795 118.485 21.6562 117.642 21.085L114.51 18.963ZM122.705 18.3794C123.036 17.8914 123.241 17.4038 123.319 16.9164C123.402 16.4211 123.348 15.9591 123.156 15.5302C122.969 15.0935 122.643 14.7177 122.178 14.4027L120.985 13.594L117.603 18.5761L118.796 19.3849C119.269 19.7052 119.739 19.8685 120.206 19.8749C120.687 19.8787 121.142 19.7505 121.571 19.4901C122.007 19.2219 122.385 18.8517 122.705 18.3794Z" fill="#007672"/>
<path d="M127.617 28.9243C127.072 28.3922 126.679 27.808 126.436 27.1718C126.207 26.5354 126.103 25.8875 126.122 25.2282C126.155 24.5688 126.3 23.9384 126.556 23.3371C126.819 22.729 127.18 22.1904 127.639 21.7213C128.112 21.2387 128.649 20.8663 129.252 20.6042C129.862 20.3487 130.493 20.2073 131.146 20.18C131.812 20.1526 132.463 20.2565 133.098 20.4917C133.734 20.7269 134.313 21.1005 134.837 21.6127C135.375 22.1381 135.758 22.719 135.987 23.3554C136.23 23.9917 136.334 24.6395 136.301 25.299C136.275 25.9651 136.13 26.6022 135.868 27.2103C135.612 27.8116 135.261 28.34 134.815 28.7955C134.342 29.2781 133.804 29.6505 133.201 29.9126C132.598 30.1747 131.964 30.3195 131.297 30.347C130.638 30.3676 129.987 30.2637 129.345 30.0353C128.717 29.8068 128.14 29.4364 127.617 28.9243ZM129.323 23.4078C129.05 23.6865 128.825 23.9983 128.647 24.3433C128.476 24.6814 128.368 25.0289 128.325 25.3858C128.289 25.7494 128.33 26.1087 128.448 26.4639C128.566 26.819 128.779 27.1463 129.085 27.4456C129.405 27.7582 129.743 27.9697 130.101 28.0801C130.466 28.1838 130.83 28.2067 131.193 28.1489C131.556 28.0912 131.901 27.9697 132.229 27.7846C132.57 27.5993 132.874 27.3707 133.14 27.0988C133.413 26.8201 133.635 26.5116 133.806 26.1735C133.978 25.8354 134.082 25.4845 134.118 25.121C134.161 24.7506 134.12 24.3913 133.995 24.0429C133.87 23.6946 133.658 23.3741 133.359 23.0814C133.039 22.7688 132.7 22.5573 132.342 22.4469C131.991 22.3431 131.631 22.3167 131.261 22.3679C130.905 22.4188 130.556 22.5369 130.215 22.7222C129.887 22.9074 129.59 23.1359 129.323 23.4078Z" fill="#007672"/>
<path d="M144.202 32.0269L145.399 33.8184L143.29 36.4944L146.572 35.5744L147.777 37.3777L142.899 38.556L141.226 40.9073L148.812 38.9003L150.231 41.0241L139.603 43.3615L138.478 41.6767L140.867 38.1103L136.662 38.9597L135.528 37.2631L141.772 28.3647L143.183 30.4766L138.427 36.7192L141.226 36.0526L144.202 32.0269Z" fill="#007672"/>
<path d="M148.897 48.3584L143.516 50.5145L142.644 48.3431L152.054 44.5726L152.745 46.2938L148.954 52.8697L154.493 50.6498L155.365 52.8212L145.956 56.5918L145.244 54.8176L148.897 48.3584Z" fill="#007672"/>
<path d="M154.117 69.0397C153.834 69.0824 153.56 69.0517 153.294 68.9476C153.039 68.8516 152.823 68.6967 152.646 68.4829C152.479 68.2678 152.373 68.0144 152.329 67.7229C152.286 67.4408 152.313 67.1723 152.409 66.9173C152.514 66.6609 152.674 66.4443 152.888 66.2677C153.111 66.0897 153.364 65.9793 153.647 65.9366C153.929 65.8939 154.198 65.9253 154.455 66.0308C154.712 66.1363 154.929 66.2959 155.105 66.5096C155.282 66.7233 155.392 66.9713 155.435 67.2534C155.479 67.5449 155.448 67.8188 155.342 68.0753C155.237 68.3317 155.076 68.5435 154.861 68.7107C154.647 68.8874 154.399 68.997 154.117 69.0397Z" fill="#007672"/>
</svg>
