<svg width="40" height="40" viewBox="0 0 40 40" fill="none" xmlns="http://www.w3.org/2000/svg">
<circle opacity="0.1" cx="20" cy="20" r="20" fill="#191D1D"/>
<path d="M29.5245 15.3162L25.7215 16.756V14.8308C25.7215 13.8197 24.9524 13 24.0038 13H10.7177C9.76902 13 9 13.8197 9 14.8308V25.1692C9 26.1803 9.76902 27 10.7177 27H24.004C24.9527 27 25.7217 26.1803 25.7217 25.1692V23.244L29.5248 24.6838C30.2442 24.956 31 24.3873 31 23.5733V16.4267C31 15.6127 30.2442 15.044 29.5245 15.3162ZM20.4082 20.4914L16.1238 23.2933C15.7635 23.5288 15.3003 23.2526 15.3003 22.8019V17.1981C15.3003 16.7476 15.7635 16.4712 16.1238 16.7067L20.4082 19.5086C20.7522 19.7337 20.7522 20.2663 20.4082 20.4914Z" fill="#005B58"/>
</svg>
