<svg width="63" height="63" viewBox="0 0 63 63" fill="none" xmlns="http://www.w3.org/2000/svg">
<path d="M0 29.25H5.85V40.05H0L2.52778 34.7447L0 29.25Z" fill="#17313B"/>
<path d="M63 29.25H57.15V40.05H63L60.4722 34.7447L63 29.25Z" fill="#17313B"/>
<path d="M5.75537 17.6755L31.5695 3.68994L57.2444 17.6755V45.4842L31.5695 59.3538L5.75537 45.4842V17.6755Z" fill="url(#paint0_linear_1_6547)"/>
<path d="M9.74438 19.6602L31.5585 7.6792L53.255 19.6602V43.483L31.5585 55.3646L9.74438 43.483V19.6602Z" fill="#FFFDFD"/>
<path d="M29.6542 15.6576H29.4154V13.8166H28.7653V13.6046H30.3044V13.8166H29.6542V15.6576Z" fill="#17313B"/>
<path d="M32.3967 14.6283C32.3967 14.9569 32.3134 15.2153 32.1468 15.4034C31.9811 15.5916 31.7503 15.6857 31.4545 15.6857C31.1521 15.6857 30.9185 15.5935 30.7537 15.4091C30.5899 15.2237 30.508 14.9625 30.508 14.6255C30.508 14.2913 30.5904 14.0324 30.7551 13.8489C30.9199 13.6645 31.1539 13.5723 31.4573 13.5723C31.7522 13.5723 31.9825 13.6659 32.1482 13.8531C32.3139 14.0404 32.3967 14.2987 32.3967 14.6283ZM30.7607 14.6283C30.7607 14.9063 30.8197 15.1174 30.9377 15.2616C31.0566 15.4049 31.2288 15.4765 31.4545 15.4765C31.6819 15.4765 31.8537 15.4049 31.9698 15.2616C32.0859 15.1184 32.144 14.9073 32.144 14.6283C32.144 14.3521 32.0859 14.1429 31.9698 14.0006C31.8547 13.8573 31.6838 13.7857 31.4573 13.7857C31.2298 13.7857 31.0566 13.8578 30.9377 14.002C30.8197 14.1452 30.7607 14.354 30.7607 14.6283Z" fill="#17313B"/>
<path d="M34.1577 14.2028C34.1577 14.4106 34.0865 14.5707 33.9442 14.6831C33.8029 14.7945 33.6002 14.8502 33.3362 14.8502H33.0947V15.6576H32.8559V13.6046H33.3882C33.9012 13.6046 34.1577 13.804 34.1577 14.2028ZM33.0947 14.6451H33.3095C33.5211 14.6451 33.6742 14.611 33.7687 14.5426C33.8633 14.4743 33.9105 14.3647 33.9105 14.214C33.9105 14.0783 33.8661 13.9772 33.7771 13.9107C33.6882 13.8442 33.5496 13.811 33.3615 13.811H33.0947V14.6451Z" fill="#17313B"/>
<path d="M20.5656 18.1505H21.1455C21.418 18.1505 21.615 18.1912 21.7367 18.2726C21.8584 18.3541 21.9193 18.4828 21.9193 18.6588C21.9193 18.7805 21.8851 18.8812 21.8168 18.9607C21.7494 19.0394 21.6506 19.0904 21.5205 19.1138V19.1278C21.8322 19.1812 21.9881 19.345 21.9881 19.6193C21.9881 19.8028 21.9258 19.9461 21.8013 20.049C21.6777 20.152 21.5045 20.2035 21.2817 20.2035H20.5656V18.1505ZM20.8043 19.0295H21.1975C21.366 19.0295 21.4872 19.0033 21.5612 18.9509C21.6351 18.8975 21.6721 18.8081 21.6721 18.6827C21.6721 18.5675 21.6309 18.4847 21.5485 18.4341C21.4662 18.3826 21.3351 18.3569 21.1553 18.3569H20.8043V19.0295ZM20.8043 19.2318V19.9999H21.2326C21.3983 19.9999 21.5228 19.9681 21.6061 19.9044C21.6904 19.8398 21.7325 19.7392 21.7325 19.6025C21.7325 19.4752 21.6894 19.3815 21.6033 19.3216C21.5181 19.2617 21.388 19.2318 21.2129 19.2318H20.8043Z" fill="#17313B"/>
<path d="M23.6381 20.2035H22.2886V20.0027L22.8293 19.4593C22.994 19.2926 23.1026 19.1737 23.155 19.1026C23.2075 19.0314 23.2468 18.9621 23.273 18.8947C23.2992 18.8273 23.3123 18.7548 23.3123 18.6771C23.3123 18.5675 23.2791 18.4809 23.2126 18.4173C23.1462 18.3527 23.0539 18.3204 22.936 18.3204C22.8508 18.3204 22.7698 18.3344 22.693 18.3625C22.6172 18.3906 22.5325 18.4416 22.4389 18.5156L22.3153 18.3569C22.5044 18.1996 22.7104 18.121 22.9332 18.121C23.126 18.121 23.2772 18.1706 23.3868 18.2698C23.4963 18.3681 23.5511 18.5006 23.5511 18.6672C23.5511 18.7974 23.5145 18.9261 23.4415 19.0534C23.3685 19.1807 23.2318 19.3418 23.0315 19.5365L22.5821 19.976V19.9873H23.6381V20.2035Z" fill="#17313B"/>
<path d="M24.0763 18.1505H24.6562C24.9287 18.1505 25.1257 18.1912 25.2474 18.2726C25.3691 18.3541 25.43 18.4828 25.43 18.6588C25.43 18.7805 25.3958 18.8812 25.3275 18.9607C25.2601 19.0394 25.1613 19.0904 25.0312 19.1138V19.1278C25.3429 19.1812 25.4988 19.345 25.4988 19.6193C25.4988 19.8028 25.4365 19.9461 25.312 20.049C25.1884 20.152 25.0152 20.2035 24.7924 20.2035H24.0763V18.1505ZM24.315 19.0295H24.7082C24.8767 19.0295 24.9979 19.0033 25.0719 18.9509C25.1458 18.8975 25.1828 18.8081 25.1828 18.6827C25.1828 18.5675 25.1416 18.4847 25.0592 18.4341C24.9769 18.3826 24.8458 18.3569 24.6661 18.3569H24.315V19.0295ZM24.315 19.2318V19.9999H24.7433C24.909 19.9999 25.0335 19.9681 25.1168 19.9044C25.2011 19.8398 25.2432 19.7392 25.2432 19.6025C25.2432 19.4752 25.2001 19.3815 25.114 19.3216C25.0288 19.2617 24.8987 19.2318 24.7236 19.2318H24.315Z" fill="#17313B"/>
<path d="M27.5673 18.3344C27.3417 18.3344 27.1633 18.4098 27.0323 18.5605C26.9021 18.7103 26.8371 18.9158 26.8371 19.177C26.8371 19.4457 26.8998 19.6535 27.0252 19.8005C27.1516 19.9465 27.3314 20.0196 27.5645 20.0196C27.7077 20.0196 27.8711 19.9938 28.0546 19.9423V20.1516C27.9123 20.2049 27.7367 20.2316 27.528 20.2316C27.2256 20.2316 26.992 20.1399 26.8272 19.9564C26.6634 19.7729 26.5815 19.5121 26.5815 19.1742C26.5815 18.9626 26.6208 18.7772 26.6994 18.6181C26.779 18.4589 26.8932 18.3363 27.0421 18.2502C27.1919 18.164 27.3679 18.121 27.5701 18.121C27.7854 18.121 27.9736 18.1603 28.1346 18.2389L28.0335 18.444C27.8781 18.3709 27.7227 18.3344 27.5673 18.3344Z" fill="#17313B"/>
<path d="M30.2846 19.1742C30.2846 19.5028 30.2013 19.7612 30.0346 19.9493C29.8689 20.1375 29.6381 20.2316 29.3423 20.2316C29.0399 20.2316 28.8063 20.1394 28.6416 19.955C28.4777 19.7696 28.3958 19.5084 28.3958 19.1714C28.3958 18.8372 28.4782 18.5783 28.643 18.3948C28.8077 18.2104 29.0418 18.1182 29.3451 18.1182C29.64 18.1182 29.8703 18.2118 30.036 18.399C30.2017 18.5863 30.2846 18.8446 30.2846 19.1742ZM28.6486 19.1742C28.6486 19.4522 28.7076 19.6633 28.8255 19.8075C28.9444 19.9507 29.1167 20.0224 29.3423 20.0224C29.5698 20.0224 29.7416 19.9507 29.8577 19.8075C29.9738 19.6643 30.0318 19.4532 30.0318 19.1742C30.0318 18.898 29.9738 18.6888 29.8577 18.5465C29.7425 18.4032 29.5717 18.3316 29.3451 18.3316C29.1176 18.3316 28.9444 18.4037 28.8255 18.5479C28.7076 18.6911 28.6486 18.8999 28.6486 19.1742Z" fill="#17313B"/>
<path d="M31.6523 20.2035L30.9558 18.3836H30.9446C30.9577 18.5277 30.9642 18.6991 30.9642 18.8975V20.2035H30.7438V18.1505H31.1033L31.7535 19.844H31.7647L32.4205 18.1505H32.7772V20.2035H32.5384V18.8807C32.5384 18.729 32.545 18.5643 32.5581 18.3864H32.5469L31.8447 20.2035H31.6523Z" fill="#17313B"/>
<path d="M34.6435 18.7487C34.6435 18.9565 34.5723 19.1166 34.43 19.2289C34.2886 19.3404 34.086 19.3961 33.822 19.3961H33.5804V20.2035H33.3417V18.1505H33.8739C34.3869 18.1505 34.6435 18.3499 34.6435 18.7487ZM33.5804 19.191H33.7953C34.0069 19.191 34.1599 19.1569 34.2545 19.0885C34.349 19.0202 34.3963 18.9106 34.3963 18.7599C34.3963 18.6242 34.3518 18.5231 34.2629 18.4566C34.174 18.3901 34.0354 18.3569 33.8472 18.3569H33.5804V19.191Z" fill="#17313B"/>
<path d="M36.3651 20.2035L36.1095 19.5505H35.2866L35.0339 20.2035H34.7923L35.604 18.142H35.8048L36.6123 20.2035H36.3651ZM36.0351 19.3357L35.7964 18.6995C35.7655 18.619 35.7337 18.5203 35.7009 18.4032C35.6803 18.4931 35.6508 18.5919 35.6124 18.6995L35.3709 19.3357H36.0351Z" fill="#17313B"/>
<path d="M38.4982 20.2035H38.2258L37.1038 18.4805H37.0925C37.1075 18.6827 37.115 18.868 37.115 19.0366V20.2035H36.8945V18.1505H37.1641L38.2834 19.8665H38.2946C38.2927 19.8412 38.2885 19.7602 38.282 19.6236C38.2754 19.4859 38.2731 19.3876 38.2749 19.3287V18.1505H38.4982V20.2035Z" fill="#17313B"/>
<path d="M39.0627 20.2035V18.1505H39.3015V20.2035H39.0627Z" fill="#17313B"/>
<path d="M41.0105 20.2035H39.866V18.1505H41.0105V18.3625H40.1047V19.0239H40.9557V19.2346H40.1047V19.9901H41.0105V20.2035Z" fill="#17313B"/>
<path d="M42.6254 19.6573C42.6254 19.8379 42.5599 19.9788 42.4288 20.0799C42.2977 20.1811 42.1199 20.2316 41.8952 20.2316C41.6518 20.2316 41.4645 20.2002 41.3335 20.1375V19.9072C41.4177 19.9428 41.5095 19.9709 41.6087 19.9915C41.7079 20.0121 41.8062 20.0224 41.9036 20.0224C42.0627 20.0224 42.1826 19.9924 42.2631 19.9325C42.3436 19.8716 42.3839 19.7874 42.3839 19.6797C42.3839 19.6086 42.3693 19.5505 42.3403 19.5056C42.3122 19.4597 42.2645 19.4176 42.1971 19.3792C42.1306 19.3408 42.029 19.2973 41.8924 19.2486C41.7014 19.1803 41.5647 19.0993 41.4823 19.0057C41.4009 18.9121 41.3601 18.7899 41.3601 18.6392C41.3601 18.4809 41.4196 18.355 41.5385 18.2614C41.6574 18.1678 41.8147 18.121 42.0103 18.121C42.2144 18.121 42.4021 18.1584 42.5734 18.2333L42.499 18.4411C42.3296 18.37 42.1648 18.3344 42.0047 18.3344C41.8783 18.3344 41.7796 18.3616 41.7084 18.4159C41.6373 18.4702 41.6017 18.5455 41.6017 18.642C41.6017 18.7131 41.6148 18.7716 41.641 18.8175C41.6672 18.8624 41.7112 18.9041 41.773 18.9425C41.8357 18.9799 41.9312 19.0216 42.0595 19.0675C42.2748 19.1442 42.4227 19.2266 42.5032 19.3146C42.5847 19.4026 42.6254 19.5168 42.6254 19.6573Z" fill="#17313B"/>
<path d="M27.1803 43.9906H27.8783V44.9891C27.7697 45.0237 27.6592 45.0499 27.5468 45.0677C27.4345 45.0855 27.3044 45.0944 27.1565 45.0944C26.8456 45.0944 26.6036 45.0022 26.4304 44.8178C26.2573 44.6324 26.1707 44.3731 26.1707 44.0398C26.1707 43.8263 26.2133 43.6396 26.2984 43.4795C26.3846 43.3185 26.5081 43.1958 26.6692 43.1116C26.8302 43.0264 27.0188 42.9838 27.2351 42.9838C27.4542 42.9838 27.6583 43.024 27.8474 43.1045L27.7547 43.3152C27.5693 43.2365 27.391 43.1972 27.2197 43.1972C26.9697 43.1972 26.7745 43.2716 26.6341 43.4205C26.4936 43.5694 26.4234 43.7758 26.4234 44.0398C26.4234 44.3169 26.4908 44.5271 26.6256 44.6703C26.7614 44.8135 26.9603 44.8852 27.2225 44.8852C27.3648 44.8852 27.5038 44.8688 27.6395 44.836V44.2041H27.1803V43.9906Z" fill="#17313B"/>
<path d="M28.3726 45.0663V43.0133H28.6113V44.8501H29.5171V45.0663H28.3726Z" fill="#17313B"/>
<path d="M31.6488 44.037C31.6488 44.3656 31.5654 44.624 31.3988 44.8121C31.2331 45.0003 31.0023 45.0944 30.7065 45.0944C30.4041 45.0944 30.1705 45.0022 30.0057 44.8178C29.8419 44.6324 29.76 44.3712 29.76 44.0342C29.76 43.6999 29.8424 43.4411 30.0071 43.2576C30.1719 43.0732 30.406 42.981 30.7093 42.981C31.0042 42.981 31.2345 43.0746 31.4002 43.2618C31.5659 43.4491 31.6488 43.7074 31.6488 44.037ZM30.0128 44.037C30.0128 44.315 30.0717 44.5261 30.1897 44.6703C30.3086 44.8135 30.4809 44.8852 30.7065 44.8852C30.934 44.8852 31.1058 44.8135 31.2219 44.6703C31.3379 44.5271 31.396 44.316 31.396 44.037C31.396 43.7608 31.3379 43.5516 31.2219 43.4093C31.1067 43.266 30.9358 43.1944 30.7093 43.1944C30.4818 43.1944 30.3086 43.2665 30.1897 43.4107C30.0717 43.5539 30.0128 43.7627 30.0128 44.037Z" fill="#17313B"/>
<path d="M32.108 43.0133H32.6879C32.9604 43.0133 33.1574 43.054 33.2791 43.1354C33.4008 43.2169 33.4617 43.3456 33.4617 43.5216C33.4617 43.6433 33.4275 43.7439 33.3592 43.8235C33.2918 43.9022 33.193 43.9532 33.0629 43.9766V43.9906C33.3746 44.044 33.5305 44.2078 33.5305 44.4821C33.5305 44.6656 33.4682 44.8089 33.3437 44.9118C33.2201 45.0148 33.0469 45.0663 32.8241 45.0663H32.108V43.0133ZM32.3467 43.8923H32.7399C32.9084 43.8923 33.0296 43.8661 33.1036 43.8137C33.1775 43.7603 33.2145 43.6709 33.2145 43.5455C33.2145 43.4303 33.1733 43.3475 33.0909 43.2969C33.0086 43.2454 32.8775 43.2197 32.6978 43.2197H32.3467V43.8923ZM32.3467 44.0946V44.8627H32.775C32.9407 44.8627 33.0652 44.8309 33.1485 44.7672C33.2328 44.7026 33.2749 44.602 33.2749 44.4653C33.2749 44.338 33.2318 44.2443 33.1457 44.1844C33.0605 44.1245 32.9304 44.0946 32.7553 44.0946H32.3467Z" fill="#17313B"/>
<path d="M35.2634 45.0663L35.0078 44.4133H34.1849L33.9321 45.0663H33.6906L34.5023 43.0048H34.7031L35.5105 45.0663H35.2634ZM34.9334 44.1985L34.6946 43.5623C34.6637 43.4818 34.6319 43.383 34.5991 43.266C34.5786 43.3559 34.5491 43.4547 34.5107 43.5623L34.2691 44.1985H34.9334Z" fill="#17313B"/>
<path d="M35.7928 45.0663V43.0133H36.0315V44.8501H36.9373V45.0663H35.7928Z" fill="#17313B"/>
<path d="M29.6983 49.6127H28.3488V49.4119L28.8894 48.8684C29.0542 48.7018 29.1628 48.5829 29.2152 48.5117C29.2676 48.4406 29.3069 48.3713 29.3332 48.3039C29.3594 48.2365 29.3725 48.164 29.3725 48.0862C29.3725 47.9767 29.3392 47.8901 29.2728 47.8265C29.2063 47.7619 29.1141 47.7296 28.9961 47.7296C28.9109 47.7296 28.83 47.7436 28.7532 47.7717C28.6774 47.7998 28.5926 47.8508 28.499 47.9248L28.3754 47.7661C28.5645 47.6088 28.7705 47.5302 28.9933 47.5302C29.1862 47.5302 29.3374 47.5798 29.4469 47.679C29.5564 47.7773 29.6112 47.9098 29.6112 48.0764C29.6112 48.2065 29.5747 48.3353 29.5017 48.4626C29.4286 48.5899 29.292 48.7509 29.0916 48.9457L28.6422 49.3852V49.3964H29.6983V49.6127Z" fill="#17313B"/>
<path d="M31.3553 48.5834C31.3553 48.9382 31.2991 49.2031 31.1868 49.3782C31.0754 49.5533 30.9045 49.6408 30.6742 49.6408C30.4533 49.6408 30.2853 49.5514 30.1701 49.3726C30.055 49.1928 29.9974 48.9298 29.9974 48.5834C29.9974 48.2257 30.0531 47.9603 30.1645 47.7871C30.2759 47.6139 30.4458 47.5273 30.6742 47.5273C30.8971 47.5273 31.066 47.6177 31.1812 47.7984C31.2973 47.9791 31.3553 48.2407 31.3553 48.5834ZM30.2333 48.5834C30.2333 48.882 30.2684 49.0997 30.3386 49.2364C30.4088 49.3721 30.5207 49.44 30.6742 49.44C30.8296 49.44 30.942 49.3712 31.0113 49.2335C31.0815 49.095 31.1166 48.8783 31.1166 48.5834C31.1166 48.2885 31.0815 48.0727 31.0113 47.936C30.942 47.7984 30.8296 47.7296 30.6742 47.7296C30.5207 47.7296 30.4088 47.7974 30.3386 47.9332C30.2684 48.068 30.2333 48.2847 30.2333 48.5834Z" fill="#17313B"/>
<path d="M32.9899 49.6127H31.6404V49.4119L32.181 48.8684C32.3458 48.7018 32.4544 48.5829 32.5068 48.5117C32.5593 48.4406 32.5986 48.3713 32.6248 48.3039C32.651 48.2365 32.6641 48.164 32.6641 48.0862C32.6641 47.9767 32.6309 47.8901 32.5644 47.8265C32.4979 47.7619 32.4057 47.7296 32.2878 47.7296C32.2026 47.7296 32.1216 47.7436 32.0448 47.7717C31.969 47.7998 31.8843 47.8508 31.7906 47.9248L31.6671 47.7661C31.8562 47.6088 32.0621 47.5302 32.285 47.5302C32.4778 47.5302 32.629 47.5798 32.7385 47.679C32.8481 47.7773 32.9028 47.9098 32.9028 48.0764C32.9028 48.2065 32.8663 48.3353 32.7933 48.4626C32.7203 48.5899 32.5836 48.7509 32.3833 48.9457L31.9339 49.3852V49.3964H32.9899V49.6127Z" fill="#17313B"/>
<path d="M34.1498 49.6127H33.9223V48.1494C33.9223 48.0277 33.9261 47.9126 33.9336 47.804C33.9139 47.8236 33.8919 47.8442 33.8676 47.8658C33.8432 47.8873 33.7318 47.9786 33.5334 48.1396L33.4098 47.9795L33.9532 47.5596H34.1498V49.6127Z" fill="#17313B"/>
<path d="M4.05005 25.6499H5.85005V38.4749L4.05005 37.3973V25.6499Z" fill="#1E414C"/>
<path d="M58.9501 26.0996H57.1501V38.6996L58.9501 37.4419V26.0996Z" fill="#1E414C"/>
<rect x="4.05005" y="25.6499" width="54.9" height="11.7" fill="#17313B"/>
<g clip-path="url(#clip0_1_6547)">
<path d="M25.7181 28.0894H26.8157V34.9494H25.7181V28.0894ZM30.6573 32.761C30.6573 33.8109 29.7746 33.8946 29.512 33.8946C28.8559 33.8946 28.7365 33.2805 28.7365 32.91V30.2846H27.6389V32.9045C27.6389 33.5549 27.8431 34.0916 28.2009 34.4494C28.517 34.7658 28.9906 34.9387 29.5038 34.9387C29.8676 34.9387 30.3829 34.8253 30.6573 34.5748V34.9494H31.755V30.2846H30.6573V32.761ZM33.9502 28.6382H32.8526V30.2846H32.0294V31.3822H32.8526V34.9494H33.9502V31.3822H34.7734V30.2846H33.9502V28.6382ZM38.23 33.5546C37.991 33.7694 37.6754 33.8885 37.3291 33.8885C36.5657 33.8885 36.0051 33.3279 36.0051 32.5582C36.0051 31.7885 36.5479 31.2515 37.3291 31.2515C37.6694 31.2515 37.991 31.3649 38.236 31.5797L38.4026 31.723L39.1426 30.9832L38.9574 30.8161C38.5219 30.4229 37.9438 30.2022 37.3289 30.2022C35.9568 30.2022 34.9605 31.1923 34.9605 32.5525C34.9605 33.9069 35.9807 34.9324 37.3289 34.9324C37.9553 34.9324 38.5395 34.7117 38.9695 34.3122L39.1484 34.1451L38.3968 33.4059L38.23 33.5546ZM43.0603 30.6912C42.7441 30.3751 42.3737 30.2022 41.8606 30.2022C41.4967 30.2022 41.0846 30.3156 40.8102 30.5658V28.0894H39.7126V34.9494H40.8102V32.3796C40.8102 31.3298 41.556 31.2463 41.8186 31.2463C42.4747 31.2463 42.4566 31.8607 42.4566 32.2306V34.9494H43.5542V32.2364C43.5542 31.586 43.4183 31.0493 43.0603 30.6912Z" fill="white"/>
<path d="M37.2931 31.7764C37.5035 31.7764 37.7054 31.86 37.8542 32.0088C38.003 32.1576 38.0866 32.3595 38.0866 32.5699C38.0866 32.7804 38.003 32.9822 37.8542 33.1311C37.7054 33.2799 37.5035 33.3635 37.2931 33.3635C37.0826 33.3635 36.8808 33.2799 36.7319 33.1311C36.5831 32.9822 36.4995 32.7804 36.4995 32.5699C36.4995 32.3595 36.5831 32.1576 36.7319 32.0088C36.8808 31.86 37.0826 31.7764 37.2931 31.7764Z" fill="#FF3D2E"/>
<path d="M24.1816 33.2262C23.7643 33.6557 23.1973 33.8884 22.6008 33.8884C21.3781 33.8884 20.489 32.9279 20.489 31.6097C20.489 30.2855 21.3781 29.3251 22.6008 29.3251C23.1916 29.3251 23.7522 29.5575 24.1759 29.9812L24.3427 30.1483L25.0764 29.4145L24.9154 29.2474C24.307 28.621 23.4838 28.2812 22.6008 28.2812C20.7994 28.2812 19.4452 29.7128 19.4452 31.6155C19.4452 33.5124 20.8054 34.9382 22.6008 34.9382C23.4899 34.9382 24.3131 34.5925 24.9214 33.966L25.0825 33.7989L24.3548 33.0533L24.1816 33.2262Z" fill="white"/>
</g>
<rect x="13.4557" y="23.6826" width="36.0887" height="0.231933" rx="0.115966" fill="#17313B"/>
<rect x="13.4557" y="39.1294" width="36.0887" height="0.231933" rx="0.115966" fill="#17313B"/>
<defs>
<linearGradient id="paint0_linear_1_6547" x1="31.4999" y1="1.04591" x2="31.4999" y2="76.9807" gradientUnits="userSpaceOnUse">
<stop stop-color="#C1A06A"/>
<stop offset="1" stop-color="#E9CC99"/>
</linearGradient>
<clipPath id="clip0_1_6547">
<rect width="24.121" height="6.86001" fill="white" transform="translate(19.4392 28.0894)"/>
</clipPath>
</defs>
</svg>
