<svg width="63" height="63" viewBox="0 0 63 63" fill="none" xmlns="http://www.w3.org/2000/svg">
<mask id="mask0_1_6568" style="mask-type:alpha" maskUnits="userSpaceOnUse" x="5" y="7" width="53" height="49">
<path fill-rule="evenodd" clip-rule="evenodd" d="M5.66992 7.56006H57.6449V55.0239H5.66992V7.56006Z" fill="white"/>
</mask>
<g mask="url(#mask0_1_6568)">
<path d="M56.1953 38.8398H6.63953L9.23434 42.2307L6.63953 45.8384H56.1953L53.6005 42.4479L56.1953 38.8398Z" fill="#FCB824"/>
<path fill-rule="evenodd" clip-rule="evenodd" d="M5.99107 46.186H56.8872L54.0766 42.4474L56.8872 38.4917H5.94775L8.84497 42.2303L5.99107 46.186ZM55.4598 45.4903H7.33174L9.66667 42.2303L7.37505 39.1871H55.5031L53.1682 42.4475L55.4598 45.4903Z" fill="white"/>
<path d="M36.8663 9.84568L38.1633 11.9756L40.5415 11.1933L41.4499 13.5407L43.9581 13.1492L44.4334 15.6272L46.9415 15.7142V18.2353L49.4064 18.757L49.0174 21.2781L51.3523 22.2345L50.4873 24.6255L52.6064 25.9727L51.309 28.1465L53.1683 29.8853L51.5252 31.7977L53.0388 33.841L51.0928 35.4057L52.217 37.7097L50.012 38.9268L50.7467 41.3609L48.3252 42.1436L48.5851 44.6647L46.1202 45.0128L45.9469 47.577L43.3954 47.49L42.7902 49.9245L40.3254 49.4028L39.2445 51.6633L36.9529 50.7069L35.4822 52.7933L33.3639 51.4026L31.5904 53.1849L29.7311 51.4461L27.6557 52.8803L26.1421 50.8374L23.8505 51.8808L22.7259 49.6203L20.3044 50.2287L19.6125 47.7946L17.1044 47.9251L16.8449 45.4036L14.3367 45.0994L14.5099 42.5783L12.1317 41.8391L12.7802 39.405L10.5319 38.2314L11.6127 35.9274L9.62349 34.4058L11.0504 32.3194L9.36401 30.4501L11.1804 28.6678L9.83966 26.5379L11.9588 25.1033L11.0071 22.7562L13.3421 21.7563L12.8235 19.2352L15.2884 18.67L15.2451 16.1489L17.7533 15.9748L18.1856 13.4972L20.6938 13.8018L21.5151 11.4108L23.9367 12.1932L25.1908 9.97621L27.3958 11.1498L29.0393 9.23736L31.0285 10.8021L32.9744 9.19385L34.6609 11.0627L36.8663 9.84568Z" fill="#FCB824"/>
<mask id="mask1_1_6568" style="mask-type:alpha" maskUnits="userSpaceOnUse" x="9" y="9" width="45" height="45">
<path fill-rule="evenodd" clip-rule="evenodd" d="M36.8663 9.84568L38.1633 11.9756L40.5415 11.1933L41.4499 13.5407L43.9581 13.1492L44.4334 15.6272L46.9415 15.7142V18.2353L49.4064 18.757L49.0174 21.2781L51.3523 22.2345L50.4873 24.6255L52.6064 25.9727L51.309 28.1465L53.1683 29.8853L51.5252 31.7977L53.0388 33.841L51.0928 35.4057L52.217 37.7097L50.012 38.9268L50.7467 41.3609L48.3252 42.1436L48.5851 44.6647L46.1202 45.0128L45.9469 47.577L43.3954 47.49L42.7902 49.9245L40.3254 49.4028L39.2445 51.6633L36.9529 50.7069L35.4822 52.7933L33.3639 51.4026L31.5904 53.1849L29.7311 51.4461L27.6557 52.8803L26.1421 50.8374L23.8505 51.8808L22.7259 49.6203L20.3044 50.2287L19.6125 47.7946L17.1044 47.9251L16.8449 45.4036L14.3367 45.0994L14.5099 42.5783L12.1317 41.8391L12.7802 39.405L10.5319 38.2314L11.6127 35.9274L9.62349 34.4058L11.0504 32.3194L9.36401 30.4501L11.1804 28.6678L9.83966 26.5379L11.9588 25.1033L11.0071 22.7562L13.3421 21.7563L12.8235 19.2352L15.2884 18.67L15.2451 16.1489L17.7533 15.9748L18.1856 13.4972L20.6938 13.8018L21.5151 11.4108L23.9367 12.1932L25.1908 9.97621L27.3958 11.1498L29.0393 9.23736L31.0285 10.8021L32.9744 9.19385L34.6609 11.0627L36.8663 9.84568Z" fill="white"/>
</mask>
<g mask="url(#mask1_1_6568)">
<path fill-rule="evenodd" clip-rule="evenodd" d="M31.5905 53.4887L31.5907 53.4889H31.5904L31.5905 53.4887ZM29.7311 51.7502L31.5905 53.4887L33.3638 51.6631L35.5255 53.0542L36.9958 50.9678L39.3307 51.9673L40.4119 49.6202L42.9201 50.185L43.5686 47.7074L46.1197 47.7944L46.293 45.2298L48.8012 44.8386L48.5413 42.2736L50.9629 41.4477L50.2281 38.9701L52.4764 37.7096L51.3523 35.4056L53.3415 33.7974L51.8279 31.7541L53.471 29.7982L51.6118 28.0594L52.9088 25.8424L50.7467 24.4514L51.6118 22.0604L49.2335 21.1044L49.6658 18.5832L47.158 18.0611L47.1147 15.4969L44.5632 15.4099L44.0876 12.8884L41.5794 13.2796L40.6714 10.889L38.2498 11.7148L36.9091 9.54139L34.6608 10.802L32.9744 8.88916L31.0285 10.5413L28.9526 8.93267L27.3095 10.889L25.0608 9.71503L23.8067 11.932L21.4285 11.1496L20.5638 13.5841L18.0127 13.2796L17.5803 15.8007L15.0288 15.9312V18.4958L12.564 19.1046L13.0396 21.6257L10.7047 22.6691L11.6556 25.0601L9.5372 26.4943L10.8775 28.6677L9.06116 30.45L10.7909 32.3628L9.32064 34.4492L11.3532 36.0143L10.2723 38.3179L12.5206 39.5353L11.8721 42.013L14.2937 42.7518L14.0771 45.3164L16.6286 45.621L16.8881 48.1856L19.4396 48.0116L20.1744 50.4896L22.6392 49.8809L23.7638 52.1848L26.0987 51.1414L27.6123 53.1847L29.7311 51.7502ZM31.5903 52.8808L29.7744 51.1855V51.1851L27.6123 52.5327L26.142 50.5333L23.8933 51.5328L22.8125 49.2723L20.3909 49.881L19.6991 47.4901L17.2342 47.6206L16.9747 45.143L14.5099 44.8388L14.726 42.3608L12.3478 41.622L12.9963 39.1875L10.7909 38.0574L11.8288 35.797L9.83959 34.2757L11.2665 32.2324L9.62342 30.3631L11.3965 28.6244L10.0991 26.4944L12.1749 25.1034L11.2669 22.7998L13.5586 21.7999L13.0829 19.3666L15.5045 18.8014L15.4612 16.3237L17.9693 16.2367L18.3584 13.7587L20.8232 14.0633L21.645 11.7158L24.0232 12.4547L25.2773 10.2812L27.4823 11.4547L29.0825 9.54235L31.0288 11.0632L32.9748 9.49845L34.6179 11.3677L36.78 10.1503L38.0774 12.2806L40.4123 11.4544L41.3203 13.8022L43.7852 13.4107L44.2604 15.8448L46.7253 15.9318L46.7686 18.4098L49.1902 18.9311L48.7578 21.4091L51.0495 22.3655L50.1848 24.7126L52.2602 26.0602L51.0061 28.2336L52.8225 29.9288L51.2223 31.8416L52.6926 33.8414L50.7467 35.4062L51.8708 37.6231L49.7091 38.8402L50.4006 41.2312L48.0656 42.0135L48.3255 44.4911L45.8606 44.8392L45.6874 47.3168L43.2225 47.2298L42.6173 49.6643L40.1957 49.1426L39.1578 51.4031L36.8662 50.4467L35.4392 52.4896L33.3634 51.142L31.5903 52.8808Z" fill="white"/>
</g>
<mask id="mask2_1_6568" style="mask-type:alpha" maskUnits="userSpaceOnUse" x="9" y="9" width="45" height="45">
<path fill-rule="evenodd" clip-rule="evenodd" d="M36.8663 9.84568L38.1633 11.9756L40.5415 11.1933L41.4499 13.5407L43.9581 13.1492L44.4334 15.6272L46.9415 15.7142V18.2353L49.4064 18.757L49.0174 21.2781L51.3523 22.2345L50.4873 24.6255L52.6064 25.9727L51.309 28.1465L53.1683 29.8853L51.5252 31.7977L53.0388 33.841L51.0928 35.4057L52.217 37.7097L50.012 38.9268L50.7467 41.3609L48.3252 42.1436L48.5851 44.6647L46.1202 45.0128L45.9469 47.577L43.3954 47.49L42.7902 49.9245L40.3254 49.4028L39.2445 51.6633L36.9529 50.7069L35.4822 52.7933L33.3639 51.4026L31.5904 53.1849L29.7311 51.4461L27.6557 52.8803L26.1421 50.8374L23.8505 51.8808L22.7259 49.6203L20.3044 50.2287L19.6125 47.7946L17.1044 47.9251L16.8449 45.4036L14.3367 45.0994L14.5099 42.5783L12.1317 41.8391L12.7802 39.405L10.5319 38.2314L11.6127 35.9274L9.62349 34.4058L11.0504 32.3194L9.36401 30.4501L11.1804 28.6678L9.83966 26.5379L11.9588 25.1033L11.0071 22.7562L13.3421 21.7563L12.8235 19.2352L15.2884 18.67L15.2451 16.1489L17.7533 15.9748L18.1856 13.4972L20.6938 13.8018L21.5151 11.4108L23.9367 12.1932L25.1908 9.97621L27.3958 11.1498L29.0393 9.23736L31.0285 10.8021L32.9744 9.19385L34.6609 11.0627L36.8663 9.84568Z" fill="white"/>
</mask>
<g mask="url(#mask2_1_6568)">
<path opacity="0.3" d="M30.2068 11.1937C26.791 5.54274 19.3964 3.71696 13.7315 7.15136C8.10995 10.6281 6.29358 18.0186 9.75347 23.7127C13.1696 29.3636 20.5639 31.1894 26.1854 27.755C31.8499 24.2775 33.6234 16.8443 30.2068 11.1933V11.1937Z" fill="white"/>
<path opacity="0.2" d="M41.0605 24.278C37.7743 18.8445 30.7258 17.1058 25.2775 20.4097C19.8721 23.7131 18.1423 30.7987 21.4286 36.2321C24.7152 41.6659 31.7637 43.4047 37.212 40.1008C42.6174 36.7973 44.3468 29.6683 41.0605 24.278Z" fill="white"/>
<path opacity="0.4" d="M44.9523 40.6658C41.839 35.493 35.0499 33.8413 29.904 36.9708C24.7585 40.1441 23.115 46.9255 26.2287 52.0983C29.3854 57.271 36.0878 58.9232 41.2767 55.7933C46.423 52.62 48.0657 45.8386 44.9523 40.6658Z" fill="white"/>
<path opacity="0.2" d="M14.6399 5.28215C11.05 -0.629857 3.39633 -2.49914 -2.48433 1.1089C-8.32207 4.67343 -10.1814 12.4108 -6.59232 18.2793C-3.04661 24.1913 4.65081 26.0602 10.5319 22.4522C16.3688 18.888 18.2285 11.1938 14.6391 5.28255L14.6399 5.28215Z" fill="white"/>
</g>
<path fill-rule="evenodd" clip-rule="evenodd" d="M26.531 49.5773C28.1312 49.9681 29.7743 50.1856 31.3741 50.1856C40.0224 50.1856 47.547 44.3171 49.7953 35.8844C51.0494 30.9723 50.3576 25.7995 47.8065 21.4091C45.255 17.0187 41.1037 13.8889 36.2172 12.5848C34.6174 12.1936 32.9743 11.9761 31.3741 11.9761C22.7258 11.9761 15.2016 17.8446 12.9529 26.2777C11.6992 31.1898 12.3906 36.3626 14.9421 40.753C17.4936 45.1434 21.6012 48.2732 26.531 49.5773ZM13.6881 26.4515C15.8073 18.3665 23.072 12.7155 31.3742 12.7155L31.3746 12.7151C32.9311 12.7151 34.4876 12.8891 36.0011 13.2807C40.758 14.5409 44.6928 17.5841 47.1576 21.8005C49.6225 26.0603 50.3143 31.016 49.0602 35.754C46.9415 43.8395 39.6768 49.4904 31.3742 49.4904C29.8177 49.4904 28.2608 49.2733 26.7472 48.8817C22.034 47.6212 18.056 44.6218 15.5911 40.4055C13.1262 36.1452 12.4344 31.19 13.6881 26.4515Z" fill="white"/>
<path fill-rule="evenodd" clip-rule="evenodd" d="M32.8878 15.9315L31.8499 15.8445L31.5475 16.5837L30.9852 16.5402L32.2393 13.6279L32.8012 13.6714L33.623 16.7143H33.104L32.8878 15.9315ZM26.9639 15.062L26.4445 15.149H26.4449L26.8339 17.1489L27.3529 17.0618L27.18 16.1489C27.1367 16.0619 27.1367 15.9753 27.1367 15.8883C27.18 15.5837 27.3096 15.3227 27.569 15.2792C27.8285 15.1926 27.9148 15.4097 27.9581 15.6272L28.2176 16.8878L28.7369 16.8008L28.5637 15.8883C28.5203 15.8013 28.5203 15.7143 28.5203 15.6272C28.5203 15.3666 28.6499 15.1055 28.9098 15.062C29.1689 15.0185 29.2555 15.149 29.2984 15.4101L29.5583 16.7142L30.0772 16.6271L29.8178 15.2796C29.6878 14.7144 29.3854 14.5403 28.9527 14.6273C28.607 14.6708 28.3908 14.9315 28.3042 15.1926C28.1746 14.9315 27.9152 14.801 27.6124 14.888C27.2663 14.9315 27.0505 15.2361 27.0072 15.4536V15.3231L26.9639 15.062ZM23.9366 16.1922L24.4123 15.9747L24.8879 17.1486C24.9746 17.4093 25.1045 17.5398 25.3636 17.4093C25.7097 17.2352 25.7959 16.8441 25.6235 16.4964L25.2337 15.5835L25.7097 15.366L26.5311 17.3658L26.142 17.5833L26.0554 17.3658C26.0121 17.2788 26.0121 17.2352 26.0121 17.2352C26.0121 17.4963 25.8392 17.8009 25.4935 17.931C25.0608 18.105 24.7151 18.018 24.4989 17.4524L23.9366 16.1922ZM22.8988 16.8012L22.4664 17.0622L23.5044 18.8445L23.98 18.5834L23.5477 17.8446C23.5259 17.8011 23.5042 17.7465 23.4824 17.6919L23.4824 17.6919C23.4608 17.6378 23.4393 17.5837 23.4177 17.5404C23.3315 17.1924 23.461 16.9752 23.6772 16.8451C23.7638 16.8016 23.8071 16.8016 23.8071 16.8016L23.5477 16.3665C23.5477 16.3665 23.5044 16.3665 23.461 16.41C23.202 16.5836 23.072 16.9317 23.1586 17.2363C23.1586 17.2363 23.1153 17.1928 23.072 17.1057L22.8988 16.8012ZM21.2991 17.8008C21.7315 17.4527 22.1638 17.5397 22.1638 17.5397L22.2071 17.9748C22.2071 17.9748 21.9043 17.9313 21.6452 18.1488C21.342 18.4095 21.2991 18.8007 21.5153 19.0613C21.7319 19.3659 22.1209 19.4529 22.4666 19.1919C22.7694 18.9743 22.8127 18.5831 22.8127 18.5831L23.2017 18.7572C23.2017 18.7572 23.1584 19.2354 22.7261 19.583C22.1638 20.0177 21.5153 19.8876 21.1263 19.409C20.6935 18.9308 20.7369 18.2355 21.2991 17.8008ZM19.9154 21.0177C19.9154 21.0177 20.3477 21.0177 20.6505 20.7132C20.8234 20.5391 20.8667 20.322 20.6938 20.1484C20.5215 19.9751 20.2476 20.0913 19.9396 20.2221C19.5515 20.3868 19.1093 20.5745 18.7475 20.2354C18.4018 19.8873 18.4018 19.3225 18.8342 18.9309C19.2236 18.4962 19.6992 18.4962 19.6992 18.4962L19.8721 18.9748C19.8721 18.9748 19.4827 19.0183 19.2236 19.279C19.0503 19.453 19.007 19.7137 19.1803 19.8438C19.3453 19.9915 19.596 19.8809 19.8829 19.7543C20.2721 19.5826 20.7279 19.3815 21.1262 19.7568C21.4719 20.1049 21.5152 20.6266 21.0829 21.0613C20.6072 21.5394 20.0883 21.5394 20.0883 21.5394L19.915 21.0173L19.9154 21.0177ZM32.4986 14.1941L32.4988 14.1932H32.4985L32.4986 14.1941ZM32.3256 14.6283C32.4095 14.5019 32.4933 14.2125 32.4986 14.1941C32.5012 14.2125 32.5432 14.5015 32.5851 14.6279L32.8013 15.4541L32.0232 15.4106L32.3256 14.6283ZM34.2715 13.8889L34.7904 13.9759L34.3581 16.1929C34.3148 16.4104 34.4014 16.497 34.5313 16.5405H34.6176L34.5309 17.0187H34.3581C34.0553 16.9752 33.7096 16.8012 33.8391 16.1929L34.2715 13.8889ZM36.0879 14.2799L35.569 14.1493L34.9205 16.3663C34.7905 16.9315 35.0933 17.1051 35.3957 17.1922C35.4824 17.2357 35.569 17.2357 35.569 17.2357L35.6989 16.8014H35.6123C35.4824 16.7579 35.439 16.6709 35.4824 16.4533L36.0879 14.2799ZM36.5636 15.3237L37.0825 15.4977L36.3907 17.5406L35.8717 17.3666L36.5636 15.3237ZM37.342 14.7143L36.8231 14.5403L36.6502 14.9754L37.1688 15.1494L37.342 14.7143ZM38.2932 16.9311L38.3365 16.9746V16.9311C38.4664 16.67 38.3365 16.4964 38.1199 16.4094C37.8608 16.2788 37.5147 16.3223 37.5147 16.3223V15.8876C37.5147 15.8876 37.9471 15.8006 38.3794 16.0182C38.8984 16.2792 39.0283 16.6704 38.8121 17.1917L38.2498 18.4092L37.8175 18.1916L37.9041 18.0176C37.9474 17.9306 37.9904 17.8871 37.9904 17.8871C37.9904 17.8871 37.6876 18.1481 37.2552 17.9306C36.9091 17.7569 36.693 17.4093 36.8662 17.0181C37.1686 16.4094 37.9904 16.757 38.2932 16.9311ZM38.2067 17.323C38.0772 17.5402 37.7744 17.7577 37.5149 17.6272V17.6276C37.342 17.5406 37.2987 17.3665 37.3854 17.236C37.5149 16.975 37.9039 17.1055 38.1634 17.236L38.25 17.2795L38.2067 17.323ZM39.7636 16.801L40.1959 17.1056L40.066 17.3231C40.0227 17.4097 39.9794 17.4532 39.9794 17.4532C40.2556 17.3155 40.5833 17.332 40.8444 17.4967C41.2339 17.7578 41.3201 18.1051 41.0177 18.5833L40.2393 19.7137L39.8069 19.4091L40.4987 18.3661C40.6287 18.1486 40.6716 17.9745 40.4554 17.8009C40.2389 17.6269 39.9365 17.6704 39.7203 17.8444C39.6337 17.8879 39.5904 17.9749 39.547 18.062L38.9852 18.8878L38.5528 18.5833L39.7636 16.801ZM43.0931 19.7571C43.0931 19.7571 43.0931 19.3659 42.7041 18.9743C42.1851 18.4961 41.4933 18.5831 41.1472 18.9743C40.7149 19.409 40.7149 20.1047 41.2338 20.5825C41.6229 20.9741 42.0985 20.9306 42.0985 20.9306L42.1851 20.4959C42.1851 20.4959 41.7957 20.5394 41.5366 20.2784C41.2334 19.9746 41.2334 19.583 41.4933 19.322C41.7095 19.0613 42.0985 19.0178 42.4009 19.2785C42.6608 19.5395 42.6608 19.8441 42.6608 19.8441L43.0931 19.7571ZM44.3039 20.7132C44.6929 21.1918 44.5633 21.7567 44.0873 22.1043C44.0444 22.1478 43.9148 22.2349 43.9148 22.2349L43.0064 21.0613C42.747 21.3224 42.747 21.6696 42.9631 21.9307C43.1797 22.1917 43.5254 22.2784 43.5254 22.2784L43.3522 22.6695C43.3522 22.6695 42.9202 22.626 42.5741 22.1913C42.1418 21.6261 42.2713 20.9743 42.7474 20.5831C43.2226 20.148 43.8715 20.235 44.3039 20.7136V20.7132ZM43.9581 20.974C44.0877 21.1476 44.0877 21.4083 43.8715 21.5823L43.3092 20.8435C43.5254 20.7129 43.7849 20.7564 43.9581 20.974Z" fill="white"/>
<path d="M51.7844 42.3173C48.4982 38.5356 40.0227 37.1445 31.4606 37.1445H31.2874C22.6824 37.1445 14.6396 38.1009 11.3097 41.883C11.3097 43.9694 13.7313 47.6641 14.6392 47.1424C18.4881 44.8388 24.2822 44.4041 31.374 44.3606C37.6874 44.3606 44.4331 45.7082 48.3249 47.4905C49.7519 48.1423 51.7844 44.4041 51.7844 42.3173Z" fill="#FCB824"/>
<path fill-rule="evenodd" clip-rule="evenodd" d="M48.1523 47.7517C48.3252 47.8387 48.498 47.8822 48.6713 47.8822C49.4497 47.8822 50.3144 47.143 51.0062 45.7523C51.6551 44.5784 52.0875 43.2308 52.0875 42.2313V42.1008L52.0008 42.0137C48.0224 37.4058 37.3852 36.7104 31.4179 36.7104H31.2447C20.3044 36.754 13.8614 38.2756 11.0075 41.579L10.9209 41.6661V41.7966C10.9209 43.8395 13.1263 47.4476 14.3804 47.4476C14.5099 47.4476 14.6395 47.4476 14.7694 47.3605C18.7475 45.0134 25.0609 44.6654 31.3313 44.6654C37.4282 44.6654 44.1739 45.8824 48.1523 47.7517ZM48.4113 47.1428C44.3466 45.2304 37.471 43.9698 31.3308 43.9698H31.3305C23.9791 43.9698 18.3147 44.4911 14.4228 46.7955C13.8172 46.7955 11.7422 43.9263 11.6556 41.97C14.3795 38.9272 20.8228 37.4491 31.2438 37.4491H31.4171C41.2762 37.4491 48.5409 39.2748 51.3952 42.4047C51.3519 43.2741 50.9624 44.4476 50.4006 45.4475C49.8383 46.5344 49.1465 47.1863 48.6279 47.1863C48.5413 47.1863 48.498 47.1863 48.4113 47.1428Z" fill="white"/>
<path fill-rule="evenodd" clip-rule="evenodd" d="M26.9637 27.8852C26.9637 26.5815 25.0607 26.1899 24.1094 26.1899C21.9473 26.1899 20.3042 27.8417 20.3042 29.972C20.3042 32.1886 21.8611 33.9273 24.1527 33.9273C26.0986 33.9273 27.1798 32.6233 27.1798 32.6233L26.4443 31.6238C26.4443 31.6238 25.623 32.6233 24.196 32.6233C22.8557 32.6233 21.7744 31.4497 21.7744 29.9716C21.7744 28.4069 22.8124 27.4505 24.1527 27.4505C24.8012 27.4505 25.7096 27.7116 25.7096 28.2764V28.7111H26.9637V27.8852ZM29.5578 39.1437H28.6928C28.6061 39.1437 28.5632 39.1872 28.5632 39.2743V39.5349H28.001V38.9693C28.001 38.7091 28.0876 38.622 28.3471 38.622H31.2876C31.5471 38.622 31.6333 38.7091 31.6333 38.9697V39.5349H31.0714V39.2739C31.0714 39.1869 31.0281 39.1433 30.9415 39.1433H30.0768V42.9254H29.4712L29.5578 39.1437ZM24.6284 39.3176H24.2394L24.196 38.7959L26.0553 38.7088C26.7905 38.6653 27.3527 39.1004 27.3961 39.8828C27.4394 40.6216 27.0066 40.9693 26.7042 41.0563C26.7042 41.0563 26.8342 41.0998 26.8771 41.2304L27.4394 42.2303C27.526 42.3608 27.6122 42.3608 27.7418 42.3608H27.8284L27.8717 42.8821H27.5689C27.2228 42.8821 27.0933 42.8821 26.9637 42.5775L26.3148 41.4475C26.1849 41.2735 26.0986 41.23 25.8825 41.23L25.3202 41.2735L25.4068 42.9691L24.8012 43.0126L24.6284 39.3176ZM20.4342 39.7959L20.8232 39.7524L21.3422 43.1429C21.3855 43.4475 21.515 43.5345 21.7745 43.491L23.6771 43.23C23.9799 43.1864 24.0665 43.0563 24.0232 42.7957L23.9366 42.2736L23.3747 42.3606L23.418 42.6212C23.418 42.6647 23.3747 42.7518 23.2881 42.7518L22.034 42.9258C21.9911 42.9258 21.9045 42.8823 21.9045 42.7953L21.7312 41.5351L23.2015 41.3176L23.1148 40.7955L21.645 41.013L21.4717 39.6654L22.6825 39.4914C22.7258 39.4914 22.8124 39.5349 22.8124 39.6219V39.883L23.3747 39.7959L23.2881 39.2746C23.2448 38.9701 23.1148 38.8831 22.8558 38.9266L20.3476 39.2742L20.4342 39.7959ZM19.6124 40.2737C19.4825 39.6215 18.4017 39.6215 17.8394 39.752C16.629 40.0131 15.9368 41.1431 16.2392 42.3602C16.5424 43.5772 17.6232 44.36 18.8773 44.0554C19.9152 43.7948 20.3476 42.9689 20.3476 42.9689L19.9152 42.6212C19.9152 42.6212 19.5691 43.3166 18.7474 43.4906C17.8827 43.6642 17.0613 43.0994 16.8448 42.1865C16.6286 41.2737 17.1476 40.4913 17.9693 40.2737C18.3583 40.1867 19.0069 40.2302 19.0935 40.5779L19.1368 40.7955L19.6991 40.6653L19.6124 40.2737ZM26.7905 39.9701C26.8338 40.4479 26.5743 40.7525 26.0987 40.796H25.2773L25.1907 39.2744L26.012 39.2309C26.4881 39.2309 26.7472 39.4915 26.7905 39.9701ZM32.7583 39.1867L32.585 42.447H32.1527L32.1094 42.9687L33.5363 43.0558L33.5796 42.5341H33.1473L33.3202 39.2737H33.7525L33.7958 38.7524L32.3689 38.6654L32.3255 39.1867H32.7583ZM34.8769 39.3611L34.4875 39.3175L34.5308 38.7958L36.8658 39.0134C37.1256 39.0569 37.2556 39.1439 37.2123 39.4481L37.1689 39.9698L36.65 39.9263L36.6933 39.6652C36.6933 39.5782 36.65 39.5347 36.5634 39.5347L35.5254 39.4477L35.3522 40.7956L36.8228 40.9262L36.7795 41.4475L35.3093 41.317L35.136 43.1427L34.5308 43.0992L34.8769 39.3611ZM37.9037 42.9259L37.4714 42.8824L37.4281 43.3606L38.8117 43.5346L38.855 43.0129L38.4227 42.9694L38.8121 39.7525L39.2444 39.7961L39.2878 39.3182L37.9041 39.1442L37.8608 39.6655L38.2931 39.709L37.9037 42.9259ZM40.3686 39.9263L39.9795 39.8828L40.0662 39.3611L42.5744 39.7527C42.8334 39.7958 42.9201 39.9263 42.9201 40.187L42.8334 40.7087L42.2712 40.6216L42.3145 40.3606C42.3145 40.274 42.2712 40.2305 42.1845 40.187L40.9742 40.0129L40.7576 41.3605L42.2283 41.578L42.1416 42.0997L40.6714 41.8822L40.4981 43.0996C40.4981 43.1867 40.5414 43.2302 40.6281 43.2737L41.8821 43.4473C41.9688 43.4473 42.0121 43.4038 42.0554 43.3168L42.0987 43.0557L42.6606 43.1428L42.574 43.6649C42.5307 43.9255 42.4007 44.0121 42.1416 44.0121L40.239 43.708C39.9792 43.6645 39.8929 43.5339 39.8929 43.2733L40.3686 39.9263ZM43.6552 40.4474L44.0442 40.5344L43.352 43.8383C43.3091 44.1424 43.3953 44.2726 43.6552 44.3161L44.6061 44.4901C45.9035 44.7512 46.8981 44.1424 47.1576 42.7949C47.4171 41.4908 46.7253 40.5348 45.4279 40.2737L43.7418 39.9261L43.6552 40.4474ZM44.1309 43.8817L44.6928 44.0123C45.6441 44.1863 46.3363 43.7512 46.5525 42.7078C46.7686 41.6648 46.2493 41.0125 45.2984 40.7954L44.6065 40.6649L44.001 43.7077C44.001 43.7947 44.0443 43.8817 44.1309 43.8817ZM28.6068 31.8409C28.6068 31.8409 29.3853 32.7103 30.4228 32.7103C30.9851 32.7103 31.504 32.4057 31.504 31.8409C31.504 31.284 30.8652 30.9887 30.1332 30.6504C29.1511 30.1964 28.0012 29.6649 28.0012 28.3199C28.0012 27.1028 29.0391 26.1899 30.5094 26.1899C31.3741 26.1899 32.7144 26.6246 32.7144 27.668V28.3634H31.4607V28.0153C31.4607 27.668 30.9851 27.4505 30.4661 27.4505C29.8176 27.4505 29.3853 27.7986 29.3853 28.2764C29.3853 28.8039 29.9986 29.0726 30.712 29.3852C31.7033 29.8195 32.8877 30.3384 32.8877 31.7539C32.8877 32.9713 31.9797 33.9708 30.3795 33.9708C28.7364 33.9708 27.8284 32.7973 27.8284 32.7973L28.6068 31.8409ZM33.7957 32.6667H33.45H33.4067V33.8838H34.6175C35.1364 33.8838 35.3093 33.6666 35.3522 33.1449L35.5688 29.7979C35.6121 29.3197 35.5688 28.624 35.5688 28.624H35.6121C35.7501 29.0176 35.8942 29.4089 36.0444 29.7979L37.2985 32.5797H38.4227L39.6768 29.7979C39.8929 29.3632 40.1091 28.624 40.1091 28.624C40.1091 28.624 40.0658 29.3193 40.1091 29.7979L40.4119 33.1014C40.4552 33.6231 40.6281 33.8407 41.1037 33.8407H42.3145V32.6671H41.9688C41.8388 32.6671 41.7522 32.5801 41.7522 32.4496L41.2766 26.3204H39.8496L38.2931 29.885C38.077 30.3196 37.9041 30.8845 37.9041 30.8845H37.8608C37.8608 30.8845 37.6446 30.3196 37.4714 29.885L35.9149 26.3204H34.4875L34.0123 32.4492C34.0123 32.5797 33.9256 32.6667 33.7957 32.6667Z" fill="white"/>
</g>
</svg>
