<svg width="63" height="63" viewBox="0 0 63 63" fill="none" xmlns="http://www.w3.org/2000/svg">
<ellipse cx="31.3276" cy="31.2915" rx="23.625" ry="23.7319" fill="#FAFAFA"/>
<path d="M52.2818 27.2541C52.4167 27.8701 52.8261 28.2777 53.3074 28.6201C53.3599 28.6702 53.4082 28.7377 53.4214 28.7965C53.5123 29.2907 53.5901 29.8 53.6744 30.2833C53.7032 30.4661 53.7168 30.6359 53.7458 30.8558C53.5898 30.5117 53.4493 30.2177 53.3066 29.9324C53.0453 29.414 52.6883 28.9826 52.1243 28.7489C51.5538 28.5044 50.9465 28.4077 50.3242 28.409C50.3024 28.422 50.2937 28.4198 50.2544 28.4285C50.349 28.6833 50.4239 28.9423 50.5141 29.1775C50.7228 29.6457 51.0099 30.0596 51.4561 30.3563C52.1013 30.7489 52.805 30.9806 53.5498 31.047C53.6262 31.0384 53.6895 31.045 53.7638 31.0451C53.8738 32.1726 53.892 33.2586 53.823 34.3597C53.7328 34.1245 53.6666 33.8676 53.5939 33.6368C53.4155 33.0468 53.1324 32.5415 52.5965 32.1947C52.1897 31.9264 51.7438 31.7408 51.2805 31.6248C51.132 31.5876 50.9703 31.5656 50.7868 31.5196C50.8224 31.7503 50.8382 31.9484 50.8649 32.14C50.9733 32.6755 51.1493 33.1632 51.5347 33.5555C51.988 34.048 52.5566 34.3753 53.1795 34.596C53.3762 34.6637 53.5903 34.7359 53.7958 34.8058C53.718 35.9047 53.5572 37.0013 53.3134 38.0957C53.2871 38.0521 53.2913 37.9977 53.2868 37.9411C53.2666 37.7235 53.2397 37.4949 53.2151 37.2577C53.1259 36.5698 52.8339 35.9883 52.2846 35.5457C51.9039 35.247 51.4775 35.0201 51.0316 34.8345C50.9529 34.8148 50.8786 34.7776 50.7955 34.7384C50.7826 34.7906 50.7782 34.808 50.7696 34.8428C50.7633 34.9429 50.7506 35.0691 50.7465 35.1975C50.7396 35.8612 50.8353 36.523 51.2756 37.0677C51.7293 37.6712 52.3222 38.1247 53.0087 38.463C53.0765 38.4892 53.1464 38.5067 53.2295 38.546C52.9727 39.6556 52.6153 40.7214 52.153 41.761C52.1629 41.3846 52.186 41.0299 52.2003 40.673C52.2055 40.1659 52.0753 39.6804 51.7794 39.2643C51.4047 38.7545 50.9167 38.3642 50.3917 38.0109C50.3305 37.9956 50.278 37.9455 50.1862 37.904C50.1172 38.2194 50.0589 38.4914 50.0269 38.7699C49.965 39.2813 49.9925 39.7688 50.223 40.224C50.6181 40.9884 51.1635 41.6334 51.8919 42.1023C51.9181 42.1089 51.94 42.1329 51.9707 42.159C51.5191 43.1181 51.0041 44.0336 50.4016 44.8902C50.4273 44.7118 50.4858 44.5508 50.5203 44.3746C50.6541 43.7981 50.6919 43.2345 50.448 42.6835C50.2438 42.2349 49.9698 41.8428 49.626 41.5071C49.4508 41.3154 49.2713 41.141 49.0634 40.9688C49.0135 41.0579 48.9831 41.1427 48.9484 41.208C48.6489 41.8909 48.4761 42.5871 48.6833 43.323C48.8575 43.9304 49.1668 44.4793 49.5634 44.976C49.7124 45.1612 49.8678 45.3203 50.0299 45.4903C49.4447 46.3143 48.8137 47.099 48.1147 47.8205C48.1277 47.7683 48.1363 47.7335 48.1537 47.7009C48.2382 47.4725 48.338 47.2202 48.4225 46.9918C48.5676 46.5568 48.5861 46.1085 48.4735 45.6644C48.3324 45.1484 48.0887 44.6714 47.7709 44.2313C47.6504 44.081 47.5321 43.922 47.4093 43.7433C47.0634 44.202 46.8179 44.6674 46.6752 45.1677C46.6039 45.4549 46.5501 45.7464 46.5946 46.0534C46.706 46.8762 46.9963 47.6513 47.4895 48.3572C47.5465 48.4269 47.5291 48.4595 47.4769 48.5204C46.8998 49.0876 46.2942 49.6199 45.6559 50.1347C45.6559 50.1347 45.7001 50.3307 46.3785 50.1031C46.568 49.938 46.7554 49.7816 46.9405 49.5969C47.3172 49.2383 47.694 48.8798 48.0554 48.5082C48.136 48.4082 48.197 48.3865 48.3108 48.452C49.0367 48.8186 49.8145 49.0134 50.6267 48.995C51.2031 48.9915 51.7244 48.7616 52.1842 48.4423C52.3869 48.299 52.5829 48.1077 52.7768 47.9622C52.7942 47.9296 52.816 47.9166 52.8421 47.8861C52.8202 47.8622 52.8071 47.8404 52.7983 47.8382C52.2362 47.4848 51.6329 47.2228 50.9819 47.1152C50.3352 46.9902 49.744 47.1657 49.1794 47.4956C49.0486 47.5738 48.9287 47.6454 48.7847 47.7018C48.8021 47.6692 48.8282 47.6388 48.8543 47.6083C49.4551 46.9084 50.0208 46.1628 50.5362 45.3953C50.584 45.3148 50.6233 45.3062 50.7107 45.3281C51.4581 45.5707 52.2355 45.6176 53.0103 45.4881C53.6105 45.3889 54.0878 45.074 54.4993 44.6502C54.6932 44.4677 54.8607 44.2416 55.0587 44.0047C54.8053 43.9412 54.5867 43.8495 54.3594 43.7925C53.9268 43.6657 53.4811 43.5911 53.0248 43.5969C52.3961 43.6243 51.8967 43.8782 51.4305 44.2606C51.3172 44.3431 51.2213 44.43 51.1255 44.5169C51.5751 43.6405 52.0269 42.7554 52.4765 41.879C52.8477 41.8796 53.2408 41.9041 53.6184 41.8785C54.2057 41.8315 54.7774 41.6974 55.2852 41.3717C55.7277 41.085 56.2891 40.3568 56.458 39.863C56.4493 39.8608 56.4493 39.8608 56.4406 39.8586C55.6868 39.6791 54.9268 39.6366 54.1698 39.8815C53.7095 40.0157 53.3588 40.3438 53.0475 40.7003C52.9735 40.7742 52.9082 40.8503 52.8233 40.9307C53.1418 40.0214 53.4057 39.1078 53.5669 38.1591C54.0734 38.1381 54.547 38.0626 55.0029 37.9088C55.6726 37.6791 56.2809 37.36 56.6592 36.7338C56.8613 36.4055 57.0241 36.0488 57.1258 35.6768C57.1431 35.6442 57.143 35.6072 57.1646 35.5202C56.8023 35.5588 56.4573 35.5648 56.1277 35.5839C55.6649 35.6529 55.2264 35.7742 54.8188 36.0325C54.4657 36.2584 54.2285 36.5779 54.0155 36.9128C53.9198 37.0737 53.8329 37.2368 53.722 37.3846C53.7349 37.3324 53.7305 37.3128 53.7435 37.2606C53.8873 36.3446 53.9852 35.4263 54.0199 34.5015C54.024 34.4101 54.05 34.3426 54.1635 34.3341C54.9557 34.172 55.6556 33.8205 56.2568 33.2686C56.6771 32.884 56.8723 32.3967 56.9996 31.8463C57.0493 31.6462 57.0706 31.4482 57.1027 31.2066C56.806 31.2802 56.5266 31.3212 56.2757 31.397C55.7172 31.5529 55.2047 31.785 54.804 32.2022C54.4927 32.5217 54.3344 32.935 54.1936 33.3526C54.1437 33.4788 54.1092 33.618 54.044 33.7311C54.0439 33.6941 54.0438 33.6571 54.0437 33.6201C54.0389 32.6669 53.9926 31.694 53.859 30.7362C53.8456 30.6405 53.8586 30.5882 53.9481 30.5644C54.6569 30.2891 55.2453 29.8634 55.7437 29.2765C56.1377 28.8113 56.2716 28.2718 56.2941 27.6951C56.3088 27.4862 56.3017 27.2903 56.2989 27.0771L56.2858 27.0553C55.8429 27.1939 55.4176 27.3739 55.0275 27.6367C54.4324 28.0145 54.0364 28.5254 53.9117 29.2521C53.8666 29.5088 53.8237 29.7938 53.7656 30.1028C53.7567 30.0636 53.7523 30.044 53.7522 30.007C53.6571 29.5673 53.5621 29.1275 53.4691 28.6791C53.4646 28.6225 53.4776 28.5703 53.4905 28.5181C53.5966 28.1656 53.6764 27.8067 53.6688 27.4258C53.6658 27.1385 53.6301 26.8338 53.4787 26.5833C53.3054 26.2718 53.0732 26.0104 52.8171 25.7706C52.6857 25.6268 52.5457 25.5177 52.3991 25.3978C52.3729 25.3913 52.3511 25.4043 52.3248 25.3977C52.3012 25.5305 52.2972 25.6588 52.2735 25.7916C52.1722 26.2746 52.167 26.7816 52.2818 27.2541Z" fill="#417505"/>
<path d="M10.4842 27.2541C10.3493 27.8701 9.93989 28.2777 9.4586 28.6201C9.40606 28.6702 9.35784 28.7377 9.34458 28.7965C9.25372 29.2907 9.17592 29.8 9.09163 30.2833C9.06275 30.4661 9.04919 30.6359 9.02021 30.8558C9.17617 30.5117 9.31671 30.2177 9.45941 29.9324C9.72064 29.414 10.0777 28.9826 10.6417 28.7489C11.2122 28.5044 11.8195 28.4077 12.4418 28.409C12.4636 28.422 12.4723 28.4198 12.5116 28.4285C12.417 28.6833 12.3421 28.9423 12.2519 29.1775C12.0432 29.6457 11.7561 30.0596 11.3098 30.3563C10.6647 30.7489 9.96095 30.9806 9.21621 31.047C9.13981 31.0384 9.07647 31.045 9.00223 31.0451C8.89219 32.1726 8.87396 33.2586 8.94303 34.3597C9.03319 34.1245 9.09939 33.8676 9.17207 33.6368C9.35053 33.0468 9.63357 32.5415 10.1695 32.1947C10.5763 31.9264 11.0222 31.7408 11.4854 31.6248C11.634 31.5876 11.7957 31.5656 11.9792 31.5196C11.9436 31.7503 11.9278 31.9484 11.9011 32.14C11.7927 32.6755 11.6167 33.1632 11.2313 33.5555C10.778 34.048 10.2094 34.3753 9.58651 34.596C9.38982 34.6637 9.17564 34.7359 8.97021 34.8058C9.04802 35.9047 9.20881 37.0013 9.45258 38.0957C9.4789 38.0521 9.47468 37.9977 9.4792 37.9411C9.49944 37.7235 9.52626 37.4949 9.55092 37.2577C9.64012 36.5698 9.9321 35.9883 10.4813 35.5457C10.8621 35.247 11.2885 35.0201 11.7344 34.8345C11.8131 34.8148 11.8874 34.7776 11.9705 34.7384C11.9834 34.7906 11.9878 34.808 11.9964 34.8428C12.0027 34.9429 12.0154 35.0691 12.0195 35.1975C12.0264 35.8612 11.9307 36.523 11.4904 37.0677C11.0367 37.6712 10.4438 38.1247 9.75727 38.463C9.68951 38.4892 9.61959 38.5067 9.53651 38.546C9.79334 39.6556 10.1507 40.7214 10.613 41.761C10.6031 41.3846 10.58 41.0299 10.5657 40.673C10.5605 40.1659 10.6907 39.6804 10.9866 39.2643C11.3613 38.7545 11.8493 38.3642 12.3743 38.0109C12.4355 37.9956 12.488 37.9455 12.5798 37.904C12.6488 38.2194 12.7071 38.4914 12.7391 38.7699C12.801 39.2813 12.7735 39.7688 12.543 40.224C12.1479 40.9884 11.6024 41.6334 10.8741 42.1023C10.8479 42.1089 10.826 42.1329 10.7953 42.159C11.2469 43.1181 11.7619 44.0336 12.3644 44.8902C12.3387 44.7118 12.2801 44.5508 12.2457 44.3746C12.1119 43.7981 12.0741 43.2345 12.318 42.6835C12.5222 42.2349 12.7962 41.8428 13.1399 41.5071C13.3151 41.3154 13.4947 41.141 13.7026 40.9688C13.7525 41.0579 13.7829 41.1427 13.8176 41.208C14.1171 41.8909 14.2899 42.5871 14.0827 43.323C13.9085 43.9304 13.5992 44.4793 13.2026 44.976C13.0536 45.1612 12.8982 45.3203 12.7361 45.4903C13.3213 46.3143 13.9523 47.099 14.6513 47.8205C14.6383 47.7683 14.6297 47.7335 14.6123 47.7009C14.5278 47.4725 14.428 47.2202 14.3435 46.9918C14.1983 46.5568 14.1799 46.1085 14.2925 45.6644C14.4336 45.1484 14.6773 44.6714 14.9951 44.2313C15.1156 44.081 15.2339 43.922 15.3567 43.7433C15.7026 44.202 15.9481 44.6674 16.0908 45.1677C16.1621 45.4549 16.2159 45.7464 16.1714 46.0534C16.06 46.8762 15.7697 47.6513 15.2765 48.3572C15.2195 48.4269 15.2369 48.4595 15.2891 48.5204C15.8662 49.0876 16.4718 49.6199 17.1101 50.1347C17.1101 50.1347 17.0659 50.3307 16.3875 50.1031C16.198 49.938 16.0106 49.7816 15.8255 49.5969C15.4488 49.2383 15.072 48.8798 14.7105 48.5082C14.63 48.4082 14.5689 48.3865 14.4552 48.452C13.7293 48.8186 12.9515 49.0134 12.1393 48.995C11.5629 48.9915 11.0416 48.7616 10.5818 48.4423C10.3791 48.299 10.1831 48.1077 9.98918 47.9622C9.9718 47.9296 9.95 47.9166 9.92388 47.8861C9.94578 47.8622 9.95894 47.8404 9.96768 47.8382C10.5298 47.4848 11.1331 47.2228 11.7841 47.1152C12.4307 46.9902 13.022 47.1657 13.5866 47.4956C13.7174 47.5738 13.8373 47.6454 13.9813 47.7018C13.9639 47.6692 13.9378 47.6388 13.9116 47.6083C13.3109 46.9084 12.7452 46.1628 12.2298 45.3953C12.182 45.3148 12.1427 45.3062 12.0553 45.3281C11.3079 45.5707 10.5305 45.6176 9.7557 45.4881C9.15551 45.3889 8.67819 45.074 8.26666 44.6502C8.07283 44.4677 7.90531 44.2416 7.70726 44.0047C7.96071 43.9412 8.17931 43.8495 8.40654 43.7925C8.83921 43.6657 9.28484 43.5911 9.74117 43.5969C10.3699 43.6243 10.8693 43.8782 11.3355 44.2606C11.4488 44.3431 11.5446 44.43 11.6405 44.5169C11.1909 43.6405 10.7391 42.7554 10.2895 41.879C9.91832 41.8796 9.52523 41.9041 9.14756 41.8785C8.56033 41.8315 7.98863 41.6974 7.48076 41.3717C7.03829 41.085 6.47693 40.3568 6.30796 39.863C6.3167 39.8608 6.3167 39.8608 6.32544 39.8586C7.07922 39.6791 7.83918 39.6366 8.59618 39.8815C9.05653 40.0157 9.40718 40.3438 9.71845 40.7003C9.79249 40.7742 9.85779 40.8503 9.94273 40.9307C9.62422 40.0214 9.36031 39.1078 9.19912 38.1591C8.69261 38.1381 8.219 38.0626 7.76308 37.9088C7.09337 37.6791 6.48505 37.36 6.10682 36.7338C5.90465 36.4055 5.74186 36.0488 5.64024 35.6768C5.62286 35.6442 5.62296 35.6072 5.60136 35.5202C5.96371 35.5588 6.30869 35.5648 6.63834 35.5839C7.10105 35.6529 7.5396 35.7742 7.9472 36.0325C8.30031 36.2584 8.53745 36.5779 8.75052 36.9128C8.84616 37.0737 8.93305 37.2368 9.04401 37.3846C9.03105 37.3324 9.03547 37.3128 9.02251 37.2606C8.8787 36.3446 8.78075 35.4263 8.74613 34.5015C8.74202 34.4101 8.716 34.3426 8.60248 34.3341C7.81032 34.172 7.11038 33.8205 6.50923 33.2686C6.08887 32.884 5.89367 32.3967 5.76634 31.8463C5.71666 31.6462 5.69537 31.4482 5.66327 31.2066C5.96002 31.2802 6.23939 31.3212 6.49029 31.397C7.04883 31.5529 7.56132 31.785 7.96195 32.2022C8.27332 32.5217 8.43159 32.935 8.57239 33.3526C8.62226 33.4788 8.65682 33.618 8.72202 33.7311C8.72212 33.6941 8.72222 33.6571 8.72232 33.6201C8.72709 32.6669 8.77339 31.694 8.907 30.7362C8.92036 30.6405 8.9074 30.5882 8.81794 30.5644C8.10906 30.2891 7.52067 29.8634 7.02225 29.2765C6.6283 28.8113 6.49439 28.2718 6.47193 27.6951C6.45721 27.4862 6.46429 27.2903 6.46706 27.0771L6.48022 27.0553C6.92309 27.1939 7.34837 27.3739 7.7385 27.6367C8.33357 28.0145 8.72957 28.5254 8.85425 29.2521C8.8994 29.5088 8.9423 29.7938 9.00042 30.1028C9.00926 30.0636 9.01368 30.044 9.01378 30.007C9.10886 29.5673 9.20394 29.1275 9.29686 28.6791C9.30138 28.6225 9.28842 28.5703 9.27546 28.5181C9.16943 28.1656 9.08961 27.8067 9.09719 27.4258C9.10015 27.1385 9.13592 26.8338 9.28725 26.5833C9.46059 26.2718 9.69275 26.0104 9.94886 25.7706C10.0803 25.6268 10.2203 25.5177 10.3669 25.3978C10.3931 25.3913 10.4149 25.4043 10.4412 25.3977C10.4648 25.5305 10.4688 25.6588 10.4925 25.7916C10.5938 26.2746 10.599 26.7816 10.4842 27.2541Z" fill="#417505"/>
<path fill-rule="evenodd" clip-rule="evenodd" d="M31.399 19.03C31.0843 19.03 30.7976 18.9676 30.5388 18.8427C30.2799 18.7178 30.0589 18.5537 29.8757 18.3502C29.6925 18.1468 29.5501 17.9141 29.4486 17.6523C29.347 17.3904 29.2962 17.1205 29.2962 16.8425C29.2962 16.5605 29.349 16.2886 29.4545 16.0268C29.5601 15.7649 29.7074 15.5343 29.8966 15.3348C30.0858 15.1354 30.3098 14.9763 30.5686 14.8575C30.8275 14.7386 31.1102 14.6792 31.4169 14.6792C31.7315 14.6792 32.0182 14.7416 32.2771 14.8665C32.5359 14.9914 32.7569 15.1566 32.9401 15.362C33.1233 15.5675 33.2647 15.8012 33.3643 16.063C33.4638 16.3249 33.5136 16.5908 33.5136 16.8607C33.5136 17.1427 33.4608 17.4146 33.3553 17.6765C33.2498 17.9383 33.1034 18.1689 32.9162 18.3684C32.7291 18.5678 32.5061 18.7279 32.2472 18.8488C31.9883 18.9696 31.7056 19.03 31.399 19.03ZM25.4213 14.7035V18.9939H27.0043C27.3229 18.9939 27.6126 18.9425 27.8735 18.8398C28.1343 18.7371 28.3573 18.592 28.5425 18.4047C28.7277 18.2174 28.8701 17.9918 28.9696 17.7279C29.0692 17.464 29.119 17.1689 29.119 16.8426C29.119 16.5485 29.0742 16.2716 28.9846 16.0117C28.8949 15.7519 28.7615 15.5253 28.5843 15.3319C28.4071 15.1385 28.1871 14.9855 27.9242 14.8727C27.6614 14.7599 27.3548 14.7035 27.0043 14.7035H25.4213ZM28.0467 16.3254C28.0965 16.4805 28.1213 16.6527 28.1213 16.8421C28.1213 17.0274 28.0965 17.1976 28.0467 17.3527C27.9969 17.5078 27.9252 17.6427 27.8316 17.7576C27.738 17.8724 27.6216 17.962 27.4822 18.0265C27.3428 18.0909 27.1835 18.1231 27.0043 18.1231H26.4009V15.5731H27.0043C27.1795 15.5731 27.3368 15.6033 27.4762 15.6637C27.6156 15.7241 27.7331 15.8107 27.8286 15.9235C27.9242 16.0363 27.9969 16.1703 28.0467 16.3254ZM30.3656 17.3348C30.3178 17.1797 30.2939 17.0196 30.2939 16.8544C30.2939 16.6933 30.3168 16.5351 30.3626 16.38C30.4084 16.2249 30.4781 16.087 30.5717 15.9661C30.6653 15.8452 30.7808 15.7476 30.9182 15.673C31.0556 15.5985 31.2178 15.5612 31.405 15.5612C31.5842 15.5612 31.7425 15.5965 31.8799 15.667C32.0173 15.7375 32.1338 15.8322 32.2294 15.951C32.325 16.0698 32.3966 16.2068 32.4444 16.3619C32.4922 16.517 32.5161 16.6771 32.5161 16.8423C32.5161 17.0035 32.4932 17.1616 32.4474 17.3167C32.4016 17.4718 32.3329 17.6108 32.2413 17.7336C32.1497 17.8565 32.0342 17.9562 31.8949 18.0328C31.7555 18.1093 31.5922 18.1476 31.405 18.1476C31.2258 18.1476 31.0665 18.1113 30.9271 18.0388C30.7878 17.9663 30.6713 17.8696 30.5777 17.7487C30.4841 17.6279 30.4134 17.4899 30.3656 17.3348ZM35.7459 18.1479C35.9132 18.1479 36.0545 18.1126 36.17 18.0421C36.2855 17.9716 36.3791 17.878 36.4508 17.7611C36.5225 17.6443 36.5732 17.5104 36.6031 17.3593C36.633 17.2082 36.6479 17.0541 36.6479 16.897V14.7035H37.6276V16.897C37.6276 17.1951 37.5907 17.4731 37.5171 17.7309C37.4434 17.9887 37.3299 18.2143 37.1766 18.4077C37.0232 18.6011 36.8281 18.7532 36.5912 18.864C36.3542 18.9747 36.0725 19.0301 35.7459 19.0301C35.4074 19.0301 35.1187 18.9717 34.8797 18.8549C34.6408 18.7381 34.4466 18.582 34.2973 18.3866C34.148 18.1912 34.0384 17.9646 33.9688 17.7067C33.8991 17.4489 33.8642 17.179 33.8642 16.897V14.7035H34.8439V16.897C34.8439 17.0622 34.8598 17.2193 34.8917 17.3683C34.9235 17.5174 34.9753 17.6503 35.047 17.7672C35.1187 17.884 35.2113 17.9767 35.3248 18.0451C35.4383 18.1136 35.5786 18.1479 35.7459 18.1479ZM14.3965 22.3448V24.223H16.5908V35.4923H18.6898V24.223H20.8842V22.3448H14.3965ZM23.7272 25.3687V32.4684C23.7272 33.4075 24.147 33.7644 24.8148 33.7644C25.4827 33.7644 25.9025 33.4075 25.9025 32.4684V25.3687C25.9025 24.4296 25.4827 24.0728 24.8148 24.0728C24.147 24.0728 23.7272 24.4296 23.7272 25.3687ZM21.6282 25.5002V32.3369C21.6282 34.4405 22.754 35.6426 24.8147 35.6426C26.8755 35.6426 28.0013 34.4405 28.0013 32.3369V25.5002C28.0013 23.3966 26.8755 22.1945 24.8147 22.1945C22.754 22.1945 21.6282 23.3966 21.6282 25.5002ZM32.4473 22.3448C34.5463 22.3448 35.5767 23.4905 35.5767 25.5941V27.3033C35.5767 29.4069 34.5463 30.5526 32.4473 30.5526H31.4551V35.4923H29.3561V22.3448H32.4473ZM31.455 24.223H32.4473C33.1151 24.223 33.4777 24.5235 33.4777 25.4626V27.4348C33.4777 28.3739 33.1151 28.6744 32.4473 28.6744H31.455V24.223ZM26.7923 37.6198C27.5895 37.6198 27.9808 38.0334 27.9808 38.7928V39.4098C27.9808 40.1692 27.5895 40.5828 26.7923 40.5828H26.4155V42.3661H25.6183V37.6198H26.7923ZM26.4057 38.4113H26.792C27.052 38.4113 27.1932 38.5181 27.1932 38.8519V39.5528C27.1932 39.8866 27.052 39.9934 26.792 39.9934H26.4057V38.4113ZM36.4546 29.8577V27.9795H40.2708V29.8577H36.4546ZM43.5909 31.2476H41.6064V32.3369C41.6064 34.4405 42.675 35.6426 44.7358 35.6426C46.7965 35.6426 47.8651 34.4405 47.8651 32.3369V29.4069C47.8651 27.4723 47.0828 26.4017 45.5372 26.4017C44.6976 26.4017 44.087 26.7398 43.7054 27.3596L43.8771 24.223H47.5216V22.3448H41.988L41.6064 29.9704H43.5909V29.5759C43.5909 28.6368 44.0107 28.28 44.6785 28.28C45.3464 28.28 45.7661 28.6368 45.7661 29.5759V32.4684C45.7661 33.4075 45.3464 33.7456 44.6785 33.7456C44.0107 33.7456 43.5909 33.4075 43.5909 32.4684V31.2476ZM20.2528 38.3359V39.6286H21.2654V40.2915H20.2528V41.6504H21.5269V42.3133H19.5152V37.673H21.5269V38.3359H20.2528ZM23.6636 40.9676L23.1204 37.673H22.0945V42.3133H22.7382V39.0319L23.2881 42.3133H23.9855L24.4951 38.9855V42.3133H25.1925V37.673H24.1665L23.6636 40.9676ZM28.2097 42.3133V37.673H28.9473V41.6504H30.161V42.3133H28.2097ZM31.2786 41.2461V38.7403C31.2786 38.4089 31.4261 38.2829 31.6608 38.2829C31.8955 38.2829 32.0431 38.4089 32.0431 38.7403V41.2461C32.0431 41.5775 31.8955 41.7035 31.6608 41.7035C31.4261 41.7035 31.2786 41.5775 31.2786 41.2461ZM30.5411 41.1994V38.7865C30.5411 38.044 30.9367 37.6198 31.6609 37.6198C32.3851 37.6198 32.7808 38.044 32.7808 38.7865V41.1994C32.7808 41.9419 32.3851 42.3661 31.6609 42.3661C30.9367 42.3661 30.5411 41.9419 30.5411 41.1994ZM33.9653 40.7754V42.3133H34.7029V40.7754L35.635 37.673H34.9309L34.3676 39.7876L33.8044 37.673H33.0332L33.9653 40.7754ZM36.7859 38.3359V39.6286H37.7985V40.2915H36.7859V41.6504H38.06V42.3133H36.0483V37.673H38.06V38.3359H36.7859ZM40.1767 42.3133H40.9277C40.8539 42.141 40.8472 41.9752 40.8472 41.7498V41.0339C40.8472 40.55 40.7265 40.1986 40.3577 40.0462C40.6863 39.8937 40.8405 39.5821 40.8405 39.1049V38.7403C40.8405 38.0243 40.5119 37.673 39.7475 37.673H38.6344V42.3133H39.372V40.424H39.6268C39.9621 40.424 40.1096 40.5831 40.1096 41.014V41.7432C40.1096 42.1146 40.1355 42.1914 40.1746 42.3072L40.1767 42.3133ZM39.7274 38.3356H39.372V39.7608H39.6604C39.9353 39.7608 40.103 39.6415 40.103 39.2702V38.8128C40.103 38.4814 39.989 38.3356 39.7274 38.3356ZM42.4409 37.6198C41.7234 37.6198 41.3545 38.044 41.3545 38.7865C41.3545 39.5037 41.7765 39.8853 42.1638 40.2356C42.4925 40.5329 42.7963 40.8076 42.7963 41.2458C42.7963 41.5773 42.6487 41.6966 42.414 41.6966C42.1793 41.6966 42.0318 41.5773 42.0318 41.2458V40.9144H41.3344V41.1994C41.3344 41.9419 41.71 42.3661 42.4342 42.3661C43.1584 42.3661 43.5339 41.9419 43.5339 41.1994C43.5339 40.4822 43.112 40.1006 42.7246 39.7503C42.396 39.453 42.0922 39.1782 42.0922 38.7401C42.0922 38.4086 42.2263 38.2827 42.461 38.2827C42.6957 38.2827 42.8298 38.4086 42.8298 38.7401V38.9323H43.5272V38.7865C43.5272 38.044 43.1584 37.6198 42.4409 37.6198Z" fill="#101820"/>
<path fill-rule="evenodd" clip-rule="evenodd" d="M27.3532 45.2961L28.0544 47.903H28.6328V44.3037H28.1312V46.4582L27.5528 44.3037H26.8464V47.903H27.3532V45.2961ZM25.8152 44.3044V47.9038H26.3782V44.3044H25.8152ZM29.9587 47.903V44.3037H30.5217V47.3889H31.4482V47.903H29.9587ZM32.4389 47.2397L32.0089 44.3037H31.4407L31.9935 47.903H32.833L33.3858 44.3037H32.8688L32.4389 47.2397ZM33.7107 47.903V44.3037H34.2738V47.903H33.7107ZM35.597 47.2397L35.167 44.3037H34.5988L35.1516 47.903H35.9911L36.5439 44.3037H36.0269L35.597 47.2397Z" fill="#777777"/>
</svg>
