<svg width="120" height="120" viewBox="0 0 120 120" fill="none" xmlns="http://www.w3.org/2000/svg">
<path fill-rule="evenodd" clip-rule="evenodd" d="M111.377 48.3932C111.373 48.3332 111.354 48.2751 111.321 48.2243C111.289 48.1736 111.244 48.1318 111.192 48.103C110.951 47.9848 110.602 47.9036 109.89 47.9036C108.283 47.9036 106.861 48.6899 106.241 50.0055V48.3984C106.241 48.3651 106.234 48.3321 106.221 48.3014C106.208 48.2707 106.19 48.2429 106.166 48.2195C106.142 48.1961 106.114 48.1776 106.083 48.1651C106.052 48.1525 106.019 48.1462 105.986 48.1465H103.58C103.546 48.1462 103.513 48.1525 103.482 48.1651C103.452 48.1776 103.424 48.1961 103.4 48.2195C103.376 48.2429 103.357 48.2707 103.344 48.3014C103.331 48.3321 103.325 48.3651 103.325 48.3984V59.2316C103.325 59.2649 103.331 59.2978 103.344 59.3285C103.357 59.3592 103.376 59.3871 103.4 59.4105C103.424 59.4339 103.452 59.4524 103.482 59.4649C103.513 59.4774 103.546 59.4837 103.58 59.4835H106.1C106.134 59.4837 106.167 59.4774 106.198 59.4649C106.229 59.4524 106.257 59.4339 106.28 59.4105C106.304 59.3871 106.323 59.3593 106.336 59.3286C106.349 59.2979 106.356 59.2649 106.356 59.2316V54.3585C106.356 52.182 107.892 51.1002 109.89 51.1002C110.285 51.1036 110.677 51.1635 111.055 51.2781C111.214 51.3301 111.377 51.2002 111.377 51.034V48.3932ZM95.2691 56.8252C93.5465 56.8252 92.2141 55.624 92.2141 53.8098C92.2141 51.9956 93.5471 50.7937 95.2691 50.7937C96.9917 50.7937 98.3235 51.9963 98.3235 53.8098C98.3235 55.624 96.9917 56.8252 95.2691 56.8252ZM95.2691 47.8686C91.7323 47.8686 89.0909 50.2723 89.0909 53.8098C89.0909 57.3472 91.7323 59.751 95.2691 59.751C98.8053 59.751 101.447 57.3472 101.447 53.8098C101.447 50.2723 98.8053 47.8686 95.2691 47.8686ZM81.2439 56.8252C79.5213 56.8252 78.1889 55.624 78.1889 53.8098C78.1889 51.9963 79.5213 50.7944 81.2439 50.7944C82.9666 50.7944 84.2983 51.9956 84.2983 53.8098C84.2983 55.624 82.9666 56.8252 81.2439 56.8252ZM81.2439 47.8686C77.7071 47.8686 75.0657 50.2723 75.0657 53.8098C75.0657 57.3472 77.7071 59.751 81.2439 59.751C84.7801 59.751 87.4215 57.3472 87.4215 53.8098C87.4215 50.2723 84.7801 47.8686 81.2439 47.8686ZM67.2382 56.8531C65.5162 56.8531 64.23 55.6519 64.23 53.8143C64.23 51.9781 65.5162 50.7755 67.2389 50.7755C68.9388 50.7755 70.2471 51.9326 70.2471 53.8143C70.2471 55.674 68.9388 56.8531 67.2389 56.8531H67.2382ZM72.9321 43.611H70.4114C70.3782 43.6108 70.3452 43.6172 70.3144 43.6298C70.2836 43.6424 70.2556 43.6609 70.232 43.6843C70.2083 43.7077 70.1896 43.7355 70.1767 43.7661C70.1638 43.7968 70.1571 43.8297 70.1569 43.8629V49.7788C69.3758 48.6906 68.0895 47.851 66.298 47.851C63.4962 47.851 61.1074 49.9834 61.1074 53.8156C61.1074 57.6472 63.4969 59.7783 66.3435 59.7783C68.0206 59.7783 69.3303 59.053 70.1562 57.8966V59.2322C70.1564 59.2655 70.1632 59.2985 70.1761 59.3292C70.189 59.3599 70.2079 59.3877 70.2316 59.4111C70.2553 59.4345 70.2834 59.453 70.3142 59.4656C70.3451 59.4781 70.3781 59.4844 70.4114 59.4841H72.9321C72.9654 59.4844 72.9984 59.4781 73.0293 59.4656C73.0601 59.453 73.0882 59.4345 73.1119 59.4111C73.1356 59.3877 73.1545 59.3599 73.1674 59.3292C73.1803 59.2985 73.1871 59.2655 73.1872 59.2322V43.8636C73.1872 43.8302 73.1805 43.7972 73.1676 43.7664C73.1547 43.7357 73.1359 43.7077 73.1122 43.6843C73.0884 43.6608 73.0603 43.6422 73.0294 43.6297C72.9985 43.6171 72.9654 43.6108 72.9321 43.611ZM59.438 56.0519C59.438 58.6368 57.5316 59.7484 54.4773 59.7484C52.3676 59.7484 50.5528 59.1874 49.5145 58.0271C49.4755 57.9818 49.4535 57.9244 49.4523 57.8646C49.4511 57.8049 49.4708 57.7466 49.5081 57.6998L50.9651 55.8318C50.9878 55.8035 51.0164 55.7804 51.0488 55.7641C51.0813 55.7478 51.1168 55.7387 51.1531 55.7373C51.1894 55.7359 51.2255 55.7424 51.259 55.7562C51.2926 55.7701 51.3228 55.7909 51.3476 55.8175C52.1183 56.596 53.302 57.0719 54.7759 57.0719C55.6259 57.0719 56.3148 56.846 56.3148 56.2109C56.3148 55.598 55.6947 55.4629 53.7656 55.0545C52.0657 54.7136 49.9528 53.9435 49.9528 51.4716C49.9528 49.1815 51.7904 47.866 54.7993 47.866C56.7778 47.866 58.2004 48.4555 59.2036 49.3841C59.2496 49.4277 59.2776 49.4869 59.2821 49.5502C59.2865 49.6134 59.2671 49.676 59.2276 49.7256L57.8446 51.4982C57.824 51.5254 57.798 51.5481 57.7683 51.5648C57.7386 51.5816 57.7058 51.5921 57.6718 51.5958C57.6379 51.5994 57.6036 51.5961 57.571 51.586C57.5384 51.576 57.5082 51.5593 57.4823 51.5372C56.8037 50.9398 55.6772 50.5645 54.5695 50.5645C53.628 50.5645 53.0994 50.86 53.0994 51.3586C53.0994 51.9255 53.7202 52.0618 55.7642 52.4923C57.7615 52.9228 59.438 53.6715 59.438 56.0519ZM47.7815 56.0584C47.7815 58.6433 45.8751 59.7549 42.8208 59.7549C40.7111 59.7549 38.8963 59.1939 37.8581 58.0336C37.8192 57.9884 37.7973 57.931 37.7961 57.8714C37.7949 57.8118 37.8145 57.7537 37.8516 57.707L39.3086 55.8382C39.3314 55.81 39.36 55.7871 39.3924 55.7708C39.4248 55.7546 39.4604 55.7455 39.4966 55.7441C39.5328 55.7428 39.5689 55.7492 39.6025 55.763C39.636 55.7767 39.6662 55.7975 39.6911 55.824C40.4618 56.6031 41.6455 57.0791 43.1195 57.0791C43.9694 57.0791 44.6583 56.8525 44.6583 56.2174C44.6583 55.6045 44.0382 55.4694 42.1091 55.061C40.4092 54.7208 38.2963 53.95 38.2963 51.4781C38.2963 49.188 40.1339 47.8731 43.1428 47.8731C45.1206 47.8731 46.5433 48.4627 47.5465 49.3906C47.5925 49.4341 47.6205 49.4934 47.625 49.5566C47.6294 49.6199 47.61 49.6825 47.5705 49.7321L46.1875 51.5047C46.1669 51.5318 46.141 51.5545 46.1113 51.5712C46.0817 51.588 46.049 51.5986 46.0151 51.6023C45.9813 51.606 45.9471 51.6028 45.9145 51.5928C45.8819 51.5828 45.8518 51.5663 45.8258 51.5443C45.1473 50.947 44.0207 50.5704 42.9123 50.5704C41.9708 50.5704 41.4423 50.8664 41.4423 51.3651C41.4423 51.932 42.0637 52.0683 44.1071 52.4988C46.1044 52.9293 47.7815 53.678 47.7815 56.0584ZM32.6733 54.9026C32.6733 56.1493 31.6409 57.2382 30.0325 57.2382C28.9761 57.2382 28.4015 56.7616 28.4015 56.0363C28.4015 55.4013 28.8845 54.9247 29.826 54.7883L32.6733 54.4487V54.9026ZM30.6754 47.8958C28.2703 47.8958 26.4581 48.6906 25.6484 50.2613C25.6215 50.316 25.6152 50.3786 25.6306 50.4375C25.646 50.4965 25.682 50.548 25.7321 50.5827L27.5697 51.8787C27.6853 51.9599 27.8476 51.9333 27.9171 51.8105C28.4274 50.9035 29.5709 50.5937 30.6754 50.5937C32.0305 50.5937 32.6726 51.069 32.6726 51.7274V51.9086C32.6726 52.1813 32.5123 52.3177 32.0759 52.3625L28.9293 52.6345C26.8165 52.8378 25.2555 54.1305 25.2555 56.1941C25.2555 58.2803 26.8626 59.7315 29.1365 59.7315C30.9279 59.7315 32.0759 58.8699 32.6726 57.9628V59.253C32.6728 59.2863 32.6795 59.3192 32.6925 59.3499C32.7054 59.3806 32.7243 59.4085 32.748 59.4319C32.7717 59.4553 32.7997 59.4738 32.8306 59.4863C32.8615 59.4989 32.8945 59.5052 32.9278 59.5049H35.4491C35.4824 59.5052 35.5154 59.4989 35.5463 59.4863C35.5772 59.4738 35.6053 59.4553 35.629 59.4319C35.6527 59.4085 35.6715 59.3806 35.6845 59.3499C35.6974 59.3192 35.7041 59.2863 35.7043 59.253V52.4988C35.7043 49.347 34.0278 47.8958 30.6754 47.8958ZM23.1758 43.8616V59.2296C23.1757 59.263 23.169 59.296 23.1561 59.3268C23.1432 59.3575 23.1244 59.3855 23.1007 59.4089C23.077 59.4324 23.0489 59.451 23.0179 59.4635C22.987 59.4761 22.954 59.4825 22.9206 59.4822H20.3766C20.3432 59.4825 20.3101 59.4761 20.2792 59.4635C20.2483 59.451 20.2202 59.4324 20.1965 59.4089C20.1728 59.3855 20.1539 59.3575 20.141 59.3268C20.1282 59.296 20.1215 59.263 20.1214 59.2296V43.8571C20.1214 43.7207 20.2337 43.6104 20.3714 43.6104H22.9206C22.9539 43.6101 22.9869 43.6164 23.0178 43.629C23.0487 43.6415 23.0767 43.66 23.1005 43.6834C23.1242 43.7068 23.143 43.7346 23.1559 43.7653C23.1689 43.796 23.1756 43.829 23.1758 43.8623V43.8616ZM11.6699 56.8414C9.94794 56.8414 8.66165 55.6396 8.66165 53.8026C8.66165 51.9657 9.94729 50.7639 11.6699 50.7639C13.3926 50.7639 14.6555 51.9209 14.6555 53.8026C14.6555 55.6616 13.3926 56.8414 11.6699 56.8414ZM17.3631 48.1341H14.8451C14.777 48.1338 14.7115 48.1605 14.6631 48.2083C14.6147 48.2561 14.5872 48.3212 14.5866 48.3893V49.7217C13.9438 48.701 12.6114 47.8621 10.8433 47.8621C7.99546 47.8621 5.53845 49.971 5.53845 53.7578C5.53845 57.5213 7.88053 59.5835 10.9349 59.5835C12.5887 59.5835 13.8743 58.9037 14.6327 57.8381V58.5634C14.6327 60.1958 13.8282 61.4886 11.2563 61.4886C9.96353 61.4886 8.92527 61.0639 8.01494 60.2679C7.98762 60.2431 7.95519 60.2246 7.91994 60.2137C7.88469 60.2028 7.84748 60.1998 7.81093 60.2049C7.77439 60.21 7.73941 60.223 7.70847 60.2431C7.67752 60.2632 7.65136 60.2898 7.63184 60.3211L6.4897 62.2106C6.3423 62.4548 6.36243 62.5918 6.45593 62.6723C7.62859 63.6787 9.15383 64.3001 11.3712 64.3001C16.1943 64.3001 17.6183 61.6477 17.6183 58.7225V48.3861C17.6181 48.3528 17.6114 48.3198 17.5985 48.2891C17.5855 48.2584 17.5667 48.2306 17.543 48.2072C17.5193 48.1837 17.4912 48.1653 17.4603 48.1527C17.4295 48.1402 17.3964 48.1339 17.3631 48.1341Z" fill="#0CAA41"/>
<rect x="44.5771" y="64.4321" width="12.1454" height="12.1454" rx="1.73505" fill="#1CAB4A"/>
<rect x="58.4575" y="64.4312" width="12.1454" height="12.1454" rx="1.73505" fill="#1CAB4A"/>
<rect x="72.338" y="64.4312" width="12.1454" height="12.1454" rx="1.73505" fill="#1CAB4A"/>
<rect x="86.2184" y="64.4312" width="12.1453" height="12.1454" rx="1.73505" fill="#1CAB4A"/>
<rect x="100.099" y="64.4312" width="12.1453" height="12.1454" rx="1.73505" fill="#1CAB4A"/>
<path d="M50.6497 65.2988L51.8184 68.8955H55.6001L52.5406 71.1184L53.7093 74.715L50.6497 72.4922L47.5902 74.715L48.7589 71.1184L45.6993 68.8955H49.4811L50.6497 65.2988Z" fill="white"/>
<path d="M64.5302 65.2988L65.6989 68.8955H69.4806L66.4211 71.1184L67.5897 74.715L64.5302 72.4922L61.4707 74.715L62.6393 71.1184L59.5798 68.8955H63.3616L64.5302 65.2988Z" fill="white"/>
<path d="M78.4107 65.2988L79.5794 68.8955H83.3611L80.3016 71.1184L81.4702 74.715L78.4107 72.4922L75.3512 74.715L76.5198 71.1184L73.4603 68.8955H77.2421L78.4107 65.2988Z" fill="white"/>
<path d="M92.2911 65.2988L93.4597 68.8955H97.2415L94.182 71.1184L95.3506 74.715L92.2911 72.4922L89.2316 74.715L90.4002 71.1184L87.3407 68.8955H91.1225L92.2911 65.2988Z" fill="white"/>
<path d="M106.172 65.2988L107.34 68.8955H111.122L108.062 71.1184L109.231 74.715L106.172 72.4922L103.112 74.715L104.281 71.1184L101.221 68.8955H105.003L106.172 65.2988Z" fill="white"/>
<path fill-rule="evenodd" clip-rule="evenodd" d="M114.413 49.3713C114.959 49.3713 115.402 48.9285 115.402 48.3823C115.402 47.8361 114.959 47.3934 114.413 47.3934C113.867 47.3934 113.424 47.8361 113.424 48.3823C113.424 48.9285 113.867 49.3713 114.413 49.3713ZM114.413 49.6836C115.132 49.6836 115.714 49.101 115.714 48.3823C115.714 47.6637 115.132 47.0811 114.413 47.0811C113.694 47.0811 113.112 47.6637 113.112 48.3823C113.112 49.101 113.694 49.6836 114.413 49.6836Z" fill="#0CAA41"/>
<path d="M114.371 48.1516C114.455 48.1516 114.525 48.1618 114.579 48.1821C114.635 48.2025 114.675 48.2332 114.702 48.2742C114.729 48.3153 114.742 48.3672 114.742 48.4299C114.742 48.4723 114.734 48.5093 114.718 48.5411C114.702 48.5729 114.681 48.5998 114.654 48.6218C114.628 48.6438 114.6 48.6618 114.569 48.6758L114.843 49.0806H114.624L114.402 48.7241H114.297V49.0806H114.1V48.1516H114.371ZM114.357 48.313H114.297V48.564H114.361C114.426 48.564 114.473 48.5532 114.501 48.5316C114.529 48.5096 114.543 48.4774 114.543 48.435C114.543 48.391 114.528 48.3596 114.498 48.341C114.467 48.3223 114.421 48.313 114.357 48.313Z" fill="#0CAA41"/>
<path d="M14.2593 67.0819C14.301 67.1444 14.3374 67.2329 14.3686 67.3474C14.4103 67.4619 14.4311 67.5868 14.4311 67.7221C14.4311 68.201 14.2281 68.4405 13.8221 68.4405H10.1056L9.88699 70.8765C10.064 70.7932 10.2982 70.7151 10.5897 70.6422C10.8812 70.5694 11.1987 70.5329 11.5422 70.5329C12.0211 70.5329 12.4635 70.6058 12.8695 70.7515C13.2756 70.8869 13.6191 71.0899 13.9002 71.3605C14.1917 71.6208 14.4155 71.9383 14.5716 72.3131C14.7382 72.6879 14.8215 73.1147 14.8215 73.5936C14.8215 74.0412 14.7434 74.4628 14.5873 74.8584C14.4311 75.2436 14.2021 75.5819 13.9002 75.8734C13.5983 76.1545 13.2183 76.3783 12.7602 76.5449C12.3022 76.7114 11.7765 76.7947 11.1831 76.7947C10.725 76.7947 10.3086 76.7531 9.93384 76.6698C9.55907 76.5969 9.23635 76.498 8.96568 76.3731C8.70542 76.2378 8.50242 76.0868 8.35668 75.9203C8.21093 75.7537 8.13806 75.5767 8.13806 75.3893C8.13806 75.1915 8.19532 75.0198 8.30983 74.874C8.43476 74.7283 8.57009 74.6242 8.71583 74.5617C8.96568 74.7699 9.2884 74.9729 9.68399 75.1707C10.0796 75.3581 10.5585 75.4518 11.1206 75.4518C11.7765 75.4518 12.2762 75.28 12.6197 74.9365C12.9737 74.5825 13.1506 74.1401 13.1506 73.6092C13.1506 73.0574 12.9737 72.6306 12.6197 72.3287C12.2762 72.0164 11.8077 71.8602 11.2143 71.8602C10.8708 71.8602 10.5637 71.9123 10.293 72.0164C10.0223 72.1101 9.76207 72.2246 9.51222 72.3599C9.16868 72.3391 8.89281 72.2402 8.6846 72.0632C8.4764 71.8863 8.37229 71.6364 8.37229 71.3137C8.37229 71.2617 8.37229 71.194 8.37229 71.1107C8.3827 71.0274 8.39311 70.9285 8.40352 70.814L8.63776 68.0032C8.65858 67.7221 8.74706 67.4983 8.90322 67.3318C9.05937 67.1652 9.27799 67.0819 9.55907 67.0819H14.2593Z" fill="#0CAA41"/>
<path d="M15.9606 75.7485C15.9606 75.4466 16.049 75.1967 16.226 74.999C16.4134 74.8012 16.6685 74.7023 16.9912 74.7023C17.3243 74.7023 17.5794 74.8012 17.7563 74.999C17.9333 75.1967 18.0218 75.4466 18.0218 75.7485C18.0218 76.0504 17.9333 76.3002 17.7563 76.498C17.5794 76.6958 17.3243 76.7947 16.9912 76.7947C16.6685 76.7947 16.4134 76.6958 16.226 76.498C16.049 76.3002 15.9606 76.0504 15.9606 75.7485Z" fill="#0CAA41"/>
<path d="M24.8965 71.829C24.8965 71.2044 24.8393 70.6683 24.7247 70.2206C24.6102 69.7626 24.4541 69.3878 24.2563 69.0963C24.0689 68.8048 23.8399 68.5914 23.5692 68.4561C23.3089 68.3103 23.0227 68.2375 22.7103 68.2375C22.398 68.2375 22.1118 68.3103 21.8515 68.4561C21.5912 68.5914 21.3622 68.81 21.1644 69.1119C20.9666 69.4034 20.8105 69.7782 20.696 70.2362C20.5918 70.6839 20.5398 71.2148 20.5398 71.829C20.5398 73.0054 20.7272 73.9007 21.102 74.5149C21.4871 75.1291 22.0233 75.4362 22.7103 75.4362C23.4078 75.4362 23.944 75.1291 24.3187 74.5149C24.7039 73.9007 24.8965 73.0054 24.8965 71.829ZM22.7103 76.7947C22.1482 76.7947 21.6277 76.6958 21.1488 76.498C20.6803 76.2898 20.2795 75.9775 19.9464 75.5611C19.6133 75.1447 19.353 74.6294 19.1656 74.0152C18.9782 73.3906 18.8846 72.6618 18.8846 71.829C18.8846 70.9545 18.9835 70.205 19.1813 69.5804C19.3895 68.9558 19.6705 68.4457 20.0245 68.0501C20.3784 67.6441 20.7844 67.3474 21.2425 67.16C21.7005 66.9726 22.1898 66.8789 22.7103 66.8789C23.2309 66.8789 23.7254 66.9778 24.1938 67.1756C24.6623 67.363 25.0683 67.6597 25.4118 68.0657C25.7658 68.4717 26.0469 68.987 26.2551 69.6116C26.4633 70.2362 26.5674 70.9754 26.5674 71.829C26.5674 72.6618 26.4737 73.3906 26.2863 74.0152C26.0989 74.6294 25.8334 75.1447 25.4899 75.5611C25.1568 75.9775 24.7508 76.2898 24.2719 76.498C23.8034 76.6958 23.2829 76.7947 22.7103 76.7947Z" fill="#0CAA41"/>
<rect x="35.0344" y="65.2988" width="0.867526" height="12.1454" rx="0.433763" fill="#DAEDE0" fill-opacity="0.5"/>
</svg>
