<svg width="120" height="120" viewBox="0 0 120 120" fill="none" xmlns="http://www.w3.org/2000/svg">
<circle cx="60.2431" cy="59.9999" r="50.5263" fill="#EACB94"/>
<path d="M0 50.2832H18.9474V70.2716H0L6.80162 60.4856L0 50.2832Z" fill="#17313B"/>
<path d="M120 70.272H101.053V50.2835H120L113.198 60.0695L120 70.272Z" fill="#17313B"/>
<circle cx="60.2433" cy="60.0001" r="43.7247" fill="white"/>
<path d="M51.4862 80.2367H52.901V82.2607C52.6808 82.3309 52.4569 82.384 52.2292 82.4201C52.0014 82.4561 51.7377 82.4742 51.4378 82.4742C50.8077 82.4742 50.3172 82.2872 49.9661 81.9134C49.615 81.5376 49.4395 81.0119 49.4395 80.3363C49.4395 79.9036 49.5258 79.525 49.6985 79.2005C49.8731 78.8741 50.1236 78.6255 50.45 78.4547C50.7764 78.282 51.1588 78.1956 51.5972 78.1956C52.0413 78.1956 52.455 78.2772 52.8384 78.4404L52.6505 78.8674C52.2747 78.708 51.9132 78.6283 51.5659 78.6283C51.0592 78.6283 50.6635 78.7792 50.3789 79.0809C50.0942 79.3827 49.9519 79.8012 49.9519 80.3363C49.9519 80.8981 50.0885 81.3241 50.3618 81.6145C50.6369 81.9048 51.0402 82.05 51.5716 82.05C51.8601 82.05 52.1419 82.0168 52.4171 81.9504V80.6694H51.4862V80.2367Z" fill="#17313B"/>
<path d="M53.903 82.4172V78.2554H54.3869V81.9788H56.223V82.4172H53.903Z" fill="#17313B"/>
<path d="M60.5443 80.3306C60.5443 80.9967 60.3754 81.5205 60.0376 81.902C59.7017 82.2834 59.2339 82.4742 58.6342 82.4742C58.0212 82.4742 57.5477 82.2872 57.2137 81.9134C56.8816 81.5376 56.7155 81.0081 56.7155 80.3249C56.7155 79.6474 56.8825 79.1227 57.2165 78.7507C57.5505 78.3769 58.025 78.1899 58.6399 78.1899C59.2377 78.1899 59.7045 78.3797 60.0404 78.7593C60.3763 79.1388 60.5443 79.6626 60.5443 80.3306ZM57.2279 80.3306C57.2279 80.8943 57.3475 81.3222 57.5866 81.6145C57.8276 81.9048 58.1768 82.05 58.6342 82.05C59.0953 82.05 59.4436 81.9048 59.6789 81.6145C59.9142 81.3241 60.0319 80.8962 60.0319 80.3306C60.0319 79.7708 59.9142 79.3466 59.6789 79.0582C59.4455 78.7678 59.0991 78.6226 58.6399 78.6226C58.1787 78.6226 57.8276 78.7688 57.5866 79.061C57.3475 79.3514 57.2279 79.7746 57.2279 80.3306Z" fill="#17313B"/>
<path d="M61.4751 78.2554H62.6508C63.2031 78.2554 63.6025 78.338 63.8492 78.5031C64.096 78.6682 64.2193 78.9291 64.2193 79.2859C64.2193 79.5326 64.15 79.7366 64.0115 79.8979C63.8749 80.0574 63.6747 80.1608 63.4109 80.2082V80.2367C64.0428 80.3449 64.3588 80.677 64.3588 81.233C64.3588 81.605 64.2326 81.8953 63.9802 82.1041C63.7297 82.3129 63.3786 82.4172 62.9269 82.4172H61.4751V78.2554ZM61.9591 80.0374H62.7561C63.0977 80.0374 63.3435 79.9843 63.4934 79.878C63.6433 79.7698 63.7183 79.5886 63.7183 79.3343C63.7183 79.1009 63.6348 78.9329 63.4678 78.8304C63.3008 78.7261 63.0351 78.6739 62.6707 78.6739H61.9591V80.0374ZM61.9591 80.4473V82.0045H62.8273C63.1632 82.0045 63.4156 81.9399 63.5845 81.8109C63.7553 81.6799 63.8407 81.4759 63.8407 81.1989C63.8407 80.9408 63.7534 80.751 63.5788 80.6295C63.4061 80.5081 63.1423 80.4473 62.7874 80.4473H61.9591Z" fill="#17313B"/>
<path d="M67.8716 82.4172L67.3535 81.0935H65.6853L65.1729 82.4172H64.6833L66.3287 78.2383H66.7358L68.3726 82.4172H67.8716ZM67.2026 80.658L66.7187 79.3685C66.6561 79.2053 66.5915 79.005 66.5251 78.7678C66.4834 78.95 66.4236 79.1502 66.3458 79.3685L65.8561 80.658H67.2026Z" fill="#17313B"/>
<path d="M68.9448 82.4172V78.2554H69.4287V81.9788H71.2648V82.4172H68.9448Z" fill="#17313B"/>
<path d="M38.2697 36.7493H37.8086V33.783C37.8086 33.5363 37.8162 33.3029 37.8313 33.0828C37.7915 33.1226 37.7469 33.1644 37.6975 33.208C37.6482 33.2517 37.4224 33.4367 37.02 33.7631L36.7695 33.4386L37.8712 32.5874H38.2697V36.7493Z" fill="#17313B"/>
<path d="M42.6137 34.6627C42.6137 35.3819 42.4999 35.919 42.2721 36.2739C42.0463 36.6288 41.6999 36.8062 41.2331 36.8062C40.7852 36.8062 40.4446 36.625 40.2111 36.2625C39.9777 35.8981 39.861 35.3648 39.861 34.6627C39.861 33.9377 39.9739 33.3997 40.1998 33.0486C40.4256 32.6975 40.77 32.522 41.2331 32.522C41.6848 32.522 42.0273 32.7051 42.2607 33.0714C42.4961 33.4376 42.6137 33.9681 42.6137 34.6627ZM40.3392 34.6627C40.3392 35.2681 40.4104 35.7093 40.5527 35.9864C40.6951 36.2615 40.9219 36.3991 41.2331 36.3991C41.5481 36.3991 41.7759 36.2596 41.9163 35.9807C42.0586 35.6998 42.1298 35.2605 42.1298 34.6627C42.1298 34.0649 42.0586 33.6274 41.9163 33.3504C41.7759 33.0714 41.5481 32.9319 41.2331 32.9319C40.9219 32.9319 40.6951 33.0695 40.5527 33.3447C40.4104 33.6179 40.3392 34.0573 40.3392 34.6627Z" fill="#17313B"/>
<path d="M45.95 34.6627C45.95 35.3819 45.8361 35.919 45.6084 36.2739C45.3826 36.6288 45.0362 36.8062 44.5694 36.8062C44.1215 36.8062 43.7809 36.625 43.5474 36.2625C43.314 35.8981 43.1973 35.3648 43.1973 34.6627C43.1973 33.9377 43.3102 33.3997 43.536 33.0486C43.7619 32.6975 44.1063 32.522 44.5694 32.522C45.021 32.522 45.3636 32.7051 45.597 33.0714C45.8323 33.4376 45.95 33.9681 45.95 34.6627ZM43.6755 34.6627C43.6755 35.2681 43.7467 35.7093 43.889 35.9864C44.0314 36.2615 44.2581 36.3991 44.5694 36.3991C44.8844 36.3991 45.1121 36.2596 45.2526 35.9807C45.3949 35.6998 45.4661 35.2605 45.4661 34.6627C45.4661 34.0649 45.3949 33.6274 45.2526 33.3504C45.1121 33.0714 44.8844 32.9319 44.5694 32.9319C44.2581 32.9319 44.0314 33.0695 43.889 33.3447C43.7467 33.6179 43.6755 34.0573 43.6755 34.6627Z" fill="#17313B"/>
<path d="M49.2863 34.6627C49.2863 35.3819 49.1724 35.919 48.9447 36.2739C48.7189 36.6288 48.3725 36.8062 47.9057 36.8062C47.4578 36.8062 47.1171 36.625 46.8837 36.2625C46.6503 35.8981 46.5336 35.3648 46.5336 34.6627C46.5336 33.9377 46.6465 33.3997 46.8723 33.0486C47.0982 32.6975 47.4426 32.522 47.9057 32.522C48.3573 32.522 48.6999 32.7051 48.9333 33.0714C49.1686 33.4376 49.2863 33.9681 49.2863 34.6627ZM47.0118 34.6627C47.0118 35.2681 47.083 35.7093 47.2253 35.9864C47.3676 36.2615 47.5944 36.3991 47.9057 36.3991C48.2207 36.3991 48.4484 36.2596 48.5889 35.9807C48.7312 35.6998 48.8024 35.2605 48.8024 34.6627C48.8024 34.0649 48.7312 33.6274 48.5889 33.3504C48.4484 33.0714 48.2207 32.9319 47.9057 32.9319C47.5944 32.9319 47.3676 33.0695 47.2253 33.3447C47.083 33.6179 47.0118 34.0573 47.0118 34.6627Z" fill="#17313B"/>
<path d="M53.4481 32.9604C52.9907 32.9604 52.6292 33.1131 52.3635 33.4187C52.0997 33.7223 51.9678 34.1389 51.9678 34.6684C51.9678 35.213 52.095 35.6343 52.3493 35.9323C52.6055 36.2283 52.9699 36.3764 53.4424 36.3764C53.7328 36.3764 54.0639 36.3242 54.4359 36.2198V36.6439C54.1474 36.7521 53.7916 36.8062 53.3684 36.8062C52.7554 36.8062 52.2819 36.6202 51.9479 36.2483C51.6158 35.8763 51.4498 35.3478 51.4498 34.6627C51.4498 34.2338 51.5295 33.858 51.6889 33.5354C51.8502 33.2128 52.0817 32.9642 52.3835 32.7896C52.6871 32.615 53.0439 32.5277 53.4538 32.5277C53.8903 32.5277 54.2717 32.6074 54.5982 32.7668L54.3932 33.1824C54.0782 33.0344 53.7631 32.9604 53.4481 32.9604Z" fill="#17313B"/>
<path d="M58.9564 34.6627C58.9564 35.3288 58.7875 35.8526 58.4497 36.234C58.1138 36.6155 57.646 36.8062 57.0463 36.8062C56.4333 36.8062 55.9598 36.6193 55.6258 36.2454C55.2937 35.8696 55.1276 35.3402 55.1276 34.657C55.1276 33.9795 55.2946 33.4547 55.6287 33.0828C55.9627 32.7089 56.4371 32.522 57.052 32.522C57.6498 32.522 58.1166 32.7118 58.4525 33.0913C58.7884 33.4709 58.9564 33.9946 58.9564 34.6627ZM55.64 34.6627C55.64 35.2263 55.7596 35.6542 55.9987 35.9465C56.2397 36.2369 56.5889 36.382 57.0463 36.382C57.5074 36.382 57.8557 36.2369 58.091 35.9465C58.3263 35.6561 58.444 35.2282 58.444 34.6627C58.444 34.1028 58.3263 33.6787 58.091 33.3902C57.8576 33.0998 57.5112 32.9547 57.052 32.9547C56.5908 32.9547 56.2397 33.1008 55.9987 33.3931C55.7596 33.6834 55.64 34.1066 55.64 34.6627Z" fill="#17313B"/>
<path d="M61.729 36.7493L60.3171 33.06H60.2943C60.3209 33.3522 60.3342 33.6995 60.3342 34.1019V36.7493H59.8873V32.5874H60.616L61.934 36.0205H61.9568L63.2862 32.5874H64.0092V36.7493H63.5253V34.0677C63.5253 33.7603 63.5386 33.4263 63.5651 33.0657H63.5424L62.119 36.7493H61.729Z" fill="#17313B"/>
<path d="M67.7924 33.8001C67.7924 34.2214 67.6482 34.5459 67.3597 34.7737C67.0732 34.9995 66.6623 35.1124 66.1271 35.1124H65.6375V36.7493H65.1536V32.5874H66.2325C67.2724 32.5874 67.7924 32.9917 67.7924 33.8001ZM65.6375 34.6968H66.073C66.5019 34.6968 66.8122 34.6276 67.0039 34.489C67.1956 34.3505 67.2914 34.1284 67.2914 33.8229C67.2914 33.5477 67.2013 33.3428 67.021 33.208C66.8407 33.0733 66.5598 33.0059 66.1784 33.0059H65.6375V34.6968Z" fill="#17313B"/>
<path d="M71.2824 36.7493L70.7643 35.4256H69.0962L68.5838 36.7493H68.0942L69.7395 32.5704H70.1466L71.7834 36.7493H71.2824ZM70.6135 34.99L70.1295 33.7005C70.0669 33.5373 70.0024 33.3371 69.936 33.0998C69.8942 33.282 69.8344 33.4822 69.7566 33.7005L69.267 34.99H70.6135Z" fill="#17313B"/>
<path d="M75.6065 36.7493H75.0543L72.7798 33.2564H72.757C72.7874 33.6663 72.8026 34.0421 72.8026 34.3837V36.7493H72.3556V32.5874H72.9022L75.171 36.0661H75.1937C75.1899 36.0148 75.1814 35.8507 75.1681 35.5736C75.1548 35.2946 75.1501 35.0954 75.1539 34.9758V32.5874H75.6065V36.7493Z" fill="#17313B"/>
<path d="M76.7509 36.7493V32.5874H77.2348V36.7493H76.7509Z" fill="#17313B"/>
<path d="M80.6992 36.7493H78.3792V32.5874H80.6992V33.0173H78.8631V34.3581H80.5882V34.7851H78.8631V36.3166H80.6992V36.7493Z" fill="#17313B"/>
<path d="M83.9728 35.6419C83.9728 36.0082 83.84 36.2938 83.5743 36.4988C83.3086 36.7037 82.9481 36.8062 82.4926 36.8062C81.9992 36.8062 81.6196 36.7426 81.3539 36.6155V36.1486C81.5247 36.2207 81.7107 36.2777 81.9119 36.3194C82.113 36.3612 82.3123 36.382 82.5097 36.382C82.8323 36.382 83.0752 36.3213 83.2384 36.1999C83.4016 36.0765 83.4832 35.9057 83.4832 35.6875C83.4832 35.5432 83.4538 35.4256 83.395 35.3345C83.338 35.2415 83.2413 35.1561 83.1046 35.0783C82.9699 35.0005 82.764 34.9122 82.4869 34.8135C82.0997 34.675 81.8227 34.5108 81.6557 34.3211C81.4906 34.1313 81.408 33.8836 81.408 33.5781C81.408 33.2574 81.5285 33.0021 81.7695 32.8123C82.0105 32.6226 82.3294 32.5277 82.726 32.5277C83.1397 32.5277 83.5202 32.6036 83.8675 32.7554L83.7166 33.1767C83.3731 33.0325 83.0391 32.9604 82.7146 32.9604C82.4584 32.9604 82.2582 33.0154 82.114 33.1255C81.9697 33.2355 81.8976 33.3883 81.8976 33.5838C81.8976 33.728 81.9242 33.8466 81.9773 33.9396C82.0305 34.0307 82.1197 34.1152 82.2449 34.193C82.3721 34.2689 82.5656 34.3533 82.8256 34.4463C83.2621 34.6019 83.562 34.7689 83.7252 34.9473C83.8903 35.1257 83.9728 35.3572 83.9728 35.6419Z" fill="#17313B"/>
<path d="M56.4543 28.9758H55.9703V25.2439H54.6523V24.814H57.7723V25.2439H56.4543V28.9758Z" fill="#17313B"/>
<path d="M62.0138 26.8892C62.0138 27.5553 61.8449 28.0791 61.5071 28.4606C61.1712 28.842 60.7034 29.0328 60.1037 29.0328C59.4907 29.0328 59.0172 28.8458 58.6832 28.472C58.3511 28.0962 58.185 27.5667 58.185 26.8835C58.185 26.206 58.3521 25.6813 58.6861 25.3093C59.0201 24.9355 59.4945 24.7485 60.1094 24.7485C60.7072 24.7485 61.174 24.9383 61.5099 25.3179C61.8459 25.6974 62.0138 26.2212 62.0138 26.8892ZM58.6974 26.8892C58.6974 27.4529 58.817 27.8808 59.0561 28.1731C59.2971 28.4634 59.6463 28.6086 60.1037 28.6086C60.5649 28.6086 60.9131 28.4634 61.1484 28.1731C61.3837 27.8827 61.5014 27.4548 61.5014 26.8892C61.5014 26.3294 61.3837 25.9052 61.1484 25.6168C60.915 25.3264 60.5687 25.1812 60.1094 25.1812C59.6482 25.1812 59.2971 25.3274 59.0561 25.6196C58.817 25.91 58.6974 26.3332 58.6974 26.8892Z" fill="#17313B"/>
<path d="M65.5835 26.0267C65.5835 26.448 65.4393 26.7725 65.1508 27.0002C64.8643 27.2261 64.4534 27.339 63.9182 27.339H63.4286V28.9758H62.9447V24.814H64.0235C65.0635 24.814 65.5835 25.2182 65.5835 26.0267ZM63.4286 26.9234H63.8641C64.293 26.9234 64.6033 26.8541 64.795 26.7156C64.9867 26.577 65.0825 26.355 65.0825 26.0495C65.0825 25.7743 64.9924 25.5693 64.8121 25.4346C64.6318 25.2998 64.3509 25.2325 63.9695 25.2325H63.4286V26.9234Z" fill="#17313B"/>
<path d="M56.5911 92.1338H53.8555V91.7267L54.9514 90.6251C55.2854 90.2873 55.5056 90.0462 55.6119 89.902C55.7181 89.7578 55.7978 89.6173 55.851 89.4807C55.9041 89.3441 55.9307 89.197 55.9307 89.0395C55.9307 88.8174 55.8633 88.6419 55.7286 88.5128C55.5938 88.3819 55.4069 88.3164 55.1678 88.3164C54.9951 88.3164 54.8309 88.3449 54.6753 88.4018C54.5216 88.4587 54.3498 88.5622 54.1601 88.7121L53.9096 88.3904C54.2929 88.0716 54.7104 87.9122 55.1621 87.9122C55.553 87.9122 55.8595 88.0128 56.0816 88.2139C56.3036 88.4132 56.4146 88.6817 56.4146 89.0195C56.4146 89.2833 56.3406 89.5443 56.1926 89.8024C56.0446 90.0605 55.7675 90.3869 55.3614 90.7816L54.4504 91.6726V91.6954H56.5911V92.1338Z" fill="#17313B"/>
<path d="M59.9502 90.0472C59.9502 90.7664 59.8363 91.3035 59.6086 91.6584C59.3827 92.0133 59.0364 92.1907 58.5695 92.1907C58.1217 92.1907 57.781 92.0095 57.5476 91.647C57.3142 91.2826 57.1974 90.7494 57.1974 90.0472C57.1974 89.3222 57.3104 88.7842 57.5362 88.4331C57.762 88.082 58.1065 87.9065 58.5695 87.9065C59.0212 87.9065 59.3638 88.0896 59.5972 88.4559C59.8325 88.8222 59.9502 89.3526 59.9502 90.0472ZM57.6757 90.0472C57.6757 90.6526 57.7469 91.0938 57.8892 91.3709C58.0315 91.6461 58.2583 91.7836 58.5695 91.7836C58.8846 91.7836 59.1123 91.6442 59.2527 91.3652C59.3951 91.0843 59.4662 90.645 59.4662 90.0472C59.4662 89.4494 59.3951 89.0119 59.2527 88.7349C59.1123 88.4559 58.8846 88.3164 58.5695 88.3164C58.2583 88.3164 58.0315 88.454 57.8892 88.7292C57.7469 89.0025 57.6757 89.4418 57.6757 90.0472Z" fill="#17313B"/>
<path d="M63.2637 92.1338H60.528V91.7267L61.624 90.6251C61.958 90.2873 62.1782 90.0462 62.2844 89.902C62.3907 89.7578 62.4704 89.6173 62.5235 89.4807C62.5767 89.3441 62.6033 89.197 62.6033 89.0395C62.6033 88.8174 62.5359 88.6419 62.4011 88.5128C62.2664 88.3819 62.0795 88.3164 61.8403 88.3164C61.6677 88.3164 61.5035 88.3449 61.3479 88.4018C61.1942 88.4587 61.0224 88.5622 60.8326 88.7121L60.5821 88.3904C60.9655 88.0716 61.383 87.9122 61.8347 87.9122C62.2256 87.9122 62.5321 88.0128 62.7541 88.2139C62.9762 88.4132 63.0872 88.6817 63.0872 89.0195C63.0872 89.2833 63.0132 89.5443 62.8651 89.8024C62.7171 90.0605 62.44 90.3869 62.0339 90.7816L61.123 91.6726V91.6954H63.2637V92.1338Z" fill="#17313B"/>
<path d="M66.6 92.1338H63.8643V91.7267L64.9603 90.6251C65.2943 90.2873 65.5144 90.0462 65.6207 89.902C65.727 89.7578 65.8067 89.6173 65.8598 89.4807C65.913 89.3441 65.9395 89.197 65.9395 89.0395C65.9395 88.8174 65.8722 88.6419 65.7374 88.5128C65.6027 88.3819 65.4158 88.3164 65.1766 88.3164C65.0039 88.3164 64.8398 88.3449 64.6842 88.4018C64.5304 88.4587 64.3587 88.5622 64.1689 88.7121L63.9184 88.3904C64.3018 88.0716 64.7193 87.9122 65.1709 87.9122C65.5619 87.9122 65.8684 88.0128 66.0904 88.2139C66.3125 88.4132 66.4235 88.6817 66.4235 89.0195C66.4235 89.2833 66.3495 89.5443 66.2014 89.8024C66.0534 90.0605 65.7763 90.3869 65.3702 90.7816L64.4593 91.6726V91.6954H66.6V92.1338Z" fill="#17313B"/>
<g clip-path="url(#clip0_2241_42806)">
<path d="M49.9785 53.9202H52.0167V66.6587H49.9785V53.9202ZM59.1503 62.5951C59.1503 64.5446 57.5111 64.7 57.0234 64.7C55.8051 64.7 55.5835 63.5597 55.5835 62.8718V57.9965H53.5453V62.8616C53.5453 64.0692 53.9244 65.0659 54.5888 65.7303C55.1758 66.3178 56.0553 66.6388 57.0081 66.6388C57.6838 66.6388 58.6407 66.4284 59.1503 65.9632V66.6587H61.1884V57.9965H59.1503V62.5951ZM65.2648 54.9392H63.2266V57.9965H61.698V60.0347H63.2266V66.6587H65.2648V60.0347H66.7934V57.9965H65.2648V54.9392ZM73.2121 64.0687C72.7683 64.4677 72.1823 64.6888 71.5392 64.6888C70.1217 64.6888 69.0807 63.6478 69.0807 62.2186C69.0807 60.7893 70.0886 59.7921 71.5392 59.7921C72.1711 59.7921 72.7683 60.0026 73.2233 60.4015L73.5326 60.6675L74.9068 59.2938L74.5629 58.9835C73.7542 58.2533 72.6806 57.8436 71.5387 57.8436C68.991 57.8436 67.1409 59.6821 67.1409 62.2079C67.1409 64.7229 69.0354 66.6271 71.5387 66.6271C72.702 66.6271 73.7868 66.2174 74.5853 65.4755L74.9175 65.1652L73.5219 63.7925L73.2121 64.0687ZM82.1815 58.7516C81.5945 58.1646 80.9067 57.8436 79.9538 57.8436C79.2782 57.8436 78.5128 58.0541 78.0033 58.5188V53.9202H75.9651V66.6587H78.0033V61.8868C78.0033 59.9373 79.3882 59.7824 79.8759 59.7824C81.0942 59.7824 81.0605 60.9233 81.0605 61.6102V66.6587H83.0987V61.6209C83.0987 60.4133 82.8465 59.4166 82.1815 58.7516Z" fill="#17313B"/>
<path d="M71.4726 60.7678C71.8634 60.7678 72.2383 60.9231 72.5146 61.1994C72.791 61.4758 72.9462 61.8506 72.9462 62.2414C72.9462 62.6322 72.791 63.0071 72.5146 63.2834C72.2383 63.5598 71.8634 63.715 71.4726 63.715C71.0818 63.715 70.707 63.5598 70.4306 63.2834C70.1543 63.0071 69.999 62.6322 69.999 62.2414C69.999 61.8506 70.1543 61.4758 70.4306 61.1994C70.707 60.9231 71.0818 60.7678 71.4726 60.7678Z" fill="#FF3D2E"/>
<path d="M47.1253 63.4598C46.3503 64.2572 45.2975 64.6893 44.1898 64.6893C41.9193 64.6893 40.2684 62.9059 40.2684 60.4581C40.2684 57.999 41.9193 56.2156 44.1898 56.2156C45.2868 56.2156 46.3278 56.6472 47.1146 57.434L47.4244 57.7443L48.7869 56.3817L48.4878 56.0714C47.3581 54.9082 45.8295 54.2773 44.1898 54.2773C40.8447 54.2773 38.3301 56.9356 38.3301 60.4688C38.3301 63.9912 40.8559 66.6388 44.1898 66.6388C45.8407 66.6388 47.3693 65.9968 48.499 64.8335L48.7981 64.5232L47.4468 63.1388L47.1253 63.4598Z" fill="#17313B"/>
</g>
<rect x="27.2061" y="45.738" width="67.0141" height="0.430682" rx="0.215341" fill="#17313B"/>
<rect x="27.2061" y="74.4211" width="67.0141" height="0.430682" rx="0.215341" fill="#17313B"/>
<defs>
<clipPath id="clip0_2241_42806">
<rect width="44.7909" height="12.7385" fill="white" transform="translate(38.3193 53.9202)"/>
</clipPath>
</defs>
</svg>
