<svg width="120" height="120" viewBox="0 0 120 120" fill="none" xmlns="http://www.w3.org/2000/svg">
<mask id="mask0_1813_7486" style="mask-type:alpha" maskUnits="userSpaceOnUse" x="15" y="38" width="90" height="76">
<rect x="15.0918" y="38.2949" width="89.8189" height="74.8491" fill="#D9D9D9"/>
</mask>
<g mask="url(#mask0_1813_7486)">
<path d="M15.0918 14.3423C15.0918 10.2085 18.4429 6.85742 22.5767 6.85742H97.4258C101.56 6.85742 104.911 10.2085 104.911 14.3423V68.2337C104.911 93.0365 84.804 113.143 60.0013 113.143C35.1985 113.143 15.0918 93.0365 15.0918 68.2337V14.3423Z" fill="#80161A"/>
</g>
<mask id="mask1_1813_7486" style="mask-type:alpha" maskUnits="userSpaceOnUse" x="15" y="6" width="90" height="30">
<rect x="15.0918" y="6.85742" width="89.8189" height="28.4427" fill="#D9D9D9"/>
</mask>
<g mask="url(#mask1_1813_7486)">
<path d="M15.0918 14.3423C15.0918 10.2085 18.4429 6.85742 22.5767 6.85742H97.4258C101.56 6.85742 104.911 10.2085 104.911 14.3423V68.2337C104.911 93.0365 84.804 113.143 60.0013 113.143C35.1985 113.143 15.0918 93.0365 15.0918 68.2337V14.3423Z" fill="#80161A"/>
</g>
<path d="M24.8975 20.8453V15.502H26.3484V20.8453H24.8975Z" fill="white"/>
<path d="M31.0009 19.2226C31.0009 19.5539 30.9168 19.8487 30.7487 20.107C30.5806 20.3628 30.3382 20.5626 30.0214 20.7064C29.7047 20.8477 29.3331 20.9184 28.9067 20.9184C28.551 20.9184 28.2525 20.894 28.0113 20.8453C27.7701 20.7941 27.5191 20.7064 27.2584 20.5821V19.2956C27.5337 19.437 27.82 19.5478 28.1173 19.6282C28.4145 19.7062 28.6874 19.7452 28.9359 19.7452C29.1504 19.7452 29.3075 19.7086 29.4074 19.6355C29.5073 19.56 29.5573 19.4638 29.5573 19.3468C29.5573 19.2737 29.5365 19.2104 29.4951 19.1568C29.4561 19.1007 29.3916 19.0447 29.3014 18.9887C29.2137 18.9326 28.9774 18.8181 28.5924 18.6451C28.244 18.4867 27.9821 18.3332 27.8066 18.1846C27.6336 18.036 27.5045 17.8654 27.4192 17.6729C27.3364 17.4805 27.295 17.2526 27.295 16.9895C27.295 16.4973 27.4741 16.1136 27.8322 15.8383C28.1904 15.5629 28.6826 15.4253 29.3087 15.4253C29.8618 15.4253 30.4259 15.5532 31.0009 15.809L30.5587 16.9237C30.0592 16.6947 29.6279 16.5802 29.2649 16.5802C29.0773 16.5802 28.9408 16.6131 28.8555 16.6789C28.7703 16.7446 28.7276 16.8263 28.7276 16.9237C28.7276 17.0285 28.7812 17.1223 28.8884 17.2051C28.9981 17.288 29.2929 17.439 29.7729 17.6583C30.2334 17.8654 30.5526 18.0884 30.7304 18.3271C30.9107 18.5635 31.0009 18.862 31.0009 19.2226Z" fill="white"/>
<path d="M36.8265 18.1663C36.8265 19.0654 36.606 19.7488 36.165 20.2166C35.724 20.6845 35.0784 20.9184 34.228 20.9184C33.3899 20.9184 32.7466 20.6832 32.2983 20.213C31.8524 19.7427 31.6295 19.0581 31.6295 18.159C31.6295 17.2697 31.8512 16.5911 32.2947 16.1233C32.7405 15.6531 33.3874 15.418 34.2353 15.418C35.0857 15.418 35.7301 15.6507 36.1687 16.116C36.6073 16.5814 36.8265 17.2648 36.8265 18.1663ZM33.1499 18.1663C33.1499 19.1994 33.5092 19.7159 34.228 19.7159C34.5935 19.7159 34.8639 19.5905 35.0394 19.3395C35.2172 19.0885 35.3062 18.6975 35.3062 18.1663C35.3062 17.6327 35.216 17.2392 35.0357 16.9859C34.8578 16.73 34.5911 16.6021 34.2353 16.6021C33.5117 16.6021 33.1499 17.1235 33.1499 18.1663Z" fill="white"/>
<path d="M40.5069 15.4253L38.515 20.9184H37.2505L39.2423 15.4253H40.5069Z" fill="white"/>
<path d="M41.1026 20.8453V15.502H42.5535V20.8453H41.1026Z" fill="white"/>
<path d="M46.8844 20.8453H43.7121V15.502H46.8844V16.6606H45.1557V17.5012H46.7565V18.6597H45.1557V19.6684H46.8844V20.8453Z" fill="white"/>
<path d="M50.1992 16.6094C49.8557 16.6094 49.5877 16.7507 49.3952 17.0334C49.2027 17.3136 49.1065 17.701 49.1065 18.1956C49.1065 19.2238 49.4975 19.7379 50.2796 19.7379C50.516 19.7379 50.745 19.705 50.9667 19.6392C51.1884 19.5734 51.4114 19.4942 51.6355 19.4016V20.6223C51.1897 20.8197 50.6853 20.9184 50.1225 20.9184C49.316 20.9184 48.6971 20.6845 48.2659 20.2166C47.837 19.7488 47.6226 19.0727 47.6226 18.1883C47.6226 17.6352 47.7262 17.1491 47.9333 16.73C48.1428 16.3109 48.4425 15.9893 48.8324 15.7652C49.2246 15.5386 49.6851 15.4253 50.2138 15.4253C50.7913 15.4253 51.3432 15.5508 51.8694 15.8017L51.4272 16.9383C51.2299 16.8458 51.0325 16.7678 50.8352 16.7044C50.6378 16.6411 50.4258 16.6094 50.1992 16.6094Z" fill="white"/>
<path d="M58.1483 20.8453H54.2706V19.895L55.5754 18.5757C55.9481 18.1858 56.1918 17.9202 56.3063 17.7789C56.4208 17.6352 56.5 17.5121 56.5439 17.4098C56.5902 17.3075 56.6133 17.2003 56.6133 17.0882C56.6133 16.9493 56.5682 16.8397 56.4781 16.7593C56.3879 16.6789 56.2612 16.6387 56.098 16.6387C55.9299 16.6387 55.7593 16.6874 55.5863 16.7848C55.4158 16.8799 55.2221 17.0212 55.0052 17.2088L54.2121 16.2805C54.4875 16.0344 54.7189 15.859 54.9065 15.7542C55.0941 15.647 55.2976 15.5654 55.5169 15.5093C55.7386 15.4533 55.9871 15.4253 56.2624 15.4253C56.6084 15.4253 56.9166 15.4862 57.1871 15.608C57.46 15.7298 57.6707 15.904 57.8194 16.1306C57.9704 16.3548 58.046 16.607 58.046 16.8872C58.046 17.0967 58.0192 17.2904 57.9656 17.4683C57.9144 17.6461 57.834 17.8216 57.7243 17.9946C57.6147 18.1651 57.4685 18.3454 57.2858 18.5355C57.1055 18.7255 56.7193 19.0861 56.1272 19.6173V19.6538H58.1483V20.8453Z" fill="white"/>
<path d="M59.1972 20.8453L61.0319 16.7044H58.7184V15.5093H62.5742V16.3609L60.692 20.8453H59.1972Z" fill="white"/>
<path d="M66.9416 18.181C66.9416 19.1263 66.7832 19.8195 66.4665 20.2605C66.1497 20.6991 65.6649 20.9184 65.0119 20.9184C64.3735 20.9184 63.8923 20.6893 63.5683 20.2313C63.2442 19.7708 63.0822 19.0873 63.0822 18.181C63.0822 17.2307 63.2406 16.5339 63.5573 16.0904C63.8741 15.647 64.3589 15.4253 65.0119 15.4253C65.6478 15.4253 66.1278 15.6567 66.4519 16.1197C66.7784 16.5802 66.9416 17.2673 66.9416 18.181ZM64.5185 18.181C64.5185 18.7852 64.5563 19.2006 64.6318 19.4272C64.7073 19.6538 64.834 19.7671 65.0119 19.7671C65.1922 19.7671 65.3189 19.6502 65.392 19.4163C65.4675 19.1824 65.5053 18.7706 65.5053 18.181C65.5053 17.5889 65.4675 17.1747 65.392 16.9383C65.3165 16.6996 65.1898 16.5802 65.0119 16.5802C64.834 16.5802 64.7073 16.6947 64.6318 16.9237C64.5563 17.1528 64.5185 17.5718 64.5185 18.181Z" fill="white"/>
<path d="M71.3273 18.181C71.3273 19.1263 71.1689 19.8195 70.8522 20.2605C70.5354 20.6991 70.0506 20.9184 69.3976 20.9184C68.7592 20.9184 68.278 20.6893 67.954 20.2313C67.6299 19.7708 67.4679 19.0873 67.4679 18.181C67.4679 17.2307 67.6263 16.5339 67.943 16.0904C68.2597 15.647 68.7446 15.4253 69.3976 15.4253C70.0335 15.4253 70.5135 15.6567 70.8376 16.1197C71.164 16.5802 71.3273 17.2673 71.3273 18.181ZM68.9042 18.181C68.9042 18.7852 68.942 19.2006 69.0175 19.4272C69.093 19.6538 69.2197 19.7671 69.3976 19.7671C69.5779 19.7671 69.7046 19.6502 69.7777 19.4163C69.8532 19.1824 69.891 18.7706 69.891 18.181C69.891 17.5889 69.8532 17.1747 69.7777 16.9383C69.7021 16.6996 69.5754 16.5802 69.3976 16.5802C69.2197 16.5802 69.093 16.6947 69.0175 16.9237C68.942 17.1528 68.9042 17.5718 68.9042 18.181Z" fill="white"/>
<path d="M75.0332 20.8453H73.5676V18.0165C73.5676 17.6729 73.575 17.3586 73.5896 17.0736C73.4994 17.1832 73.3873 17.2977 73.2533 17.4171L72.6466 17.9178L71.8974 16.9968L73.7321 15.502H75.0332V20.8453Z" fill="white"/>
<path d="M76.2904 20.2386C76.2904 20.0144 76.3562 19.8414 76.4878 19.7196C76.6218 19.5978 76.8155 19.5369 77.0689 19.5369C77.3101 19.5369 77.4953 19.5978 77.6244 19.7196C77.7535 19.8414 77.8181 20.0144 77.8181 20.2386C77.8181 20.4579 77.7511 20.6296 77.6171 20.7539C77.4855 20.8757 77.3028 20.9366 77.0689 20.9366C76.8277 20.9366 76.6376 20.8757 76.4987 20.7539C76.3599 20.6321 76.2904 20.4603 76.2904 20.2386ZM76.2904 17.3513C76.2904 17.1296 76.3574 16.9578 76.4914 16.836C76.6254 16.7142 76.8179 16.6533 77.0689 16.6533C77.3101 16.6533 77.4953 16.7142 77.6244 16.836C77.7535 16.9578 77.8181 17.1296 77.8181 17.3513C77.8181 17.5706 77.7523 17.7424 77.6208 17.8666C77.4892 17.9909 77.3052 18.053 77.0689 18.053C76.8204 18.053 76.6279 17.9909 76.4914 17.8666C76.3574 17.7424 76.2904 17.5706 76.2904 17.3513Z" fill="white"/>
<path d="M82.2403 20.8453H78.3627V19.895L79.6674 18.5757C80.0402 18.1858 80.2838 17.9202 80.3983 17.7789C80.5129 17.6352 80.5921 17.5121 80.6359 17.4098C80.6822 17.3075 80.7053 17.2003 80.7053 17.0882C80.7053 16.9493 80.6603 16.8397 80.5701 16.7593C80.48 16.6789 80.3533 16.6387 80.19 16.6387C80.0219 16.6387 79.8514 16.6874 79.6784 16.7848C79.5078 16.8799 79.3141 17.0212 79.0973 17.2088L78.3042 16.2805C78.5795 16.0344 78.811 15.859 78.9986 15.7542C79.1862 15.647 79.3896 15.5654 79.6089 15.5093C79.8306 15.4533 80.0792 15.4253 80.3545 15.4253C80.7005 15.4253 81.0087 15.4862 81.2791 15.608C81.552 15.7298 81.7628 15.904 81.9114 16.1306C82.0625 16.3548 82.138 16.607 82.138 16.8872C82.138 17.0967 82.1112 17.2904 82.0576 17.4683C82.0064 17.6461 81.926 17.8216 81.8164 17.9946C81.7067 18.1651 81.5606 18.3454 81.3778 18.5355C81.1975 18.7255 80.8113 19.0861 80.2193 19.6173V19.6538H82.2403V20.8453Z" fill="white"/>
<path d="M86.648 18.181C86.648 19.1263 86.4896 19.8195 86.1728 20.2605C85.8561 20.6991 85.3712 20.9184 84.7183 20.9184C84.0799 20.9184 83.5987 20.6893 83.2746 20.2313C82.9506 19.7708 82.7886 19.0873 82.7886 18.181C82.7886 17.2307 82.9469 16.5339 83.2637 16.0904C83.5804 15.647 84.0653 15.4253 84.7183 15.4253C85.3542 15.4253 85.8342 15.6567 86.1582 16.1197C86.4847 16.5802 86.648 17.2673 86.648 18.181ZM84.2249 18.181C84.2249 18.7852 84.2626 19.2006 84.3382 19.4272C84.4137 19.6538 84.5404 19.7671 84.7183 19.7671C84.8986 19.7671 85.0253 19.6502 85.0983 19.4163C85.1739 19.1824 85.2116 18.7706 85.2116 18.181C85.2116 17.5889 85.1739 17.1747 85.0983 16.9383C85.0228 16.6996 84.8961 16.5802 84.7183 16.5802C84.5404 16.5802 84.4137 16.6947 84.3382 16.9237C84.2626 17.1528 84.2249 17.5718 84.2249 18.181Z" fill="white"/>
<path d="M90.3539 20.8453H88.8883V18.0165C88.8883 17.6729 88.8956 17.3586 88.9102 17.0736C88.8201 17.1832 88.708 17.2977 88.574 17.4171L87.9673 17.9178L87.2181 16.9968L89.0528 15.502H90.3539V20.8453Z" fill="white"/>
<path d="M95.2183 16.6606C95.2183 16.9919 95.1172 17.277 94.915 17.5158C94.7127 17.7521 94.4204 17.9239 94.0378 18.0311V18.053C94.9296 18.1651 95.3755 18.5866 95.3755 19.3176C95.3755 19.8146 95.1781 20.2057 94.7834 20.4907C94.3911 20.7758 93.8454 20.9184 93.1461 20.9184C92.8586 20.9184 92.5918 20.8976 92.3457 20.8562C92.102 20.8148 91.8377 20.7393 91.5526 20.6296V19.4309C91.7865 19.5503 92.0241 19.6392 92.2653 19.6977C92.5089 19.7537 92.7331 19.7817 92.9378 19.7817C93.2545 19.7817 93.4848 19.7379 93.6285 19.6502C93.7747 19.56 93.8478 19.4199 93.8478 19.2299C93.8478 19.0837 93.81 18.9716 93.7345 18.8936C93.659 18.8132 93.5371 18.7535 93.369 18.7145C93.2009 18.6731 92.9816 18.6524 92.7112 18.6524H92.3822V17.567H92.7185C93.4519 17.567 93.8186 17.3793 93.8186 17.0041C93.8186 16.8628 93.7637 16.758 93.6541 16.6898C93.5469 16.6216 93.4019 16.5875 93.2192 16.5875C92.8781 16.5875 92.5248 16.702 92.1593 16.931L91.5599 15.9662C91.8426 15.7713 92.1313 15.6324 92.4261 15.5495C92.7234 15.4667 93.0632 15.4253 93.4458 15.4253C93.9989 15.4253 94.4325 15.5349 94.7469 15.7542C95.0612 15.9735 95.2183 16.2756 95.2183 16.6606Z" fill="white"/>
<path d="M37.1341 56.7853L34.0465 46.7245H33.9676C34.0787 48.7712 34.1343 50.1366 34.1343 50.8208V56.7853H31.7046V43.9615H35.4061L38.441 53.7679H38.4936L41.7127 43.9615H45.4143V56.7853H42.8793V50.7155C42.8793 50.429 42.8822 50.0986 42.8881 49.7243C42.8998 49.3501 42.9407 48.356 43.0109 46.7421H42.932L39.6251 56.7853H37.1341Z" fill="white"/>
<path d="M56.2206 53.2241C56.2206 54.3819 55.8025 55.2942 54.9663 55.9608C54.1359 56.6274 52.9781 56.9607 51.4928 56.9607C50.1245 56.9607 48.914 56.7034 47.8615 56.1888V53.6627C48.7269 54.0486 49.4579 54.3205 50.0543 54.4784C50.6566 54.6363 51.2063 54.7153 51.7033 54.7153C52.2998 54.7153 52.7559 54.6012 53.0717 54.3732C53.3933 54.1451 53.5541 53.806 53.5541 53.3557C53.5541 53.1042 53.4839 52.882 53.3436 52.6891C53.2032 52.4902 52.9956 52.3002 52.7208 52.1189C52.4518 51.9376 51.8992 51.6482 51.063 51.2506C50.2794 50.8822 49.6918 50.5284 49.3 50.1892C48.9082 49.8501 48.5953 49.4553 48.3614 49.0051C48.1275 48.5548 48.0106 48.0285 48.0106 47.4262C48.0106 46.2918 48.3936 45.4 49.1596 44.751C49.9315 44.1019 50.9958 43.7773 52.3524 43.7773C53.019 43.7773 53.6535 43.8563 54.2558 44.0142C54.864 44.1721 55.4984 44.3943 56.1592 44.6808L55.2821 46.7947C54.5979 46.514 54.0307 46.3181 53.5804 46.207C53.136 46.0959 52.6974 46.0404 52.2647 46.0404C51.7501 46.0404 51.3554 46.1602 51.0806 46.4C50.8057 46.6397 50.6683 46.9526 50.6683 47.3385C50.6683 47.5783 50.7239 47.7888 50.835 47.9701C50.9461 48.1455 51.1215 48.318 51.3612 48.4876C51.6068 48.6513 52.1828 48.9495 53.0892 49.3823C54.288 49.9553 55.1096 50.5313 55.554 51.1102C55.9984 51.6833 56.2206 52.3879 56.2206 53.2241Z" fill="white"/>
<path d="M65.8428 56.7853H58.6941V43.9615H65.8428V45.286H60.1853V49.4173H65.5007V50.733H60.1853V55.452H65.8428V56.7853Z" fill="white"/>
<path d="M74.1844 45.1106C72.7751 45.1106 71.6611 45.5813 70.8425 46.5228C70.0297 47.4584 69.6233 48.7419 69.6233 50.3734C69.6233 52.0517 70.015 53.3498 70.7986 54.2679C71.5881 55.1801 72.7108 55.6362 74.1668 55.6362C75.0615 55.6362 76.0819 55.4754 77.228 55.1538V56.4608C76.3392 56.7941 75.2428 56.9607 73.9388 56.9607C72.05 56.9607 70.591 56.3877 69.5619 55.2415C68.5385 54.0954 68.0269 52.4669 68.0269 50.3559C68.0269 49.0343 68.2725 47.8765 68.7637 46.8824C69.2607 45.8883 69.9741 45.1223 70.9039 44.5843C71.8395 44.0463 72.9388 43.7773 74.2019 43.7773C75.5469 43.7773 76.7222 44.0229 77.728 44.5141L77.0965 45.7948C76.1258 45.3386 75.1551 45.1106 74.1844 45.1106Z" fill="white"/>
<path d="M80.0261 43.9615H83.6487C85.3503 43.9615 86.5813 44.2159 87.3414 44.7247C88.1016 45.2334 88.4817 46.0374 88.4817 47.1368C88.4817 47.897 88.2683 48.5256 87.8414 49.0226C87.4204 49.5138 86.8035 49.8325 85.9907 49.9787V50.0664C87.9379 50.3997 88.9115 51.4231 88.9115 53.1364C88.9115 54.2825 88.5227 55.1772 87.7449 55.8204C86.973 56.4637 85.8912 56.7853 84.4995 56.7853H80.0261V43.9615ZM81.5172 49.4524H83.9732C85.0258 49.4524 85.7831 49.2887 86.245 48.9612C86.707 48.6279 86.938 48.0695 86.938 47.2859C86.938 46.5666 86.6807 46.0491 86.1661 45.7334C85.6515 45.4117 84.8328 45.2509 83.7101 45.2509H81.5172V49.4524ZM81.5172 50.7155V55.5134H84.1925C85.2275 55.5134 86.0053 55.3146 86.5257 54.917C87.052 54.5135 87.3151 53.8849 87.3151 53.0311C87.3151 52.2359 87.0461 51.6511 86.5082 51.2769C85.976 50.9026 85.1632 50.7155 84.0697 50.7155H81.5172Z" fill="white"/>
<path d="M26.0664 29.3654L24.9663 25.7806H24.9382C24.9778 26.5098 24.9976 26.9964 24.9976 27.2401V29.3654H24.1318V24.7961H25.4507L26.5321 28.2903H26.5509L27.6979 24.7961H29.0168V29.3654H28.1136V27.2026C28.1136 27.1005 28.1146 26.9828 28.1167 26.8495C28.1209 26.7161 28.1354 26.3619 28.1604 25.7868H28.1323L26.954 29.3654H26.0664Z" fill="white"/>
<path d="M32.9673 29.3654L32.636 28.2778H30.9702L30.6389 29.3654H29.595L31.2077 24.7773H32.3922L34.0111 29.3654H32.9673ZM32.4047 27.4652C32.0984 26.4796 31.9255 25.9223 31.8859 25.7931C31.8484 25.6639 31.8213 25.5618 31.8046 25.4868C31.7359 25.7535 31.539 26.413 31.2139 27.4652H32.4047Z" fill="white"/>
<path d="M38.6429 29.3654H37.4115L35.4238 25.9087H35.3957C35.4353 26.5192 35.4551 26.9547 35.4551 27.2151V29.3654H34.5893V24.7961H35.8114L37.796 28.2184H37.8178C37.7866 27.6246 37.771 27.2047 37.771 26.9589V24.7961H38.6429V29.3654Z" fill="white"/>
<path d="M42.5934 29.3654L42.2621 28.2778H40.5963L40.265 29.3654H39.2211L40.8338 24.7773H42.0183L43.6373 29.3654H42.5934ZM42.0309 27.4652C41.7246 26.4796 41.5516 25.9223 41.512 25.7931C41.4745 25.6639 41.4474 25.5618 41.4308 25.4868C41.362 25.7535 41.1651 26.413 40.8401 27.4652H42.0309Z" fill="white"/>
<path d="M45.9501 26.7995H47.7628V29.1685C47.469 29.2643 47.1919 29.331 46.9314 29.3685C46.6731 29.4081 46.4085 29.4279 46.1376 29.4279C45.4479 29.4279 44.9208 29.2258 44.5562 28.8216C44.1936 28.4153 44.0123 27.8329 44.0123 27.0745C44.0123 26.3369 44.2228 25.7618 44.6437 25.3493C45.0666 24.9367 45.6521 24.7305 46.4001 24.7305C46.8689 24.7305 47.3211 24.8242 47.7565 25.0118L47.4346 25.7868C47.1012 25.6202 46.7543 25.5368 46.3939 25.5368C45.9751 25.5368 45.6396 25.6775 45.3875 25.9587C45.1354 26.24 45.0093 26.6182 45.0093 27.0933C45.0093 27.5891 45.1104 27.9684 45.3125 28.2309C45.5167 28.4913 45.8126 28.6216 46.2001 28.6216C46.4022 28.6216 46.6074 28.6007 46.8158 28.5591V27.6058H45.9501V26.7995Z" fill="white"/>
<path d="M51.4851 29.3654H48.8535V24.7961H51.4851V25.5899H49.8224V26.5932H51.3695V27.387H49.8224V28.5653H51.4851V29.3654Z" fill="white"/>
<path d="M54.3761 29.3654L53.2759 25.7806H53.2478C53.2874 26.5098 53.3072 26.9964 53.3072 27.2401V29.3654H52.4415V24.7961H53.7604L54.8418 28.2903H54.8605L56.0075 24.7961H57.3264V29.3654H56.4232V27.2026C56.4232 27.1005 56.4242 26.9828 56.4263 26.8495C56.4305 26.7161 56.4451 26.3619 56.4701 25.7868H56.442L55.2637 29.3654H54.3761Z" fill="white"/>
<path d="M61.1113 29.3654H58.4797V24.7961H61.1113V25.5899H59.4486V26.5932H60.9956V27.387H59.4486V28.5653H61.1113V29.3654Z" fill="white"/>
<path d="M66.1212 29.3654H64.8898L62.9021 25.9087H62.874C62.9136 26.5192 62.9333 26.9547 62.9333 27.2151V29.3654H62.0676V24.7961H63.2896L65.2743 28.2184H65.2961C65.2649 27.6246 65.2493 27.2047 65.2493 26.9589V24.7961H66.1212V29.3654Z" fill="white"/>
<path d="M69.0372 29.3654H68.0683V25.6024H66.8276V24.7961H70.278V25.6024H69.0372V29.3654Z" fill="white"/>
<path d="M75.3411 28.0965C75.3411 28.509 75.1921 28.8341 74.8942 29.0716C74.5983 29.3091 74.1857 29.4279 73.6565 29.4279C73.169 29.4279 72.7377 29.3362 72.3626 29.1529V28.2528C72.671 28.3903 72.9314 28.4872 73.144 28.5434C73.3586 28.5997 73.5544 28.6278 73.7315 28.6278C73.944 28.6278 74.1066 28.5872 74.2191 28.5059C74.3337 28.4247 74.391 28.3038 74.391 28.1434C74.391 28.0538 74.366 27.9746 74.316 27.9058C74.266 27.835 74.192 27.7673 74.0941 27.7027C73.9982 27.6381 73.8013 27.535 73.5034 27.3933C73.2242 27.262 73.0148 27.136 72.8752 27.0151C72.7356 26.8943 72.6241 26.7536 72.5408 26.5932C72.4574 26.4328 72.4157 26.2452 72.4157 26.0306C72.4157 25.6264 72.5522 25.3087 72.8252 25.0774C73.1002 24.8461 73.4794 24.7305 73.9628 24.7305C74.2003 24.7305 74.4264 24.7586 74.641 24.8149C74.8577 24.8711 75.0838 24.9503 75.3192 25.0524L75.0067 25.8056C74.7629 25.7056 74.5608 25.6358 74.4003 25.5962C74.242 25.5566 74.0857 25.5368 73.9315 25.5368C73.7482 25.5368 73.6075 25.5795 73.5096 25.665C73.4117 25.7504 73.3627 25.8619 73.3627 25.9994C73.3627 26.0848 73.3825 26.1598 73.4221 26.2244C73.4617 26.2869 73.5242 26.3484 73.6096 26.4088C73.6971 26.4671 73.9024 26.5734 74.2253 26.7276C74.6525 26.9318 74.9452 27.137 75.1036 27.3433C75.2619 27.5475 75.3411 27.7985 75.3411 28.0965Z" fill="white"/>
<path d="M77.5914 26.6776L78.5446 24.7961H79.5885L78.0727 27.5871V29.3654H77.1101V27.6183L75.5942 24.7961H76.6444L77.5914 26.6776Z" fill="white"/>
<path d="M82.8607 28.0965C82.8607 28.509 82.7118 28.8341 82.4138 29.0716C82.1179 29.3091 81.7054 29.4279 81.1762 29.4279C80.6886 29.4279 80.2573 29.3362 79.8823 29.1529V28.2528C80.1906 28.3903 80.4511 28.4872 80.6636 28.5434C80.8782 28.5997 81.0741 28.6278 81.2512 28.6278C81.4637 28.6278 81.6262 28.5872 81.7387 28.5059C81.8533 28.4247 81.9106 28.3038 81.9106 28.1434C81.9106 28.0538 81.8856 27.9746 81.8356 27.9058C81.7856 27.835 81.7116 27.7673 81.6137 27.7027C81.5179 27.6381 81.321 27.535 81.023 27.3933C80.7438 27.262 80.5344 27.136 80.3948 27.0151C80.2552 26.8943 80.1437 26.7536 80.0604 26.5932C79.9771 26.4328 79.9354 26.2452 79.9354 26.0306C79.9354 25.6264 80.0719 25.3087 80.3448 25.0774C80.6198 24.8461 80.9991 24.7305 81.4824 24.7305C81.72 24.7305 81.946 24.7586 82.1607 24.8149C82.3773 24.8711 82.6034 24.9503 82.8389 25.0524L82.5263 25.8056C82.2825 25.7056 82.0804 25.6358 81.92 25.5962C81.7616 25.5566 81.6054 25.5368 81.4512 25.5368C81.2678 25.5368 81.1272 25.5795 81.0293 25.665C80.9313 25.7504 80.8824 25.8619 80.8824 25.9994C80.8824 26.0848 80.9022 26.1598 80.9418 26.2244C80.9813 26.2869 81.0439 26.3484 81.1293 26.4088C81.2168 26.4671 81.422 26.5734 81.745 26.7276C82.1721 26.9318 82.4649 27.137 82.6232 27.3433C82.7816 27.5475 82.8607 27.7985 82.8607 28.0965Z" fill="white"/>
<path d="M85.4517 29.3654H84.4828V25.6024H83.242V24.7961H86.6924V25.6024H85.4517V29.3654Z" fill="white"/>
<path d="M90.0272 29.3654H87.3957V24.7961H90.0272V25.5899H88.3645V26.5932H89.9116V27.387H88.3645V28.5653H90.0272V29.3654Z" fill="white"/>
<path d="M92.9182 29.3654L91.8181 25.7806H91.7899C91.8295 26.5098 91.8493 26.9964 91.8493 27.2401V29.3654H90.9836V24.7961H92.3025L93.3839 28.2903H93.4026L94.5496 24.7961H95.8685V29.3654H94.9653V27.2026C94.9653 27.1005 94.9664 26.9828 94.9684 26.8495C94.9726 26.7161 94.9872 26.3619 95.0122 25.7868H94.9841L93.8058 29.3654H92.9182Z" fill="white"/>
<path d="M46.6782 60.8649C46.3136 60.8649 46.0312 61.0025 45.8312 61.2775C45.6312 61.5504 45.5312 61.9317 45.5312 62.4214C45.5312 63.4402 45.9135 63.9497 46.6782 63.9497C46.9991 63.9497 47.3876 63.8695 47.844 63.709V64.5216C47.4689 64.6779 47.0501 64.756 46.5876 64.756C45.9229 64.756 45.4145 64.555 45.0624 64.1528C44.7102 63.7486 44.5342 63.1694 44.5342 62.4151C44.5342 61.9401 44.6206 61.5244 44.7936 61.1681C44.9665 60.8097 45.2145 60.5357 45.5374 60.3461C45.8625 60.1544 46.2427 60.0586 46.6782 60.0586C47.122 60.0586 47.5679 60.1659 48.0158 60.3805L47.7033 61.1681C47.5325 61.0868 47.3606 61.016 47.1876 60.9556C47.0147 60.8952 46.8449 60.8649 46.6782 60.8649Z" fill="white"/>
<path d="M51.4506 64.6935H48.8191V60.1242H51.4506V60.9181H49.7879V61.9213H51.335V62.7152H49.7879V63.8934H51.4506V64.6935Z" fill="white"/>
<path d="M53.3759 62.1526H53.6884C53.9947 62.1526 54.2208 62.1015 54.3666 61.9995C54.5125 61.8974 54.5854 61.7369 54.5854 61.5181C54.5854 61.3015 54.5104 61.1473 54.3604 61.0556C54.2124 60.9639 53.9822 60.9181 53.6696 60.9181H53.3759V62.1526ZM53.3759 62.9402V64.6935H52.407V60.1242H53.7384C54.3593 60.1242 54.8187 60.2378 55.1167 60.4649C55.4146 60.6899 55.5636 61.0327 55.5636 61.4931C55.5636 61.7619 55.4897 62.0015 55.3417 62.212C55.1938 62.4203 54.9844 62.5839 54.7135 62.7027C55.4011 63.7299 55.8491 64.3935 56.0574 64.6935H54.9823L53.8916 62.9402H53.3759Z" fill="white"/>
<path d="M58.3952 64.6935H57.4263V60.9306H56.1856V60.1242H59.636V60.9306H58.3952V64.6935Z" fill="white"/>
<path d="M60.3392 64.6935V60.1242H61.3081V64.6935H60.3392Z" fill="white"/>
<path d="M63.4114 64.6935H62.4582V60.1242H65.0773V60.9181H63.4114V62.0963H64.9616V62.8871H63.4114V64.6935Z" fill="white"/>
<path d="M65.9711 64.6935V60.1242H66.94V64.6935H65.9711Z" fill="white"/>
<path d="M70.7217 64.6935H68.0901V60.1242H70.7217V60.9181H69.059V61.9213H70.606V62.7152H69.059V63.8934H70.7217V64.6935Z" fill="white"/>
<path d="M75.4691 62.3651C75.4691 63.1173 75.2545 63.6934 74.8253 64.0935C74.3982 64.4935 73.7804 64.6935 72.972 64.6935H71.6781V60.1242H73.1126C73.8585 60.1242 74.4378 60.3211 74.8503 60.7149C75.2629 61.1087 75.4691 61.6588 75.4691 62.3651ZM74.4628 62.3901C74.4628 61.4088 74.0294 60.9181 73.1626 60.9181H72.6469V63.8934H73.0626C73.996 63.8934 74.4628 63.3923 74.4628 62.3901Z" fill="white"/>
<circle cx="60.0017" cy="88.5935" r="16.4668" stroke="white" stroke-width="1.79638"/>
<path d="M77.6626 72.6046L76.5896 71.4741L75.5166 72.6046L61.1129 87.7796L53.7677 80.0411L52.6947 78.9107L51.6217 80.0411L47.8508 84.0139L46.8842 85.0324L47.8508 86.0508L60.0399 98.8926L61.1129 100.023L62.1859 98.8926L81.4334 78.6143L82.4001 77.5959L81.4334 76.5775L77.6626 72.6046Z" fill="white" stroke="#80161A" stroke-width="2.95874"/>
</svg>
