<svg width="120" height="120" viewBox="0 0 120 120" fill="none" xmlns="http://www.w3.org/2000/svg">
<mask id="mask0_1813_7471" style="mask-type:alpha" maskUnits="userSpaceOnUse" x="15" y="38" width="90" height="76">
<rect x="15.0908" y="38.2949" width="89.8189" height="74.8491" fill="#D9D9D9"/>
</mask>
<g mask="url(#mask0_1813_7471)">
<path d="M15.0908 14.3423C15.0908 10.2085 18.4419 6.85742 22.5757 6.85742H97.4248C101.559 6.85742 104.91 10.2085 104.91 14.3423V68.2337C104.91 93.0365 84.8031 113.143 60.0003 113.143C35.1975 113.143 15.0908 93.0365 15.0908 68.2337V14.3423Z" fill="#80161A"/>
</g>
<mask id="mask1_1813_7471" style="mask-type:alpha" maskUnits="userSpaceOnUse" x="15" y="6" width="90" height="30">
<rect x="15.0908" y="6.85742" width="89.8189" height="28.4427" fill="#D9D9D9"/>
</mask>
<g mask="url(#mask1_1813_7471)">
<path d="M15.0908 14.3423C15.0908 10.2085 18.4419 6.85742 22.5757 6.85742H97.4248C101.559 6.85742 104.91 10.2085 104.91 14.3423V68.2337C104.91 93.0365 84.8031 113.143 60.0003 113.143C35.1975 113.143 15.0908 93.0365 15.0908 68.2337V14.3423Z" fill="#80161A"/>
</g>
<path d="M24.3477 22.4263V14.9458H26.379V22.4263H24.3477Z" fill="white"/>
<path d="M32.8924 20.1545C32.8924 20.6185 32.7748 21.0312 32.5394 21.3928C32.304 21.7509 31.9646 22.0306 31.5212 22.2319C31.0777 22.4297 30.5575 22.5287 29.9606 22.5287C29.4626 22.5287 29.0447 22.4946 28.707 22.4263C28.3693 22.3547 28.018 22.2319 27.653 22.0579V20.2569C28.0385 20.4547 28.4393 20.6099 28.8554 20.7225C29.2716 20.8316 29.6536 20.8862 30.0015 20.8862C30.3017 20.8862 30.5217 20.8351 30.6616 20.7327C30.8014 20.627 30.8714 20.4922 30.8714 20.3285C30.8714 20.2262 30.8424 20.1375 30.7844 20.0624C30.7298 19.984 30.6394 19.9055 30.5132 19.8271C30.3904 19.7486 30.0595 19.5883 29.5206 19.3461C29.0328 19.1244 28.6661 18.9095 28.4205 18.7014C28.1783 18.4933 27.9975 18.2546 27.8781 17.9851C27.7622 17.7156 27.7042 17.3967 27.7042 17.0283C27.7042 16.3392 27.9549 15.802 28.4563 15.4165C28.9577 15.0311 29.6468 14.8384 30.5234 14.8384C31.2978 14.8384 32.0874 15.0174 32.8924 15.3756L32.2733 16.9362C31.5741 16.6155 30.9703 16.4552 30.462 16.4552C30.1994 16.4552 30.0084 16.5013 29.889 16.5934C29.7696 16.6855 29.7099 16.7997 29.7099 16.9362C29.7099 17.0829 29.7849 17.2142 29.935 17.3302C30.0885 17.4461 30.5013 17.6576 31.1733 17.9646C31.8179 18.2546 32.2648 18.5667 32.5138 18.901C32.7662 19.2318 32.8924 19.6497 32.8924 20.1545Z" fill="white"/>
<path d="M41.0484 18.6758C41.0484 19.9345 40.7397 20.8913 40.1222 21.5463C39.5048 22.2012 38.6009 22.5287 37.4104 22.5287C36.237 22.5287 35.3365 22.1995 34.7088 21.5412C34.0846 20.8828 33.7725 19.9243 33.7725 18.6656C33.7725 17.4206 34.0829 16.4706 34.7037 15.8156C35.328 15.1573 36.2336 14.8281 37.4207 14.8281C38.6111 14.8281 39.5134 15.1539 40.1274 15.8054C40.7414 16.4569 41.0484 17.4137 41.0484 18.6758ZM35.901 18.6758C35.901 20.1221 36.4042 20.8453 37.4104 20.8453C37.9221 20.8453 38.3007 20.6696 38.5463 20.3183C38.7953 19.9669 38.9198 19.4195 38.9198 18.6758C38.9198 17.9288 38.7936 17.3779 38.5412 17.0232C38.2922 16.665 37.9187 16.4859 37.4207 16.4859C36.4076 16.4859 35.901 17.2159 35.901 18.6758Z" fill="white"/>
<path d="M50.1099 18.3688C50.1099 19.8322 49.7944 20.8913 49.1633 21.5463C48.5323 22.2012 47.5226 22.5287 46.1343 22.5287C45.6772 22.5287 45.3293 22.5116 45.0905 22.4775V20.876C45.3839 20.9306 45.6772 20.9579 45.9706 20.9579C46.6937 20.9579 47.2514 20.8095 47.6437 20.5127C48.036 20.2125 48.2492 19.7401 48.2833 19.0954H48.2219C48.0889 19.341 47.9575 19.5184 47.8279 19.6275C47.6983 19.7367 47.5397 19.8203 47.3521 19.8782C47.1644 19.9362 46.9308 19.9652 46.6511 19.9652C46.003 19.9652 45.4964 19.7486 45.1314 19.3154C44.7664 18.8822 44.584 18.2853 44.584 17.5246C44.584 16.6957 44.8193 16.0459 45.2901 15.5752C45.7642 15.1044 46.4123 14.8691 47.2344 14.8691C48.1485 14.8691 48.8563 15.1726 49.3578 15.7798C49.8592 16.387 50.1099 17.25 50.1099 18.3688ZM47.2907 16.4859C47.0689 16.4859 46.8881 16.5661 46.7483 16.7264C46.6119 16.8867 46.5436 17.1443 46.5436 17.499C46.5436 17.7787 46.6033 18.0021 46.7227 18.1693C46.8421 18.333 47.0246 18.4149 47.2702 18.4149C47.4919 18.4149 47.6846 18.3347 47.8484 18.1744C48.0121 18.0141 48.094 17.8214 48.094 17.5962C48.094 17.2926 48.0172 17.0317 47.8637 16.8134C47.7136 16.5951 47.5226 16.4859 47.2907 16.4859Z" fill="white"/>
<path d="M56.2243 18.6963C56.2243 20.0198 56.0026 20.9903 55.5591 21.6077C55.1157 22.2217 54.4369 22.5287 53.5227 22.5287C52.629 22.5287 51.9553 22.208 51.5016 21.5667C51.048 20.922 50.8211 19.9652 50.8211 18.6963C50.8211 17.366 51.0429 16.3904 51.4863 15.7696C51.9297 15.1488 52.6085 14.8384 53.5227 14.8384C54.413 14.8384 55.085 15.1624 55.5387 15.8105C55.9958 16.4552 56.2243 17.4171 56.2243 18.6963ZM52.832 18.6963C52.832 19.5423 52.8848 20.1238 52.9906 20.4411C53.0963 20.7583 53.2737 20.9169 53.5227 20.9169C53.7751 20.9169 53.9525 20.7532 54.0549 20.4257C54.1606 20.0983 54.2135 19.5218 54.2135 18.6963C54.2135 17.8674 54.1606 17.2875 54.0549 16.9566C53.9491 16.6224 53.7717 16.4552 53.5227 16.4552C53.2737 16.4552 53.0963 16.6155 52.9906 16.9362C52.8848 17.2568 52.832 17.8435 52.832 18.6963Z" fill="white"/>
<path d="M62.3643 18.6963C62.3643 20.0198 62.1425 20.9903 61.6991 21.6077C61.2557 22.2217 60.5769 22.5287 59.6627 22.5287C58.769 22.5287 58.0953 22.208 57.6416 21.5667C57.1879 20.922 56.9611 19.9652 56.9611 18.6963C56.9611 17.366 57.1828 16.3904 57.6263 15.7696C58.0697 15.1488 58.7485 14.8384 59.6627 14.8384C60.553 14.8384 61.225 15.1624 61.6786 15.8105C62.1357 16.4552 62.3643 17.4171 62.3643 18.6963ZM58.9719 18.6963C58.9719 19.5423 59.0248 20.1238 59.1306 20.4411C59.2363 20.7583 59.4137 20.9169 59.6627 20.9169C59.9151 20.9169 60.0925 20.7532 60.1948 20.4257C60.3006 20.0983 60.3534 19.5218 60.3534 18.6963C60.3534 17.8674 60.3006 17.2875 60.1948 16.9566C60.0891 16.6224 59.9117 16.4552 59.6627 16.4552C59.4137 16.4552 59.2363 16.6155 59.1306 16.9362C59.0248 17.2568 58.9719 17.8435 58.9719 18.6963Z" fill="white"/>
<path d="M67.5525 22.4263H65.5008V18.4661C65.5008 17.9851 65.511 17.5451 65.5315 17.146C65.4053 17.2995 65.2483 17.4598 65.0607 17.6269L64.2114 18.3279L63.1625 17.0385L65.731 14.9458H67.5525V22.4263Z" fill="white"/>
<path d="M69.3127 21.577C69.3127 21.2631 69.4048 21.021 69.589 20.8504C69.7766 20.6799 70.0478 20.5946 70.4025 20.5946C70.7402 20.5946 70.9994 20.6799 71.1802 20.8504C71.361 21.021 71.4514 21.2631 71.4514 21.577C71.4514 21.884 71.3576 22.1244 71.17 22.2984C70.9858 22.469 70.73 22.5542 70.4025 22.5542C70.0648 22.5542 69.7987 22.469 69.6043 22.2984C69.4099 22.1279 69.3127 21.8874 69.3127 21.577ZM69.3127 17.5348C69.3127 17.2244 69.4065 16.9839 69.5941 16.8134C69.7817 16.6428 70.0512 16.5575 70.4025 16.5575C70.7402 16.5575 70.9994 16.6428 71.1802 16.8134C71.361 16.9839 71.4514 17.2244 71.4514 17.5348C71.4514 17.8418 71.3593 18.0823 71.1751 18.2563C70.9909 18.4302 70.7334 18.5172 70.4025 18.5172C70.0546 18.5172 69.7851 18.4302 69.5941 18.2563C69.4065 18.0823 69.3127 17.8418 69.3127 17.5348Z" fill="white"/>
<path d="M77.6425 22.4263H72.2138V21.096L74.0404 19.2489C74.5623 18.7031 74.9034 18.3313 75.0638 18.1335C75.2241 17.9322 75.3349 17.76 75.3963 17.6167C75.4612 17.4734 75.4936 17.3233 75.4936 17.1664C75.4936 16.972 75.4305 16.8185 75.3042 16.7059C75.178 16.5934 75.0007 16.5371 74.7721 16.5371C74.5368 16.5371 74.298 16.6053 74.0558 16.7417C73.817 16.8748 73.5458 17.0726 73.2422 17.3353L72.1319 16.0357C72.5174 15.6911 72.8414 15.4455 73.1041 15.2989C73.3667 15.1488 73.6516 15.0345 73.9586 14.956C74.269 14.8776 74.6169 14.8384 75.0024 14.8384C75.4867 14.8384 75.9182 14.9236 76.2969 15.0942C76.6789 15.2647 76.974 15.5086 77.1821 15.8259C77.3935 16.1397 77.4993 16.4927 77.4993 16.885C77.4993 17.1784 77.4618 17.4495 77.3867 17.6986C77.3151 17.9476 77.2025 18.1932 77.049 18.4354C76.8955 18.6741 76.6909 18.9266 76.435 19.1926C76.1826 19.4587 75.6419 19.9635 74.813 20.7071V20.7583H77.6425V22.4263Z" fill="white"/>
<path d="M83.8132 18.6963C83.8132 20.0198 83.5915 20.9903 83.148 21.6077C82.7046 22.2217 82.0258 22.5287 81.1116 22.5287C80.2179 22.5287 79.5442 22.208 79.0906 21.5667C78.6369 20.922 78.41 19.9652 78.41 18.6963C78.41 17.366 78.6318 16.3904 79.0752 15.7696C79.5187 15.1488 80.1975 14.8384 81.1116 14.8384C82.0019 14.8384 82.6739 15.1624 83.1276 15.8105C83.5847 16.4552 83.8132 17.4171 83.8132 18.6963ZM80.4209 18.6963C80.4209 19.5423 80.4738 20.1238 80.5795 20.4411C80.6852 20.7583 80.8626 20.9169 81.1116 20.9169C81.364 20.9169 81.5414 20.7532 81.6438 20.4257C81.7495 20.0983 81.8024 19.5218 81.8024 18.6963C81.8024 17.8674 81.7495 17.2875 81.6438 16.9566C81.538 16.6224 81.3606 16.4552 81.1116 16.4552C80.8626 16.4552 80.6852 16.6155 80.5795 16.9362C80.4738 17.2568 80.4209 17.8435 80.4209 18.6963Z" fill="white"/>
<path d="M89.0015 22.4263H86.9497V18.4661C86.9497 17.9851 86.9599 17.5451 86.9804 17.146C86.8542 17.2995 86.6973 17.4598 86.5097 17.6269L85.6603 18.3279L84.6114 17.0385L87.18 14.9458H89.0015V22.4263Z" fill="white"/>
<path d="M93.719 17.5246C94.1488 17.5246 94.536 17.6252 94.8805 17.8265C95.2284 18.0243 95.4979 18.3057 95.6889 18.6707C95.8834 19.0357 95.9806 19.457 95.9806 19.9345C95.9806 20.7702 95.7282 21.4115 95.2233 21.8584C94.7219 22.3052 93.9612 22.5287 92.9413 22.5287C92.0681 22.5287 91.3551 22.3939 90.8025 22.1244V20.4667C91.0993 20.6031 91.4336 20.7157 91.8054 20.8044C92.1806 20.893 92.503 20.9374 92.7724 20.9374C93.1477 20.9374 93.4359 20.8589 93.6372 20.702C93.8384 20.5417 93.939 20.3063 93.939 19.9959C93.939 19.7094 93.8367 19.486 93.632 19.3256C93.4274 19.1653 93.117 19.0852 92.7008 19.0852C92.3836 19.0852 92.0408 19.1449 91.6724 19.2642L90.9305 18.8959L91.2119 14.9458H95.4791V16.6292H92.9311L92.839 17.6167C93.105 17.5655 93.2943 17.5382 93.4069 17.5348C93.5195 17.528 93.6235 17.5246 93.719 17.5246Z" fill="white"/>
<path d="M37.1346 57.1564L34.047 47.0956H33.9681C34.0792 49.1423 34.1347 50.5077 34.1347 51.1919V57.1564H31.7051V44.3326H35.4066L38.4415 54.139H38.4941L41.7132 44.3326H45.4147V57.1564H42.8798V51.0866C42.8798 50.8001 42.8827 50.4697 42.8886 50.0954C42.9003 49.7212 42.9412 48.7271 43.0114 47.1132H42.9324L39.6256 57.1564H37.1346Z" fill="white"/>
<path d="M56.2211 53.5952C56.2211 54.753 55.803 55.6653 54.9668 56.3319C54.1364 56.9985 52.9786 57.3318 51.4933 57.3318C50.125 57.3318 48.9145 57.0745 47.862 56.5599V54.0338C48.7274 54.4197 49.4583 54.6916 50.0548 54.8495C50.6571 55.0074 51.2068 55.0863 51.7038 55.0863C52.3003 55.0863 52.7564 54.9723 53.0722 54.7443C53.3938 54.5162 53.5546 54.177 53.5546 53.7268C53.5546 53.4753 53.4844 53.2531 53.3441 53.0602C53.2037 52.8613 52.9961 52.6713 52.7213 52.49C52.4523 52.3087 51.8997 52.0193 51.0635 51.6217C50.2799 51.2533 49.6922 50.8995 49.3005 50.5603C48.9087 50.2212 48.5958 49.8264 48.3619 49.3762C48.128 48.9259 48.0111 48.3996 48.0111 47.7973C48.0111 46.6629 48.3941 45.7711 49.1601 45.1221C49.932 44.473 50.9963 44.1484 52.3529 44.1484C53.0195 44.1484 53.654 44.2274 54.2563 44.3853C54.8644 44.5431 55.4989 44.7654 56.1597 45.0519L55.2825 47.1658C54.5984 46.8851 54.0312 46.6892 53.5809 46.5781C53.1365 46.467 52.6979 46.4115 52.2652 46.4115C51.7506 46.4115 51.3559 46.5313 51.0811 46.7711C50.8062 47.0108 50.6688 47.3237 50.6688 47.7096C50.6688 47.9494 50.7243 48.1599 50.8355 48.3412C50.9466 48.5166 51.122 48.6891 51.3617 48.8587C51.6073 49.0224 52.1833 49.3206 53.0897 49.7533C54.2885 50.3264 55.11 50.9024 55.5545 51.4813C55.9989 52.0544 56.2211 52.759 56.2211 53.5952Z" fill="white"/>
<path d="M65.8433 57.1564H58.6946V44.3326H65.8433V45.6571H60.1857V49.7884H65.5012V51.1041H60.1857V55.8231H65.8433V57.1564Z" fill="white"/>
<path d="M74.1849 45.4817C72.7756 45.4817 71.6616 45.9524 70.843 46.8939C70.0301 47.8295 69.6237 49.113 69.6237 50.7445C69.6237 52.4228 70.0155 53.7209 70.7991 54.639C71.5885 55.5512 72.7113 56.0073 74.1673 56.0073C75.062 56.0073 76.0824 55.8465 77.2285 55.5249V56.8319C76.3397 57.1652 75.2433 57.3318 73.9393 57.3318C72.0505 57.3318 70.5915 56.7588 69.5623 55.6126C68.539 54.4665 68.0274 52.8379 68.0274 50.727C68.0274 49.4054 68.2729 48.2476 68.7641 47.2535C69.2612 46.2594 69.9746 45.4934 70.9044 44.9554C71.84 44.4174 72.9393 44.1484 74.2024 44.1484C75.5473 44.1484 76.7227 44.394 77.7285 44.8852L77.097 46.1659C76.1263 45.7097 75.1556 45.4817 74.1849 45.4817Z" fill="white"/>
<path d="M80.0266 44.3326H83.6492C85.3508 44.3326 86.5817 44.587 87.3419 45.0957C88.1021 45.6045 88.4822 46.4085 88.4822 47.5079C88.4822 48.2681 88.2688 48.8967 87.8419 49.3937C87.4209 49.8849 86.8039 50.2036 85.9911 50.3498V50.4375C87.9384 50.7708 88.912 51.7942 88.912 53.5075C88.912 54.6536 88.5231 55.5483 87.7454 56.1915C86.9735 56.8348 85.8917 57.1564 84.5 57.1564H80.0266V44.3326ZM81.5177 49.8235H83.9737C85.0263 49.8235 85.7835 49.6598 86.2455 49.3323C86.7075 48.999 86.9384 48.4406 86.9384 47.657C86.9384 46.9377 86.6811 46.4202 86.1666 46.1045C85.652 45.7828 84.8333 45.622 83.7106 45.622H81.5177V49.8235ZM81.5177 51.0866V55.8845H84.193C85.228 55.8845 86.0057 55.6857 86.5262 55.2881C87.0525 54.8846 87.3156 54.256 87.3156 53.4022C87.3156 52.607 87.0466 52.0222 86.5086 51.648C85.9765 51.2737 85.1637 51.0866 84.0702 51.0866H81.5177Z" fill="white"/>
<path d="M26.0655 29.9103L24.9653 26.3255H24.9372C24.9768 27.0548 24.9966 27.5413 24.9966 27.7851V29.9103H24.1309V25.341H25.4498L26.5311 28.8352H26.5499L27.6969 25.341H29.0158V29.9103H28.1126V27.7476C28.1126 27.6455 28.1136 27.5277 28.1157 27.3944C28.1199 27.261 28.1345 26.9068 28.1595 26.3318H28.1313L26.9531 29.9103H26.0655Z" fill="white"/>
<path d="M32.9663 29.9103L32.635 28.8227H30.9692L30.6379 29.9103H29.594L31.2067 25.3223H32.3912L34.0102 29.9103H32.9663ZM32.4037 28.0101C32.0974 27.0246 31.9245 26.4672 31.8849 26.338C31.8474 26.2088 31.8203 26.1067 31.8037 26.0317C31.7349 26.2984 31.538 26.9579 31.213 28.0101H32.4037Z" fill="white"/>
<path d="M38.642 29.9103H37.4106L35.4228 26.4537H35.3947C35.4343 27.0641 35.4541 27.4996 35.4541 27.7601V29.9103H34.5884V25.341H35.8104L37.795 28.7633H37.8169C37.7856 28.1695 37.77 27.7496 37.77 27.5038V25.341H38.642V29.9103Z" fill="white"/>
<path d="M42.5924 29.9103L42.2612 28.8227H40.5953L40.264 29.9103H39.2202L40.8329 25.3223H42.0174L43.6363 29.9103H42.5924ZM42.0299 28.0101C41.7236 27.0246 41.5507 26.4672 41.5111 26.338C41.4736 26.2088 41.4465 26.1067 41.4298 26.0317C41.361 26.2984 41.1641 26.9579 40.8391 28.0101H42.0299Z" fill="white"/>
<path d="M45.9491 27.3444H47.7618V29.7134C47.468 29.8093 47.1909 29.8759 46.9305 29.9134C46.6721 29.953 46.4075 29.9728 46.1366 29.9728C45.447 29.9728 44.9198 29.7707 44.5552 29.3665C44.1926 28.9602 44.0114 28.3778 44.0114 27.6194C44.0114 26.8818 44.2218 26.3068 44.6427 25.8942C45.0657 25.4817 45.6511 25.2754 46.3992 25.2754C46.868 25.2754 47.3201 25.3692 47.7556 25.5567L47.4336 26.3318C47.1003 26.1651 46.7534 26.0817 46.3929 26.0817C45.9741 26.0817 45.6386 26.2224 45.3865 26.5037C45.1344 26.7849 45.0084 27.1631 45.0084 27.6382C45.0084 28.1341 45.1094 28.5133 45.3115 28.7758C45.5157 29.0363 45.8116 29.1665 46.1991 29.1665C46.4012 29.1665 46.6065 29.1456 46.8148 29.104V28.1507H45.9491V27.3444Z" fill="white"/>
<path d="M51.4841 29.9103H48.8526V25.341H51.4841V26.1349H49.8214V27.1381H51.3685V27.932H49.8214V29.1102H51.4841V29.9103Z" fill="white"/>
<path d="M54.3751 29.9103L53.275 26.3255H53.2468C53.2864 27.0548 53.3062 27.5413 53.3062 27.7851V29.9103H52.4405V25.341H53.7594L54.8408 28.8352H54.8595L56.0066 25.341H57.3255V29.9103H56.4222V27.7476C56.4222 27.6455 56.4233 27.5277 56.4254 27.3944C56.4295 27.261 56.4441 26.9068 56.4691 26.3318H56.441L55.2627 29.9103H54.3751Z" fill="white"/>
<path d="M61.1103 29.9103H58.4787V25.341H61.1103V26.1349H59.4476V27.1381H60.9946V27.932H59.4476V29.1102H61.1103V29.9103Z" fill="white"/>
<path d="M66.1203 29.9103H64.8889L62.9011 26.4537H62.873C62.9126 27.0641 62.9324 27.4996 62.9324 27.7601V29.9103H62.0667V25.341H63.2887L65.2733 28.7633H65.2952C65.2639 28.1695 65.2483 27.7496 65.2483 27.5038V25.341H66.1203V29.9103Z" fill="white"/>
<path d="M69.0362 29.9103H68.0674V26.1474H66.8266V25.341H70.277V26.1474H69.0362V29.9103Z" fill="white"/>
<path d="M75.3401 28.6414C75.3401 29.054 75.1911 29.379 74.8932 29.6165C74.5973 29.8541 74.1848 29.9728 73.6555 29.9728C73.168 29.9728 72.7367 29.8812 72.3616 29.6978V28.7977C72.67 28.9352 72.9305 29.0321 73.143 29.0883C73.3576 29.1446 73.5534 29.1727 73.7305 29.1727C73.9431 29.1727 74.1056 29.1321 74.2181 29.0508C74.3327 28.9696 74.39 28.8487 74.39 28.6883C74.39 28.5987 74.365 28.5195 74.315 28.4508C74.265 28.3799 74.191 28.3122 74.0931 28.2476C73.9972 28.183 73.8003 28.0799 73.5024 27.9382C73.2232 27.8069 73.0138 27.6809 72.8742 27.56C72.7346 27.4392 72.6231 27.2985 72.5398 27.1381C72.4564 26.9777 72.4148 26.7902 72.4148 26.5755C72.4148 26.1713 72.5512 25.8536 72.8242 25.6223C73.0992 25.391 73.4784 25.2754 73.9618 25.2754C74.1994 25.2754 74.4254 25.3035 74.64 25.3598C74.8567 25.416 75.0828 25.4952 75.3182 25.5973L75.0057 26.3505C74.7619 26.2505 74.5598 26.1807 74.3994 26.1411C74.241 26.1015 74.0848 26.0817 73.9306 26.0817C73.7472 26.0817 73.6066 26.1245 73.5086 26.2099C73.4107 26.2953 73.3618 26.4068 73.3618 26.5443C73.3618 26.6297 73.3815 26.7047 73.4211 26.7693C73.4607 26.8318 73.5232 26.8933 73.6087 26.9537C73.6962 27.0121 73.9014 27.1183 74.2244 27.2725C74.6515 27.4767 74.9442 27.6819 75.1026 27.8882C75.2609 28.0924 75.3401 28.3435 75.3401 28.6414Z" fill="white"/>
<path d="M77.5904 27.2225L78.5436 25.341H79.5875L78.0717 28.132V29.9103H77.1091V28.1632L75.5933 25.341H76.6434L77.5904 27.2225Z" fill="white"/>
<path d="M82.8598 28.6414C82.8598 29.054 82.7108 29.379 82.4128 29.6165C82.117 29.8541 81.7044 29.9728 81.1752 29.9728C80.6876 29.9728 80.2563 29.8812 79.8813 29.6978V28.7977C80.1897 28.9352 80.4501 29.0321 80.6626 29.0883C80.8772 29.1446 81.0731 29.1727 81.2502 29.1727C81.4627 29.1727 81.6252 29.1321 81.7378 29.0508C81.8524 28.9696 81.9097 28.8487 81.9097 28.6883C81.9097 28.5987 81.8847 28.5195 81.8346 28.4508C81.7846 28.3799 81.7107 28.3122 81.6127 28.2476C81.5169 28.183 81.32 28.0799 81.022 27.9382C80.7428 27.8069 80.5334 27.6809 80.3938 27.56C80.2542 27.4392 80.1428 27.2985 80.0594 27.1381C79.9761 26.9777 79.9344 26.7902 79.9344 26.5755C79.9344 26.1713 80.0709 25.8536 80.3438 25.6223C80.6189 25.391 80.9981 25.2754 81.4815 25.2754C81.719 25.2754 81.9451 25.3035 82.1597 25.3598C82.3764 25.416 82.6024 25.4952 82.8379 25.5973L82.5253 26.3505C82.2816 26.2505 82.0795 26.1807 81.919 26.1411C81.7607 26.1015 81.6044 26.0817 81.4502 26.0817C81.2669 26.0817 81.1262 26.1245 81.0283 26.2099C80.9304 26.2953 80.8814 26.4068 80.8814 26.5443C80.8814 26.6297 80.9012 26.7047 80.9408 26.7693C80.9804 26.8318 81.0429 26.8933 81.1283 26.9537C81.2158 27.0121 81.4211 27.1183 81.744 27.2725C82.1711 27.4767 82.4639 27.6819 82.6222 27.8882C82.7806 28.0924 82.8598 28.3435 82.8598 28.6414Z" fill="white"/>
<path d="M85.4507 29.9103H84.4818V26.1474H83.2411V25.341H86.6915V26.1474H85.4507V29.9103Z" fill="white"/>
<path d="M90.0262 29.9103H87.3947V25.341H90.0262V26.1349H88.3635V27.1381H89.9106V27.932H88.3635V29.1102H90.0262V29.9103Z" fill="white"/>
<path d="M92.9172 29.9103L91.8171 26.3255H91.789C91.8286 27.0548 91.8483 27.5413 91.8483 27.7851V29.9103H90.9826V25.341H92.3015L93.3829 28.8352H93.4017L94.5487 25.341H95.8676V29.9103H94.9643V27.7476C94.9643 27.6455 94.9654 27.5277 94.9675 27.3944C94.9716 27.261 94.9862 26.9068 95.0112 26.3318H94.9831L93.8048 29.9103H92.9172Z" fill="white"/>
<path d="M46.6772 61.4118C46.3126 61.4118 46.0303 61.5493 45.8302 61.8244C45.6302 62.0973 45.5302 62.4786 45.5302 62.9683C45.5302 63.9871 45.9125 64.4966 46.6772 64.4966C46.9981 64.4966 47.3867 64.4163 47.843 64.2559V65.0685C47.4679 65.2248 47.0491 65.3029 46.5866 65.3029C45.9219 65.3029 45.4135 65.1018 45.0614 64.6997C44.7093 64.2955 44.5332 63.7163 44.5332 62.962C44.5332 62.4869 44.6197 62.0713 44.7926 61.715C44.9655 61.3566 45.2135 61.0826 45.5364 60.893C45.8615 60.7013 46.2417 60.6055 46.6772 60.6055C47.121 60.6055 47.5669 60.7128 48.0149 60.9274L47.7023 61.715C47.5315 61.6337 47.3596 61.5629 47.1866 61.5025C47.0137 61.442 46.8439 61.4118 46.6772 61.4118Z" fill="white"/>
<path d="M51.4497 65.2404H48.8181V60.6711H51.4497V61.4649H49.787V62.4682H51.334V63.262H49.787V64.4403H51.4497V65.2404Z" fill="white"/>
<path d="M53.3749 62.6995H53.6874C53.9937 62.6995 54.2198 62.6484 54.3656 62.5463C54.5115 62.4442 54.5844 62.2838 54.5844 62.065C54.5844 61.8483 54.5094 61.6941 54.3594 61.6025C54.2114 61.5108 53.9812 61.4649 53.6687 61.4649H53.3749V62.6995ZM53.3749 63.4871V65.2404H52.406V60.6711H53.7374C54.3583 60.6711 54.8178 60.7847 55.1157 61.0118C55.4137 61.2368 55.5626 61.5795 55.5626 62.04C55.5626 62.3088 55.4887 62.5484 55.3407 62.7589C55.1928 62.9672 54.9834 63.1308 54.7125 63.2495C55.4001 64.2767 55.8481 64.9404 56.0565 65.2404H54.9813L53.8906 63.4871H53.3749Z" fill="white"/>
<path d="M58.3942 65.2404H57.4254V61.4774H56.1846V60.6711H59.635V61.4774H58.3942V65.2404Z" fill="white"/>
<path d="M60.3382 65.2404V60.6711H61.3071V65.2404H60.3382Z" fill="white"/>
<path d="M63.4105 65.2404H62.4572V60.6711H65.0763V61.4649H63.4105V62.6432H64.9606V63.4339H63.4105V65.2404Z" fill="white"/>
<path d="M65.9701 65.2404V60.6711H66.939V65.2404H65.9701Z" fill="white"/>
<path d="M70.7207 65.2404H68.0891V60.6711H70.7207V61.4649H69.058V62.4682H70.6051V63.262H69.058V64.4403H70.7207V65.2404Z" fill="white"/>
<path d="M75.4682 62.912C75.4682 63.6642 75.2535 64.2403 74.8243 64.6403C74.3972 65.0404 73.7794 65.2404 72.971 65.2404H71.6771V60.6711H73.1116C73.8575 60.6711 74.4368 60.868 74.8493 61.2618C75.2619 61.6556 75.4682 62.2057 75.4682 62.912ZM74.4618 62.937C74.4618 61.9556 74.0284 61.4649 73.1616 61.4649H72.6459V64.4403H73.0616C73.9951 64.4403 74.4618 63.9392 74.4618 62.937Z" fill="white"/>
<circle cx="59.9998" cy="88.5935" r="16.4668" stroke="white" stroke-width="1.79638"/>
<path d="M77.6616 72.6046L76.5886 71.4741L75.5156 72.6046L61.1119 87.7796L53.7667 80.0411L52.6937 78.9107L51.6207 80.0411L47.8499 84.0139L46.8832 85.0324L47.8499 86.0508L60.0389 98.8926L61.1119 100.023L62.1849 98.8926L81.4325 78.6143L82.3991 77.5959L81.4325 76.5775L77.6616 72.6046Z" fill="white" stroke="#80161A" stroke-width="2.95874"/>
</svg>
