<svg width="118" height="40" viewBox="0 0 118 40" fill="none" xmlns="http://www.w3.org/2000/svg">
<path fill-rule="evenodd" clip-rule="evenodd" d="M19.1195 17.7224L22.0326 14.3565L22.1632 14.2197C24.0674 12.2533 26.4321 11.1006 28.1692 11.7749C29.3374 12.2285 30.6932 13.2737 30.6239 15.2595L30.5587 29.8599C30.5084 31.2999 30.1908 32.4914 28.9043 32.8642C28.6031 32.9515 28.2878 32.9795 27.9759 32.9467C21.5007 32.2662 12.7159 31.4065 12.7159 31.4065C11.655 31.3028 11.1397 31.1473 10.5596 30.5488C10.2475 30.2268 10.0583 29.7313 10.0583 28.9861L10.4877 16.6909C10.5276 15.548 10.8406 14.7827 11.7115 14.589C12.677 14.3743 13.3057 14.8703 13.5609 15.3077L15.1224 18.1396C15.4451 18.7216 15.6862 19.1532 15.8458 19.4345C16.3043 20.1396 17.0156 20.1572 17.6262 19.4478L19.1195 17.7224Z" fill="#26B2C5"/>
<path fill-rule="evenodd" clip-rule="evenodd" d="M13.7258 22.0767L16.5797 25.4928L16.7079 25.632C18.5775 27.6313 20.9217 28.8251 22.6703 28.1812C23.8462 27.748 25.2201 26.7267 25.1854 24.74L25.375 10.1407C25.3499 8.7 25.0531 7.50314 23.7734 7.10796C23.4737 7.01542 23.1589 6.98189 22.8465 7.00923C16.3605 7.57668 7.56192 8.2829 7.56192 8.2829C6.49941 8.36805 5.98151 8.5145 5.39099 9.10283C5.07332 9.41931 4.87555 9.91142 4.86255 10.6565L5.07726 22.9574C5.09722 24.1008 5.39687 24.8714 6.26424 25.0803C7.22584 25.3119 7.86311 24.8269 8.12583 24.394L9.73661 21.5898C10.0693 21.0135 10.318 20.5862 10.4825 20.3077C10.9532 19.6107 11.6647 19.6055 12.2628 20.3255L13.7258 22.0767Z" fill="#EE306E"/>
<path fill-rule="evenodd" clip-rule="evenodd" d="M10.4783 20.3552C10.488 20.3388 10.4973 20.3229 10.5063 20.3077C10.9771 19.6106 11.7029 19.6233 12.301 20.3433L12.3012 20.3429L16.6036 25.4928C18.4932 27.5754 20.9053 28.8398 22.6941 28.1811C23.87 27.748 25.2439 26.7266 25.2092 24.7399L25.3748 11.9927C24.2717 12.4609 23.144 13.2975 22.1513 14.3538L17.7597 19.4279L17.7595 19.4274C17.1489 20.1369 16.423 20.1369 15.9645 19.4318C15.4303 18.4906 13.6795 15.305 13.6795 15.305C13.4244 14.8676 12.7957 14.3716 11.8302 14.5863C10.9593 14.78 10.6462 15.5453 10.6063 16.6882L10.4783 20.3552Z" fill="#0D1D47"/>
<path fill-rule="evenodd" clip-rule="evenodd" d="M72.2006 15.8364V17.6772H70.0393V15.8364H72.2006ZM37.2754 22.1065V28.0233H35.2703V15.9843H37.8999L41.5404 24.6787L45.2055 15.9843H47.8023V28.0233H45.7478V22.0737L45.8136 18.6633L45.5095 19.5673L42.4279 27.2015H40.5214L37.5055 19.5262L37.2014 18.6222L37.2754 22.1065ZM54.1423 27.8877C53.7122 28.0931 53.1904 28.1958 52.5768 28.1958C51.7386 28.1958 51.0607 27.9644 50.5429 27.5014C50.0252 27.0385 49.7664 26.3715 49.7664 25.5004C49.7664 24.5636 50.0732 23.8692 50.6868 23.4173C51.3003 22.9653 52.2262 22.679 53.4643 22.5585C53.6342 22.5366 53.8177 22.5147 54.0149 22.4928C54.2121 22.4708 54.434 22.4489 54.6806 22.427C54.9271 22.4051 55.1216 22.3859 55.264 22.3695V21.8929C55.264 21.345 55.138 20.9465 54.886 20.6972C54.634 20.4479 54.2505 20.3233 53.7355 20.3233C53.0014 20.3233 52.0947 20.5287 51.0155 20.9396C51.0102 20.9238 50.9267 20.6935 50.7649 20.2485L50.7443 20.1918C50.569 19.7097 50.4786 19.4632 50.4731 19.4522C51.5359 18.9975 52.6864 18.7701 53.9245 18.7701C55.1407 18.7701 56.0255 19.0345 56.5788 19.5632C57.1322 20.0918 57.4088 20.9478 57.4088 22.1312V28.0233H55.8146C55.8091 28.0014 55.7489 27.8178 55.6338 27.4727C55.5188 27.1275 55.4612 26.944 55.4612 26.9221C55.012 27.3604 54.5724 27.6822 54.1423 27.8877ZM53.1602 26.6673C52.7438 26.6673 52.4233 26.5646 52.1987 26.3592C51.9741 26.1537 51.8618 25.8593 51.8618 25.4758C51.8618 24.917 52.0645 24.5116 52.4699 24.2596C52.8753 24.0076 53.5135 23.8432 54.3846 23.7665C54.4065 23.7665 54.5531 23.7555 54.8242 23.7336C55.0954 23.7117 55.2392 23.7008 55.2557 23.7008V25.4429C55.0968 25.7826 54.8325 26.0716 54.4627 26.3099C54.0929 26.5482 53.6587 26.6673 53.1602 26.6673ZM64.2542 31.9637C63.7721 32.0321 63.2297 32.0664 62.6271 32.0664H61.3862L61.2629 30.3242H62.3559C63.6214 30.3242 64.5062 30.1558 65.0102 29.8188C65.5142 29.4819 65.7662 28.8642 65.7662 27.9657C65.7662 27.5987 65.7498 27.2015 65.7169 26.7742C65.5745 26.9714 65.4389 27.1344 65.3101 27.2631C65.1814 27.3919 65.0198 27.5193 64.8253 27.6453C64.6308 27.7713 64.398 27.8658 64.1268 27.9288C63.8556 27.9918 63.5474 28.0233 63.2023 28.0233C62.008 28.0233 61.026 27.5932 60.2563 26.7331C59.4865 25.873 59.1017 24.7636 59.1017 23.4049C59.1017 22.6818 59.2085 22.023 59.4222 21.4286C59.6358 20.8342 59.9262 20.3452 60.2932 19.9617C60.6603 19.5782 61.0835 19.2837 61.5629 19.0783C62.0422 18.8729 62.5531 18.7701 63.0955 18.7701C64.3062 18.7701 65.2074 19.2112 65.7991 20.0932L65.947 18.992H67.87V27.3823C67.87 27.8315 67.848 28.2356 67.8042 28.5944C67.7604 28.9532 67.6837 29.2984 67.5741 29.6298C67.4645 29.9613 67.3207 30.2503 67.1427 30.4968C66.9646 30.7433 66.7414 30.9679 66.4729 31.1707C66.2045 31.3734 65.8881 31.5391 65.5238 31.6678C65.1595 31.7966 64.7363 31.8952 64.2542 31.9637ZM63.5474 26.5194C62.8352 26.5194 62.275 26.2209 61.8669 25.6237C61.4587 25.0266 61.2546 24.287 61.2546 23.4049C61.2546 22.49 61.4574 21.7628 61.8628 21.2231C62.2682 20.6835 62.8653 20.4137 63.6542 20.4137C64.35 20.4192 64.8787 20.6657 65.2402 21.1533C65.6018 21.6409 65.7881 22.3311 65.799 23.2241V23.5364C65.7826 25.5251 65.0321 26.5194 63.5474 26.5194ZM72.1924 28.0233V18.992H70.0393V28.0233H72.1924ZM79.8348 28.0315C79.4294 28.1411 78.9473 28.1958 78.3885 28.1958C77.0079 28.1958 75.9328 27.785 75.1631 26.9632C74.3933 26.1414 74.0085 24.9663 74.0085 23.4378C74.0085 21.9586 74.4125 20.8109 75.2206 19.9946C76.0287 19.1783 77.0929 18.7701 78.4132 18.7701C79.4705 18.7701 80.3635 18.9975 81.0921 19.4522L80.5826 20.9889C79.8376 20.6 79.1445 20.4055 78.5036 20.4055C77.7749 20.4055 77.2011 20.6657 76.7819 21.1861C76.3628 21.7066 76.1533 22.4654 76.1533 23.4624C76.1533 24.4705 76.3601 25.2375 76.7737 25.7634C77.1874 26.2893 77.7722 26.5523 78.5282 26.5523C79.3171 26.5523 80.0759 26.3195 80.8045 25.8538L81.01 27.4891C80.6319 27.7411 80.2402 27.9219 79.8348 28.0315ZM85.1516 28.0233V22.6653H90.5918V28.0233H92.8187V15.9843H90.5918V20.9067H85.1516V15.9843H82.9246V28.0233H85.1516ZM97.4206 15.8364V17.6772H95.2593V15.8364H97.4206ZM97.4124 28.0233V18.992H95.2593V28.0233H97.4124ZM101.817 23.1255V28.0233H99.6642V18.992H101.472L101.751 20.3726C102.343 19.4248 103.201 18.9509 104.324 18.9509C104.559 18.9509 104.751 18.9619 104.899 18.9838L104.866 20.7835C104.647 20.7506 104.419 20.7342 104.184 20.7342C103.39 20.7342 102.797 20.9451 102.405 21.3669C102.013 21.7888 101.817 22.375 101.817 23.1255ZM110.306 28.1958C111.555 28.1958 112.632 27.9164 113.536 27.3576L113.232 25.8291C112.322 26.3441 111.374 26.6016 110.388 26.6016C109.616 26.6016 109.009 26.3701 108.568 25.9072C108.127 25.4443 107.896 24.791 107.874 23.9473H113.881C113.881 23.8487 113.882 23.6953 113.885 23.4871C113.888 23.2789 113.889 23.1283 113.889 23.0351C113.889 21.7477 113.545 20.715 112.858 19.9371C112.17 19.1591 111.205 18.7701 109.961 18.7701C108.646 18.7756 107.608 19.2029 106.847 20.0521C106.085 20.9013 105.704 22.0435 105.704 23.4789C105.704 24.9526 106.108 26.1072 106.916 26.9426C107.724 27.7781 108.854 28.1958 110.306 28.1958ZM107.915 22.5914H111.859C111.859 21.8573 111.692 21.293 111.358 20.8985C111.024 20.5041 110.561 20.3069 109.969 20.3069C109.416 20.3069 108.949 20.4986 108.568 20.8821C108.187 21.2656 107.97 21.8353 107.915 22.5914Z" fill="white"/>
</svg>
