<svg width="118" height="40" viewBox="0 0 118 40" fill="none" xmlns="http://www.w3.org/2000/svg">
<path fill-rule="evenodd" clip-rule="evenodd" d="M80.8153 16.5548V25.6229H79.051V16.5548H77.5742V15.1612H79.051V13.5124C79.0774 12.7796 79.2063 12.2431 79.4376 11.9029C79.8538 11.301 80.6567 11 81.8461 11C81.9584 11 82.074 11.0033 82.193 11.0098C82.3119 11.0164 82.4474 11.0262 82.5993 11.0393V12.6488C82.4143 12.6357 82.2805 12.6275 82.1979 12.6242C82.1153 12.621 82.0377 12.6193 81.965 12.6193C81.4232 12.6193 81.0994 12.7584 80.9937 13.0364C80.8879 13.3145 80.8351 14.0227 80.8351 15.1612H82.5993V16.5548H80.8153ZM65.2106 13.6498V11.0687H62.3461V13.6498H65.2106ZM41.8842 25.9566C42.6507 25.9566 43.3379 25.7832 43.9458 25.4365C44.4546 25.142 44.904 24.7855 45.2938 24.3667C45.3136 24.6088 45.3401 24.8247 45.3731 25.0145C45.4061 25.2042 45.4656 25.407 45.5515 25.6229H48.6241V25.2107C48.4391 25.1257 48.3003 25.0177 48.2078 24.8869C48.1153 24.756 48.0591 24.5074 48.0393 24.141C48.0261 23.6568 48.0195 23.2447 48.0195 22.9044V17.9974C48.0195 16.7085 47.5603 15.8318 46.6418 15.3672C45.7233 14.9027 44.6727 14.6704 43.4899 14.6704C41.6728 14.6704 40.3909 15.1415 39.6442 16.0837C39.1751 16.6856 38.9108 17.4544 38.8513 18.39H41.577C41.6431 17.9778 41.7752 17.6506 41.9734 17.4086C42.251 17.0814 42.7234 16.9179 43.3908 16.9179C43.9855 16.9179 44.4365 17.0013 44.7437 17.1681C45.051 17.335 45.2046 17.6376 45.2046 18.0759C45.2046 18.4358 45.0031 18.7007 44.6 18.8709C44.3753 18.969 44.002 19.0508 43.48 19.1162L42.5186 19.234C41.4283 19.3714 40.6023 19.6004 40.0407 19.921C39.0165 20.5098 38.5044 21.4618 38.5044 22.7768C38.5044 23.791 38.8232 24.5745 39.4609 25.1273C40.0985 25.6802 40.9063 25.9566 41.8842 25.9566ZM24.314 25.6229V19.1849C24.314 18.6026 24.39 18.1643 24.542 17.8698C24.8195 17.353 25.3613 17.0945 26.1675 17.0945C26.8613 17.0945 27.3271 17.353 27.565 17.8698C27.6972 18.1577 27.7632 18.619 27.7632 19.2536V25.6229H30.6079V19.2536C30.6079 18.776 30.6838 18.3671 30.8358 18.0269C31.1332 17.3857 31.6717 17.0651 32.4514 17.0651C33.1254 17.0651 33.5879 17.3137 33.839 17.811C33.9712 18.0727 34.0373 18.4063 34.0373 18.812V25.6229H36.9314L36.9513 18.8807C36.9513 18.1872 36.9182 17.6605 36.8521 17.3006C36.7464 16.7576 36.5416 16.2996 36.2376 15.9267C35.861 15.4687 35.4414 15.1481 34.9789 14.9649C34.5163 14.7817 34.0472 14.6901 33.5714 14.6901C32.8578 14.6901 32.2102 14.8373 31.6287 15.1317C31.0803 15.4261 30.6211 15.8874 30.251 16.5155C30.0396 15.9921 29.729 15.5635 29.3194 15.2299C28.8106 14.87 28.1432 14.6901 27.3172 14.6901C26.445 14.6901 25.7347 14.8994 25.1862 15.3182C24.8757 15.5537 24.5453 15.9496 24.1951 16.5057V14.9452H21.4496V25.6229H24.314ZM41.7404 23.6062C42.008 23.8188 42.3335 23.9251 42.7167 23.9251C43.3246 23.9251 43.8846 23.7485 44.3967 23.3952C44.9088 23.0419 45.1748 22.3974 45.1946 21.4618V20.4215C45.0162 20.5327 44.8361 20.6227 44.6544 20.6914C44.4727 20.7601 44.2233 20.8239 43.9061 20.8828L43.2717 21.0005C42.6771 21.1052 42.2509 21.2328 41.9932 21.3833C41.5571 21.6384 41.339 22.0343 41.339 22.5708C41.339 23.0484 41.4728 23.3935 41.7404 23.6062ZM54.6378 30C56.9241 30 58.4703 29.3981 59.2764 28.1942C59.7456 27.4941 59.9802 26.4538 59.9802 25.0733V14.9256H57.2346V16.4664C56.8118 15.714 56.2567 15.1971 55.5695 14.9158C55.1664 14.7522 54.694 14.6704 54.1522 14.6704C52.6852 14.6704 51.552 15.2118 50.7525 16.2947C49.953 17.3775 49.5532 18.7138 49.5532 20.3037C49.5532 21.9525 49.9678 23.2594 50.7971 24.2244C51.6264 25.1895 52.7348 25.672 54.1224 25.672C55.0211 25.672 55.7512 25.4594 56.3129 25.0341C56.6234 24.8051 56.9142 24.4616 57.1851 24.0036V24.6906C57.1851 25.7113 57.0728 26.4375 56.8481 26.8693C56.5045 27.5432 55.8239 27.8802 54.8063 27.8802C54.0861 27.8802 53.574 27.7526 53.27 27.4974C53.0916 27.3535 52.9628 27.1179 52.8835 26.7908H49.8109C49.9034 27.8573 50.3858 28.6587 51.258 29.1952C52.1302 29.7317 53.2568 30 54.6378 30ZM52.7942 21.9721C53.1774 22.875 53.8646 23.3265 54.8558 23.3265C55.5165 23.3265 56.0749 23.0795 56.5308 22.5855C56.9867 22.0915 57.2147 21.3048 57.2147 20.2252C57.2147 19.2111 56.9983 18.4391 56.5655 17.9091C56.1327 17.3791 55.5529 17.1142 54.826 17.1142C53.8349 17.1142 53.151 17.5754 52.7743 18.4979C52.5761 18.9886 52.477 19.5938 52.477 20.3135C52.477 20.9351 52.5827 21.488 52.7942 21.9721ZM65.2106 14.9256V25.6229H62.3461V14.9256H65.2106ZM72.086 25.9959C73.8238 25.9959 75.1354 25.3841 76.0209 24.1606C76.5759 23.4017 76.8865 22.5969 76.9525 21.7464H74.0683C74.0088 22.309 73.8403 22.767 73.5628 23.1203C73.2853 23.4736 72.8161 23.6503 72.1553 23.6503C71.2237 23.6503 70.5893 23.2054 70.2523 22.3156C70.0673 21.838 69.9748 21.2066 69.9748 20.4215C69.9748 19.5971 70.0673 18.9363 70.2523 18.439C70.6025 17.5034 71.2534 17.0356 72.2049 17.0356C72.8723 17.0356 73.3646 17.2515 73.6817 17.6834C73.8998 18.0039 74.0352 18.3638 74.0881 18.7629H76.9823C76.8237 17.2385 76.3132 16.1753 75.4509 15.5733C74.5886 14.9714 73.4802 14.6704 72.1256 14.6704C70.5332 14.6704 69.2843 15.1808 68.379 16.2014C67.4738 17.2221 67.0212 18.6517 67.0212 20.4902C67.0212 22.1193 67.4308 23.4442 68.2502 24.4649C69.0695 25.4855 70.3481 25.9959 72.086 25.9959ZM87.4334 25.9075C88.4047 25.9075 89.2307 25.6328 89.9113 25.0832C90.2549 24.8084 90.5423 24.4714 90.7736 24.0723L90.7538 25.6229H92.4387V15.1121H90.6547V20.2743C90.6547 21.3015 90.5324 22.1095 90.2879 22.6983C89.8386 23.7975 88.9928 24.3471 87.7506 24.3471C86.885 24.3471 86.2936 24.0331 85.9764 23.405C85.8046 23.0647 85.7187 22.6264 85.7187 22.0899V15.1121H83.895V22.2567C83.895 23.1531 84.0436 23.8695 84.341 24.406C84.8894 25.407 85.9202 25.9075 87.4334 25.9075ZM101.946 25.0047C101.229 25.6851 100.137 26.0253 98.6703 26.0253C97.0911 26.0253 95.9727 25.6704 95.3152 24.9605C94.6578 24.2506 94.3059 23.3722 94.2597 22.3254H95.9744C96.0272 22.9143 96.1759 23.3657 96.4204 23.6798C96.8697 24.249 97.6494 24.5336 98.7595 24.5336C99.4203 24.5336 100.002 24.3913 100.504 24.1067C101.006 23.8221 101.257 23.3821 101.257 22.7867C101.257 22.3352 101.056 21.9917 100.653 21.7562C100.395 21.6123 99.8861 21.4454 99.1262 21.2557L97.7089 20.9024C96.8036 20.6799 96.1362 20.4313 95.7067 20.1565C94.9403 19.6789 94.557 19.0181 94.557 18.1741C94.557 17.1796 94.9188 16.3748 95.6423 15.7598C96.3659 15.1448 97.3388 14.8373 98.5613 14.8373C100.16 14.8373 101.313 15.3018 102.02 16.2309C102.463 16.8197 102.678 17.4544 102.665 18.1348H100.98C100.947 17.7357 100.805 17.3726 100.553 17.0455C100.144 16.5809 99.4335 16.3487 98.4225 16.3487C97.7485 16.3487 97.2381 16.4762 96.8912 16.7314C96.5443 16.9866 96.3708 17.3235 96.3708 17.7423C96.3708 18.2002 96.5988 18.5666 97.0547 18.8414C97.319 19.005 97.7089 19.1489 98.2243 19.2732L99.4038 19.5579C100.686 19.8654 101.545 20.1631 101.981 20.4509C102.675 20.9024 103.021 21.6123 103.021 22.5806C103.021 23.5162 102.663 24.3242 101.946 25.0047ZM108.896 25.9959C109.438 25.9959 109.923 25.9435 110.353 25.8389C111.152 25.6557 111.823 25.3024 112.365 24.7789C112.689 24.478 112.981 24.0903 113.242 23.616C113.503 23.1416 113.657 22.7114 113.703 22.3254H111.949C111.817 22.79 111.592 23.1989 111.275 23.5522C110.72 24.1607 109.976 24.4649 109.045 24.4649C108.047 24.4649 107.31 24.1427 106.834 23.4982C106.359 22.8537 106.104 21.9983 106.071 20.9318H113.852C113.852 19.8719 113.799 19.0999 113.693 18.6157C113.574 17.9091 113.336 17.2908 112.979 16.7609C112.609 16.2047 112.071 15.7516 111.364 15.4016C110.657 15.0516 109.927 14.8766 109.173 14.8766C107.68 14.8766 106.471 15.4032 105.546 16.4566C104.621 17.51 104.158 18.8807 104.158 20.5687C104.158 22.2829 104.617 23.616 105.536 24.5679C106.454 25.5199 107.574 25.9959 108.896 25.9959ZM106.121 19.5284H112.018C111.946 18.7629 111.777 18.1512 111.513 17.6932C111.024 16.8426 110.208 16.4174 109.065 16.4174C108.245 16.4174 107.558 16.7101 107.003 17.2957C106.448 17.8813 106.154 18.6255 106.121 19.5284Z" fill="white"/>
<path d="M14.7714 12.2236L11.1097 17.8067H16.3146L9.72342 27.8563H3.67267L7.33408 22.2732H2.12939L8.7206 12.2236H14.7714Z" fill="#0044FF"/>
</svg>
