<svg width="120" height="120" viewBox="0 0 120 120" fill="none" xmlns="http://www.w3.org/2000/svg">
<mask id="mask0_4693_10867" style="mask-type:alpha" maskUnits="userSpaceOnUse" x="0" y="0" width="120" height="120">
<rect width="120" height="120" fill="#D9D9D9"/>
</mask>
<g mask="url(#mask0_4693_10867)">
<rect x="15.8335" y="7" width="88.3333" height="106" rx="7.36111" fill="#032E61"/>
<path d="M54.4096 26.7723C55.1376 26.0572 55.8345 25.4874 56.5003 25.0629C62.2894 21.3754 69.7503 23.2954 73.1788 29.202C73.1981 29.2354 73.2289 29.2608 73.2656 29.2732C73.3024 29.2857 73.3425 29.2845 73.3785 29.2698C74.9317 28.633 76.5491 28.2081 78.2209 28.1197C81.224 27.9583 83.9705 28.6168 86.4603 30.0954C91.8232 33.2793 94.5398 39.4909 93.3401 45.5947C92.7179 48.7605 90.9879 51.7858 88.4638 53.8983C85.6351 56.2654 82.3652 57.4114 78.6543 57.3364C77.89 57.321 77.1431 57.2347 76.4135 57.0773C76.3684 57.0678 76.3214 57.0726 76.2793 57.091C76.2372 57.1095 76.202 57.1407 76.1786 57.1802C73.3531 61.9693 67.5374 63.83 62.4456 61.4694C62.3947 61.4452 62.3572 61.4589 62.333 61.5105C60.6252 65.198 57.792 67.5373 53.8333 68.5284C53.5912 68.5889 53.2208 68.6228 52.722 68.6301C51.7503 68.6438 50.8431 68.6503 50.0006 68.6494C49.4526 68.6494 48.9457 68.5934 48.4801 68.4812C44.4911 67.52 41.3775 64.7525 39.8981 60.9246C39.8894 60.9021 39.8723 60.8838 39.8504 60.8736C39.8285 60.8635 39.8035 60.8622 39.7807 60.8701C39.4361 60.9888 39.0809 61.0618 38.7153 61.0892C35.2708 61.3443 32.3294 60.3249 29.8913 58.0313C28.2093 56.4494 27.1093 54.4672 26.5912 52.0848C26.3611 51.0219 26.4471 49.8355 26.4568 48.7241C26.4624 48.1358 26.552 47.526 26.7255 46.8949C27.5463 43.9201 29.2674 41.6203 31.8888 39.9957C31.9106 39.9822 31.9269 39.9613 31.9347 39.9366C31.9424 39.912 31.9412 39.8853 31.9311 39.8613C30.528 36.5043 30.5305 32.7151 32.0582 29.3702C33.3132 26.6222 35.3208 24.5351 38.081 23.109C40.181 22.0251 42.5199 21.5768 45.0976 21.764C48.7428 22.0304 52.0501 23.9225 54.2922 26.765C54.3285 26.811 54.3676 26.8135 54.4096 26.7723ZM64.4406 40.7681C64.4332 40.7681 64.4258 40.7666 64.4189 40.7637C64.4121 40.7608 64.4059 40.7565 64.4008 40.7512C64.3957 40.7458 64.3917 40.7395 64.3892 40.7326C64.3867 40.7258 64.3857 40.7185 64.3862 40.7112C64.4394 39.6858 64.9321 38.9497 66.0871 39.2488C66.1944 39.277 66.267 39.2387 66.305 39.1338L66.5435 38.4703C66.583 38.3606 66.5471 38.2883 66.4357 38.2536C66.2412 38.1931 66.0366 38.1568 65.8219 38.1447C64.0423 38.0418 63.4056 39.1216 63.138 40.6688C63.1326 40.6996 63.1166 40.7275 63.0927 40.7476C63.0688 40.7678 63.0385 40.7789 63.0073 40.779L62.2216 40.7729C62.1546 40.7721 62.1151 40.8052 62.103 40.8722L61.9601 41.6554C61.944 41.7466 61.9819 41.7926 62.0739 41.7934L62.8644 41.7971C62.8758 41.7973 62.887 41.7999 62.8972 41.8048C62.9074 41.8097 62.9165 41.8168 62.9237 41.8255C62.931 41.8343 62.9362 41.8445 62.9392 41.8555C62.9421 41.8664 62.9426 41.8779 62.9407 41.8891C62.6461 43.5371 62.3443 45.2178 62.0352 46.9312C61.9682 47.2993 61.8556 47.6544 61.6974 47.9966C61.4008 48.6358 60.8064 48.5994 60.212 48.4687C60.1802 48.4617 60.1468 48.4669 60.1184 48.4832C60.0901 48.4996 60.0686 48.5259 60.0583 48.5571L59.827 49.2786C59.7923 49.3851 59.829 49.4521 59.9372 49.4796C61.0171 49.7568 62.2119 49.5873 62.764 48.4881C62.9802 48.0571 63.1336 47.5979 63.224 47.1104C63.5355 45.4309 63.8446 43.682 64.1513 41.8637C64.1548 41.8432 64.1653 41.8246 64.1811 41.8113C64.1968 41.798 64.2168 41.7908 64.2373 41.791L65.4224 41.7934C65.4665 41.7938 65.5093 41.7784 65.5432 41.75C65.5771 41.7217 65.5999 41.6822 65.6077 41.6385L65.736 40.9073C65.7521 40.8161 65.7138 40.7701 65.621 40.7693L64.4406 40.7681ZM49.0696 38.3553C49.0696 38.3325 49.0606 38.3107 49.0444 38.2946C49.0283 38.2784 49.0065 38.2694 48.9837 38.2694H47.9498C47.927 38.2694 47.9052 38.2784 47.889 38.2946C47.8729 38.3107 47.8639 38.3325 47.8639 38.3553V46.7182C47.8639 46.741 47.8729 46.7628 47.889 46.779C47.9052 46.7951 47.927 46.8041 47.9498 46.8041H48.9837C49.0065 46.8041 49.0283 46.7951 49.0444 46.779C49.0606 46.7628 49.0696 46.741 49.0696 46.7182V38.3553ZM58.2363 42.9363C57.74 42.7413 57.5063 42.176 58.0111 41.8237C58.608 41.4061 59.8113 41.7947 60.3875 42.0913C60.4658 42.1316 60.5203 42.111 60.551 42.0295L60.8221 41.3201C60.8544 41.2362 60.8302 41.1736 60.7495 41.1325C60.1176 40.8064 59.463 40.6337 58.7859 40.6143C57.7666 40.5865 56.6649 41.1119 56.5366 42.2486C56.3671 43.751 57.7751 44.1093 58.9203 44.4435C59.4348 44.5936 60.1684 45.0124 59.62 45.6347C58.9953 46.3453 57.5111 45.7933 56.8381 45.326C56.7291 45.2509 56.6532 45.2755 56.6105 45.3998L56.3768 46.0717C56.3413 46.1734 56.3691 46.2525 56.4603 46.309C57.3925 46.8852 58.7218 47.1661 59.7919 46.7799C60.6289 46.4773 61.0267 45.8562 60.9856 44.9168C60.9493 44.1154 60.2858 43.6493 59.5571 43.4108C59.1148 43.2663 58.6745 43.1082 58.2363 42.9363ZM39.5531 45.4531C39.4877 45.6403 39.342 45.7759 39.116 45.8599C38.3316 46.1516 37.2396 45.7594 36.6125 45.3102C36.5342 45.2537 36.4785 45.2711 36.4455 45.3623L36.1767 46.1068C36.1468 46.1899 36.169 46.2545 36.2433 46.3005C36.9955 46.7702 37.8251 46.9865 38.7323 46.9494C39.7758 46.907 40.6305 46.424 40.7891 45.3139C40.9186 44.4071 40.3848 43.8006 39.5737 43.4968C39.1241 43.3289 38.6649 43.1655 38.196 43.0065C37.7117 42.843 37.2348 42.3782 37.7311 41.8976C38.2795 41.3661 39.5918 41.7874 40.1669 42.0791C40.2524 42.1227 40.3162 42.1013 40.3581 42.015C40.4663 41.7938 40.5502 41.5687 40.6099 41.3395C40.6366 41.2378 40.6035 41.1619 40.5107 41.1119C39.6826 40.6676 38.4345 40.4351 37.512 40.802C36.6807 41.1329 36.2929 41.7583 36.3486 42.6784C36.4188 43.8418 37.7832 44.1602 38.6669 44.4192C39.1778 44.5681 39.7686 44.8381 39.5531 45.4531ZM45.3155 42.9677C45.3141 42.9796 45.3102 42.9911 45.3042 43.0014C45.2982 43.0117 45.2902 43.0207 45.2807 43.0279C45.2712 43.035 45.2604 43.0401 45.2489 43.0429C45.2374 43.0457 45.2255 43.046 45.2139 43.044C44.0686 42.8467 42.3798 42.8685 41.7467 44.0851C41.5772 44.4112 41.513 44.7965 41.5542 45.2412C41.7624 47.5087 45.0613 46.9409 46.4983 46.5584C46.5117 46.5549 46.5237 46.5471 46.5322 46.5361C46.5407 46.5252 46.5454 46.5117 46.5455 46.4978C46.5528 45.1904 46.5516 43.9205 46.5419 42.6881C46.5358 41.992 46.2223 41.2124 45.5359 40.9085C44.4621 40.4315 43.1425 40.6228 42.0917 41.0441C41.919 41.1135 41.8629 41.2362 41.9234 41.4121L42.1232 41.9932C42.1587 42.0981 42.2265 42.1264 42.3266 42.0779C42.9173 41.7906 43.561 41.6619 44.2575 41.6918C45.0516 41.7256 45.4075 42.1893 45.3155 42.9677ZM51.6082 44.0936L55.4459 44.096C55.5209 44.096 55.5621 44.0589 55.5693 43.9846C55.7037 42.682 55.2921 41.1639 53.8576 40.7596C52.5816 40.4 51.1289 40.8758 50.5647 42.113C50.1733 42.9718 50.0946 43.8825 50.3286 44.8454C50.8734 47.0874 53.3019 47.2169 55.1468 46.6334C55.2994 46.585 55.3502 46.4853 55.2994 46.3344L55.0972 45.7327C55.0601 45.623 54.987 45.5871 54.8781 45.625C54.2905 45.83 53.6747 45.9067 53.0307 45.855C52.0751 45.7783 51.5715 45.2223 51.5199 44.1868C51.5167 44.1247 51.5461 44.0936 51.6082 44.0936ZM66.1064 45.2727C66.6112 46.6734 68.0676 47.1516 69.4683 46.8259C70.4307 46.602 71.1244 45.7884 71.329 44.8345C71.5687 43.7159 71.4573 42.2898 70.6413 41.4303C69.829 40.5744 68.4054 40.4412 67.3993 40.9145C66.8328 41.1809 66.4321 41.5824 66.1972 42.1191C65.7485 43.1449 65.7182 44.1961 66.1064 45.2727ZM80.7027 41.7753L80.9569 41.0223C80.9851 40.9375 80.9561 40.8827 80.8697 40.8576C79.4255 40.446 77.8299 40.4908 76.9135 41.7741C76.405 42.4835 76.2622 43.4919 76.3699 44.349C76.5297 45.6311 77.2718 46.6286 78.572 46.838C79.3799 46.968 80.1672 46.9086 80.9339 46.6601C80.9572 46.6526 80.9769 46.6365 80.989 46.615C81.0011 46.5934 81.0048 46.5681 80.9993 46.5438C80.9411 46.2904 80.8673 46.037 80.7777 45.7836C80.7438 45.6875 80.678 45.6545 80.5804 45.6843C78.5405 46.3163 77.3142 45.2679 77.6822 43.1554C77.951 41.6082 79.3129 41.4993 80.5465 41.8564C80.578 41.8656 80.6118 41.8623 80.6409 41.8472C80.67 41.8321 80.6921 41.8063 80.7027 41.7753ZM82.8055 44.0948L86.6261 44.0984C86.7189 44.0984 86.7706 44.052 86.7811 43.9592C86.9239 42.6106 86.4869 41.1167 85.0172 40.739C84.6266 40.6381 84.255 40.6111 83.9023 40.6579C82.4326 40.854 81.6021 41.8552 81.4569 43.2813C81.3649 44.1808 81.4726 45.1674 82.0246 45.8865C82.9943 47.1491 85.016 47.0898 86.4107 46.6104C86.4586 46.5941 86.4983 46.5596 86.5209 46.5142C86.5436 46.4689 86.5475 46.4165 86.5317 46.3683L86.3162 45.7182C86.2847 45.623 86.2214 45.5919 86.1262 45.625C85.395 45.878 84.1807 46.0451 83.4616 45.6214C82.929 45.3078 82.8164 44.7594 82.7207 44.1941C82.7186 44.1819 82.7192 44.1694 82.7225 44.1575C82.7258 44.1456 82.7317 44.1345 82.7397 44.1251C82.7478 44.1156 82.7579 44.108 82.7692 44.1028C82.7806 44.0975 82.793 44.0948 82.8055 44.0948ZM73.6642 41.2099L73.6666 40.8819C73.6666 40.8084 73.6299 40.7717 73.5565 40.7717H72.5795C72.5541 40.7717 72.5298 40.7816 72.5119 40.7994C72.494 40.8171 72.4839 40.8411 72.4839 40.8661V46.7133C72.4839 46.7308 72.4906 46.7475 72.5026 46.76C72.5146 46.7724 72.5309 46.7796 72.548 46.7799L73.6339 46.7872C73.6969 46.788 73.7284 46.7569 73.7284 46.694C73.7324 45.6787 73.7344 44.6585 73.7344 43.6336C73.7356 42.4593 74.1993 41.63 75.583 41.8177C75.6928 41.833 75.7658 41.7882 75.8021 41.6833L76.043 40.9727C76.0737 40.8831 76.043 40.827 75.951 40.8044C75.0487 40.5849 74.32 40.7346 73.7647 41.2535C73.7563 41.2616 73.7456 41.2671 73.7341 41.2692C73.7226 41.2713 73.7107 41.2699 73.6999 41.2652C73.6892 41.2606 73.6801 41.2528 73.6737 41.243C73.6673 41.2331 73.664 41.2216 73.6642 41.2099Z" fill="#45A1DE"/>
<path d="M58.2362 42.9363C58.6745 43.1082 59.1147 43.2664 59.557 43.4108C60.2858 43.6493 60.9492 44.1154 60.9855 44.9168C61.0267 45.8562 60.6288 46.4773 59.7919 46.7799C58.7217 47.1661 57.3924 46.8853 56.4603 46.309C56.3691 46.2525 56.3412 46.1734 56.3767 46.0717L56.6104 45.3998C56.6532 45.2756 56.729 45.2509 56.838 45.326C57.5111 45.7933 58.9953 46.3453 59.6199 45.6347C60.1684 45.0124 59.4347 44.5936 58.9202 44.4435C57.775 44.1093 56.3671 43.751 56.5365 42.2486C56.6649 41.1119 57.7665 40.5865 58.7858 40.6143C59.463 40.6337 60.1175 40.8064 60.7494 41.1325C60.8301 41.1736 60.8544 41.2362 60.8221 41.3201L60.5509 42.0295C60.5202 42.111 60.4658 42.1316 60.3875 42.0913C59.8112 41.7947 58.6079 41.4061 58.0111 41.8237C57.5062 42.176 57.7399 42.7414 58.2362 42.9363Z" fill="white"/>
<path d="M39.5528 45.4538C39.7683 44.8388 39.1775 44.5689 38.6666 44.42C37.7829 44.1609 36.4185 43.8425 36.3483 42.6791C36.2926 41.7591 36.6804 41.1336 37.5117 40.8027C38.4342 40.4359 39.6823 40.6683 40.5104 41.1126C40.6032 41.1626 40.6363 41.2385 40.6096 41.3402C40.5499 41.5694 40.466 41.7946 40.3578 42.0157C40.3159 42.1021 40.2521 42.1234 40.1666 42.0799C39.5915 41.7881 38.2792 41.3668 37.7308 41.8983C37.2345 42.3789 37.7115 42.8438 38.1957 43.0072C38.6646 43.1662 39.1238 43.3296 39.5734 43.4975C40.3845 43.8013 40.9184 44.4078 40.7888 45.3146C40.6302 46.4247 39.7755 46.9077 38.732 46.9501C37.8249 46.9872 36.9952 46.7709 36.243 46.3012C36.1688 46.2552 36.1466 46.1907 36.1764 46.1075L36.4452 45.363C36.4783 45.2718 36.534 45.2545 36.6122 45.311C37.2393 45.7601 38.3313 46.1523 39.1158 45.8606C39.3417 45.7766 39.4874 45.641 39.5528 45.4538Z" fill="white"/>
<path d="M45.3154 42.968C45.4074 42.1896 45.0515 41.726 44.2573 41.6921C43.5608 41.6622 42.9172 41.7909 42.3264 42.0782C42.2263 42.1267 42.1586 42.0984 42.123 41.9935L41.9233 41.4124C41.8628 41.2365 41.9189 41.1138 42.0916 41.0444C43.1424 40.6231 44.4619 40.4318 45.5357 40.9088C46.2221 41.2127 46.5357 41.9923 46.5417 42.6884C46.5514 43.9208 46.5526 45.1907 46.5454 46.4982C46.5453 46.512 46.5406 46.5255 46.5321 46.5364C46.5235 46.5474 46.5116 46.5552 46.4982 46.5587C45.0612 46.9412 41.7623 47.509 41.5541 45.2415C41.5129 44.7969 41.5771 44.4115 41.7465 44.0854C42.3797 42.8688 44.0685 42.847 45.2137 43.0443C45.2253 43.0463 45.2373 43.046 45.2488 43.0432C45.2603 43.0404 45.2711 43.0353 45.2806 43.0282C45.2901 43.0211 45.2981 43.012 45.3041 43.0017C45.3101 42.9914 45.3139 42.9799 45.3154 42.968ZM45.3445 45.5696L45.3093 44.2234C45.3068 44.1366 45.27 44.0544 45.2069 43.9947C45.1438 43.935 45.0596 43.9028 44.9728 43.905L43.8966 43.9329C43.5878 43.941 43.2943 44.0486 43.0807 44.2321C42.8671 44.4155 42.7508 44.6598 42.7574 44.9111L42.761 45.0176C42.7678 45.2688 42.8969 45.5064 43.1198 45.6782C43.3427 45.85 43.6412 45.9421 43.9498 45.934L45.0249 45.9062C45.0679 45.9051 45.1104 45.8955 45.1498 45.878C45.1892 45.8605 45.2247 45.8354 45.2544 45.8041C45.2841 45.7729 45.3073 45.7361 45.3228 45.6958C45.3382 45.6556 45.3456 45.6127 45.3445 45.5696Z" fill="white"/>
<path d="M51.6082 44.0934C51.5461 44.0934 51.5166 44.1245 51.5199 44.1866C51.5715 45.2221 52.0751 45.7782 53.0307 45.8548C53.6747 45.9065 54.2905 45.8298 54.8781 45.6248C54.987 45.5869 55.0601 45.6228 55.0972 45.7326L55.2994 46.3342C55.3502 46.4851 55.2994 46.5848 55.1468 46.6332C53.3019 47.2167 50.8734 47.0872 50.3286 44.8452C50.0946 43.8823 50.1733 42.9716 50.5647 42.1129C51.1288 40.8756 52.5816 40.3998 53.8575 40.7594C55.2921 41.1637 55.7037 42.6818 55.5693 43.9844C55.5621 44.0587 55.5209 44.0958 55.4459 44.0958L51.6082 44.0934ZM51.6179 43.1758L54.3055 43.1661C54.3173 43.1661 54.3287 43.1614 54.3371 43.153C54.3455 43.1446 54.3503 43.1332 54.3503 43.1213V43.0971C54.3489 42.7115 54.2045 42.3423 53.9489 42.0705C53.6933 41.7988 53.3473 41.6468 52.9871 41.648H52.9266C52.7482 41.6486 52.5717 41.6868 52.4071 41.7604C52.2425 41.834 52.0931 41.9417 51.9674 42.0771C51.8417 42.2126 51.7422 42.3732 51.6746 42.5499C51.6069 42.7266 51.5725 42.9158 51.5731 43.1068V43.131C51.5731 43.1428 51.5779 43.1542 51.5863 43.1626C51.5947 43.171 51.606 43.1758 51.6179 43.1758Z" fill="white"/>
<path d="M66.106 45.2732C65.7178 44.1966 65.7481 43.1454 66.1968 42.1196C66.4317 41.5829 66.8324 41.1814 67.399 40.915C68.405 40.4417 69.8286 40.5749 70.6409 41.4308C71.4569 42.2903 71.5683 43.7164 71.3286 44.835C71.124 45.7889 70.4303 46.6025 69.4679 46.8264C68.0672 47.1521 66.6109 46.6739 66.106 45.2732ZM70.0659 44.6485C70.1878 44.0126 70.1745 43.394 70.026 42.7927C69.8081 41.9114 69.1943 41.5918 68.3239 41.7189C67.7282 41.8061 67.376 42.306 67.2609 42.8556C67.0503 43.8653 67.0467 45.7139 68.3856 45.8943C69.3262 46.0202 69.8892 45.5626 70.0659 44.6485Z" fill="white"/>
<path d="M80.7029 41.7755C80.6923 41.8066 80.6702 41.8324 80.6411 41.8475C80.612 41.8626 80.5782 41.8659 80.5467 41.8566C79.3131 41.4995 77.9512 41.6085 77.6824 43.1556C77.3144 45.2681 78.5407 46.3165 80.5806 45.6846C80.6782 45.6547 80.744 45.6878 80.7779 45.7838C80.8675 46.0373 80.9413 46.2907 80.9994 46.5441C81.005 46.5683 81.0013 46.5937 80.9892 46.6152C80.9771 46.6367 80.9574 46.6528 80.9341 46.6603C80.1674 46.9089 79.3801 46.9682 78.5722 46.8383C77.272 46.6288 76.5299 45.6313 76.3701 44.3493C76.2624 43.4922 76.4052 42.4837 76.9137 41.7743C77.8301 40.4911 79.4257 40.4463 80.8699 40.8579C80.9563 40.8829 80.9853 40.9378 80.9571 41.0225L80.7029 41.7755Z" fill="white"/>
<path d="M82.8052 44.0959C82.7926 44.0959 82.7803 44.0986 82.7689 44.1038C82.7576 44.1091 82.7475 44.1167 82.7394 44.1261C82.7313 44.1356 82.7255 44.1467 82.7222 44.1586C82.7189 44.1705 82.7183 44.183 82.7204 44.1951C82.816 44.7605 82.9286 45.3089 83.4613 45.6224C84.1804 46.0462 85.3946 45.8791 86.1258 45.6261C86.2211 45.593 86.2844 45.6241 86.3159 45.7193L86.5314 46.3694C86.5471 46.4176 86.5433 46.47 86.5206 46.5153C86.4979 46.5606 86.4583 46.5952 86.4103 46.6115C85.0157 47.0909 82.994 47.1502 82.0243 45.8876C81.4723 45.1685 81.3645 44.1818 81.4565 43.2823C81.6018 41.8563 82.4323 40.8551 83.902 40.659C84.2546 40.6122 84.6263 40.6392 85.0169 40.7401C86.4866 41.1178 86.9236 42.6117 86.7808 43.9603C86.7703 44.0531 86.7186 44.0995 86.6258 44.0995L82.8052 44.0959ZM82.8366 43.177L85.5338 43.1625C85.5425 43.1625 85.5508 43.1591 85.557 43.1529C85.5631 43.1468 85.5665 43.1385 85.5665 43.1298V43.0717C85.5645 42.6945 85.4238 42.3336 85.1754 42.0682C84.9271 41.8028 84.5914 41.6547 84.2421 41.6565H84.1138C83.9408 41.6574 83.7697 41.6951 83.6102 41.7674C83.4507 41.8397 83.306 41.9453 83.1844 42.0781C83.0628 42.2108 82.9665 42.3682 82.9013 42.5412C82.836 42.7142 82.8029 42.8994 82.8039 43.0862V43.1443C82.8039 43.1486 82.8048 43.1529 82.8064 43.1568C82.8081 43.1608 82.8105 43.1644 82.8135 43.1675C82.8166 43.1705 82.8202 43.1729 82.8241 43.1745C82.8281 43.1762 82.8323 43.177 82.8366 43.177Z" fill="white"/>
<path d="M73.6642 41.2105C73.6641 41.2222 73.6674 41.2337 73.6737 41.2435C73.6801 41.2534 73.6892 41.2611 73.6999 41.2658C73.7107 41.2704 73.7226 41.2718 73.7341 41.2697C73.7456 41.2676 73.7563 41.2622 73.7647 41.254C74.32 40.7351 75.0488 40.5854 75.9511 40.8049C76.0431 40.8275 76.0737 40.8836 76.0431 40.9732L75.8021 41.6838C75.7658 41.7887 75.6928 41.8335 75.583 41.8182C74.1993 41.6305 73.7357 42.4598 73.7344 43.6341C73.7344 44.6591 73.7324 45.6792 73.7284 46.6945C73.7284 46.7574 73.6969 46.7885 73.634 46.7877L72.548 46.7804C72.5309 46.7801 72.5146 46.773 72.5026 46.7605C72.4906 46.7481 72.4839 46.7313 72.4839 46.7139V40.8667C72.4839 40.8416 72.494 40.8176 72.5119 40.7999C72.5298 40.7822 72.5542 40.7722 72.5795 40.7722H73.5565C73.6299 40.7722 73.6666 40.809 73.6666 40.8824L73.6642 41.2105Z" fill="white"/>
<path d="M64.4402 40.7688L65.6206 40.77C65.7134 40.7708 65.7517 40.8168 65.7356 40.908L65.6072 41.6392C65.5995 41.6829 65.5767 41.7224 65.5428 41.7508C65.5089 41.7792 65.4661 41.7945 65.422 41.7942L64.2368 41.7918C64.2163 41.7915 64.1964 41.7987 64.1807 41.812C64.1649 41.8254 64.1543 41.8439 64.1509 41.8644C63.8442 43.6827 63.5351 45.4317 63.2236 47.1112C63.1332 47.5986 62.9798 48.0579 62.7635 48.4888C62.2115 49.5881 61.0166 49.7575 59.9368 49.4803C59.8286 49.4529 59.7919 49.3859 59.8266 49.2794L60.0578 48.5578C60.0682 48.5266 60.0896 48.5003 60.118 48.484C60.1464 48.4677 60.1797 48.4625 60.2116 48.4695C60.806 48.6002 61.4004 48.6365 61.697 47.9973C61.8552 47.6551 61.9678 47.3 62.0347 46.932C62.3439 45.2186 62.6457 43.5379 62.9403 41.8898C62.9422 41.8786 62.9417 41.8672 62.9388 41.8562C62.9358 41.8452 62.9306 41.835 62.9233 41.8263C62.9161 41.8176 62.907 41.8105 62.8968 41.8056C62.8865 41.8007 62.8754 41.798 62.864 41.7978L62.0735 41.7942C61.9815 41.7934 61.9436 41.7474 61.9597 41.6562L62.1025 40.8729C62.1146 40.8059 62.1542 40.7729 62.2212 40.7737L63.0069 40.7797C63.0381 40.7796 63.0683 40.7685 63.0922 40.7484C63.1162 40.7282 63.1322 40.7003 63.1376 40.6696C63.4052 39.1224 64.0419 38.0425 65.8215 38.1454C66.0362 38.1576 66.2408 38.1939 66.4353 38.2544C66.5467 38.2891 66.5826 38.3613 66.543 38.4711L66.3045 39.1345C66.2666 39.2394 66.194 39.2778 66.0866 39.2495C64.9317 38.9505 64.439 39.6865 64.3857 40.7119C64.3852 40.7192 64.3863 40.7265 64.3888 40.7334C64.3913 40.7403 64.3952 40.7466 64.4004 40.7519C64.4055 40.7573 64.4116 40.7615 64.4185 40.7644C64.4254 40.7673 64.4327 40.7688 64.4402 40.7688Z" fill="white"/>
<path d="M48.9836 38.2695H47.9497C47.9023 38.2695 47.8638 38.308 47.8638 38.3555V46.7183C47.8638 46.7658 47.9023 46.8043 47.9497 46.8043H48.9836C49.031 46.8043 49.0695 46.7658 49.0695 46.7183V38.3555C49.0695 38.308 49.031 38.2695 48.9836 38.2695Z" fill="white"/>
<path d="M51.6176 43.1762C51.6057 43.1762 51.5943 43.1715 51.5859 43.1631C51.5775 43.1547 51.5728 43.1433 51.5728 43.1314V43.1072C51.5721 42.9163 51.6066 42.727 51.6742 42.5504C51.7419 42.3737 51.8414 42.2131 51.9671 42.0776C52.0927 41.9421 52.2421 41.8345 52.4067 41.7609C52.5713 41.6872 52.7478 41.649 52.9262 41.6484H52.9867C53.3469 41.6473 53.6929 41.7992 53.9485 42.071C54.2041 42.3427 54.3485 42.712 54.3499 43.0975V43.1217C54.3499 43.1336 54.3452 43.145 54.3368 43.1534C54.3284 43.1618 54.317 43.1665 54.3051 43.1665L51.6176 43.1762Z" fill="#45A1DE"/>
<path d="M82.8364 43.1768C82.8321 43.1768 82.8279 43.1759 82.8239 43.1743C82.8199 43.1727 82.8163 43.1702 82.8133 43.1672C82.8103 43.1642 82.8079 43.1606 82.8062 43.1566C82.8046 43.1526 82.8037 43.1484 82.8037 43.1441V43.086C82.8027 42.8991 82.8358 42.7139 82.9011 42.5409C82.9663 42.368 83.0625 42.2106 83.1842 42.0778C83.3058 41.9451 83.4505 41.8395 83.61 41.7672C83.7695 41.6948 83.9406 41.6571 84.1136 41.6563H84.2419C84.5912 41.6545 84.9269 41.8026 85.1752 42.068C85.4236 42.3333 85.5643 42.6943 85.5663 43.0715V43.1296C85.5663 43.1382 85.5629 43.1466 85.5568 43.1527C85.5506 43.1588 85.5423 43.1623 85.5336 43.1623L82.8364 43.1768Z" fill="#45A1DE"/>
<path d="M70.066 44.6479C69.8893 45.5619 69.3264 46.0195 68.3857 45.8936C67.0468 45.7132 67.0504 43.8646 67.2611 42.855C67.3761 42.3054 67.7284 41.8054 68.324 41.7182C69.1944 41.5911 69.8082 41.9107 70.0261 42.792C70.1746 43.3933 70.1879 44.0119 70.066 44.6479Z" fill="#45A1DE"/>
<path d="M45.3442 45.569C45.3453 45.6121 45.3379 45.655 45.3225 45.6952C45.307 45.7354 45.2838 45.7722 45.2541 45.8035C45.2244 45.8347 45.1889 45.8598 45.1495 45.8773C45.1101 45.8949 45.0676 45.9044 45.0246 45.9055L43.9495 45.9334C43.641 45.9414 43.3424 45.8494 43.1195 45.6776C42.8966 45.5057 42.7675 45.2681 42.7607 45.017L42.7571 44.9104C42.7505 44.6591 42.8668 44.4149 43.0804 44.2314C43.2941 44.048 43.5875 43.9404 43.8963 43.9323L44.9725 43.9044C45.0593 43.9021 45.1435 43.9344 45.2066 43.994C45.2697 44.0537 45.3065 44.136 45.3091 44.2228L45.3442 45.569Z" fill="#45A1DE"/>
<path d="M71.2441 78.924V77.2148H78.035V78.924H75.6849V85.0281H73.5942V78.924H71.2441Z" fill="white"/>
<path d="M68.4932 79.6559C68.4729 79.4016 68.3775 79.2032 68.2071 79.0607C68.0392 78.9183 67.7836 78.8471 67.4403 78.8471C67.2215 78.8471 67.0422 78.8738 66.9023 78.9272C66.765 78.9781 66.6633 79.048 66.5971 79.137C66.531 79.2261 66.4967 79.3278 66.4941 79.4422C66.489 79.5364 66.5056 79.6216 66.5437 79.6979C66.5844 79.7716 66.648 79.839 66.7345 79.9001C66.821 79.9586 66.9316 80.012 67.0664 80.0603C67.2012 80.1086 67.3614 80.1518 67.5471 80.19L68.188 80.3273C68.6204 80.4189 68.9905 80.5397 69.2982 80.6898C69.606 80.8398 69.8578 81.0166 70.0536 81.2201C70.2494 81.421 70.3931 81.6474 70.4847 81.8992C70.5788 82.1509 70.6271 82.4256 70.6297 82.7232C70.6271 83.237 70.4987 83.6719 70.2443 84.028C69.99 84.384 69.6263 84.6549 69.1532 84.8406C68.6827 85.0262 68.1168 85.1191 67.4555 85.1191C66.7764 85.1191 66.1838 85.0186 65.6777 84.8177C65.1741 84.6168 64.7824 84.3077 64.5027 83.8906C64.2254 83.471 64.0856 82.9343 64.083 82.2807H66.0974C66.1101 82.5197 66.1699 82.7207 66.2767 82.8834C66.3835 83.0462 66.5336 83.1696 66.7269 83.2535C66.9227 83.3374 67.1554 83.3794 67.425 83.3794C67.6514 83.3794 67.8409 83.3514 67.9935 83.2955C68.1461 83.2395 68.2618 83.1619 68.3406 83.0627C68.4195 82.9636 68.4602 82.8504 68.4627 82.7232C68.4602 82.6037 68.4207 82.4994 68.3444 82.4104C68.2707 82.3188 68.1486 82.2374 67.9782 82.1662C67.8078 82.0924 67.5776 82.0238 67.2877 81.9602L66.5094 81.7923C65.8176 81.6423 65.272 81.3917 64.8727 81.0408C64.476 80.6872 64.2788 80.2053 64.2814 79.5948C64.2788 79.0989 64.4111 78.6652 64.6782 78.2939C64.9478 77.92 65.3204 77.6288 65.796 77.4203C66.2741 77.2117 66.8222 77.1074 67.4403 77.1074C68.071 77.1074 68.6166 77.213 69.0769 77.4241C69.5373 77.6352 69.8921 77.9327 70.1413 78.3168C70.3931 78.6983 70.5203 79.1447 70.5228 79.6559H68.4932Z" fill="white"/>
<path d="M57.5767 85.0281V77.2148H63.2077V78.924H59.6978V80.2669H62.9178V81.9761H59.6978V83.319H63.1924V85.0281H57.5767Z" fill="white"/>
<path d="M50.3789 85.0281V77.2148H53.7514C54.3313 77.2148 54.8387 77.3204 55.2736 77.5315C55.7086 77.7426 56.0468 78.0465 56.2885 78.4433C56.5301 78.8401 56.6509 79.3157 56.6509 79.8701C56.6509 80.4297 56.5263 80.9015 56.277 81.2855C56.0303 81.6696 55.6831 81.9595 55.2355 82.1554C54.7904 82.3512 54.2703 82.4491 53.6751 82.4491H51.6608V80.801H53.2478C53.4971 80.801 53.7095 80.7705 53.885 80.7095C54.063 80.6459 54.1991 80.5454 54.2932 80.4081C54.3898 80.2707 54.4381 80.0914 54.4381 79.8701C54.4381 79.6463 54.3898 79.4645 54.2932 79.3246C54.1991 79.1821 54.063 79.0779 53.885 79.0117C53.7095 78.9431 53.4971 78.9087 53.2478 78.9087H52.5001V85.0281H50.3789ZM54.957 81.4419L56.9103 85.0281H54.606L52.6985 81.4419H54.957Z" fill="white"/>
<path d="M49.3953 80.1442H47.2436C47.2283 79.9662 47.1876 79.8047 47.1215 79.6597C47.0579 79.5147 46.9689 79.3901 46.8544 79.2858C46.7425 79.179 46.6064 79.0976 46.4462 79.0417C46.286 78.9832 46.1041 78.9539 45.9006 78.9539C45.5446 78.9539 45.2432 79.0404 44.9965 79.2133C44.7523 79.3863 44.5666 79.6343 44.4395 79.9573C44.3148 80.2803 44.2525 80.6682 44.2525 81.1209C44.2525 81.599 44.3161 81.9996 44.4433 82.3226C44.573 82.6431 44.7599 82.8847 45.0041 83.0475C45.2483 83.2077 45.542 83.2878 45.8854 83.2878C46.0812 83.2878 46.2567 83.2637 46.4119 83.2154C46.567 83.1645 46.7018 83.092 46.8163 82.9979C46.9307 82.9038 47.0235 82.7906 47.0948 82.6584C47.1685 82.5236 47.2181 82.3722 47.2436 82.2044L49.3953 82.2196C49.3698 82.5503 49.277 82.8873 49.1168 83.2306C48.9565 83.5714 48.7289 83.8868 48.4339 84.1768C48.1414 84.4642 47.7789 84.6956 47.3466 84.8711C46.9142 85.0466 46.4119 85.1343 45.8396 85.1343C45.1224 85.1343 44.4789 84.9805 43.9092 84.6727C43.342 84.365 42.8931 83.9122 42.5625 83.3145C42.2344 82.7169 42.0703 81.9856 42.0703 81.1209C42.0703 80.251 42.2382 79.5185 42.5739 78.9234C42.9096 78.3257 43.3624 77.8743 43.9321 77.569C44.5018 77.2613 45.1376 77.1074 45.8396 77.1074C46.333 77.1074 46.787 77.1748 47.2016 77.3096C47.6162 77.4444 47.9799 77.6415 48.2927 77.901C48.6055 78.1578 48.8573 78.4745 49.0481 78.8509C49.2388 79.2273 49.3546 79.6584 49.3953 80.1442Z" fill="white"/>
<path d="M79.2285 97.5418V89.7285H82.601C83.1809 89.7285 83.6883 89.8341 84.1233 90.0452C84.5582 90.2563 84.8964 90.5602 85.1381 90.957C85.3797 91.3537 85.5005 91.8293 85.5005 92.3838C85.5005 92.9433 85.3759 93.4151 85.1266 93.7992C84.8799 94.1832 84.5327 94.4732 84.0851 94.669C83.64 94.8649 83.1199 94.9628 82.5247 94.9628H80.5104V93.3147H82.0975C82.3467 93.3147 82.5591 93.2842 82.7346 93.2231C82.9126 93.1595 83.0487 93.0591 83.1428 92.9217C83.2394 92.7844 83.2878 92.6051 83.2878 92.3838C83.2878 92.16 83.2394 91.9781 83.1428 91.8383C83.0487 91.6958 82.9126 91.5915 82.7346 91.5254C82.5591 91.4567 82.3467 91.4224 82.0975 91.4224H81.3497V97.5418H79.2285ZM83.8066 93.9556L85.7599 97.5418H83.4556L81.5481 93.9556H83.8066Z" fill="white"/>
<path d="M72.5239 97.5418V89.7285H78.155V91.4377H74.6451V92.7806H77.865V94.4897H74.6451V95.8326H78.1397V97.5418H72.5239Z" fill="white"/>
<path d="M71.4991 89.7285V97.5418H69.7289L66.9057 93.4368H66.8599V97.5418H64.7388V89.7285H66.5395L69.3169 93.8183H69.3779V89.7285H71.4991Z" fill="white"/>
<path d="M57.1279 91.4377V89.7285H63.9188V91.4377H61.5687V97.5418H59.478V91.4377H57.1279Z" fill="white"/>
<path d="M50.144 97.5418V89.7285H53.5166C54.0965 89.7285 54.6039 89.8341 55.0388 90.0452C55.4737 90.2563 55.812 90.5602 56.0536 90.957C56.2952 91.3537 56.416 91.8293 56.416 92.3838C56.416 92.9433 56.2914 93.4151 56.0421 93.7992C55.7954 94.1832 55.4483 94.4732 55.0006 94.669C54.5555 94.8649 54.0354 94.9628 53.4403 94.9628H51.4259V93.3147H53.013C53.2622 93.3147 53.4746 93.2842 53.6501 93.2231C53.8281 93.1595 53.9642 93.0591 54.0583 92.9217C54.155 92.7844 54.2033 92.6051 54.2033 92.3838C54.2033 92.16 54.155 91.9781 54.0583 91.8383C53.9642 91.6958 53.8281 91.5915 53.6501 91.5254C53.4746 91.4567 53.2622 91.4224 53.013 91.4224H52.2652V97.5418H50.144ZM54.7221 93.9556L56.6754 97.5418H54.3711L52.4636 93.9556H54.7221Z" fill="white"/>
<path d="M43.6015 97.5418H41.3125L43.8915 89.7285H46.7909L49.3699 97.5418H47.0809L45.3717 91.8802H45.3107L43.6015 97.5418ZM43.1743 94.4592H47.4777V96.0463H43.1743V94.4592Z" fill="white"/>
<path d="M35.4761 97.5418V89.7285H38.8486C39.4285 89.7285 39.9359 89.843 40.3708 90.0719C40.8057 90.3008 41.144 90.6225 41.3856 91.0371C41.6272 91.4517 41.7481 91.9362 41.7481 92.4906C41.7481 93.0502 41.6234 93.5347 41.3742 93.9442C41.1275 94.3537 40.7803 94.669 40.3327 94.8903C39.8876 95.1116 39.3674 95.2222 38.7723 95.2222H36.7579V93.5741H38.345C38.5943 93.5741 38.8066 93.5309 38.9821 93.4444C39.1602 93.3554 39.2962 93.2295 39.3903 93.0667C39.487 92.9039 39.5353 92.7119 39.5353 92.4906C39.5353 92.2668 39.487 92.0761 39.3903 91.9184C39.2962 91.7581 39.1602 91.6361 38.9821 91.5521C38.8066 91.4656 38.5943 91.4224 38.345 91.4224H37.5973V97.5418H35.4761Z" fill="white"/>
</g>
</svg>
