<svg version="1.1" id="Layer_1" xmlns="http://www.w3.org/2000/svg" xmlns:xlink="http://www.w3.org/1999/xlink" x="0px" y="0px"
	 width="100%" viewBox="0 0 611 118" enable-background="new 0 0 611 118" xml:space="preserve">
<path fill="#FEFDFD" opacity="1.000000" stroke="none" 
	d="
M59.000000,119.000000 
	C39.672482,119.000000 20.344965,119.000000 1.013086,119.000000 
	C1.008724,79.684319 1.008724,40.368629 1.008724,1.026473 
	C204.587738,1.026473 408.175507,1.026473 611.881592,1.026473 
	C611.881592,40.242268 611.881592,79.485008 611.881592,119.000000 
	C429.312531,119.000000 246.624924,119.000000 63.663662,118.666122 
	C64.212860,118.215179 65.392532,118.406593 65.802444,117.932487 
	C69.255783,113.938293 74.269707,113.522926 78.789436,111.897560 
	C81.446068,110.942207 81.610298,109.227303 79.586327,106.987350 
	C78.851044,106.173592 78.646118,103.583992 79.254601,103.080780 
	C81.677078,101.077347 81.081726,99.900589 79.207825,97.888252 
	C78.394676,97.015030 78.733269,94.640961 79.189857,93.144157 
	C79.581306,91.860916 80.886574,90.856438 81.908447,89.577576 
	C84.370537,90.953552 87.224442,92.548500 89.698471,93.931152 
	C99.515602,86.304413 91.701241,81.330681 88.037994,77.392387 
	C89.772133,65.115677 97.243103,62.953671 107.085693,65.013123 
	C107.508682,61.000126 107.852234,57.740768 108.216621,54.283722 
	C105.328560,53.425053 102.872665,52.438084 100.322090,51.989948 
	C94.994858,51.053967 97.710587,46.382442 96.415344,43.614902 
	C95.936111,42.590912 96.994087,40.240528 98.051750,39.224693 
	C100.621536,36.756535 103.602219,34.716187 106.292816,32.601391 
	C102.229179,23.480997 102.233131,23.491621 93.577347,26.709013 
	C92.389366,27.150591 91.139259,27.425026 90.551476,27.594341 
	C83.156128,22.052593 75.943130,16.718548 82.346855,6.682544 
	C73.126030,2.604476 73.009102,2.538458 68.528580,10.474157 
	C67.038132,13.113976 65.337669,13.954700 62.319851,14.138942 
	C57.719387,14.419807 54.832928,13.125864 53.333946,8.600066 
	C52.580193,6.324290 51.115162,4.284095 49.901161,2.004782 
	C46.755226,3.207573 43.903111,4.298028 40.626419,5.550809 
	C41.389565,9.668799 42.128101,13.654002 42.727573,16.888784 
	C38.864288,19.990826 35.723358,24.322666 31.865011,25.101805 
	C28.008261,25.880619 23.433836,23.105446 18.840733,21.792990 
	C17.269070,24.433409 15.613191,27.215311 13.858329,30.163507 
	C16.084492,31.902559 18.072952,33.647449 20.252495,35.106998 
	C22.636652,36.703568 22.782955,38.280338 22.399637,41.257126 
	C21.758947,46.232655 19.280556,48.020500 14.955189,48.782513 
	C12.603930,49.196739 10.311907,49.947205 7.964799,50.553333 
	C8.080447,52.846237 8.195508,54.670948 8.259221,56.497448 
	C8.355357,59.253422 9.613415,61.154003 12.503735,60.670662 
	C20.101646,59.400089 23.370695,63.279957 25.675756,69.937645 
	C26.726997,72.973923 26.763710,74.682892 24.676144,76.826439 
	C22.527899,79.032288 20.572906,81.426346 18.678432,83.573601 
	C21.204361,86.234276 23.222847,88.360428 25.090506,90.327713 
	C30.971106,88.960861 35.521782,80.281059 41.560455,87.049400 
	C42.317024,89.727844 42.280071,91.958527 43.371994,92.967430 
	C45.594379,95.020828 45.811249,96.297760 43.510654,98.401054 
	C42.851208,99.003944 42.909004,101.647072 43.597294,102.238800 
	C45.890942,104.210663 45.717983,105.431137 43.448837,107.244827 
	C41.048538,109.163330 41.826778,111.128853 44.470612,111.918327 
	C49.727379,113.488052 54.948784,115.006905 59.000000,119.000000 
M483.111053,106.848473 
	C488.075653,109.146339 492.753204,108.855919 493.918915,104.944221 
	C495.365356,100.090492 494.881592,94.659576 495.143616,89.473526 
	C495.147614,89.394737 494.020447,89.258797 492.951324,89.063850 
	C492.951324,92.670326 492.957916,95.976074 492.949554,99.281784 
	C492.940826,102.722900 491.619781,105.205376 487.847565,105.336723 
	C483.952728,105.472328 482.669495,103.012123 482.683533,99.519073 
	C482.697174,96.115028 482.686493,92.710876 482.686493,89.333389 
	C479.560944,89.333389 477.286072,89.333389 474.725189,89.333389 
	C474.725189,93.532860 474.480835,97.523148 474.779968,101.472260 
	C475.283539,108.120300 480.341644,113.113457 486.616486,113.588387 
	C493.030396,114.073837 499.187195,110.229553 500.382477,103.811829 
	C501.261414,99.092590 500.554901,94.078079 500.554901,89.195145 
	C499.058533,89.726463 498.239807,90.623878 498.171173,91.575394 
	C497.979919,94.227219 498.049042,96.902603 498.108063,99.566635 
	C498.209442,104.143250 496.473633,107.855377 492.329926,109.792152 
	C488.011658,111.810524 483.892487,110.837471 481.529541,107.087875 
	C481.868835,106.880325 482.208160,106.672768 483.111053,106.848473 
M266.775177,55.671688 
	C263.001282,46.209862 259.227386,36.748035 255.163315,26.558609 
	C260.429657,26.558609 264.571533,26.597313 268.712402,26.549290 
	C274.527344,26.481857 275.025360,25.868172 275.011047,19.150028 
	C274.997772,12.909673 274.393768,12.100684 268.785370,12.176514 
	C257.987793,12.322507 247.191864,12.852435 236.396271,12.824263 
	C220.599075,12.783037 204.803268,12.352941 189.005936,12.167192 
	C182.899597,12.095392 182.196014,12.911249 182.187881,19.117416 
	C182.179520,25.494141 183.120773,26.537169 189.231628,26.550848 
	C203.063553,26.581814 216.896927,26.659422 230.726334,26.470383 
	C233.266449,26.435661 235.790588,25.232218 238.621536,24.489702 
	C239.038376,25.485334 239.688187,26.993433 240.304077,28.515255 
	C247.349976,45.925247 254.578613,63.265133 261.313354,80.794746 
	C263.225555,85.772041 266.542969,85.797150 270.717285,85.948036 
	C274.982666,86.102219 277.628662,84.856308 278.962067,80.576782 
	C280.194427,76.621635 281.986542,72.840302 283.543427,68.986992 
	C290.206360,52.496292 296.946320,36.035843 303.435669,19.477163 
	C304.149109,17.656748 304.298279,14.480276 303.217438,13.307213 
	C300.137604,9.964603 290.661407,12.453859 288.977081,16.682518 
	C283.256744,31.043917 277.580780,45.422993 271.866821,59.786938 
	C271.436859,60.867836 270.841034,61.882759 269.987579,63.603054 
	C268.771088,60.648315 267.895905,58.522594 266.775177,55.671688 
M156.501495,82.130966 
	C170.769363,75.390915 178.606201,60.437050 176.591660,43.795898 
	C174.455261,26.148163 163.827026,14.790468 146.220551,12.810931 
	C136.682434,11.738537 126.956169,12.393527 117.318512,12.131767 
	C111.711037,11.979467 112.006065,15.677732 111.948448,19.536612 
	C111.889351,23.494902 112.343513,26.398777 117.479927,26.232912 
	C125.294006,25.980577 133.123795,26.075630 140.944092,26.200434 
	C146.699020,26.292274 152.155243,27.264717 156.332214,31.928186 
	C163.277756,39.682693 164.489883,53.401810 158.830276,62.175198 
	C155.135803,67.902252 150.010803,71.028481 143.068451,70.995155 
	C134.747131,70.955208 126.425323,70.969398 118.103920,71.004852 
	C112.504616,71.028702 111.994583,71.653320 111.997932,78.057350 
	C112.001221,84.336975 112.546181,84.966888 118.217491,84.997498 
	C123.543137,85.026253 128.892609,85.320450 134.189117,84.926743 
	C141.416229,84.389503 148.603073,83.310989 156.501495,82.130966 
M380.053253,12.174194 
	C379.220398,12.169147 378.387512,12.159336 377.554657,12.159794 
	C370.122101,12.163884 369.931854,12.346766 369.928680,19.663729 
	C369.924103,30.324986 369.927490,40.986248 369.927490,51.647507 
	C369.927490,54.167477 369.927490,56.687450 369.927490,60.564751 
	C358.626038,45.212948 348.147980,31.230577 337.994629,17.016270 
	C335.356445,13.322886 332.443146,11.377475 328.009094,12.196731 
	C325.690704,12.625090 323.444580,13.444862 321.165833,14.087864 
	C321.941620,16.309889 322.246674,18.871120 323.565735,20.701698 
	C337.481354,40.013832 351.834137,59.017998 365.417847,78.557915 
	C369.317596,84.167625 373.728882,85.405495 379.696930,84.860054 
	C382.720856,84.583679 384.149445,83.246300 384.141754,80.105537 
	C384.090149,59.116318 384.185425,38.126202 383.976715,17.138929 
	C383.960449,15.503005 381.990112,13.886513 380.053253,12.174194 
M471.778900,12.474189 
	C469.083862,13.275089 466.251129,13.774970 463.719391,14.932933 
	C455.899017,18.509806 451.766449,24.720333 451.568939,33.364300 
	C451.386322,41.355011 455.691681,46.483261 462.623474,49.567879 
	C466.543945,51.312481 470.648254,52.681267 474.744263,53.985184 
	C480.429749,55.795067 486.301422,57.085541 491.845612,59.236942 
	C493.702667,59.957569 496.181030,62.872890 495.923615,64.360878 
	C495.533386,66.616661 493.221405,68.753708 491.292847,70.448318 
	C490.162842,71.441223 487.901367,71.099159 486.675354,72.042130 
	C485.190582,73.184120 483.404785,74.961060 483.234985,76.615692 
	C482.309723,85.633064 484.175415,87.094688 492.894806,84.895012 
	C505.952942,81.600784 513.015991,71.326706 510.088348,59.517860 
	C507.891174,50.655537 500.839264,47.000118 492.961914,44.567413 
	C485.201111,42.170692 477.307465,40.186985 469.618622,37.588490 
	C468.019470,37.048054 465.971252,34.520786 466.084381,33.060616 
	C466.228943,31.195009 468.172180,29.297455 469.702118,27.778038 
	C470.549652,26.936325 472.110443,26.736935 473.392426,26.421747 
	C478.817932,25.087847 476.691132,20.702507 477.005188,17.387989 
	C477.297272,14.305365 476.144196,12.156427 471.778900,12.474189 
M539.761475,12.142133 
	C532.636719,12.210882 532.152954,12.689096 532.150940,19.834955 
	C532.145203,39.797386 532.125122,59.759865 532.165710,79.722214 
	C532.176147,84.855209 533.451416,85.847870 539.453308,85.857857 
	C545.521667,85.867943 546.816711,84.883957 546.852661,79.839943 
	C546.916565,70.857307 546.871094,61.873882 546.871216,52.890785 
	C546.871277,44.281708 546.871216,35.672630 546.871216,26.565779 
	C552.981445,26.565779 558.597656,26.385988 564.197083,26.615650 
	C569.955261,26.851820 569.995850,23.269480 570.032776,19.091648 
	C570.070068,14.871139 569.425659,11.930643 564.155640,12.084470 
	C556.343689,12.312493 548.520081,12.142639 539.761475,12.142133 
M420.499939,26.582157 
	C427.827179,26.581984 435.154846,26.629019 442.481567,26.566317 
	C448.084351,26.518368 448.960083,25.448713 448.954132,19.136517 
	C448.948273,12.919003 448.326538,12.160209 442.729462,12.146535 
	C428.408112,12.111547 414.086548,12.111260 399.765198,12.145940 
	C394.159424,12.159513 393.552765,12.902674 393.546417,19.141586 
	C393.539886,25.533659 394.346649,26.515182 400.016235,26.567902 
	C406.510284,26.628288 413.005341,26.581848 420.499939,26.582157 
M225.453461,85.000496 
	C227.613052,85.000420 229.787903,84.835098 231.929260,85.032654 
	C237.369492,85.534569 237.743027,82.119789 237.711578,78.062820 
	C237.680984,74.117920 237.606308,70.836937 232.062515,70.922905 
	C217.447220,71.149590 202.823654,71.152184 188.208633,70.917274 
	C183.048660,70.834351 182.055847,73.348465 182.153336,77.691055 
	C182.298264,84.145523 182.775574,84.970673 188.084778,84.988022 
	C200.211594,85.027641 212.338654,85.000572 225.453461,85.000496 
M421.499817,55.866783 
	C427.309601,55.866508 433.125061,55.707012 438.927399,55.914906 
	C443.821655,56.090260 444.809021,53.371387 444.691101,49.304581 
	C444.579346,45.449684 445.262207,41.347046 439.284668,41.390545 
	C425.839905,41.488392 412.392761,41.522205 398.949005,41.370319 
	C393.399506,41.307621 393.503174,44.797112 393.506744,48.691074 
	C393.510376,52.639076 393.586670,56.082207 399.088318,55.917976 
	C406.219666,55.705093 413.362213,55.866375 421.499817,55.866783 
M400.703430,71.001854 
	C394.001160,71.075882 393.644745,71.432777 393.652985,78.061447 
	C393.661133,84.611694 394.047943,84.993675 400.827484,84.996361 
	C414.827301,85.001892 428.827118,85.015617 442.826874,84.989243 
	C448.366180,84.978813 448.936829,84.271713 448.928406,77.915291 
	C448.920166,71.707741 448.326996,71.018066 442.656952,71.008987 
	C428.990509,70.987106 415.324005,71.001907 400.703430,71.001854 
M199.509521,41.417721 
	C195.857651,41.417873 192.205246,41.379112 188.554016,41.427116 
	C182.795425,41.502827 182.150970,42.271397 182.171265,48.782063 
	C182.190308,54.891338 182.960281,55.836941 188.368195,55.853607 
	C201.315628,55.893505 214.265564,55.724731 227.209641,55.936573 
	C232.254730,56.019138 233.405594,53.653843 233.283585,49.200676 
	C233.092072,42.211971 232.793594,41.482639 227.397156,41.438133 
	C218.434082,41.364204 209.469940,41.418022 199.509521,41.417721 
M411.670227,96.374809 
	C412.203033,101.069588 415.125275,102.888161 419.537933,102.898804 
	C423.367554,102.908043 427.249695,102.539505 431.002106,103.078903 
	C432.603760,103.309128 433.934662,105.423004 435.388611,106.680939 
	C434.155823,108.014198 433.010742,110.383827 431.674683,110.496910 
	C426.559692,110.929825 421.382324,110.676735 416.231445,110.550232 
	C415.760040,110.538651 415.311310,109.604866 413.654602,107.781181 
	C421.022522,107.781181 426.894257,107.781181 432.765961,107.781181 
	C432.735352,107.214165 432.704742,106.647141 432.674103,106.080124 
	C425.790039,106.080124 418.905975,106.080124 411.985199,106.080124 
	C411.507751,111.891304 412.894165,113.518875 418.648926,113.595062 
	C422.477875,113.645760 426.308533,113.643127 430.137543,113.595100 
	C435.315887,113.530167 438.193390,111.077744 438.178375,106.832130 
	C438.163116,102.520134 435.330536,100.040634 430.218323,99.961021 
	C426.223267,99.898811 422.193573,100.211174 418.249176,99.754143 
	C416.884613,99.596031 414.861572,97.719154 414.721893,96.452782 
	C414.579346,95.160614 416.321808,92.487282 417.342102,92.435127 
	C422.939056,92.149048 428.568481,92.460831 434.183167,92.664711 
	C434.471283,92.675171 434.726715,93.584229 435.615967,95.196472 
	C428.854004,95.196472 422.972504,95.196472 417.091003,95.196472 
	C417.117401,95.696442 417.143829,96.196411 417.170258,96.696381 
	C424.099365,96.696381 431.028503,96.696381 437.972839,96.696381 
	C438.202484,90.880180 436.700806,89.180054 431.086945,89.108902 
	C427.091492,89.058250 423.087677,88.955002 419.100677,89.147133 
	C415.035645,89.343018 412.068848,91.101501 411.670227,96.374809 
M587.939026,113.603119 
	C591.933838,113.601974 595.931946,113.701180 599.922607,113.572090 
	C604.095337,113.437119 607.044128,110.490486 606.993164,106.772537 
	C606.941833,103.028091 604.009827,100.118805 599.869446,99.981285 
	C595.878967,99.848747 591.822632,100.344513 587.912537,99.768105 
	C586.170105,99.511230 584.715271,97.302681 583.129944,95.979950 
	C584.737488,94.670952 586.222900,92.472763 587.977173,92.231712 
	C592.061401,91.670479 596.278442,91.959740 600.434326,92.109428 
	C601.627563,92.152397 602.795654,92.895271 603.975281,93.317230 
	C603.894714,93.952797 603.814148,94.588356 603.733582,95.223923 
	C597.762329,95.223923 591.791077,95.223923 585.819763,95.223923 
	C585.868713,95.745003 585.917664,96.266090 585.966614,96.787170 
	C592.908142,96.787170 599.849609,96.787170 606.796570,96.787170 
	C606.894287,90.844681 605.382263,89.179893 599.769897,89.110878 
	C595.775818,89.061752 591.773682,88.963310 587.787537,89.151154 
	C583.108948,89.371651 580.136536,92.257317 580.218201,96.130089 
	C580.299500,99.991783 583.366638,102.736870 587.966003,102.877045 
	C591.458313,102.983475 594.956421,102.919159 598.451721,102.895676 
	C601.300171,102.876541 604.079895,103.120941 604.004333,106.890221 
	C603.937317,110.238159 601.398804,110.743240 598.717407,110.758324 
	C594.722778,110.780792 590.725891,110.831429 586.734436,110.715706 
	C585.661865,110.684616 584.605530,110.094398 583.541809,109.760849 
	C583.590149,109.343056 583.638428,108.925270 583.686768,108.507477 
	C589.505798,107.604233 595.659119,108.976677 601.434937,107.779198 
	C601.377747,107.173691 601.320557,106.568192 601.263306,105.962692 
	C594.328308,105.962692 587.393250,105.962692 580.446411,105.962692 
	C580.400085,111.942009 581.373474,113.039497 587.939026,113.603119 
M462.486115,82.193375 
	C465.642334,83.180466 468.751282,84.409607 471.977203,85.039772 
	C473.335907,85.305176 475.527405,84.782562 476.329254,83.796196 
	C479.161285,80.312584 476.333435,72.759857 472.229797,70.703888 
	C469.552795,69.362671 465.760681,67.334618 465.294525,65.040024 
	C463.903625,58.193672 459.461365,58.668320 454.513336,58.775639 
	C450.848572,58.855129 449.392731,60.262623 449.829803,63.972607 
	C450.778381,72.024315 454.981934,77.811310 462.486115,82.193375 
M508.969299,33.413467 
	C506.841248,21.857082 500.058777,14.820563 488.986877,13.024380 
	C487.407440,12.768143 485.090302,13.037097 484.082550,14.037789 
	C481.132111,16.967659 483.681091,24.953304 487.208282,27.006201 
	C489.970490,28.613852 491.981842,31.493364 494.380463,33.750786 
	C495.788574,35.075977 497.349915,37.396935 498.758057,37.335575 
	C502.283905,37.181950 507.003052,39.739193 508.969299,33.413467 
M514.047729,102.827438 
	C513.664612,101.715172 513.281433,100.602905 512.898315,99.490639 
	C512.308167,100.612106 511.420624,101.678627 511.200806,102.868515 
	C510.906036,104.463989 511.127838,106.154877 511.127838,108.188179 
	C514.568726,108.188179 517.722107,108.367203 520.846436,108.142845 
	C524.749573,107.862595 526.950012,105.445236 526.997925,101.619652 
	C527.045837,97.798500 524.909485,95.158562 521.029541,94.914680 
	C516.092407,94.604347 511.121002,94.839523 506.035767,94.839523 
	C506.035767,101.160095 506.035767,107.115784 506.035767,113.387993 
	C507.653595,113.463509 509.115784,113.604713 510.575867,113.585739 
	C514.400269,113.536041 518.262268,113.725883 522.039062,113.255829 
	C528.528442,112.448151 532.513672,107.623413 532.398621,101.328522 
	C532.286987,95.220222 527.892273,89.886597 521.861206,89.301956 
	C517.239624,88.853958 512.543945,89.058525 507.887512,89.191811 
	C507.102203,89.214294 506.348633,90.347633 505.580414,90.967720 
	C510.747742,92.049217 515.382874,91.933434 520.009827,92.079124 
	C525.540710,92.253273 529.685303,96.392693 529.700989,101.493950 
	C529.716797,106.633148 525.580811,110.624115 519.980774,110.753021 
	C516.371155,110.836098 512.758118,110.768623 508.982910,110.768623 
	C508.982910,106.030807 508.982910,101.772156 508.982910,97.244492 
	C512.912170,97.244492 516.575500,97.027512 520.200562,97.306625 
	C523.697815,97.575890 525.392700,101.276276 523.456238,103.843155 
	C521.822205,106.009117 516.430786,105.934761 514.047729,102.827438 
M328.416107,59.831894 
	C320.750977,59.864830 320.750153,59.864830 320.741486,67.593544 
	C320.738312,70.411804 320.739227,73.230072 320.739777,76.048332 
	C320.741516,84.711845 321.453186,85.307823 330.026459,84.876678 
	C333.546844,84.699654 335.120972,83.198967 335.029358,79.637711 
	C334.905792,74.833298 334.855774,70.017570 335.044769,65.217361 
	C335.209564,61.031010 333.274384,59.465687 328.416107,59.831894 
M452.103424,94.758301 
	C450.121582,94.469803 448.139740,94.181297 446.157898,93.892799 
	C446.227722,93.391670 446.297516,92.890533 446.367340,92.389404 
	C453.193939,92.389404 460.020538,92.389404 466.847168,92.389404 
	C466.965912,92.705803 467.084656,93.022209 467.203430,93.338608 
	C465.773529,94.231186 464.343658,95.123756 462.913757,96.016335 
	C462.999146,96.291008 463.084534,96.565689 463.169922,96.840363 
	C465.337341,96.840363 467.504761,96.840363 469.545715,96.840363 
	C469.545715,94.252151 469.545715,91.838364 469.545715,89.329712 
	C460.631989,89.329712 452.057373,89.329712 443.250366,89.329712 
	C443.250366,91.990959 443.250366,94.421326 443.250366,97.186127 
	C446.122253,97.186127 448.914368,97.186127 452.263428,97.186127 
	C452.263428,102.733170 452.263428,107.957443 452.263428,113.166901 
	C455.356171,113.166901 457.877777,113.166901 460.358643,113.166901 
	C461.279755,98.564812 460.922546,95.850044 458.074738,95.151436 
	C456.798401,100.208878 459.270111,105.845482 455.848572,110.625122 
	C455.101776,106.448349 455.254852,102.328163 455.006317,98.232353 
	C454.933929,97.039719 453.714722,95.916672 452.103424,94.758301 
M519.305176,26.578396 
	C521.526611,25.635330 525.498169,24.900732 525.639954,23.709936 
	C526.058350,20.197826 526.031860,14.205029 524.230774,13.366020 
	C520.578857,11.664820 515.510315,12.096086 511.321594,13.007651 
	C510.060120,13.282175 509.506195,18.005993 509.105408,20.761059 
	C508.481293,25.051432 510.752808,26.863745 514.939697,26.587965 
	C516.095581,26.511827 517.260742,26.577751 519.305176,26.578396 
M575.227173,99.987762 
	C573.906433,93.233452 569.713074,89.010193 563.569824,88.247231 
	C558.110474,87.569221 552.091248,91.028267 549.964050,96.297379 
	C547.932373,101.329994 548.590576,106.092102 552.244324,110.198975 
	C556.041626,114.467270 561.735840,115.995506 566.701477,113.909363 
	C572.435852,111.500214 575.632996,107.221397 575.227173,99.987762 
M544.071899,90.795494 
	C541.596619,90.009926 539.121399,89.224365 536.129883,88.274971 
	C536.129883,97.401100 536.129883,105.274277 536.129883,113.115768 
	C542.860229,114.095093 543.110901,114.022469 543.644714,111.027771 
	C542.095276,110.793770 540.545837,110.559769 539.536438,110.407326 
	C539.536438,104.009682 539.536438,98.030167 539.536438,92.050652 
	C540.081482,92.070770 540.626587,92.090889 541.171631,92.111008 
	C541.171631,94.964699 541.171692,97.818398 541.171692,100.672089 
	C541.171814,107.127777 541.171753,107.127777 544.083252,108.188087 
	C544.083252,102.601082 544.083252,97.171532 544.071899,90.795494 
z"/>
<path fill="#035D5A" opacity="1.000000" stroke="none" 
	d="
M59.399994,119.000000 
	C54.948784,115.006905 49.727379,113.488052 44.470612,111.918327 
	C41.826778,111.128853 41.048538,109.163330 43.448837,107.244827 
	C45.717983,105.431137 45.890942,104.210663 43.597294,102.238800 
	C42.909004,101.647072 42.851208,99.003944 43.510654,98.401054 
	C45.811249,96.297760 45.594379,95.020828 43.371994,92.967430 
	C42.280071,91.958527 42.317024,89.727844 41.560455,87.049400 
	C35.521782,80.281059 30.971106,88.960861 25.090506,90.327713 
	C23.222847,88.360428 21.204361,86.234276 18.678432,83.573601 
	C20.572906,81.426346 22.527899,79.032288 24.676144,76.826439 
	C26.763710,74.682892 26.726997,72.973923 25.675756,69.937645 
	C23.370695,63.279957 20.101646,59.400089 12.503735,60.670662 
	C9.613415,61.154003 8.355357,59.253422 8.259221,56.497448 
	C8.195508,54.670948 8.080447,52.846237 7.964799,50.553333 
	C10.311907,49.947205 12.603930,49.196739 14.955189,48.782513 
	C19.280556,48.020500 21.758947,46.232655 22.399637,41.257126 
	C22.782955,38.280338 22.636652,36.703568 20.252495,35.106998 
	C18.072952,33.647449 16.084492,31.902559 13.858329,30.163507 
	C15.613191,27.215311 17.269070,24.433409 18.840733,21.792990 
	C23.433836,23.105446 28.008261,25.880619 31.865011,25.101805 
	C35.723358,24.322666 38.864288,19.990826 42.727573,16.888784 
	C42.128101,13.654002 41.389565,9.668799 40.626419,5.550809 
	C43.903111,4.298028 46.755226,3.207573 49.901161,2.004782 
	C51.115162,4.284095 52.580193,6.324290 53.333946,8.600066 
	C54.832928,13.125864 57.719387,14.419807 62.319851,14.138942 
	C65.337669,13.954700 67.038132,13.113976 68.528580,10.474157 
	C73.009102,2.538458 73.126030,2.604476 82.346855,6.682544 
	C75.943130,16.718548 83.156128,22.052593 90.551476,27.594341 
	C91.139259,27.425026 92.389366,27.150591 93.577347,26.709013 
	C102.233131,23.491621 102.229179,23.480997 106.292816,32.601391 
	C103.602219,34.716187 100.621536,36.756535 98.051750,39.224693 
	C96.994087,40.240528 95.936111,42.590912 96.415344,43.614902 
	C97.710587,46.382442 94.994858,51.053967 100.322090,51.989948 
	C102.872665,52.438084 105.328560,53.425053 108.216621,54.283722 
	C107.852234,57.740768 107.508682,61.000126 107.085693,65.013123 
	C97.243103,62.953671 89.772133,65.115677 88.037994,77.392387 
	C91.701241,81.330681 99.515602,86.304413 89.698471,93.931152 
	C87.224442,92.548500 84.370537,90.953552 81.908447,89.577576 
	C80.886574,90.856438 79.581306,91.860916 79.189857,93.144157 
	C78.733269,94.640961 78.394676,97.015030 79.207825,97.888252 
	C81.081726,99.900589 81.677078,101.077347 79.254601,103.080780 
	C78.646118,103.583992 78.851044,106.173592 79.586327,106.987350 
	C81.610298,109.227303 81.446068,110.942207 78.789436,111.897560 
	C74.269707,113.522926 69.255783,113.938293 65.802444,117.932487 
	C65.392532,118.406593 64.212860,118.215179 63.195004,118.666122 
	C61.933331,119.000000 60.866661,119.000000 59.399994,119.000000 
M85.801598,57.982452 
	C89.797157,47.814938 88.241730,38.307354 81.186600,30.244841 
	C73.986336,22.016472 64.103539,19.199999 53.705158,21.418856 
	C35.427021,25.319136 27.600363,46.720600 39.248959,62.058159 
	C45.052349,69.699417 49.892895,76.937943 48.996204,86.769760 
	C57.320858,86.769760 65.055405,86.769760 72.957787,86.769760 
	C73.007645,85.695724 73.111702,84.886513 73.072128,84.084396 
	C72.688583,76.309753 74.049004,69.414757 81.055717,64.467361 
	C83.002113,63.093033 83.802788,60.096069 85.068024,57.898239 
	C85.068024,57.898239 85.019402,57.964249 85.801598,57.982452 
M56.283901,101.019730 
	C53.594421,101.322815 50.904945,101.625893 48.215466,101.928970 
	C53.411121,105.517136 58.469246,105.464622 63.756851,102.383530 
	C61.339722,101.921356 59.236355,101.519173 56.283901,101.019730 
M54.560326,92.934601 
	C52.706856,93.031250 50.853390,93.127899 48.999920,93.224541 
	C53.741886,97.704460 58.658104,95.272438 63.587589,93.694130 
	C60.879894,93.423752 58.172203,93.153366 54.560326,92.934601 
z"/>
<path fill="#E10752" opacity="1.000000" stroke="none" 
	d="
M266.897949,56.034279 
	C267.895905,58.522594 268.771088,60.648315 269.987579,63.603054 
	C270.841034,61.882759 271.436859,60.867836 271.866821,59.786938 
	C277.580780,45.422993 283.256744,31.043917 288.977081,16.682518 
	C290.661407,12.453859 300.137604,9.964603 303.217438,13.307213 
	C304.298279,14.480276 304.149109,17.656748 303.435669,19.477163 
	C296.946320,36.035843 290.206360,52.496292 283.543427,68.986992 
	C281.986542,72.840302 280.194427,76.621635 278.962067,80.576782 
	C277.628662,84.856308 274.982666,86.102219 270.717285,85.948036 
	C266.542969,85.797150 263.225555,85.772041 261.313354,80.794746 
	C254.578613,63.265133 247.349976,45.925247 240.304077,28.515255 
	C239.688187,26.993433 239.038376,25.485334 238.621536,24.489702 
	C235.790588,25.232218 233.266449,26.435661 230.726334,26.470383 
	C216.896927,26.659422 203.063553,26.581814 189.231628,26.550848 
	C183.120773,26.537169 182.179520,25.494141 182.187881,19.117416 
	C182.196014,12.911249 182.899597,12.095392 189.005936,12.167192 
	C204.803268,12.352941 220.599075,12.783037 236.396271,12.824263 
	C247.191864,12.852435 257.987793,12.322507 268.785370,12.176514 
	C274.393768,12.100684 274.997772,12.909673 275.011047,19.150028 
	C275.025360,25.868172 274.527344,26.481857 268.712402,26.549290 
	C264.571533,26.597313 260.429657,26.558609 255.163315,26.558609 
	C259.227386,36.748035 263.001282,46.209862 266.897949,56.034279 
z"/>
<path fill="#E00450" opacity="1.000000" stroke="none" 
	d="
M156.154343,82.297745 
	C148.603073,83.310989 141.416229,84.389503 134.189117,84.926743 
	C128.892609,85.320450 123.543137,85.026253 118.217491,84.997498 
	C112.546181,84.966888 112.001221,84.336975 111.997932,78.057350 
	C111.994583,71.653320 112.504616,71.028702 118.103920,71.004852 
	C126.425323,70.969398 134.747131,70.955208 143.068451,70.995155 
	C150.010803,71.028481 155.135803,67.902252 158.830276,62.175198 
	C164.489883,53.401810 163.277756,39.682693 156.332214,31.928186 
	C152.155243,27.264717 146.699020,26.292274 140.944092,26.200434 
	C133.123795,26.075630 125.294006,25.980577 117.479927,26.232912 
	C112.343513,26.398777 111.889351,23.494902 111.948448,19.536612 
	C112.006065,15.677732 111.711037,11.979467 117.318512,12.131767 
	C126.956169,12.393527 136.682434,11.738537 146.220551,12.810931 
	C163.827026,14.790468 174.455261,26.148163 176.591660,43.795898 
	C178.606201,60.437050 170.769363,75.390915 156.154343,82.297745 
z"/>
<path fill="#E0034F" opacity="1.000000" stroke="none" 
	d="
M380.490601,12.217592 
	C381.990112,13.886513 383.960449,15.503005 383.976715,17.138929 
	C384.185425,38.126202 384.090149,59.116318 384.141754,80.105537 
	C384.149445,83.246300 382.720856,84.583679 379.696930,84.860054 
	C373.728882,85.405495 369.317596,84.167625 365.417847,78.557915 
	C351.834137,59.017998 337.481354,40.013832 323.565735,20.701698 
	C322.246674,18.871120 321.941620,16.309889 321.165833,14.087860 
	C323.444580,13.444862 325.690704,12.625090 328.009094,12.196731 
	C332.443146,11.377475 335.356445,13.322886 337.994629,17.016270 
	C348.147980,31.230577 358.626038,45.212948 369.927490,60.564751 
	C369.927490,56.687450 369.927490,54.167477 369.927490,51.647507 
	C369.927490,40.986248 369.924103,30.324986 369.928680,19.663729 
	C369.931854,12.346766 370.122101,12.163884 377.554657,12.159794 
	C378.387512,12.159336 379.220398,12.169147 380.490601,12.217592 
z"/>
<path fill="#E10551" opacity="1.000000" stroke="none" 
	d="
M472.169739,12.385390 
	C476.144196,12.156427 477.297272,14.305365 477.005188,17.387989 
	C476.691132,20.702507 478.817932,25.087847 473.392426,26.421747 
	C472.110443,26.736935 470.549652,26.936325 469.702118,27.778038 
	C468.172180,29.297455 466.228943,31.195009 466.084381,33.060616 
	C465.971252,34.520786 468.019470,37.048054 469.618622,37.588490 
	C477.307465,40.186985 485.201111,42.170692 492.961914,44.567413 
	C500.839264,47.000118 507.891174,50.655537 510.088348,59.517860 
	C513.015991,71.326706 505.952942,81.600784 492.894806,84.895012 
	C484.175415,87.094688 482.309723,85.633064 483.234985,76.615692 
	C483.404785,74.961060 485.190582,73.184120 486.675354,72.042130 
	C487.901367,71.099159 490.162842,71.441223 491.292847,70.448318 
	C493.221405,68.753708 495.533386,66.616661 495.923615,64.360878 
	C496.181030,62.872890 493.702667,59.957569 491.845612,59.236942 
	C486.301422,57.085541 480.429749,55.795067 474.744263,53.985184 
	C470.648254,52.681267 466.543945,51.312481 462.623474,49.567879 
	C455.691681,46.483261 451.386322,41.355011 451.568939,33.364300 
	C451.766449,24.720333 455.899017,18.509806 463.719391,14.932933 
	C466.251129,13.774970 469.083862,13.275089 472.169739,12.385390 
z"/>
<path fill="#E10A54" opacity="1.000000" stroke="none" 
	d="
M540.231445,12.142147 
	C548.520081,12.142639 556.343689,12.312493 564.155640,12.084470 
	C569.425659,11.930643 570.070068,14.871139 570.032776,19.091648 
	C569.995850,23.269480 569.955261,26.851820 564.197083,26.615650 
	C558.597656,26.385988 552.981445,26.565779 546.871216,26.565779 
	C546.871216,35.672630 546.871277,44.281708 546.871216,52.890785 
	C546.871094,61.873882 546.916565,70.857307 546.852661,79.839943 
	C546.816711,84.883957 545.521667,85.867943 539.453308,85.857857 
	C533.451416,85.847870 532.176147,84.855209 532.165710,79.722214 
	C532.125122,59.759865 532.145203,39.797386 532.150940,19.834955 
	C532.152954,12.689096 532.636719,12.210882 540.231445,12.142147 
z"/>
<path fill="#E20D56" opacity="1.000000" stroke="none" 
	d="
M419.999939,26.581989 
	C413.005341,26.581848 406.510284,26.628288 400.016235,26.567902 
	C394.346649,26.515182 393.539886,25.533659 393.546417,19.141586 
	C393.552765,12.902674 394.159424,12.159513 399.765198,12.145940 
	C414.086548,12.111260 428.408112,12.111547 442.729462,12.146535 
	C448.326538,12.160209 448.948273,12.919003 448.954132,19.136517 
	C448.960083,25.448713 448.084351,26.518368 442.481567,26.566317 
	C435.154846,26.629019 427.827179,26.581984 419.999939,26.581989 
z"/>
<path fill="#E0024F" opacity="1.000000" stroke="none" 
	d="
M224.959534,85.000549 
	C212.338654,85.000572 200.211594,85.027641 188.084778,84.988022 
	C182.775574,84.970673 182.298264,84.145523 182.153336,77.691055 
	C182.055847,73.348465 183.048660,70.834351 188.208633,70.917274 
	C202.823654,71.152184 217.447220,71.149590 232.062515,70.922905 
	C237.606308,70.836937 237.680984,74.117920 237.711578,78.062820 
	C237.743027,82.119789 237.369492,85.534569 231.929260,85.032654 
	C229.787903,84.835098 227.613052,85.000420 224.959534,85.000549 
z"/>
<path fill="#E20D56" opacity="1.000000" stroke="none" 
	d="
M420.999878,55.866684 
	C413.362213,55.866375 406.219666,55.705093 399.088318,55.917976 
	C393.586670,56.082207 393.510376,52.639076 393.506744,48.691074 
	C393.503174,44.797112 393.399506,41.307621 398.949005,41.370319 
	C412.392761,41.522205 425.839905,41.488392 439.284668,41.390545 
	C445.262207,41.347046 444.579346,45.449684 444.691101,49.304581 
	C444.809021,53.371387 443.821655,56.090260 438.927399,55.914906 
	C433.125061,55.707012 427.309601,55.866508 420.999878,55.866684 
z"/>
<path fill="#E0014E" opacity="1.000000" stroke="none" 
	d="
M401.180481,71.001877 
	C415.324005,71.001907 428.990509,70.987106 442.656952,71.008987 
	C448.326996,71.018066 448.920166,71.707741 448.928406,77.915291 
	C448.936829,84.271713 448.366180,84.978813 442.826874,84.989243 
	C428.827118,85.015617 414.827301,85.001892 400.827484,84.996361 
	C394.047943,84.993675 393.661133,84.611694 393.652985,78.061447 
	C393.644745,71.432777 394.001160,71.075882 401.180481,71.001877 
z"/>
<path fill="#E20D56" opacity="1.000000" stroke="none" 
	d="
M200.007889,41.417877 
	C209.469940,41.418022 218.434082,41.364204 227.397156,41.438133 
	C232.793594,41.482639 233.092072,42.211971 233.283585,49.200676 
	C233.405594,53.653843 232.254730,56.019138 227.209641,55.936573 
	C214.265564,55.724731 201.315628,55.893505 188.368195,55.853607 
	C182.960281,55.836941 182.190308,54.891338 182.171265,48.782063 
	C182.150970,42.271397 182.795425,41.502827 188.554016,41.427116 
	C192.205246,41.379112 195.857651,41.417873 200.007889,41.417877 
z"/>
<path fill="#1B1B1B" opacity="1.000000" stroke="none" 
	d="
M411.669983,96.008003 
	C412.068848,91.101501 415.035645,89.343018 419.100677,89.147133 
	C423.087677,88.955002 427.091492,89.058250 431.086945,89.108902 
	C436.700806,89.180054 438.202484,90.880180 437.972839,96.696381 
	C431.028503,96.696381 424.099365,96.696381 417.170258,96.696381 
	C417.143829,96.196411 417.117401,95.696442 417.091003,95.196472 
	C422.972504,95.196472 428.854004,95.196472 435.615967,95.196472 
	C434.726715,93.584229 434.471283,92.675171 434.183167,92.664711 
	C428.568481,92.460831 422.939056,92.149048 417.342102,92.435127 
	C416.321808,92.487282 414.579346,95.160614 414.721893,96.452782 
	C414.861572,97.719154 416.884613,99.596031 418.249176,99.754143 
	C422.193573,100.211174 426.223267,99.898811 430.218323,99.961021 
	C435.330536,100.040634 438.163116,102.520134 438.178375,106.832130 
	C438.193390,111.077744 435.315887,113.530167 430.137543,113.595100 
	C426.308533,113.643127 422.477875,113.645760 418.648926,113.595062 
	C412.894165,113.518875 411.507751,111.891304 411.985199,106.080124 
	C418.905975,106.080124 425.790039,106.080124 432.674103,106.080124 
	C432.704742,106.647141 432.735352,107.214165 432.765961,107.781181 
	C426.894257,107.781181 421.022522,107.781181 413.654602,107.781181 
	C415.311310,109.604866 415.760040,110.538651 416.231445,110.550232 
	C421.382324,110.676735 426.559692,110.929825 431.674683,110.496910 
	C433.010742,110.383827 434.155823,108.014198 435.388611,106.680931 
	C433.934662,105.423004 432.603760,103.309128 431.002106,103.078903 
	C427.249695,102.539505 423.367554,102.908043 419.537933,102.898804 
	C415.125275,102.888161 412.203033,101.069588 411.669983,96.008003 
z"/>
<path fill="#1A1A1A" opacity="1.000000" stroke="none" 
	d="
M587.497437,113.602829 
	C581.373474,113.039497 580.400085,111.942009 580.446411,105.962692 
	C587.393250,105.962692 594.328308,105.962692 601.263306,105.962692 
	C601.320557,106.568192 601.377747,107.173691 601.434937,107.779198 
	C595.659119,108.976677 589.505798,107.604233 583.686768,108.507477 
	C583.638428,108.925270 583.590149,109.343056 583.541809,109.760849 
	C584.605530,110.094398 585.661865,110.684616 586.734436,110.715706 
	C590.725891,110.831429 594.722778,110.780792 598.717407,110.758324 
	C601.398804,110.743240 603.937317,110.238159 604.004333,106.890221 
	C604.079895,103.120941 601.300171,102.876541 598.451721,102.895676 
	C594.956421,102.919159 591.458313,102.983475 587.966003,102.877045 
	C583.366638,102.736870 580.299500,99.991783 580.218201,96.130089 
	C580.136536,92.257317 583.108948,89.371651 587.787537,89.151154 
	C591.773682,88.963310 595.775818,89.061752 599.769897,89.110878 
	C605.382263,89.179893 606.894287,90.844681 606.796570,96.787170 
	C599.849609,96.787170 592.908142,96.787170 585.966614,96.787170 
	C585.917664,96.266090 585.868713,95.745003 585.819763,95.223923 
	C591.791077,95.223923 597.762329,95.223923 603.733582,95.223923 
	C603.814148,94.588356 603.894714,93.952797 603.975281,93.317230 
	C602.795654,92.895271 601.627563,92.152397 600.434326,92.109428 
	C596.278442,91.959740 592.061401,91.670479 587.977173,92.231712 
	C586.222900,92.472763 584.737488,94.670952 583.129944,95.979935 
	C584.715271,97.302681 586.170105,99.511230 587.912537,99.768105 
	C591.822632,100.344513 595.878967,99.848747 599.869446,99.981285 
	C604.009827,100.118805 606.941833,103.028091 606.993164,106.772537 
	C607.044128,110.490486 604.095337,113.437119 599.922607,113.572090 
	C595.931946,113.701180 591.933838,113.601974 587.497437,113.602829 
z"/>
<path fill="#E10450" opacity="1.000000" stroke="none" 
	d="
M462.140747,82.047768 
	C454.981934,77.811310 450.778381,72.024315 449.829803,63.972607 
	C449.392731,60.262623 450.848572,58.855129 454.513336,58.775639 
	C459.461365,58.668320 463.903625,58.193672 465.294525,65.040024 
	C465.760681,67.334618 469.552795,69.362671 472.229797,70.703888 
	C476.333435,72.759857 479.161285,80.312584 476.329254,83.796196 
	C475.527405,84.782562 473.335907,85.305176 471.977203,85.039772 
	C468.751282,84.409607 465.642334,83.180466 462.140747,82.047768 
z"/>
<path fill="#E10853" opacity="1.000000" stroke="none" 
	d="
M508.970764,33.822548 
	C507.003052,39.739193 502.283905,37.181950 498.758057,37.335575 
	C497.349915,37.396935 495.788574,35.075977 494.380463,33.750786 
	C491.981842,31.493364 489.970490,28.613852 487.208282,27.006201 
	C483.681091,24.953304 481.132111,16.967659 484.082550,14.037789 
	C485.090302,13.037097 487.407440,12.768143 488.986877,13.024380 
	C500.058777,14.820563 506.841248,21.857082 508.970764,33.822548 
z"/>
<path fill="#191919" opacity="1.000000" stroke="none" 
	d="
M514.051147,103.270454 
	C516.430786,105.934761 521.822205,106.009117 523.456238,103.843155 
	C525.392700,101.276276 523.697815,97.575890 520.200562,97.306625 
	C516.575500,97.027512 512.912170,97.244492 508.982910,97.244492 
	C508.982910,101.772156 508.982910,106.030807 508.982910,110.768623 
	C512.758118,110.768623 516.371155,110.836098 519.980774,110.753021 
	C525.580811,110.624115 529.716797,106.633148 529.700989,101.493950 
	C529.685303,96.392693 525.540710,92.253273 520.009827,92.079124 
	C515.382874,91.933434 510.747742,92.049217 505.580414,90.967720 
	C506.348633,90.347633 507.102203,89.214294 507.887512,89.191811 
	C512.543945,89.058525 517.239624,88.853958 521.861206,89.301956 
	C527.892273,89.886597 532.286987,95.220222 532.398621,101.328522 
	C532.513672,107.623413 528.528442,112.448151 522.039062,113.255829 
	C518.262268,113.725883 514.400269,113.536041 510.575867,113.585739 
	C509.115784,113.604713 507.653595,113.463509 506.035767,113.387993 
	C506.035767,107.115784 506.035767,101.160095 506.035767,94.839523 
	C511.121002,94.839523 516.092407,94.604347 521.029541,94.914680 
	C524.909485,95.158562 527.045837,97.798500 526.997925,101.619652 
	C526.950012,105.445236 524.749573,107.862595 520.846436,108.142845 
	C517.722107,108.367203 514.568726,108.188179 511.127838,108.188179 
	C511.127838,106.154877 510.906036,104.463989 511.200806,102.868515 
	C511.420624,101.678627 512.308167,100.612106 512.898315,99.490639 
	C513.281433,100.602905 513.664612,101.715172 514.051147,103.270454 
z"/>
<path fill="#1A1A1A" opacity="1.000000" stroke="none" 
	d="
M480.411163,107.503990 
	C483.892487,110.837471 488.011658,111.810524 492.329926,109.792152 
	C496.473633,107.855377 498.209442,104.143250 498.108063,99.566635 
	C498.049042,96.902603 497.979919,94.227219 498.171173,91.575394 
	C498.239807,90.623878 499.058533,89.726463 500.554901,89.195145 
	C500.554901,94.078079 501.261414,99.092590 500.382477,103.811829 
	C499.187195,110.229553 493.030396,114.073837 486.616486,113.588387 
	C480.341644,113.113457 475.283539,108.120300 474.779968,101.472260 
	C474.480835,97.523148 474.725189,93.532860 474.725189,89.333389 
	C477.286072,89.333389 479.560944,89.333389 482.686493,89.333389 
	C482.686493,92.710876 482.697174,96.115028 482.683533,99.519073 
	C482.669495,103.012123 483.952728,105.472328 487.847565,105.336723 
	C491.619781,105.205376 492.940826,102.722900 492.949554,99.281784 
	C492.957916,95.976074 492.951324,92.670326 492.951324,89.063850 
	C494.020447,89.258797 495.147614,89.394737 495.143616,89.473526 
	C494.881592,94.659576 495.365356,100.090492 493.918915,104.944221 
	C492.753204,108.855919 488.075653,109.146339 482.602051,106.361877 
	C481.022217,101.304588 479.951447,96.733887 478.883148,92.173836 
	C476.002502,95.398819 476.709656,102.562019 480.411163,107.503990 
z"/>
<path fill="#E0034F" opacity="1.000000" stroke="none" 
	d="
M328.874268,59.832253 
	C333.274384,59.465687 335.209564,61.031010 335.044769,65.217361 
	C334.855774,70.017570 334.905792,74.833298 335.029358,79.637711 
	C335.120972,83.198967 333.546844,84.699654 330.026459,84.876678 
	C321.453186,85.307823 320.741516,84.711845 320.739777,76.048332 
	C320.739227,73.230072 320.738312,70.411804 320.741486,67.593544 
	C320.750153,59.864830 320.750977,59.864830 328.874268,59.832253 
z"/>
<path fill="#1D1D1D" opacity="1.000000" stroke="none" 
	d="
M452.562317,94.760017 
	C453.714722,95.916672 454.933929,97.039719 455.006317,98.232353 
	C455.254852,102.328163 455.101776,106.448349 455.848572,110.625122 
	C459.270111,105.845482 456.798401,100.208878 458.075134,95.151497 
	C460.922546,95.850044 461.279755,98.564812 460.358643,113.166901 
	C457.877777,113.166901 455.356171,113.166901 452.263428,113.166901 
	C452.263428,107.957443 452.263428,102.733170 452.263428,97.186127 
	C448.914368,97.186127 446.122253,97.186127 443.250366,97.186127 
	C443.250366,94.421326 443.250366,91.990959 443.250366,89.329712 
	C452.057373,89.329712 460.631989,89.329712 469.545715,89.329712 
	C469.545715,91.838364 469.545715,94.252151 469.545715,96.840363 
	C467.504761,96.840363 465.337341,96.840363 463.169922,96.840363 
	C463.084534,96.565689 462.999146,96.291008 462.913757,96.016335 
	C464.343658,95.123756 465.773529,94.231186 467.203430,93.338608 
	C467.084656,93.022209 466.965912,92.705803 466.847168,92.389404 
	C460.020538,92.389404 453.193939,92.389404 446.367340,92.389404 
	C446.297516,92.890533 446.227722,93.391670 446.157898,93.892799 
	C448.139740,94.181297 450.121582,94.469803 452.562317,94.760017 
z"/>
<path fill="#E10C55" opacity="1.000000" stroke="none" 
	d="
M518.863403,26.578445 
	C517.260742,26.577751 516.095581,26.511827 514.939697,26.587965 
	C510.752808,26.863745 508.481293,25.051432 509.105408,20.761059 
	C509.506195,18.005993 510.060120,13.282175 511.321594,13.007651 
	C515.510315,12.096086 520.578857,11.664820 524.230774,13.366020 
	C526.031860,14.205029 526.058350,20.197826 525.639954,23.709936 
	C525.498169,24.900732 521.526611,25.635330 518.863403,26.578445 
z"/>
<path fill="#161616" opacity="1.000000" stroke="none" 
	d="
M575.270752,100.367683 
	C575.632996,107.221397 572.435852,111.500214 566.701477,113.909363 
	C561.735840,115.995506 556.041626,114.467270 552.244324,110.198975 
	C548.590576,106.092102 547.932373,101.329994 549.964050,96.297379 
	C552.091248,91.028267 558.110474,87.569221 563.569824,88.247231 
	C569.713074,89.010193 573.906433,93.233452 575.270752,100.367683 
M564.786987,111.673843 
	C570.458557,109.283501 573.304382,105.258514 572.716187,100.459465 
	C572.101074,95.441345 568.515930,91.584206 563.908081,90.983032 
	C557.395874,90.133385 552.171326,94.196968 551.745544,100.442879 
	C551.250488,107.704948 555.851440,111.980537 564.786987,111.673843 
z"/>
<path fill="#1F1F1F" opacity="1.000000" stroke="none" 
	d="
M544.077576,91.268738 
	C544.083252,97.171532 544.083252,102.601082 544.083252,108.188087 
	C541.171753,107.127777 541.171814,107.127777 541.171692,100.672089 
	C541.171692,97.818398 541.171631,94.964699 541.171631,92.111008 
	C540.626587,92.090889 540.081482,92.070770 539.536438,92.050652 
	C539.536438,98.030167 539.536438,104.009682 539.536438,110.407326 
	C540.545837,110.559769 542.095276,110.793770 543.644165,111.031113 
	C543.110901,114.022469 542.860229,114.095093 536.129883,113.115768 
	C536.129883,105.274277 536.129883,97.401100 536.129883,88.274971 
	C539.121399,89.224365 541.596619,90.009926 544.077576,91.268738 
z"/>
<path fill="#FCFDFD" opacity="1.000000" stroke="none" 
	d="
M85.129089,57.843536 
	C83.802788,60.096069 83.002113,63.093033 81.055717,64.467361 
	C74.049004,69.414757 72.688583,76.309753 73.072128,84.084396 
	C73.111702,84.886513 73.007645,85.695724 72.957787,86.769760 
	C65.055405,86.769760 57.320858,86.769760 48.996204,86.769760 
	C49.892895,76.937943 45.052349,69.699417 39.248959,62.058159 
	C27.600363,46.720600 35.427021,25.319136 53.705158,21.418856 
	C64.103539,19.199999 73.986336,22.016472 81.186600,30.244841 
	C88.241730,38.307354 89.797157,47.814938 85.307465,57.652023 
	C81.248810,55.356991 77.861679,52.905479 74.082977,51.528690 
	C66.103424,48.621292 66.033340,48.851803 65.994141,40.585842 
	C65.983917,38.430954 66.196373,36.196522 65.710442,34.139442 
	C64.821564,30.376698 63.488243,26.718943 61.985786,21.874367 
	C55.131947,32.953224 57.692005,44.195618 54.887764,54.962719 
	C65.170357,56.052723 74.727623,60.690975 85.129089,57.843536 
z"/>
<path fill="#ECF3F3" opacity="1.000000" stroke="none" 
	d="
M56.708443,101.068359 
	C59.236355,101.519173 61.339722,101.921356 63.756851,102.383530 
	C58.469246,105.464622 53.411121,105.517136 48.215466,101.928970 
	C50.904945,101.625893 53.594421,101.322815 56.708443,101.068359 
z"/>
<path fill="#F8FAFA" opacity="1.000000" stroke="none" 
	d="
M55.012417,92.908791 
	C58.172203,93.153366 60.879894,93.423752 63.587589,93.694130 
	C58.658104,95.272438 53.741886,97.704460 48.999920,93.224541 
	C50.853390,93.127899 52.706856,93.031250 55.012417,92.908791 
z"/>
<path fill="#FEFDFD" opacity="1.000000" stroke="none" 
	d="
M480.970337,107.295929 
	C476.709656,102.562019 476.002502,95.398819 478.883148,92.173836 
	C479.951447,96.733887 481.022217,101.304588 482.320251,106.170250 
	C482.208160,106.672768 481.868835,106.880325 480.970337,107.295929 
z"/>
<path fill="#E8E8E8" opacity="1.000000" stroke="none" 
	d="
M564.397339,111.755966 
	C555.851440,111.980537 551.250488,107.704948 551.745544,100.442879 
	C552.171326,94.196968 557.395874,90.133385 563.908081,90.983032 
	C568.515930,91.584206 572.101074,95.441345 572.716187,100.459465 
	C573.304382,105.258514 570.458557,109.283501 564.397339,111.755966 
M557.860046,107.987114 
	C561.446411,109.904427 565.264465,110.131226 567.652649,106.718903 
	C569.122314,104.619072 570.013977,100.909111 569.148621,98.718834 
	C568.278687,96.516891 564.981995,94.129829 562.614990,93.983253 
	C560.222717,93.835114 556.873718,95.752815 555.363281,97.808502 
	C552.948120,101.095596 554.203003,104.735222 557.860046,107.987114 
z"/>
<path fill="#055E5B" opacity="1.000000" stroke="none" 
	d="
M85.098557,57.870888 
	C74.727623,60.690975 65.170357,56.052723 54.887764,54.962719 
	C57.692005,44.195618 55.131947,32.953224 61.985786,21.874367 
	C63.488243,26.718943 64.821564,30.376698 65.710442,34.139442 
	C66.196373,36.196522 65.983917,38.430954 65.994141,40.585842 
	C66.033340,48.851803 66.103424,48.621292 74.082977,51.528690 
	C77.861679,52.905479 81.248810,55.356991 84.916367,57.642921 
	C85.019402,57.964249 85.068024,57.898239 85.098557,57.870888 
z"/>
<path fill="#171717" opacity="1.000000" stroke="none" 
	d="
M557.528259,107.771057 
	C554.203003,104.735222 552.948120,101.095596 555.363281,97.808502 
	C556.873718,95.752815 560.222717,93.835114 562.614990,93.983253 
	C564.981995,94.129829 568.278687,96.516891 569.148621,98.718834 
	C570.013977,100.909111 569.122314,104.619072 567.652649,106.718903 
	C565.264465,110.131226 561.446411,109.904427 557.528259,107.771057 
M559.246033,105.741760 
	C562.200073,107.230400 565.123779,106.894829 566.515198,103.950516 
	C567.245667,102.404770 566.836487,99.024658 565.696655,98.205276 
	C564.125000,97.075500 560.867065,96.673447 559.239868,97.583633 
	C556.082458,99.349754 556.264832,102.429100 559.246033,105.741760 
z"/>
<path fill="#F6F6F6" opacity="1.000000" stroke="none" 
	d="
M558.926880,105.471848 
	C556.264832,102.429100 556.082458,99.349754 559.239868,97.583633 
	C560.867065,96.673447 564.125000,97.075500 565.696655,98.205276 
	C566.836487,99.024658 567.245667,102.404770 566.515198,103.950516 
	C565.123779,106.894829 562.200073,107.230400 558.926880,105.471848 
z"/>
</svg>