<svg width="174" height="26" viewBox="0 0 174 26" fill="none" xmlns="http://www.w3.org/2000/svg">
<path d="M20.1431 6.73293C19.7507 6.33102 19.1044 6.33102 18.712 6.73292L10.9532 14.6801C10.5609 15.082 9.91454 15.082 9.52217 14.6801L5.95463 11.026C5.56225 10.6241 4.91593 10.6241 4.52355 11.026L3.68201 11.888C3.30273 12.2765 3.30273 12.8966 3.68201 13.2851L9.52217 19.2671C9.91454 19.669 10.5609 19.669 10.9532 19.2671L20.9847 8.99207C21.3639 8.60358 21.3639 7.98342 20.9847 7.59493L20.1431 6.73293Z" fill="#8E8E8E"/>
<path d="M45.6982 7.15039L41.3301 20H38.3594L34 7.15039H36.751L39.168 14.7969C39.209 14.9258 39.2764 15.1689 39.3701 15.5264C39.4639 15.8779 39.5576 16.2529 39.6514 16.6514C39.751 17.0439 39.8184 17.3691 39.8535 17.627C39.8887 17.3691 39.9502 17.0439 40.0381 16.6514C40.1318 16.2588 40.2227 15.8867 40.3105 15.5352C40.4043 15.1777 40.4717 14.9316 40.5127 14.7969L42.9473 7.15039H45.6982ZM51.165 9.98926C52.0732 9.98926 52.8555 10.165 53.5117 10.5166C54.168 10.8623 54.6748 11.3662 55.0322 12.0283C55.3896 12.6904 55.5684 13.499 55.5684 14.4541V15.7549H49.2314C49.2607 16.5107 49.4863 17.1055 49.9082 17.5391C50.3359 17.9668 50.9277 18.1807 51.6836 18.1807C52.3105 18.1807 52.8848 18.1162 53.4062 17.9873C53.9277 17.8584 54.4639 17.665 55.0146 17.4072V19.4814C54.5283 19.7217 54.0186 19.8975 53.4854 20.0088C52.958 20.1201 52.3164 20.1758 51.5605 20.1758C50.5762 20.1758 49.7031 19.9941 48.9414 19.6309C48.1855 19.2676 47.5908 18.7139 47.1572 17.9697C46.7295 17.2256 46.5156 16.2881 46.5156 15.1572C46.5156 14.0088 46.709 13.0537 47.0957 12.292C47.4883 11.5244 48.0332 10.9502 48.7305 10.5693C49.4277 10.1826 50.2393 9.98926 51.165 9.98926ZM51.1826 11.8965C50.6611 11.8965 50.2275 12.0635 49.8818 12.3975C49.542 12.7314 49.3457 13.2559 49.293 13.9707H53.0547C53.0488 13.5723 52.9756 13.2178 52.835 12.9072C52.7002 12.5967 52.4951 12.3506 52.2197 12.1689C51.9502 11.9873 51.6045 11.8965 51.1826 11.8965ZM63.2324 9.98926C63.3672 9.98926 63.5225 9.99805 63.6982 10.0156C63.8799 10.0273 64.0264 10.0449 64.1377 10.0684L63.9355 12.582C63.8477 12.5527 63.7217 12.5322 63.5576 12.5205C63.3994 12.5029 63.2617 12.4941 63.1445 12.4941C62.7988 12.4941 62.4619 12.5381 62.1338 12.626C61.8115 12.7139 61.5215 12.8574 61.2637 13.0566C61.0059 13.25 60.8008 13.5078 60.6484 13.8301C60.502 14.1465 60.4287 14.5361 60.4287 14.999V20H57.748V10.1738H59.7783L60.1738 11.8262H60.3057C60.499 11.4922 60.7393 11.1875 61.0264 10.9121C61.3193 10.6309 61.6504 10.4082 62.0195 10.2441C62.3945 10.0742 62.7988 9.98926 63.2324 9.98926ZM68.6025 10.1738V20H65.9219V10.1738H68.6025ZM67.2666 6.32422C67.665 6.32422 68.0078 6.41797 68.2949 6.60547C68.582 6.78711 68.7256 7.12988 68.7256 7.63379C68.7256 8.13184 68.582 8.47754 68.2949 8.6709C68.0078 8.8584 67.665 8.95215 67.2666 8.95215C66.8623 8.95215 66.5166 8.8584 66.2295 8.6709C65.9482 8.47754 65.8076 8.13184 65.8076 7.63379C65.8076 7.12988 65.9482 6.78711 66.2295 6.60547C66.5166 6.41797 66.8623 6.32422 67.2666 6.32422ZM76.8555 12.1865H74.5352V20H71.8545V12.1865H70.3779V10.8945L71.8545 10.1738V9.45312C71.8545 8.61523 71.9951 7.96484 72.2764 7.50195C72.5635 7.0332 72.9648 6.70508 73.4805 6.51758C74.002 6.32422 74.6172 6.22754 75.3262 6.22754C75.8477 6.22754 76.3223 6.27148 76.75 6.35938C77.1777 6.44141 77.5264 6.53516 77.7959 6.64062L77.1104 8.60938C76.9053 8.54492 76.6826 8.48633 76.4424 8.43359C76.2021 8.38086 75.9268 8.35449 75.6162 8.35449C75.2412 8.35449 74.9658 8.46875 74.79 8.69727C74.6201 8.91992 74.5352 9.20703 74.5352 9.55859V10.1738H76.8555V12.1865ZM81.083 10.1738V20H78.4023V10.1738H81.083ZM79.7471 6.32422C80.1455 6.32422 80.4883 6.41797 80.7754 6.60547C81.0625 6.78711 81.2061 7.12988 81.2061 7.63379C81.2061 8.13184 81.0625 8.47754 80.7754 8.6709C80.4883 8.8584 80.1455 8.95215 79.7471 8.95215C79.3428 8.95215 78.9971 8.8584 78.71 8.6709C78.4287 8.47754 78.2881 8.13184 78.2881 7.63379C78.2881 7.12988 78.4287 6.78711 78.71 6.60547C78.9971 6.41797 79.3428 6.32422 79.7471 6.32422ZM87.9561 9.98926C88.8643 9.98926 89.6465 10.165 90.3027 10.5166C90.959 10.8623 91.4658 11.3662 91.8232 12.0283C92.1807 12.6904 92.3594 13.499 92.3594 14.4541V15.7549H86.0225C86.0518 16.5107 86.2773 17.1055 86.6992 17.5391C87.127 17.9668 87.7188 18.1807 88.4746 18.1807C89.1016 18.1807 89.6758 18.1162 90.1973 17.9873C90.7188 17.8584 91.2549 17.665 91.8057 17.4072V19.4814C91.3193 19.7217 90.8096 19.8975 90.2764 20.0088C89.749 20.1201 89.1074 20.1758 88.3516 20.1758C87.3672 20.1758 86.4941 19.9941 85.7324 19.6309C84.9766 19.2676 84.3818 18.7139 83.9482 17.9697C83.5205 17.2256 83.3066 16.2881 83.3066 15.1572C83.3066 14.0088 83.5 13.0537 83.8867 12.292C84.2793 11.5244 84.8242 10.9502 85.5215 10.5693C86.2188 10.1826 87.0303 9.98926 87.9561 9.98926ZM87.9736 11.8965C87.4521 11.8965 87.0186 12.0635 86.6729 12.3975C86.333 12.7314 86.1367 13.2559 86.084 13.9707H89.8457C89.8398 13.5723 89.7666 13.2178 89.626 12.9072C89.4912 12.5967 89.2861 12.3506 89.0107 12.1689C88.7412 11.9873 88.3955 11.8965 87.9736 11.8965ZM97.6504 20.1758C96.5547 20.1758 95.6611 19.748 94.9697 18.8926C94.2842 18.0312 93.9414 16.7686 93.9414 15.1045C93.9414 13.4229 94.29 12.1514 94.9873 11.29C95.6846 10.4229 96.5957 9.98926 97.7207 9.98926C98.1895 9.98926 98.6025 10.0537 98.96 10.1826C99.3174 10.3115 99.625 10.4844 99.8828 10.7012C100.146 10.918 100.369 11.1611 100.551 11.4307H100.639C100.604 11.2432 100.56 10.9678 100.507 10.6045C100.46 10.2354 100.437 9.85742 100.437 9.4707V6.32422H103.126V20H101.069L100.551 18.7256H100.437C100.267 18.9951 100.053 19.2412 99.7949 19.4639C99.543 19.6807 99.2412 19.8535 98.8896 19.9824C98.5381 20.1113 98.125 20.1758 97.6504 20.1758ZM98.5908 18.04C99.3232 18.04 99.8389 17.8232 100.138 17.3896C100.442 16.9502 100.604 16.291 100.621 15.4121V15.1221C100.621 14.167 100.475 13.4375 100.182 12.9336C99.8887 12.4238 99.3438 12.1689 98.5469 12.1689C97.9551 12.1689 97.4922 12.4238 97.1582 12.9336C96.8242 13.4434 96.6572 14.1787 96.6572 15.1396C96.6572 16.1006 96.8242 16.8242 97.1582 17.3105C97.498 17.7969 97.9756 18.04 98.5908 18.04ZM114.561 7.15039C115.727 7.15039 116.688 7.29102 117.443 7.57227C118.205 7.85352 118.771 8.27832 119.14 8.84668C119.509 9.41504 119.693 10.1328 119.693 11C119.693 11.5859 119.582 12.0986 119.359 12.5381C119.137 12.9775 118.844 13.3496 118.48 13.6543C118.117 13.959 117.725 14.208 117.303 14.4014L121.082 20H118.059L114.991 15.0693H113.541V20H110.816V7.15039H114.561ZM114.367 9.38281H113.541V12.8545H114.42C115.322 12.8545 115.967 12.7051 116.354 12.4062C116.746 12.1016 116.942 11.6562 116.942 11.0703C116.942 10.4609 116.731 10.0273 116.31 9.76953C115.894 9.51172 115.246 9.38281 114.367 9.38281ZM126.54 9.98926C127.448 9.98926 128.23 10.165 128.887 10.5166C129.543 10.8623 130.05 11.3662 130.407 12.0283C130.765 12.6904 130.943 13.499 130.943 14.4541V15.7549H124.606C124.636 16.5107 124.861 17.1055 125.283 17.5391C125.711 17.9668 126.303 18.1807 127.059 18.1807C127.686 18.1807 128.26 18.1162 128.781 17.9873C129.303 17.8584 129.839 17.665 130.39 17.4072V19.4814C129.903 19.7217 129.394 19.8975 128.86 20.0088C128.333 20.1201 127.691 20.1758 126.936 20.1758C125.951 20.1758 125.078 19.9941 124.316 19.6309C123.561 19.2676 122.966 18.7139 122.532 17.9697C122.104 17.2256 121.891 16.2881 121.891 15.1572C121.891 14.0088 122.084 13.0537 122.471 12.292C122.863 11.5244 123.408 10.9502 124.105 10.5693C124.803 10.1826 125.614 9.98926 126.54 9.98926ZM126.558 11.8965C126.036 11.8965 125.603 12.0635 125.257 12.3975C124.917 12.7314 124.721 13.2559 124.668 13.9707H128.43C128.424 13.5723 128.351 13.2178 128.21 12.9072C128.075 12.5967 127.87 12.3506 127.595 12.1689C127.325 11.9873 126.979 11.8965 126.558 11.8965ZM135.461 20L131.717 10.1738H134.521L136.419 15.7725C136.524 16.1006 136.606 16.4463 136.665 16.8096C136.729 17.1729 136.773 17.498 136.797 17.7852H136.867C136.885 17.4746 136.926 17.1436 136.99 16.792C137.061 16.4404 137.151 16.1006 137.263 15.7725L139.152 10.1738H141.956L138.212 20H135.461ZM146.052 10.1738V20H143.371V10.1738H146.052ZM144.716 6.32422C145.114 6.32422 145.457 6.41797 145.744 6.60547C146.031 6.78711 146.175 7.12988 146.175 7.63379C146.175 8.13184 146.031 8.47754 145.744 8.6709C145.457 8.8584 145.114 8.95215 144.716 8.95215C144.312 8.95215 143.966 8.8584 143.679 8.6709C143.397 8.47754 143.257 8.13184 143.257 7.63379C143.257 7.12988 143.397 6.78711 143.679 6.60547C143.966 6.41797 144.312 6.32422 144.716 6.32422ZM152.925 9.98926C153.833 9.98926 154.615 10.165 155.271 10.5166C155.928 10.8623 156.435 11.3662 156.792 12.0283C157.149 12.6904 157.328 13.499 157.328 14.4541V15.7549H150.991C151.021 16.5107 151.246 17.1055 151.668 17.5391C152.096 17.9668 152.688 18.1807 153.443 18.1807C154.07 18.1807 154.645 18.1162 155.166 17.9873C155.688 17.8584 156.224 17.665 156.774 17.4072V19.4814C156.288 19.7217 155.778 19.8975 155.245 20.0088C154.718 20.1201 154.076 20.1758 153.32 20.1758C152.336 20.1758 151.463 19.9941 150.701 19.6309C149.945 19.2676 149.351 18.7139 148.917 17.9697C148.489 17.2256 148.275 16.2881 148.275 15.1572C148.275 14.0088 148.469 13.0537 148.855 12.292C149.248 11.5244 149.793 10.9502 150.49 10.5693C151.188 10.1826 151.999 9.98926 152.925 9.98926ZM152.942 11.8965C152.421 11.8965 151.987 12.0635 151.642 12.3975C151.302 12.7314 151.105 13.2559 151.053 13.9707H154.814C154.809 13.5723 154.735 13.2178 154.595 12.9072C154.46 12.5967 154.255 12.3506 153.979 12.1689C153.71 11.9873 153.364 11.8965 152.942 11.8965ZM167.585 20L166.829 16.5635C166.788 16.3584 166.721 16.0566 166.627 15.6582C166.533 15.2539 166.431 14.8232 166.319 14.3662C166.214 13.9033 166.114 13.4756 166.021 13.083C165.933 12.6904 165.868 12.4033 165.827 12.2217H165.748C165.707 12.4033 165.643 12.6904 165.555 13.083C165.467 13.4756 165.367 13.9033 165.256 14.3662C165.15 14.8291 165.051 15.2656 164.957 15.6758C164.863 16.0801 164.793 16.3877 164.746 16.5986L163.955 20H161.072L158.277 10.1738H160.949L162.083 14.5244C162.159 14.8291 162.232 15.1924 162.303 15.6143C162.373 16.0303 162.435 16.4346 162.487 16.8271C162.546 17.2139 162.59 17.5215 162.619 17.75H162.689C162.701 17.5801 162.725 17.3545 162.76 17.0732C162.801 16.792 162.845 16.502 162.892 16.2031C162.944 15.8984 162.991 15.626 163.032 15.3857C163.079 15.1396 163.114 14.9727 163.138 14.8848L164.351 10.1738H167.304L168.455 14.8848C168.496 15.0547 168.549 15.3242 168.613 15.6934C168.684 16.0625 168.745 16.4434 168.798 16.8359C168.851 17.2227 168.88 17.5273 168.886 17.75H168.956C168.979 17.5508 169.021 17.2549 169.079 16.8623C169.138 16.4697 169.205 16.0596 169.281 15.6318C169.363 15.1982 169.445 14.8291 169.527 14.5244L170.705 10.1738H173.333L170.503 20H167.585Z" fill="#8E8E8E"/>
</svg>
