<svg xmlns="http://www.w3.org/2000/svg" width="34" height="34" viewBox="0 0 34 34">
    <g fill="none" fill-rule="nonzero" transform="translate(2 2)">
        <circle cx="15" cy="15" r="15" fill="#FFF" stroke="#FFF" stroke-width="3"/>
        <g fill="#0052B4">
            <path d="M3.1 5.868a14.945 14.945 0 0 0-2.583 5.22H8.32L3.1 5.867zM29.483 11.087a14.947 14.947 0 0 0-2.584-5.22l-5.219 5.22h7.803zM.517 18.913a14.947 14.947 0 0 0 2.584 5.22l5.219-5.22H.517zM24.132 3.1A14.946 14.946 0 0 0 18.913.518V8.32l5.22-5.22zM5.868 26.9a14.947 14.947 0 0 0 5.219 2.583V21.68l-5.22 5.22zM11.087.517A14.947 14.947 0 0 0 5.867 3.1l5.22 5.219V.517zM18.913 29.483a14.947 14.947 0 0 0 5.22-2.584l-5.22-5.219v7.803zM21.68 18.913l5.22 5.22a14.946 14.946 0 0 0 2.583-5.22H21.68z"/>
        </g>
        <g fill="#D80027">
            <path d="M29.873 13.043H16.957V.127a15.15 15.15 0 0 0-3.914 0v12.916H.127a15.15 15.15 0 0 0 0 3.914h12.916v12.916a15.148 15.148 0 0 0 3.914 0V16.957h12.916a15.148 15.148 0 0 0 0-3.914z"/>
            <path d="M18.913 18.913l6.694 6.694c.307-.308.601-.63.881-.963l-5.73-5.73h-1.845zM11.087 18.913l-6.694 6.694c.308.307.63.601.963.881l5.73-5.73v-1.845zM11.087 11.087L4.393 4.393c-.307.308-.601.63-.881.963l5.73 5.731h1.845zM18.913 11.087l6.694-6.694a15.02 15.02 0 0 0-.963-.881l-5.73 5.73v1.845z"/>
        </g>
    </g>
</svg>
