<svg xmlns="http://www.w3.org/2000/svg" width="34" height="34" viewBox="0 0 34 34">
    <g fill="none" fill-rule="nonzero" transform="translate(2 2)">
        <circle cx="15" cy="15" r="15" fill="#FFF" stroke="#FFF" stroke-width="3"/>
        <g fill="#D80027">
            <path d="M14.348 15H30c0-1.354-.18-2.665-.517-3.913H14.348V15zM14.348 7.174h13.45a15.08 15.08 0 0 0-3.46-3.913h-9.99v3.913zM15 30c3.53 0 6.775-1.22 9.337-3.26H5.663A14.936 14.936 0 0 0 15 30zM2.202 22.826h25.596a14.91 14.91 0 0 0 1.685-3.913H.517a14.91 14.91 0 0 0 1.685 3.913z"/>
        </g>
        <path fill="#0052B4" d="M6.948 2.342h1.367l-1.271.924.485 1.495-1.271-.924-1.271.924.42-1.291c-1.12.932-2.102 2.025-2.91 3.242h.438l-.81.588c-.126.21-.247.424-.363.64l.387 1.19-.721-.523c-.18.38-.343.768-.49 1.164l.425 1.31h1.572l-1.272.924.486 1.495-1.271-.924-.762.554A15.145 15.145 0 0 0 0 15h15V0c-2.963 0-5.725.86-8.052 2.342zM7.53 13.5l-1.271-.924-1.271.924.485-1.495-1.271-.923h1.571l.486-1.495.486 1.495h1.571l-1.271.923.485 1.495zm-.485-5.864l.485 1.494-1.271-.923-1.271.923.485-1.494-1.271-.924h1.571l.486-1.495.486 1.495h1.571l-1.271.924zM12.91 13.5l-1.272-.924-1.271.924.486-1.495-1.272-.923h1.572l.485-1.495.486 1.495h1.572l-1.272.923.486 1.495zm-.486-5.864l.486 1.494-1.272-.923-1.271.923.486-1.494-1.272-.924h1.572l.485-1.495.486 1.495h1.572l-1.272.924zm0-4.37l.486 1.495-1.272-.924-1.271.924.486-1.495-1.272-.924h1.572l.485-1.494.486 1.494h1.572l-1.272.924z"/>
    </g>
</svg>
